# Created by Kenney (www.kenney.nl) 

mtllib cabinRoofCenter.mtl 

g cabinRoofCenter

v -0.7260144 0.4792595 -0.09 
v -0.7260144 0.5077915 -0.09 
v -0.7260144 0.4792595 1.09 
v -0.7260144 0.5077915 1.09 
v -1.102705 -0.09331021 -0.09 
v -1.102705 -0.0647782 -0.09 
v -1.102705 -0.09331021 1.09 
v -1.102705 -0.0647782 1.09 
v 0.08757784 -0.1331183 1.09 
v -0.5 0.76 1.09 
v 0.1027049 -0.09331021 1.09 
v 0.02736681 0.02120373 1.09 
v 0.1027049 -0.0647782 1.09 
v -0.04797131 0.1357177 1.09 
v 0.02736681 0.04973574 1.09 
v -0.1233094 0.2502316 1.09 
v -0.04797131 0.1642497 1.09 
v -0.1986475 0.3647455 1.09 
v -0.1233094 0.2787636 1.09 
v -0.2739857 0.4792595 1.09 
v -0.1986475 0.3932775 1.09 
v -0.2739857 0.5077915 1.09 
v -0.3493237 0.5937734 1.09 
v -0.3493237 0.6223054 1.09 
v -0.4246619 0.7082874 1.09 
v -0.4246619 0.7368194 1.09 
v -0.5 0.8228012 1.09 
v -0.5753381 0.7368194 1.09 
v -0.5753381 0.7082874 1.09 
v -0.6506762 0.6223054 1.09 
v -0.6506762 0.5937734 1.09 
v -0.8013524 0.3647455 1.09 
v -0.8766906 0.2502316 1.09 
v -0.9520287 0.1357177 1.09 
v -1.027367 0.02120373 1.09 
v -1.087578 -0.1331183 1.09 
v -1.027367 0.04973574 1.09 
v -0.9520287 0.1642497 1.09 
v -0.8766906 0.2787636 1.09 
v -0.8013524 0.3932775 1.09 
v -1.027367 0.02120373 -0.09 
v -1.027367 0.04973574 -0.09 
v -1.087578 -0.1331183 -0.09 
v -0.8013524 0.3647455 -0.09 
v -0.8013524 0.3932775 -0.09 
v -0.5753381 0.7082874 -0.09 
v -0.5753381 0.7368194 -0.09 
v -0.5 0.76 -0.09 
v -0.9520287 0.1357177 -0.09 
v -0.9520287 0.1642497 -0.09 
v -0.8766906 0.2502316 -0.09 
v -0.8766906 0.2787636 -0.09 
v -0.6506762 0.5937734 -0.09 
v -0.6506762 0.6223054 -0.09 
v -0.2739857 0.5077915 -0.09 
v -0.2739857 0.4792595 -0.09 
v 0.1027049 -0.09331021 -0.09 
v 0.08757784 -0.1331183 -0.09 
v -0.1233094 0.2787636 -0.09 
v -0.1233094 0.2502316 -0.09 
v 0.1027049 -0.0647782 -0.09 
v -0.5 0.8228012 -0.09 
v -0.4246619 0.7368194 -0.09 
v -0.4246619 0.7082874 -0.09 
v -0.3493237 0.6223054 -0.09 
v -0.3493237 0.5937734 -0.09 
v -0.1986475 0.3647455 -0.09 
v -0.04797131 0.1357177 -0.09 
v 0.02736681 0.02120373 -0.09 
v 0.02736681 0.04973574 -0.09 
v -0.04797131 0.1642497 -0.09 
v -0.1986475 0.3932775 -0.09 

vn -1 0 0 
vn 0 0 1 
vn -0.9347836 -0.3552178 0 
vn 0.8354172 -0.5496165 0 
vn 1 0 0 
vn 0.9347836 -0.3552178 0 
vn 0 0 -1 
vn -0.8354172 -0.5496165 0 
vn -0.752126 0.6590194 0 
vn 0.752126 0.6590194 0 

vt -3.543307 18.86848 
vt -3.543307 19.99179 
vt 42.91339 18.86848 
vt 42.91339 19.99179 
vt -3.543307 -3.67363 
vt -3.543307 -2.550323 
vt 42.91339 -3.67363 
vt 42.91339 -2.550323 
vt 3.447947 -5.240879 
vt -19.68504 29.92126 
vt 4.043501 -3.67363 
vt 1.077433 0.8347924 
vt 4.043501 -2.550323 
vt -1.888634 5.343215 
vt 1.077433 1.9581 
vt -4.854702 9.851638 
vt -1.888634 6.466523 
vt -7.820769 14.36006 
vt -4.854702 10.97495 
vt -10.78684 18.86848 
vt -7.820769 15.48337 
vt -10.78684 19.99179 
vt -13.7529 23.37691 
vt -13.7529 24.50021 
vt -16.71897 27.88533 
vt -16.71897 29.00864 
vt -19.68504 32.39375 
vt -22.65111 29.00864 
vt -22.65111 27.88533 
vt -25.61717 24.50021 
vt -25.61717 23.37691 
vt -28.58324 19.99179 
vt -28.58324 18.86848 
vt -31.54931 14.36006 
vt -34.51538 9.851638 
vt -37.48145 5.343215 
vt -40.44751 0.8347924 
vt -43.41358 -3.67363 
vt -42.81802 -5.240879 
vt -43.41358 -2.550323 
vt -40.44751 1.9581 
vt -37.48145 6.466523 
vt -34.51538 10.97495 
vt -31.54931 15.48337 
vt -3.543307 0.8347924 
vt -3.543307 1.9581 
vt 42.91339 0.8347924 
vt 42.91339 1.9581 
vt -3.543307 10.31064 
vt -3.543307 11.98723 
vt 42.91339 10.31064 
vt 42.91339 11.98723 
vt -3.543307 14.36006 
vt -3.543307 15.48337 
vt 42.91339 14.36006 
vt 42.91339 15.48337 
vt -3.543307 27.88533 
vt -3.543307 29.00864 
vt 42.91339 27.88533 
vt 42.91339 29.00864 
vt 3.543307 14.17751 
vt 3.543307 -27.91181 
vt -42.91339 14.17751 
vt -42.91339 -27.91181 
vt -3.543307 5.343215 
vt -3.543307 6.466523 
vt 42.91339 5.343215 
vt 42.91339 6.466523 
vt -3.543307 9.851638 
vt -3.543307 10.97495 
vt 42.91339 9.851638 
vt 42.91339 10.97495 
vt -3.543307 23.37691 
vt -3.543307 24.50021 
vt 42.91339 23.37691 
vt 42.91339 24.50021 
vt 3.543307 19.99179 
vt 3.543307 18.86848 
vt -42.91339 19.99179 
vt -42.91339 18.86848 
vt 3.543307 -1.997726 
vt 3.543307 -3.674315 
vt -42.91339 -1.997726 
vt -42.91339 -3.674315 
vt 3.543307 10.97495 
vt 3.543307 9.851638 
vt -42.91339 10.97495 
vt -42.91339 9.851638 
vt 3.543307 -2.550323 
vt 3.543307 -3.67363 
vt -42.91339 -2.550323 
vt -42.91339 -3.67363 
vt 42.81802 -5.240879 
vt 19.68504 29.92126 
vt 43.41358 -3.67363 
vt 40.44751 0.8347924 
vt 43.41358 -2.550323 
vt 37.48145 5.343215 
vt 40.44751 1.9581 
vt 34.51538 9.851638 
vt 37.48145 6.466523 
vt 31.54931 14.36006 
vt 34.51538 10.97495 
vt 28.58324 18.86848 
vt 31.54931 15.48337 
vt 28.58324 19.99179 
vt 25.61717 23.37691 
vt 25.61717 24.50021 
vt 22.65111 27.88533 
vt 22.65111 29.00864 
vt 19.68504 32.39375 
vt 16.71897 29.00864 
vt 16.71897 27.88533 
vt 13.7529 24.50021 
vt 13.7529 23.37691 
vt 10.78684 19.99179 
vt 10.78684 18.86848 
vt 7.820769 14.36006 
vt 4.854702 9.851638 
vt 1.888634 5.343215 
vt -1.077433 0.8347924 
vt -4.043501 -3.67363 
vt -3.447947 -5.240879 
vt -4.043501 -2.550323 
vt -1.077433 1.9581 
vt 1.888634 6.466523 
vt 4.854702 10.97495 
vt 7.820769 15.48337 
vt 3.543307 15.48337 
vt 3.543307 14.36006 
vt -42.91339 15.48337 
vt -42.91339 14.36006 
vt 3.543307 1.9581 
vt 3.543307 0.8347924 
vt -42.91339 1.9581 
vt -42.91339 0.8347924 
vt 3.543307 29.00864 
vt 3.543307 27.88533 
vt -42.91339 29.00864 
vt -42.91339 27.88533 
vt -3.543307 -6.273368 
vt -3.543307 35.81595 
vt 42.91339 -6.273368 
vt 42.91339 35.81595 
vt 3.543307 6.466523 
vt 3.543307 5.343215 
vt -42.91339 6.466523 
vt -42.91339 5.343215 
vt 3.543307 24.50021 
vt 3.543307 23.37691 
vt -42.91339 24.50021 
vt -42.91339 23.37691 
vt -3.543307 -3.800565 
vt -3.543307 0.7001635 
vt 42.91339 -3.800565 
vt 42.91339 0.7001635 
vt -3.543307 -25.18296 
vt -3.543307 -20.68223 
vt 42.91339 -25.18296 
vt 42.91339 -20.68223 
vt -3.543307 -9.146163 
vt -3.543307 -4.645434 
vt 42.91339 -9.146163 
vt 42.91339 -4.645434 
vt -3.543307 1.545032 
vt -3.543307 6.045761 
vt 42.91339 1.545032 
vt 42.91339 6.045761 
vt -3.543307 6.89063 
vt -3.543307 11.39136 
vt 42.91339 6.89063 
vt 42.91339 11.39136 
vt -3.543307 -30.52855 
vt -3.543307 -26.02782 
vt 42.91339 -30.52855 
vt 42.91339 -26.02782 
vt -3.543307 -19.83736 
vt -3.543307 -15.33663 
vt 42.91339 -19.83736 
vt 42.91339 -15.33663 
vt -3.543307 -14.49176 
vt -3.543307 -9.991032 
vt 42.91339 -14.49176 
vt 42.91339 -9.991032 
vt 3.543307 22.14508 
vt -42.91339 22.14508 
vt 3.543307 26.64581 
vt -42.91339 26.64581 
vt 3.543307 0.7626883 
vt -42.91339 0.7626883 
vt 3.543307 5.263417 
vt -42.91339 5.263417 
vt 3.543307 16.79948 
vt -42.91339 16.79948 
vt 3.543307 21.30021 
vt -42.91339 21.30021 
vt 3.543307 27.49068 
vt -42.91339 27.49068 
vt 3.543307 31.99141 
vt -42.91339 31.99141 
vt 3.543307 32.83627 
vt -42.91339 32.83627 
vt 3.543307 37.337 
vt -42.91339 37.337 
vt 3.543307 -4.58291 
vt -42.91339 -4.58291 
vt 3.543307 -0.08218045 
vt -42.91339 -0.08218045 
vt 3.543307 6.108286 
vt -42.91339 6.108286 
vt 3.543307 10.60901 
vt -42.91339 10.60901 
vt 3.543307 11.45388 
vt -42.91339 11.45388 
vt 3.543307 15.95461 
vt -42.91339 15.95461 

usemtl wood

f 2/2/1 1/1/1 3/3/1 
f 3/3/1 4/4/1 2/2/1 
f 6/6/1 5/5/1 7/7/1 
f 7/7/1 8/8/1 6/6/1 
f 10/10/2 9/9/2 11/11/2 
f 11/11/2 12/12/2 10/10/2 
f 11/11/2 13/13/2 12/12/2 
f 12/12/2 14/14/2 10/10/2 
f 12/12/2 15/15/2 14/14/2 
f 14/14/2 16/16/2 10/10/2 
f 14/14/2 17/17/2 16/16/2 
f 16/16/2 18/18/2 10/10/2 
f 16/16/2 19/19/2 18/18/2 
f 18/18/2 20/20/2 10/10/2 
f 18/18/2 21/21/2 20/20/2 
f 20/20/2 22/22/2 10/10/2 
f 22/22/2 23/23/2 10/10/2 
f 23/23/2 24/24/2 10/10/2 
f 24/24/2 25/25/2 10/10/2 
f 25/25/2 26/26/2 10/10/2 
f 26/26/2 27/27/2 10/10/2 
f 10/10/2 27/27/2 28/28/2 
f 10/10/2 28/28/2 29/29/2 
f 10/10/2 29/29/2 30/30/2 
f 10/10/2 30/30/2 31/31/2 
f 10/10/2 31/31/2 4/32/2 
f 10/10/2 4/32/2 3/33/2 
f 10/10/2 3/33/2 32/34/2 
f 10/10/2 32/34/2 33/35/2 
f 10/10/2 33/35/2 34/36/2 
f 10/10/2 34/36/2 35/37/2 
f 10/10/2 35/37/2 7/38/2 
f 7/38/2 36/39/2 10/10/2 
f 35/37/2 8/40/2 7/38/2 
f 34/36/2 37/41/2 35/37/2 
f 33/35/2 38/42/2 34/36/2 
f 32/34/2 39/43/2 33/35/2 
f 3/33/2 40/44/2 32/34/2 
f 42/46/1 41/45/1 35/47/1 
f 35/47/1 37/48/1 42/46/1 
f 5/50/3 43/49/3 36/51/3 
f 36/51/3 7/52/3 5/50/3 
f 45/54/1 44/53/1 32/55/1 
f 32/55/1 40/56/1 45/54/1 
f 47/58/1 46/57/1 29/59/1 
f 29/59/1 28/60/1 47/58/1 
f 43/62/4 48/61/4 10/63/4 
f 10/63/4 36/64/4 43/62/4 
f 50/66/1 49/65/1 34/67/1 
f 34/67/1 38/68/1 50/66/1 
f 52/70/1 51/69/1 33/71/1 
f 33/71/1 39/72/1 52/70/1 
f 54/74/1 53/73/1 31/75/1 
f 31/75/1 30/76/1 54/74/1 
f 56/78/5 55/77/5 22/79/5 
f 22/79/5 20/80/5 56/78/5 
f 58/82/6 57/81/6 11/83/6 
f 11/83/6 9/84/6 58/82/6 
f 60/86/5 59/85/5 19/87/5 
f 19/87/5 16/88/5 60/86/5 
f 57/90/5 61/89/5 13/91/5 
f 13/91/5 11/92/5 57/90/5 
f 48/94/7 43/93/7 5/95/7 
f 5/95/7 41/96/7 48/94/7 
f 5/95/7 6/97/7 41/96/7 
f 41/96/7 49/98/7 48/94/7 
f 41/96/7 42/99/7 49/98/7 
f 49/98/7 51/100/7 48/94/7 
f 49/98/7 50/101/7 51/100/7 
f 51/100/7 44/102/7 48/94/7 
f 51/100/7 52/103/7 44/102/7 
f 44/102/7 1/104/7 48/94/7 
f 44/102/7 45/105/7 1/104/7 
f 1/104/7 2/106/7 48/94/7 
f 2/106/7 53/107/7 48/94/7 
f 53/107/7 54/108/7 48/94/7 
f 54/108/7 46/109/7 48/94/7 
f 46/109/7 47/110/7 48/94/7 
f 47/110/7 62/111/7 48/94/7 
f 48/94/7 62/111/7 63/112/7 
f 48/94/7 63/112/7 64/113/7 
f 48/94/7 64/113/7 65/114/7 
f 48/94/7 65/114/7 66/115/7 
f 48/94/7 66/115/7 55/116/7 
f 48/94/7 55/116/7 56/117/7 
f 48/94/7 56/117/7 67/118/7 
f 48/94/7 67/118/7 60/119/7 
f 48/94/7 60/119/7 68/120/7 
f 48/94/7 68/120/7 69/121/7 
f 48/94/7 69/121/7 57/122/7 
f 57/122/7 58/123/7 48/94/7 
f 69/121/7 61/124/7 57/122/7 
f 68/120/7 70/125/7 69/121/7 
f 60/119/7 71/126/7 68/120/7 
f 67/118/7 59/127/7 60/119/7 
f 56/117/7 72/128/7 67/118/7 
f 67/130/5 72/129/5 21/131/5 
f 21/131/5 18/132/5 67/130/5 
f 69/134/5 70/133/5 15/135/5 
f 15/135/5 12/136/5 69/134/5 
f 64/138/5 63/137/5 26/139/5 
f 26/139/5 25/140/5 64/138/5 
f 48/142/8 58/141/8 9/143/8 
f 9/143/8 10/144/8 48/142/8 
f 68/146/5 71/145/5 17/147/5 
f 17/147/5 14/148/5 68/146/5 
f 66/150/5 65/149/5 24/151/5 
f 24/151/5 23/152/5 66/150/5 

usemtl snow

f 53/154/9 2/153/9 4/155/9 
f 4/155/9 31/156/9 53/154/9 
f 49/158/9 42/157/9 37/159/9 
f 37/159/9 34/160/9 49/158/9 
f 1/162/9 45/161/9 40/163/9 
f 40/163/9 3/164/9 1/162/9 
f 46/166/9 54/165/9 30/167/9 
f 30/167/9 29/168/9 46/166/9 
f 62/170/9 47/169/9 28/171/9 
f 28/171/9 27/172/9 62/170/9 
f 41/174/9 6/173/9 8/175/9 
f 8/175/9 35/176/9 41/174/9 
f 51/178/9 50/177/9 38/179/9 
f 38/179/9 33/180/9 51/178/9 
f 44/182/9 52/181/9 39/183/9 
f 39/183/9 32/184/9 44/182/9 
f 22/186/10 55/185/10 66/187/10 
f 66/187/10 23/188/10 22/186/10 
f 15/190/10 70/189/10 68/191/10 
f 68/191/10 14/192/10 15/190/10 
f 21/194/10 72/193/10 56/195/10 
f 56/195/10 20/196/10 21/194/10 
f 24/198/10 65/197/10 64/199/10 
f 64/199/10 25/200/10 24/198/10 
f 26/202/10 63/201/10 62/203/10 
f 62/203/10 27/204/10 26/202/10 
f 13/206/10 61/205/10 69/207/10 
f 69/207/10 12/208/10 13/206/10 
f 17/210/10 71/209/10 60/211/10 
f 60/211/10 16/212/10 17/210/10 
f 19/214/10 59/213/10 67/215/10 
f 67/215/10 18/216/10 19/214/10 
g cabinRoofCenter




usemtl wood

f 2/2/1 1/1/1 3/3/1 
f 3/3/1 4/4/1 2/2/1 
f 6/6/1 5/5/1 7/7/1 
f 7/7/1 8/8/1 6/6/1 
f 10/10/2 9/9/2 11/11/2 
f 11/11/2 12/12/2 10/10/2 
f 11/11/2 13/13/2 12/12/2 
f 12/12/2 14/14/2 10/10/2 
f 12/12/2 15/15/2 14/14/2 
f 14/14/2 16/16/2 10/10/2 
f 14/14/2 17/17/2 16/16/2 
f 16/16/2 18/18/2 10/10/2 
f 16/16/2 19/19/2 18/18/2 
f 18/18/2 20/20/2 10/10/2 
f 18/18/2 21/21/2 20/20/2 
f 20/20/2 22/22/2 10/10/2 
f 22/22/2 23/23/2 10/10/2 
f 23/23/2 24/24/2 10/10/2 
f 24/24/2 25/25/2 10/10/2 
f 25/25/2 26/26/2 10/10/2 
f 26/26/2 27/27/2 10/10/2 
f 10/10/2 27/27/2 28/28/2 
f 10/10/2 28/28/2 29/29/2 
f 10/10/2 29/29/2 30/30/2 
f 10/10/2 30/30/2 31/31/2 
f 10/10/2 31/31/2 4/32/2 
f 10/10/2 4/32/2 3/33/2 
f 10/10/2 3/33/2 32/34/2 
f 10/10/2 32/34/2 33/35/2 
f 10/10/2 33/35/2 34/36/2 
f 10/10/2 34/36/2 35/37/2 
f 10/10/2 35/37/2 7/38/2 
f 7/38/2 36/39/2 10/10/2 
f 35/37/2 8/40/2 7/38/2 
f 34/36/2 37/41/2 35/37/2 
f 33/35/2 38/42/2 34/36/2 
f 32/34/2 39/43/2 33/35/2 
f 3/33/2 40/44/2 32/34/2 
f 42/46/1 41/45/1 35/47/1 
f 35/47/1 37/48/1 42/46/1 
f 5/50/3 43/49/3 36/51/3 
f 36/51/3 7/52/3 5/50/3 
f 45/54/1 44/53/1 32/55/1 
f 32/55/1 40/56/1 45/54/1 
f 47/58/1 46/57/1 29/59/1 
f 29/59/1 28/60/1 47/58/1 
f 43/62/4 48/61/4 10/63/4 
f 10/63/4 36/64/4 43/62/4 
f 50/66/1 49/65/1 34/67/1 
f 34/67/1 38/68/1 50/66/1 
f 52/70/1 51/69/1 33/71/1 
f 33/71/1 39/72/1 52/70/1 
f 54/74/1 53/73/1 31/75/1 
f 31/75/1 30/76/1 54/74/1 
f 56/78/5 55/77/5 22/79/5 
f 22/79/5 20/80/5 56/78/5 
f 58/82/6 57/81/6 11/83/6 
f 11/83/6 9/84/6 58/82/6 
f 60/86/5 59/85/5 19/87/5 
f 19/87/5 16/88/5 60/86/5 
f 57/90/5 61/89/5 13/91/5 
f 13/91/5 11/92/5 57/90/5 
f 48/94/7 43/93/7 5/95/7 
f 5/95/7 41/96/7 48/94/7 
f 5/95/7 6/97/7 41/96/7 
f 41/96/7 49/98/7 48/94/7 
f 41/96/7 42/99/7 49/98/7 
f 49/98/7 51/100/7 48/94/7 
f 49/98/7 50/101/7 51/100/7 
f 51/100/7 44/102/7 48/94/7 
f 51/100/7 52/103/7 44/102/7 
f 44/102/7 1/104/7 48/94/7 
f 44/102/7 45/105/7 1/104/7 
f 1/104/7 2/106/7 48/94/7 
f 2/106/7 53/107/7 48/94/7 
f 53/107/7 54/108/7 48/94/7 
f 54/108/7 46/109/7 48/94/7 
f 46/109/7 47/110/7 48/94/7 
f 47/110/7 62/111/7 48/94/7 
f 48/94/7 62/111/7 63/112/7 
f 48/94/7 63/112/7 64/113/7 
f 48/94/7 64/113/7 65/114/7 
f 48/94/7 65/114/7 66/115/7 
f 48/94/7 66/115/7 55/116/7 
f 48/94/7 55/116/7 56/117/7 
f 48/94/7 56/117/7 67/118/7 
f 48/94/7 67/118/7 60/119/7 
f 48/94/7 60/119/7 68/120/7 
f 48/94/7 68/120/7 69/121/7 
f 48/94/7 69/121/7 57/122/7 
f 57/122/7 58/123/7 48/94/7 
f 69/121/7 61/124/7 57/122/7 
f 68/120/7 70/125/7 69/121/7 
f 60/119/7 71/126/7 68/120/7 
f 67/118/7 59/127/7 60/119/7 
f 56/117/7 72/128/7 67/118/7 
f 67/130/5 72/129/5 21/131/5 
f 21/131/5 18/132/5 67/130/5 
f 69/134/5 70/133/5 15/135/5 
f 15/135/5 12/136/5 69/134/5 
f 64/138/5 63/137/5 26/139/5 
f 26/139/5 25/140/5 64/138/5 
f 48/142/8 58/141/8 9/143/8 
f 9/143/8 10/144/8 48/142/8 
f 68/146/5 71/145/5 17/147/5 
f 17/147/5 14/148/5 68/146/5 
f 66/150/5 65/149/5 24/151/5 
f 24/151/5 23/152/5 66/150/5 

usemtl snow

f 53/154/9 2/153/9 4/155/9 
f 4/155/9 31/156/9 53/154/9 
f 49/158/9 42/157/9 37/159/9 
f 37/159/9 34/160/9 49/158/9 
f 1/162/9 45/161/9 40/163/9 
f 40/163/9 3/164/9 1/162/9 
f 46/166/9 54/165/9 30/167/9 
f 30/167/9 29/168/9 46/166/9 
f 62/170/9 47/169/9 28/171/9 
f 28/171/9 27/172/9 62/170/9 
f 41/174/9 6/173/9 8/175/9 
f 8/175/9 35/176/9 41/174/9 
f 51/178/9 50/177/9 38/179/9 
f 38/179/9 33/180/9 51/178/9 
f 44/182/9 52/181/9 39/183/9 
f 39/183/9 32/184/9 44/182/9 
f 22/186/10 55/185/10 66/187/10 
f 66/187/10 23/188/10 22/186/10 
f 15/190/10 70/189/10 68/191/10 
f 68/191/10 14/192/10 15/190/10 
f 21/194/10 72/193/10 56/195/10 
f 56/195/10 20/196/10 21/194/10 
f 24/198/10 65/197/10 64/199/10 
f 64/199/10 25/200/10 24/198/10 
f 26/202/10 63/201/10 62/203/10 
f 62/203/10 27/204/10 26/202/10 
f 13/206/10 61/205/10 69/207/10 
f 69/207/10 12/208/10 13/206/10 
f 17/210/10 71/209/10 60/211/10 
f 60/211/10 16/212/10 17/210/10 
f 19/214/10 59/213/10 67/215/10 
f 67/215/10 18/216/10 19/214/10 
