# Created by Kenney (www.kenney.nl) 

mtllib cabinRoof.mtl 

g cabinRoof

v -1.175156 -0.1331183 -0.09 
v -4.331469E-15 0.76 -0.09 
v -1.20541 -0.09331021 -0.09 
v -1.054734 0.02120373 -0.09 
v -1.20541 -0.0647782 -0.09 
v -0.9040574 0.1357177 -0.09 
v -1.054734 0.04973574 -0.09 
v -0.7533811 0.2502316 -0.09 
v -0.9040574 0.1642497 -0.09 
v -0.6027049 0.3647455 -0.09 
v -0.7533811 0.2787636 -0.09 
v -0.4520287 0.4792595 -0.09 
v -0.6027049 0.3932775 -0.09 
v -0.4520287 0.5077915 -0.09 
v -0.3013525 0.5937734 -0.09 
v -0.3013525 0.6223054 -0.09 
v -0.1506762 0.7082874 -0.09 
v -0.1506762 0.7368194 -0.09 
v -4.331469E-15 0.8228012 -0.09 
v -1.175156 -0.1331183 1.09 
v -1.20541 -0.09331021 1.09 
v -4.331469E-15 0.76 1.09 
v -1.054734 0.02120373 1.09 
v -1.20541 -0.0647782 1.09 
v -0.9040574 0.1357177 1.09 
v -1.054734 0.04973574 1.09 
v -0.7533811 0.2502316 1.09 
v -0.9040574 0.1642497 1.09 
v -0.6027049 0.3647455 1.09 
v -0.7533811 0.2787636 1.09 
v -0.4520287 0.4792595 1.09 
v -0.6027049 0.3932775 1.09 
v -0.4520287 0.5077915 1.09 
v -0.3013525 0.5937734 1.09 
v -0.3013525 0.6223054 1.09 
v -0.1506762 0.7082874 1.09 
v -0.1506762 0.7368194 1.09 
v -4.331469E-15 0.8228012 1.09 
v -4.331469E-15 0.76 1 

vn 0 0 -1 
vn 0 0 1 
vn -1 0 0 
vn 1 0 0 
vn -0.7961622 -0.6050833 0 
vn 0.6050833 -0.7961622 0 
vn -0.4956227 0.868538 0 

vt 46.26597 -5.240879 
vt 1.6885E-13 29.92126 
vt 47.45708 -3.67363 
vt 41.52494 0.8347924 
vt 47.45708 -2.550323 
vt 35.59281 5.343215 
vt 41.52494 1.9581 
vt 29.66068 9.851638 
vt 35.59281 6.466523 
vt 23.72854 14.36006 
vt 29.66068 10.97495 
vt 17.79641 18.86848 
vt 23.72854 15.48337 
vt 17.79641 19.99179 
vt 11.86427 23.37691 
vt 11.86427 24.50021 
vt 5.932135 27.88533 
vt 5.932135 29.00864 
vt 1.6885E-13 32.39375 
vt -46.26597 -5.240879 
vt -47.45708 -3.67363 
vt -1.705303E-13 29.92126 
vt -41.52494 0.8347924 
vt -47.45708 -2.550323 
vt -35.59281 5.343215 
vt -41.52494 1.9581 
vt -29.66068 9.851638 
vt -35.59281 6.466523 
vt -23.72854 14.36006 
vt -29.66068 10.97495 
vt -17.79641 18.86848 
vt -23.72854 15.48337 
vt -17.79641 19.99179 
vt -11.86427 23.37691 
vt -11.86427 24.50021 
vt -5.932135 27.88533 
vt -5.932135 29.00864 
vt -1.705303E-13 32.39375 
vt -3.543307 9.851638 
vt -3.543307 10.97495 
vt 42.91339 9.851638 
vt 42.91339 10.97495 
vt 3.543307 32.39375 
vt 3.543307 29.92126 
vt -42.91339 32.39375 
vt -39.37008 29.92126 
vt -42.91339 29.92126 
vt -3.543307 5.343215 
vt -3.543307 6.466523 
vt 42.91339 5.343215 
vt 42.91339 6.466523 
vt -3.543307 23.82218 
vt -3.543307 25.79068 
vt 42.91339 23.82218 
vt 42.91339 25.79068 
vt -3.543307 27.88533 
vt -3.543307 29.00864 
vt 42.91339 27.88533 
vt 42.91339 29.00864 
vt -3.543307 23.37691 
vt -3.543307 24.50021 
vt 42.91339 23.37691 
vt 42.91339 24.50021 
vt -3.543307 -3.67363 
vt -3.543307 -2.550323 
vt 42.91339 -3.67363 
vt 42.91339 -2.550323 
vt -3.543307 0.8347924 
vt -3.543307 1.9581 
vt 42.91339 0.8347924 
vt 42.91339 1.9581 
vt -3.543307 18.86848 
vt -3.543307 19.99179 
vt 42.91339 18.86848 
vt 42.91339 19.99179 
vt -3.543307 14.36006 
vt -3.543307 15.48337 
vt 42.91339 14.36006 
vt 42.91339 15.48337 
vt -42.91339 18.10485 
vt -39.37008 18.10485 
vt -42.91339 -40.00639 
vt 3.543307 18.10485 
vt 3.543307 -40.00639 
vt -3.543307 -35.65225 
vt 42.91339 -35.65225 
vt -3.543307 -42.48227 
vt 42.91339 -42.48227 
vt -3.543307 8.668318 
vt 42.91339 8.668318 
vt -3.543307 1.838293 
vt 42.91339 1.838293 
vt -3.543307 -28.26549 
vt 42.91339 -28.26549 
vt -3.543307 -35.09551 
vt 42.91339 -35.09551 
vt -3.543307 1.281557 
vt 42.91339 1.281557 
vt -3.543307 -5.548468 
vt 42.91339 -5.548468 
vt -3.543307 -13.49197 
vt 42.91339 -13.49197 
vt -3.543307 -20.32199 
vt 42.91339 -20.32199 
vt -3.543307 -20.87873 
vt 42.91339 -20.87873 
vt -3.543307 -27.70875 
vt 42.91339 -27.70875 
vt -3.543307 16.05508 
vt 42.91339 16.05508 
vt -3.543307 9.225055 
vt 42.91339 9.225055 
vt -3.543307 -6.105205 
vt 42.91339 -6.105205 
vt -3.543307 -12.93523 
vt 42.91339 -12.93523 

usemtl wood

f 2/2/1 1/1/1 3/3/1 
f 3/3/1 4/4/1 2/2/1 
f 3/3/1 5/5/1 4/4/1 
f 4/4/1 6/6/1 2/2/1 
f 4/4/1 7/7/1 6/6/1 
f 6/6/1 8/8/1 2/2/1 
f 6/6/1 9/9/1 8/8/1 
f 8/8/1 10/10/1 2/2/1 
f 8/8/1 11/11/1 10/10/1 
f 10/10/1 12/12/1 2/2/1 
f 10/10/1 13/13/1 12/12/1 
f 12/12/1 14/14/1 2/2/1 
f 14/14/1 15/15/1 2/2/1 
f 15/15/1 16/16/1 2/2/1 
f 16/16/1 17/17/1 2/2/1 
f 17/17/1 18/18/1 2/2/1 
f 18/18/1 19/19/1 2/2/1 
f 21/21/2 20/20/2 22/22/2 
f 22/22/2 23/23/2 21/21/2 
f 23/23/2 24/24/2 21/21/2 
f 22/22/2 25/25/2 23/23/2 
f 25/25/2 26/26/2 23/23/2 
f 22/22/2 27/27/2 25/25/2 
f 27/27/2 28/28/2 25/25/2 
f 22/22/2 29/29/2 27/27/2 
f 29/29/2 30/30/2 27/27/2 
f 22/22/2 31/31/2 29/29/2 
f 31/31/2 32/32/2 29/29/2 
f 22/22/2 33/33/2 31/31/2 
f 22/22/2 34/34/2 33/33/2 
f 22/22/2 35/35/2 34/34/2 
f 22/22/2 36/36/2 35/35/2 
f 22/22/2 37/37/2 36/36/2 
f 22/22/2 38/38/2 37/37/2 
f 11/40/3 8/39/3 27/41/3 
f 27/41/3 30/42/3 11/40/3 
f 2/44/4 19/43/4 38/45/4 
f 38/45/4 39/46/4 2/44/4 
f 38/45/4 22/47/4 39/46/4 
f 9/49/3 6/48/3 25/50/3 
f 25/50/3 28/51/3 9/49/3 
f 3/53/5 1/52/5 20/54/5 
f 20/54/5 21/55/5 3/53/5 
f 18/57/3 17/56/3 36/58/3 
f 36/58/3 37/59/3 18/57/3 
f 16/61/3 15/60/3 34/62/3 
f 34/62/3 35/63/3 16/61/3 
f 5/65/3 3/64/3 21/66/3 
f 21/66/3 24/67/3 5/65/3 
f 7/69/3 4/68/3 23/70/3 
f 23/70/3 26/71/3 7/69/3 
f 14/73/3 12/72/3 31/74/3 
f 31/74/3 33/75/3 14/73/3 
f 13/77/3 10/76/3 29/78/3 
f 29/78/3 32/79/3 13/77/3 
f 39/81/6 22/80/6 20/82/6 
f 20/82/6 2/83/6 39/81/6 
f 20/82/6 1/84/6 2/83/6 

usemtl snow

f 23/86/7 4/85/7 5/87/7 
f 5/87/7 24/88/7 23/86/7 
f 36/90/7 17/89/7 16/91/7 
f 16/91/7 35/92/7 36/90/7 
f 25/94/7 6/93/7 7/95/7 
f 7/95/7 26/96/7 25/94/7 
f 34/98/7 15/97/7 14/99/7 
f 14/99/7 33/100/7 34/98/7 
f 29/102/7 10/101/7 11/103/7 
f 11/103/7 30/104/7 29/102/7 
f 27/106/7 8/105/7 9/107/7 
f 9/107/7 28/108/7 27/106/7 
f 38/110/7 19/109/7 18/111/7 
f 18/111/7 37/112/7 38/110/7 
f 31/114/7 12/113/7 13/115/7 
f 13/115/7 32/116/7 31/114/7 
g cabinRoof




usemtl wood

f 2/2/1 1/1/1 3/3/1 
f 3/3/1 4/4/1 2/2/1 
f 3/3/1 5/5/1 4/4/1 
f 4/4/1 6/6/1 2/2/1 
f 4/4/1 7/7/1 6/6/1 
f 6/6/1 8/8/1 2/2/1 
f 6/6/1 9/9/1 8/8/1 
f 8/8/1 10/10/1 2/2/1 
f 8/8/1 11/11/1 10/10/1 
f 10/10/1 12/12/1 2/2/1 
f 10/10/1 13/13/1 12/12/1 
f 12/12/1 14/14/1 2/2/1 
f 14/14/1 15/15/1 2/2/1 
f 15/15/1 16/16/1 2/2/1 
f 16/16/1 17/17/1 2/2/1 
f 17/17/1 18/18/1 2/2/1 
f 18/18/1 19/19/1 2/2/1 
f 21/21/2 20/20/2 22/22/2 
f 22/22/2 23/23/2 21/21/2 
f 23/23/2 24/24/2 21/21/2 
f 22/22/2 25/25/2 23/23/2 
f 25/25/2 26/26/2 23/23/2 
f 22/22/2 27/27/2 25/25/2 
f 27/27/2 28/28/2 25/25/2 
f 22/22/2 29/29/2 27/27/2 
f 29/29/2 30/30/2 27/27/2 
f 22/22/2 31/31/2 29/29/2 
f 31/31/2 32/32/2 29/29/2 
f 22/22/2 33/33/2 31/31/2 
f 22/22/2 34/34/2 33/33/2 
f 22/22/2 35/35/2 34/34/2 
f 22/22/2 36/36/2 35/35/2 
f 22/22/2 37/37/2 36/36/2 
f 22/22/2 38/38/2 37/37/2 
f 11/40/3 8/39/3 27/41/3 
f 27/41/3 30/42/3 11/40/3 
f 2/44/4 19/43/4 38/45/4 
f 38/45/4 39/46/4 2/44/4 
f 38/45/4 22/47/4 39/46/4 
f 9/49/3 6/48/3 25/50/3 
f 25/50/3 28/51/3 9/49/3 
f 3/53/5 1/52/5 20/54/5 
f 20/54/5 21/55/5 3/53/5 
f 18/57/3 17/56/3 36/58/3 
f 36/58/3 37/59/3 18/57/3 
f 16/61/3 15/60/3 34/62/3 
f 34/62/3 35/63/3 16/61/3 
f 5/65/3 3/64/3 21/66/3 
f 21/66/3 24/67/3 5/65/3 
f 7/69/3 4/68/3 23/70/3 
f 23/70/3 26/71/3 7/69/3 
f 14/73/3 12/72/3 31/74/3 
f 31/74/3 33/75/3 14/73/3 
f 13/77/3 10/76/3 29/78/3 
f 29/78/3 32/79/3 13/77/3 
f 39/81/6 22/80/6 20/82/6 
f 20/82/6 2/83/6 39/81/6 
f 20/82/6 1/84/6 2/83/6 

usemtl snow

f 23/86/7 4/85/7 5/87/7 
f 5/87/7 24/88/7 23/86/7 
f 36/90/7 17/89/7 16/91/7 
f 16/91/7 35/92/7 36/90/7 
f 25/94/7 6/93/7 7/95/7 
f 7/95/7 26/96/7 25/94/7 
f 34/98/7 15/97/7 14/99/7 
f 14/99/7 33/100/7 34/98/7 
f 29/102/7 10/101/7 11/103/7 
f 11/103/7 30/104/7 29/102/7 
f 27/106/7 8/105/7 9/107/7 
f 9/107/7 28/108/7 27/106/7 
f 38/110/7 19/109/7 18/111/7 
f 18/111/7 37/112/7 38/110/7 
f 31/114/7 12/113/7 13/115/7 
f 13/115/7 32/116/7 31/114/7 
