# Created by Kenney (www.kenney.nl) 

mtllib cabinWindowHalf.mtl 

g cabinWindowHalf

v -0.299475 0.171065 -0.0351 
v -0.299475 0.3152948 -0.0351 
v -0.299475 0.171065 -1.155058E-14 
v -0.299475 0.3152948 -1.082867E-14 
v -0.299475 0.171065 0.0351 
v -0.299475 0.3152948 0.0351 
v -0.7005249 0.171065 -0.0351 
v -0.7005249 0.171065 -1.082867E-14 
v -0.7005249 0.171065 0.0351 
v -0.7005249 0.3152948 -0.0351 
v -0.7005249 0.3152948 -1.082867E-14 
v -0.7005249 0.3152948 0.0351 
v -0.25 0.12159 -0.0351 
v -0.75 0.12159 -0.0351 
v -0.75 0.2431799 -0.0351 
v -0.75 0.3647699 -0.0351 
v -0.25 0.2431799 -0.0351 
v -0.25 0.3647699 -0.0351 
v -0.25 0.12159 0.0351 
v -0.25 0.2431799 0.0351 
v -0.25 0.3647699 0.0351 
v -0.75 0.3647699 0.0351 
v -0.75 0.12159 0.0351 
v -0.75 0.2431799 0.0351 
v -0.75 0.182385 -0.0702 
v -0.75 0.3039749 -0.0702 
v -0.75 0.182385 0.0702 
v -0.75 0.3039749 0.0702 
v -0.25 0.182385 -0.0702 
v -0.25 0.3039749 -0.0702 
v -0.25 0.3039749 0.0702 
v -0.25 0.182385 0.0702 
v -1 0.2431799 0.0351 
v -1 0.3039749 0.0702 
v -1 0.3039749 -0.0702 
v -1 0.3647699 -0.0351 
v -1 0.2431799 -0.0351 
v -4.331469E-15 0.12159 0.0351 
v -4.331469E-15 0.182385 0.0702 
v -1 0.182385 -0.0702 
v -8.662937E-15 0.2431799 0.0351 
v -1 0.12159 -0.0351 
v -1 0.3647699 0.0351 
v 0 3.521574E-14 0.0351 
v 0 -2.003707E-32 0 
v -1 -2.003707E-32 0.0351 
v -1 -2.003707E-32 0 
v -1.443823E-15 3.521574E-14 -0.0351 
v -1 -2.003707E-32 -0.0351 
v -1 0.4255649 0.0702 
v -1.299441E-14 0.3647699 0.0351 
v -1.299441E-14 0.4255649 0.0702 
v -1 0.4255649 -0.0702 
v -1.732587E-14 0.4255649 -0.0702 
v -1 0.4863598 -0.0351 
v -1.87697E-14 0.4863598 -0.0351 
v -1 0.06079498 0.0702 
v -1 0.12159 0.0351 
v 0 0.06079498 0.0702 
v -5.775291E-15 0.12159 -0.0351 
v -8.662937E-15 0.182385 -0.0702 
v -1 0.182385 0.0702 
v -1.010676E-14 0.2431799 -0.0351 
v -1.299441E-14 0.3039749 -0.0702 
v -1 0.4863598 0.0351 
v -1.732587E-14 0.4863598 0.0351 
v -1.443823E-14 0.3647699 -0.0351 
v -8.662937E-15 0.3039749 0.0702 
v -1 0.06079498 -0.0702 
v -4.331469E-15 0.06079498 -0.0702 

vn -1 0 0 
vn 0 1 0 
vn 1 0 0 
vn 0 -1 0 
vn 0 0 -1 
vn 0 0 1 
vn 0 -0.5 0.8660254 
vn 0 0.5 -0.8660254 
vn 0 -0.5 -0.8660254 
vn 0 0.5 0.8660254 

vt -1.38189 6.734844 
vt -1.38189 12.41318 
vt -5.759951E-13 6.734844 
vt -5.475734E-13 12.41318 
vt 1.38189 6.734844 
vt 1.38189 12.41318 
vt 11.79036 -1.38189 
vt 11.79036 1.858956E-13 
vt 27.57972 -1.38189 
vt 27.57972 2.143173E-13 
vt 11.79036 1.38189 
vt 27.57972 1.38189 
vt 1.427058E-13 6.734844 
vt 1.427058E-13 12.41318 
vt -11.79036 -1.734766E-12 
vt -11.79036 -1.38189 
vt -27.57972 -1.734766E-12 
vt -27.57972 -1.38189 
vt -11.79036 1.38189 
vt -27.57972 1.38189 
vt 9.84252 4.787006 
vt 27.57972 6.734844 
vt 29.52756 4.787006 
vt 29.52756 9.574013 
vt 27.57972 12.41318 
vt 29.52756 14.36102 
vt 11.79036 12.41318 
vt 11.79036 6.734844 
vt 9.84252 9.574013 
vt 9.84252 14.36102 
vt -27.57972 6.734844 
vt -11.79036 6.734844 
vt -9.84252 4.787006 
vt -9.84252 9.574013 
vt -11.79036 12.41318 
vt -9.84252 14.36102 
vt -29.52756 14.36102 
vt -29.52756 4.787006 
vt -29.52756 9.574013 
vt -27.57972 12.41318 
vt 2.76378 7.18051 
vt 1.38189 4.787006 
vt 1.38189 9.574013 
vt 2.76378 11.96752 
vt 1.38189 14.36102 
vt -1.38189 9.574013 
vt -1.38189 4.787006 
vt -2.76378 7.18051 
vt -1.38189 14.36102 
vt -2.76378 11.96752 
vt -39.37008 8.982284 
vt -39.37008 11.74606 
vt -29.52756 8.982284 
vt -29.52756 11.74606 
vt 39.37008 8.982284 
vt 29.52756 8.982284 
vt 39.37008 11.74606 
vt 29.52756 11.74606 
vt -9.84252 4.836614 
vt -9.84252 7.600394 
vt -2.568069E-13 4.836614 
vt -3.430834E-13 7.600394 
vt 39.37008 4.836614 
vt 29.52756 4.836614 
vt 39.37008 7.600394 
vt 29.52756 7.600394 
vt -1.984623E-13 4.836614 
vt -3.550265E-13 7.600394 
vt 2.441237E-26 1.38189 
vt -1.401298E-44 -3.951662E-43 
vt -39.37008 1.38189 
vt -39.37008 3.477546E-25 
vt -5.684342E-14 -1.38189 
vt -39.37008 -1.38189 
vt -39.37008 13.12795 
vt -39.37008 15.89173 
vt -29.52756 13.12795 
vt -9.84252 13.12795 
vt -5.762793E-13 13.12795 
vt -6.409679E-13 15.89173 
vt 39.37008 13.12795 
vt 5.500712E-13 13.12795 
vt 39.37008 15.89173 
vt 6.729395E-13 15.89173 
vt -39.37008 0.6909449 
vt -39.37008 3.454724 
vt -2.488433E-14 0.6909449 
vt -9.84252 3.454724 
vt -1.829724E-13 3.454724 
vt -29.52756 3.454724 
vt 9.84252 4.836614 
vt 2.367089E-13 4.836614 
vt 9.84252 7.600394 
vt 3.59731E-13 7.600394 
vt -39.37008 4.836614 
vt -39.37008 7.600394 
vt -29.52756 4.836614 
vt -29.52756 7.600394 
vt 9.84252 8.982284 
vt 3.857873E-13 8.982284 
vt 9.84252 11.74606 
vt 4.873575E-13 11.74606 
vt -5.34169E-13 13.12795 
vt -6.934101E-13 15.89173 
vt 3.90311E-13 8.982284 
vt 5.077943E-13 11.74606 
vt -6.702988E-14 0.6909449 
vt -1.340598E-13 3.454724 
vt 29.52756 13.12795 
vt 9.84252 13.12795 
vt 5.566429E-13 13.12795 
vt 6.585385E-13 15.89173 
vt -9.84252 8.982284 
vt -9.84252 11.74606 
vt -4.094691E-13 8.982284 
vt -4.778777E-13 11.74606 
vt 39.37008 0.6909449 
vt 3.976348E-14 0.6909449 
vt 39.37008 3.454724 
vt 29.52756 3.454724 
vt 9.84252 3.454724 
vt 1.619903E-13 3.454724 
vt 4.65611E-14 0.6909449 
vt 1.499656E-13 3.454724 
vt 1.38189 1.376288E-12 
vt 2.76378 2.393503 
vt -1.311E-12 1.376288E-12 
vt 1.38189 19.14803 
vt -1.38189 19.14803 
vt -1.38189 1.376288E-12 
vt -2.76378 2.393503 
vt 2.76378 16.75452 
vt -2.76378 16.75452 
vt -3.791513E-13 8.982284 
vt -5.306362E-13 11.74606 
vt 6.513162E-15 1.38189 
vt 39.37008 1.38189 
vt 6.335658E-14 -1.38189 
vt 39.37008 -1.38189 
vt 2.047986E-13 4.836614 
vt 3.29773E-13 7.600394 
vt 0 -7.888609E-31 
vt 1.38189 1.386447E-12 
vt -1.38189 1.386447E-12 

usemtl woodDark

f 2/2/1 1/1/1 3/3/1 
f 3/3/1 4/4/1 2/2/1 
f 4/4/1 3/3/1 5/5/1 
f 5/5/1 6/6/1 4/4/1 
f 3/8/2 1/7/2 7/9/2 
f 7/9/2 8/10/2 3/8/2 
f 5/11/2 3/8/2 8/10/2 
f 8/10/2 9/12/2 5/11/2 
f 8/13/3 7/5/3 10/6/3 
f 10/6/3 11/14/3 8/13/3 
f 8/13/3 11/14/3 12/2/3 
f 12/2/3 9/1/3 8/13/3 
f 2/16/4 4/15/4 11/17/4 
f 11/17/4 10/18/4 2/16/4 
f 11/17/4 4/15/4 6/19/4 
f 6/19/4 12/20/4 11/17/4 
f 7/22/5 13/21/5 14/23/5 
f 14/23/5 15/24/5 7/22/5 
f 15/24/5 10/25/5 7/22/5 
f 15/24/5 16/26/5 10/25/5 
f 16/26/5 2/27/5 10/25/5 
f 13/21/5 7/22/5 1/28/5 
f 1/28/5 17/29/5 13/21/5 
f 1/28/5 2/27/5 17/29/5 
f 2/27/5 18/30/5 17/29/5 
f 2/27/5 16/26/5 18/30/5 
f 5/32/6 9/31/6 19/33/6 
f 19/33/6 20/34/6 5/32/6 
f 20/34/6 6/35/6 5/32/6 
f 20/34/6 21/36/6 6/35/6 
f 21/36/6 22/37/6 6/35/6 
f 23/38/6 19/33/6 9/31/6 
f 9/31/6 24/39/6 23/38/6 
f 9/31/6 12/40/6 24/39/6 
f 12/40/6 22/37/6 24/39/6 
f 12/40/6 6/35/6 22/37/6 

usemtl wood

f 14/42/3 25/41/3 15/43/3 
f 15/43/3 26/44/3 16/45/3 
f 23/47/3 24/46/3 27/48/3 
f 24/46/3 22/49/3 28/50/3 
f 29/48/1 13/47/1 17/46/1 
f 30/50/1 17/46/1 18/49/1 
f 21/45/1 20/43/1 31/44/1 
f 20/43/1 19/42/1 32/41/1 
f 34/52/7 33/51/7 24/53/7 
f 24/53/7 28/54/7 34/52/7 
f 26/56/8 35/55/8 36/57/8 
f 36/57/8 16/58/8 26/56/8 
f 15/56/9 37/55/9 35/57/9 
f 35/57/9 26/58/9 15/56/9 
f 32/60/7 19/59/7 38/61/7 
f 38/61/7 39/62/7 32/60/7 
f 25/64/8 40/63/8 37/65/8 
f 37/65/8 15/66/8 25/64/8 
f 20/60/10 32/59/10 39/67/10 
f 39/67/10 41/68/10 20/60/10 
f 14/64/9 42/63/9 40/65/9 
f 40/65/9 25/66/9 14/64/9 
f 43/52/10 34/51/10 28/53/10 
f 28/53/10 22/54/10 43/52/10 
f 45/70/4 44/69/4 46/71/4 
f 46/71/4 47/72/4 45/70/4 
f 48/73/4 45/70/4 47/72/4 
f 47/72/4 49/74/4 48/73/4 
f 50/76/7 43/75/7 22/77/7 
f 22/77/7 21/78/7 50/76/7 
f 21/78/7 51/79/7 50/76/7 
f 51/79/7 52/80/7 50/76/7 
f 54/82/8 53/81/8 55/83/8 
f 55/83/8 56/84/8 54/82/8 
f 58/86/10 57/85/10 59/87/10 
f 59/87/10 19/88/10 58/86/10 
f 59/87/10 38/89/10 19/88/10 
f 19/88/10 23/90/10 58/86/10 
f 60/92/9 13/91/9 29/93/9 
f 29/93/9 61/94/9 60/92/9 
f 62/96/7 58/95/7 23/97/7 
f 23/97/7 27/98/7 62/96/7 
f 63/100/9 17/99/9 30/101/9 
f 30/101/9 64/102/9 63/100/9 
f 65/76/10 50/75/10 52/103/10 
f 52/103/10 66/104/10 65/76/10 
f 33/96/10 62/95/10 27/97/10 
f 27/97/10 24/98/10 33/96/10 
f 64/105/8 30/99/8 18/101/8 
f 18/101/8 67/106/8 64/105/8 
f 57/86/7 46/85/7 44/107/7 
f 44/107/7 59/108/7 57/86/7 
f 16/109/9 36/81/9 53/83/9 
f 53/83/9 18/110/9 16/109/9 
f 53/83/9 67/111/9 18/110/9 
f 53/83/9 54/112/9 67/111/9 
f 31/114/7 20/113/7 41/115/7 
f 41/115/7 68/116/7 31/114/7 
f 70/118/8 69/117/8 42/119/8 
f 42/119/8 14/120/8 70/118/8 
f 14/120/8 13/121/8 70/118/8 
f 13/121/8 60/122/8 70/118/8 
f 48/123/9 49/117/9 69/119/9 
f 69/119/9 70/124/9 48/123/9 
f 58/42/1 46/125/1 57/126/1 
f 47/127/1 46/125/1 58/42/1 
f 47/127/1 58/42/1 43/45/1 
f 47/127/1 43/45/1 65/128/1 
f 47/127/1 65/128/1 55/129/1 
f 47/127/1 55/129/1 36/49/1 
f 47/127/1 36/49/1 37/46/1 
f 47/127/1 37/46/1 42/47/1 
f 49/130/1 47/127/1 42/47/1 
f 42/47/1 69/131/1 49/130/1 
f 58/42/1 33/43/1 43/45/1 
f 33/43/1 58/42/1 62/41/1 
f 43/45/1 33/43/1 34/44/1 
f 43/45/1 50/132/1 65/128/1 
f 53/133/1 36/49/1 55/129/1 
f 35/50/1 37/46/1 36/49/1 
f 40/48/1 42/47/1 37/46/1 
f 21/114/10 31/113/10 68/134/10 
f 68/134/10 51/135/10 21/114/10 
f 65/137/2 66/136/2 56/138/2 
f 56/138/2 55/139/2 65/137/2 
f 61/140/8 29/91/8 17/93/8 
f 17/93/8 63/141/8 61/140/8 
f 60/42/3 61/41/3 63/43/3 
f 60/42/3 63/43/3 45/142/3 
f 60/42/3 45/142/3 48/143/3 
f 48/143/3 70/126/3 60/42/3 
f 63/43/3 67/45/3 45/142/3 
f 63/43/3 64/44/3 67/45/3 
f 67/45/3 56/128/3 45/142/3 
f 67/45/3 54/132/3 56/128/3 
f 56/128/3 66/129/3 45/142/3 
f 66/129/3 38/47/3 45/142/3 
f 66/129/3 41/46/3 38/47/3 
f 66/129/3 51/49/3 41/46/3 
f 51/49/3 66/129/3 52/133/3 
f 51/49/3 68/50/3 41/46/3 
f 38/47/3 41/46/3 39/48/3 
f 44/144/3 45/142/3 38/47/3 
f 38/47/3 59/131/3 44/144/3 

usemtl window

f 3/28/5 8/22/5 11/25/5 
f 11/25/5 4/27/5 3/28/5 
f 3/28/6 11/25/6 8/22/6 
f 11/25/6 3/28/6 4/27/6 
g cabinWindowHalf




usemtl woodDark

f 2/2/1 1/1/1 3/3/1 
f 3/3/1 4/4/1 2/2/1 
f 4/4/1 3/3/1 5/5/1 
f 5/5/1 6/6/1 4/4/1 
f 3/8/2 1/7/2 7/9/2 
f 7/9/2 8/10/2 3/8/2 
f 5/11/2 3/8/2 8/10/2 
f 8/10/2 9/12/2 5/11/2 
f 8/13/3 7/5/3 10/6/3 
f 10/6/3 11/14/3 8/13/3 
f 8/13/3 11/14/3 12/2/3 
f 12/2/3 9/1/3 8/13/3 
f 2/16/4 4/15/4 11/17/4 
f 11/17/4 10/18/4 2/16/4 
f 11/17/4 4/15/4 6/19/4 
f 6/19/4 12/20/4 11/17/4 
f 7/22/5 13/21/5 14/23/5 
f 14/23/5 15/24/5 7/22/5 
f 15/24/5 10/25/5 7/22/5 
f 15/24/5 16/26/5 10/25/5 
f 16/26/5 2/27/5 10/25/5 
f 13/21/5 7/22/5 1/28/5 
f 1/28/5 17/29/5 13/21/5 
f 1/28/5 2/27/5 17/29/5 
f 2/27/5 18/30/5 17/29/5 
f 2/27/5 16/26/5 18/30/5 
f 5/32/6 9/31/6 19/33/6 
f 19/33/6 20/34/6 5/32/6 
f 20/34/6 6/35/6 5/32/6 
f 20/34/6 21/36/6 6/35/6 
f 21/36/6 22/37/6 6/35/6 
f 23/38/6 19/33/6 9/31/6 
f 9/31/6 24/39/6 23/38/6 
f 9/31/6 12/40/6 24/39/6 
f 12/40/6 22/37/6 24/39/6 
f 12/40/6 6/35/6 22/37/6 

usemtl wood

f 14/42/3 25/41/3 15/43/3 
f 15/43/3 26/44/3 16/45/3 
f 23/47/3 24/46/3 27/48/3 
f 24/46/3 22/49/3 28/50/3 
f 29/48/1 13/47/1 17/46/1 
f 30/50/1 17/46/1 18/49/1 
f 21/45/1 20/43/1 31/44/1 
f 20/43/1 19/42/1 32/41/1 
f 34/52/7 33/51/7 24/53/7 
f 24/53/7 28/54/7 34/52/7 
f 26/56/8 35/55/8 36/57/8 
f 36/57/8 16/58/8 26/56/8 
f 15/56/9 37/55/9 35/57/9 
f 35/57/9 26/58/9 15/56/9 
f 32/60/7 19/59/7 38/61/7 
f 38/61/7 39/62/7 32/60/7 
f 25/64/8 40/63/8 37/65/8 
f 37/65/8 15/66/8 25/64/8 
f 20/60/10 32/59/10 39/67/10 
f 39/67/10 41/68/10 20/60/10 
f 14/64/9 42/63/9 40/65/9 
f 40/65/9 25/66/9 14/64/9 
f 43/52/10 34/51/10 28/53/10 
f 28/53/10 22/54/10 43/52/10 
f 45/70/4 44/69/4 46/71/4 
f 46/71/4 47/72/4 45/70/4 
f 48/73/4 45/70/4 47/72/4 
f 47/72/4 49/74/4 48/73/4 
f 50/76/7 43/75/7 22/77/7 
f 22/77/7 21/78/7 50/76/7 
f 21/78/7 51/79/7 50/76/7 
f 51/79/7 52/80/7 50/76/7 
f 54/82/8 53/81/8 55/83/8 
f 55/83/8 56/84/8 54/82/8 
f 58/86/10 57/85/10 59/87/10 
f 59/87/10 19/88/10 58/86/10 
f 59/87/10 38/89/10 19/88/10 
f 19/88/10 23/90/10 58/86/10 
f 60/92/9 13/91/9 29/93/9 
f 29/93/9 61/94/9 60/92/9 
f 62/96/7 58/95/7 23/97/7 
f 23/97/7 27/98/7 62/96/7 
f 63/100/9 17/99/9 30/101/9 
f 30/101/9 64/102/9 63/100/9 
f 65/76/10 50/75/10 52/103/10 
f 52/103/10 66/104/10 65/76/10 
f 33/96/10 62/95/10 27/97/10 
f 27/97/10 24/98/10 33/96/10 
f 64/105/8 30/99/8 18/101/8 
f 18/101/8 67/106/8 64/105/8 
f 57/86/7 46/85/7 44/107/7 
f 44/107/7 59/108/7 57/86/7 
f 16/109/9 36/81/9 53/83/9 
f 53/83/9 18/110/9 16/109/9 
f 53/83/9 67/111/9 18/110/9 
f 53/83/9 54/112/9 67/111/9 
f 31/114/7 20/113/7 41/115/7 
f 41/115/7 68/116/7 31/114/7 
f 70/118/8 69/117/8 42/119/8 
f 42/119/8 14/120/8 70/118/8 
f 14/120/8 13/121/8 70/118/8 
f 13/121/8 60/122/8 70/118/8 
f 48/123/9 49/117/9 69/119/9 
f 69/119/9 70/124/9 48/123/9 
f 58/42/1 46/125/1 57/126/1 
f 47/127/1 46/125/1 58/42/1 
f 47/127/1 58/42/1 43/45/1 
f 47/127/1 43/45/1 65/128/1 
f 47/127/1 65/128/1 55/129/1 
f 47/127/1 55/129/1 36/49/1 
f 47/127/1 36/49/1 37/46/1 
f 47/127/1 37/46/1 42/47/1 
f 49/130/1 47/127/1 42/47/1 
f 42/47/1 69/131/1 49/130/1 
f 58/42/1 33/43/1 43/45/1 
f 33/43/1 58/42/1 62/41/1 
f 43/45/1 33/43/1 34/44/1 
f 43/45/1 50/132/1 65/128/1 
f 53/133/1 36/49/1 55/129/1 
f 35/50/1 37/46/1 36/49/1 
f 40/48/1 42/47/1 37/46/1 
f 21/114/10 31/113/10 68/134/10 
f 68/134/10 51/135/10 21/114/10 
f 65/137/2 66/136/2 56/138/2 
f 56/138/2 55/139/2 65/137/2 
f 61/140/8 29/91/8 17/93/8 
f 17/93/8 63/141/8 61/140/8 
f 60/42/3 61/41/3 63/43/3 
f 60/42/3 63/43/3 45/142/3 
f 60/42/3 45/142/3 48/143/3 
f 48/143/3 70/126/3 60/42/3 
f 63/43/3 67/45/3 45/142/3 
f 63/43/3 64/44/3 67/45/3 
f 67/45/3 56/128/3 45/142/3 
f 67/45/3 54/132/3 56/128/3 
f 56/128/3 66/129/3 45/142/3 
f 66/129/3 38/47/3 45/142/3 
f 66/129/3 41/46/3 38/47/3 
f 66/129/3 51/49/3 41/46/3 
f 51/49/3 66/129/3 52/133/3 
f 51/49/3 68/50/3 41/46/3 
f 38/47/3 41/46/3 39/48/3 
f 44/144/3 45/142/3 38/47/3 
f 38/47/3 59/131/3 44/144/3 

usemtl window

f 3/28/5 8/22/5 11/25/5 
f 11/25/5 4/27/5 3/28/5 
f 3/28/6 11/25/6 8/22/6 
f 11/25/6 3/28/6 4/27/6 
