# Created by Kenney (www.kenney.nl) 

mtllib cabinSideCenter.mtl 

g cabinSideCenter

v -1 -1.376759E-14 -0.0551 
v -5.630909E-14 -1.376759E-14 -0.0551 
v -0.9166666 0.1266667 -0.0351 
v -0.08333334 0.1266667 -0.0351 
v -0.5833333 0.6333333 -0.0551 
v -0.4166667 0.6333333 -0.0551 
v -0.5 0.76 -0.0351 
v 1.804779E-14 1.611985E-15 0.0351 
v 0 0 7.219114E-16 
v -1 -9.592398E-14 0.0351 
v -1 0 7.219114E-16 
v -0.5 0.76 0.0351 
v -0.6666667 0.5066667 -0.0551 
v -0.5833333 0.6333333 -0.0351 
v -0.6666667 0.5066667 -0.0351 
v -0.75 0.38 -0.0351 
v -0.75 0.38 -0.0551 
v -0.8333333 0.2533333 -0.0351 
v -0.8333333 0.2533333 -0.0551 
v -0.9166666 0.1266667 -0.0551 
v -0.08333334 0.1266667 -0.0551 
v -0.1666667 0.2533333 -0.0351 
v -0.25 0.38 -0.0351 
v -0.1666667 0.2533333 -0.0551 
v -0.3333333 0.5066667 -0.0351 
v -0.25 0.38 -0.0551 
v -0.4166667 0.6333333 -0.0351 
v -0.3333333 0.5066667 -0.0551 

vn 0 0.1559626 -0.987763 
vn 0 -1 0 
vn 0 0 1 
vn -0.8354172 0.5496165 0 
vn 0.8354172 0.5496165 0 

vt 39.37008 -0.3383283 
vt 1.275373E-12 -0.3383283 
vt 36.08924 4.710329 
vt 3.28084 4.710329 
vt 22.96588 24.29093 
vt 16.4042 24.29093 
vt 19.68504 29.33959 
vt 7.105427E-13 1.38189 
vt 0 2.842171E-14 
vt -39.37008 1.38189 
vt -39.37008 2.842171E-14 
vt -2.216893E-12 -2.169291 
vt -39.37008 -2.169291 
vt -8.936013E-13 1.093882E-12 
vt -39.37008 -2.746117E-12 
vt -19.68504 29.92126 
vt -2.169291 2.238858 
vt -1.38189 8.208183 
vt -1.38189 2.238858 
vt -1.38189 14.17751 
vt -2.169291 8.208183 
vt -1.38189 -3.730468 
vt -2.169291 -3.730468 
vt -1.38189 -9.699794 
vt -2.169291 -9.699794 
vt -1.38189 -15.66912 
vt -2.169291 -15.66912 
vt -5.685778E-11 -21.63844 
vt -2.169291 -21.63844 
vt 1.38189 14.17751 
vt 1.38189 -21.63844 
vt 2.169291 5.969326 
vt 1.38189 5.969326 
vt 1.38189 11.93865 
vt -2.842171E-14 1.060012E-26 
vt 2.169291 -4.343687E-14 
vt 1.38189 17.90798 
vt 2.169291 11.93865 
vt 1.38189 23.8773 
vt 2.169291 17.90798 
vt 1.38189 29.84663 
vt 2.169291 23.8773 
vt 1.38189 35.81595 
vt 2.169291 29.84663 
vt -1.38189 35.81595 
vt -1.38189 1.778806E-13 
vt -9.84252 -1.38189 
vt -9.84252 -2.169291 
vt -29.52756 -1.38189 
vt -29.52756 -2.169291 
vt 36.08924 4.587524 
vt 3.28084 4.587524 
vt 32.8084 9.636181 
vt 6.56168 9.636181 
vt -16.4042 -1.38189 
vt -16.4042 -2.169291 
vt -22.96588 -1.38189 
vt -22.96588 -2.169291 
vt -3.28084 -1.38189 
vt -3.28084 -2.169291 
vt -36.08924 -1.38189 
vt -36.08924 -2.169291 
vt 29.52756 14.43923 
vt 9.84252 14.43923 
vt 26.24672 19.48788 
vt 13.12336 19.48788 
vt -13.12336 -1.38189 
vt -13.12336 -2.169291 
vt -26.24672 -1.38189 
vt -26.24672 -2.169291 
vt 32.8084 9.513376 
vt 6.56168 9.513376 
vt 29.52756 14.56203 
vt 9.84252 14.56203 
vt -6.56168 -1.38189 
vt -6.56168 -2.169291 
vt -32.8084 -1.38189 
vt -32.8084 -2.169291 
vt 26.24672 19.36508 
vt 13.12336 19.36508 
vt 22.96588 24.41374 
vt 16.4042 24.41374 

usemtl woodDark

f 2/2/1 1/1/1 3/3/1 
f 3/3/1 4/4/1 2/2/1 
f 6/6/1 5/5/1 7/7/1 
f 9/9/2 8/8/2 10/10/2 
f 10/10/2 11/11/2 9/9/2 
f 2/12/2 9/9/2 11/11/2 
f 11/11/2 1/13/2 2/12/2 
f 10/15/3 8/14/3 12/16/3 
f 14/18/4 13/17/4 15/19/4 
f 14/18/4 15/19/4 7/20/4 
f 7/20/4 5/21/4 14/18/4 
f 15/19/4 16/22/4 7/20/4 
f 15/19/4 17/23/4 16/22/4 
f 16/22/4 18/24/4 7/20/4 
f 16/22/4 19/25/4 18/24/4 
f 18/24/4 3/26/4 7/20/4 
f 18/24/4 20/27/4 3/26/4 
f 11/28/4 7/20/4 3/26/4 
f 3/26/4 1/29/4 11/28/4 
f 11/28/4 12/30/4 7/20/4 
f 11/28/4 10/31/4 12/30/4 
f 4/33/5 21/32/5 22/34/5 
f 4/33/5 22/34/5 9/35/5 
f 9/35/5 2/36/5 4/33/5 
f 22/34/5 23/37/5 9/35/5 
f 22/34/5 24/38/5 23/37/5 
f 23/37/5 25/39/5 9/35/5 
f 23/37/5 26/40/5 25/39/5 
f 25/39/5 27/41/5 9/35/5 
f 25/39/5 28/42/5 27/41/5 
f 27/41/5 7/43/5 9/35/5 
f 27/41/5 6/44/5 7/43/5 
f 7/43/5 12/45/5 9/35/5 
f 12/45/5 8/46/5 9/35/5 
f 26/48/2 23/47/2 16/49/2 
f 16/49/2 17/50/2 26/48/2 
f 21/52/1 20/51/1 18/53/1 
f 18/53/1 22/54/1 21/52/1 
f 6/56/2 27/55/2 14/57/2 
f 14/57/2 5/58/2 6/56/2 
f 21/60/2 4/59/2 3/61/2 
f 3/61/2 20/62/2 21/60/2 
f 26/64/1 17/63/1 15/65/1 
f 15/65/1 25/66/1 26/64/1 
f 28/68/2 25/67/2 15/69/2 
f 15/69/2 13/70/2 28/68/2 
f 24/72/1 19/71/1 16/73/1 
f 16/73/1 23/74/1 24/72/1 
f 24/76/2 22/75/2 18/77/2 
f 18/77/2 19/78/2 24/76/2 
f 28/80/1 13/79/1 14/81/1 
f 14/81/1 27/82/1 28/80/1 
g cabinSideCenter




usemtl woodDark

f 2/2/1 1/1/1 3/3/1 
f 3/3/1 4/4/1 2/2/1 
f 6/6/1 5/5/1 7/7/1 
f 9/9/2 8/8/2 10/10/2 
f 10/10/2 11/11/2 9/9/2 
f 2/12/2 9/9/2 11/11/2 
f 11/11/2 1/13/2 2/12/2 
f 10/15/3 8/14/3 12/16/3 
f 14/18/4 13/17/4 15/19/4 
f 14/18/4 15/19/4 7/20/4 
f 7/20/4 5/21/4 14/18/4 
f 15/19/4 16/22/4 7/20/4 
f 15/19/4 17/23/4 16/22/4 
f 16/22/4 18/24/4 7/20/4 
f 16/22/4 19/25/4 18/24/4 
f 18/24/4 3/26/4 7/20/4 
f 18/24/4 20/27/4 3/26/4 
f 11/28/4 7/20/4 3/26/4 
f 3/26/4 1/29/4 11/28/4 
f 11/28/4 12/30/4 7/20/4 
f 11/28/4 10/31/4 12/30/4 
f 4/33/5 21/32/5 22/34/5 
f 4/33/5 22/34/5 9/35/5 
f 9/35/5 2/36/5 4/33/5 
f 22/34/5 23/37/5 9/35/5 
f 22/34/5 24/38/5 23/37/5 
f 23/37/5 25/39/5 9/35/5 
f 23/37/5 26/40/5 25/39/5 
f 25/39/5 27/41/5 9/35/5 
f 25/39/5 28/42/5 27/41/5 
f 27/41/5 7/43/5 9/35/5 
f 27/41/5 6/44/5 7/43/5 
f 7/43/5 12/45/5 9/35/5 
f 12/45/5 8/46/5 9/35/5 
f 26/48/2 23/47/2 16/49/2 
f 16/49/2 17/50/2 26/48/2 
f 21/52/1 20/51/1 18/53/1 
f 18/53/1 22/54/1 21/52/1 
f 6/56/2 27/55/2 14/57/2 
f 14/57/2 5/58/2 6/56/2 
f 21/60/2 4/59/2 3/61/2 
f 3/61/2 20/62/2 21/60/2 
f 26/64/1 17/63/1 15/65/1 
f 15/65/1 25/66/1 26/64/1 
f 28/68/2 25/67/2 15/69/2 
f 15/69/2 13/70/2 28/68/2 
f 24/72/1 19/71/1 16/73/1 
f 16/73/1 23/74/1 24/72/1 
f 24/76/2 22/75/2 18/77/2 
f 18/77/2 19/78/2 24/76/2 
f 28/80/1 13/79/1 14/81/1 
f 14/81/1 27/82/1 28/80/1 
