# Created by Kenney (www.kenney.nl) 

mtllib treePineSnowed.mtl 

g treePineSnowed

v 0.09686661 0.18634 3.235065E-14 
v 0.0484333 0.18634 0.08388894 
v 0.1879324 0.18634 0.3255084 
v -0.1879324 0.18634 0.3255084 
v -0.0484333 0.18634 0.08388894 
v -0.09686661 0.18634 -3.217018E-14 
v -0.1879324 0.18634 -0.3255084 
v -0.3758647 0.18634 -1.251163E-13 
v 0.1879324 0.18634 -0.3255084 
v 0.3758647 0.18634 1.252967E-13 
v 0.0484333 0.18634 -0.08388894 
v -0.0484333 0.18634 -0.08388894 
v -0.120906 0.4557206 -0.2094153 
v -0.2299247 0.4796082 -7.584582E-14 
v 0.2386025 0.7939579 -0.0197084 
v 0.1769006 0.7875323 -0.009245335 
v 0.1270061 0.7590135 0.1755808 
v 0.09909435 0.759481 0.1547983 
v -0.09941798 0.740511 0.1755808 
v -0.09444235 0.7421092 0.1665696 
v -0.1842324 0.7575871 -0.005957908 
v -0.2142455 0.7569529 -0.0197084 
v 0.123775 0.8103999 -0.2149976 
v 0.08938351 0.799167 -0.151306 
v -0.1026491 0.7918974 -0.2149976 
v -0.0791146 0.7861999 -0.1573707 
v -0.1129868 0.4875479 0.1956989 
v 0.1250724 0.4389757 -0.2166318 
v 0.1381487 0.4765318 0.2644721 
v -0.1545396 0.4957708 0.2644721 
v 0.2454752 0.4483592 8.225278E-14 
v 0.1166171 0.4729577 0.2019867 
v 0.1516984 1.120867 0.0122154 
v 0.1268095 1.122457 0.01447199 
v 0.07106978 1.135038 0.1525313 
v 0.05346762 1.134346 0.1273362 
v -0.09103094 1.1444 0.1525313 
v -0.07241155 1.141466 0.125134 
v -0.1370618 1.13795 0.0182233 
v -0.172503 1.139589 0.0122154 
v 0.07022626 1.116056 -0.1281005 
v 0.06089446 1.117984 -0.1076164 
v -0.09187445 1.125417 -0.1281005 
v -0.07739425 1.12643 -0.100836 
v 0.2834734 0.4467553 0.01119404 
v -0.3019033 0.4852333 0.01119404 
v -0.1565787 0.4554568 -0.242084 
v 0.01040234 1.598415 -0.0122154 
v 0.1361097 0.4362178 -0.242084 
v 0.1104279 0.057596 3.68626E-14 
v 0.05521397 0.057596 0.0956334 
v -0.06515248 0 -0.1128474 
v -0.05521397 0.057596 -0.0956334 
v -0.130305 0 -4.33598E-14 
v -0.1104279 0.057596 -3.668212E-14 
v 0.06515248 0 0.1128474 
v -0.06515248 0 0.1128474 
v -0.05521397 0.057596 0.0956334 
v 0.06515248 0 -0.1128474 
v 0.05521397 0.057596 -0.0956334 
v 0.130305 0 4.345004E-14 

vn 0 -1 0 
vn -0.7953126 0.395774 -0.4591739 
vn 0.08074643 -0.9881321 -0.1306715 
vn -0.7953126 0.395774 0.4591739 
vn 0 0.395774 -0.918348 
vn 0.02393808 0.3641771 0.931022 
vn 0.7953126 0.395774 0.4591739 
vn 0 0.395774 0.918348 
vn -0.05752217 -0.9960564 0.06754791 
vn 0.8441947 0.2910093 0.4501656 
vn 0.8259511 0.3287354 -0.4579715 
vn -0.8071883 0.377335 0.4539441 
vn -0.8061296 0.3168149 -0.4997833 
vn -0.8511265 0.1215807 0.5106877 
vn 0.01358107 0.2351704 -0.9718593 
vn -0.8153759 0.3496103 0.4614485 
vn -0.01947279 -0.3371917 -0.9412346 
vn 0.01947279 0.3371917 0.9412346 
vn -0.06538323 -0.9946943 0.07942531 
vn -0.02652906 0.3246486 -0.9454625 
vn -0.8633907 0.2201079 -0.4539923 
vn -0.01025586 0.1255058 0.9920399 
vn 0.8365692 0.2318518 -0.4963835 
vn 0.8456329 0.2736492 0.4582806 
vn -0.8143123 0.2980976 -0.4980294 
vn 0.8272123 0.2280811 0.5135161 
vn 0.7953126 0.395774 -0.4591739 
vn 0.01607502 0.2445539 -0.9695024 
vn 0.8396553 0.2231027 -0.4951807 
vn 0.8624443 0.09084608 0.4979325 
vn -0.8297583 0.286359 -0.4790612 
vn 0 0.286359 0.9581224 
vn 0 0.286359 -0.9581224 
vn -0.8297583 0.286359 0.4790612 
vn 0.8297583 0.286359 0.4790612 
vn -0.8624443 0.09084608 0.4979325 
vn 0 0.09084609 0.995865 
vn -0.8624443 0.09084608 -0.4979325 
vn 0.8297583 0.286359 -0.4790612 
vn 0.8624443 0.09084608 -0.4979325 
vn 0 0.09084609 -0.995865 

vt 3.813646 1.273648E-12 
vt 1.906823 3.302714 
vt 7.398912 12.81529 
vt -7.398912 12.81529 
vt -1.906823 3.302714 
vt -3.813646 -1.266542E-12 
vt -7.398912 -12.81529 
vt -14.79782 -4.925838E-12 
vt 7.398912 -12.81529 
vt 14.79782 4.932943E-12 
vt 1.906823 -3.302714 
vt -1.906823 -3.302714 
vt -7.398912 1.665244 
vt -4.760078 13.21374 
vt 7.398912 1.665244 
vt 4.526077 14.23781 
vt -7.583322 10.33314 
vt -5.733359 8.686201 
vt -7.887408 1.376713 
vt -6.52249 1.496526 
vt -0.3040866 -3.365564 
vt -0.2842346 -2.955925 
vt 6.293555 1.011126 
vt 7.583322 0.8485816 
vt 0.3040866 14.54728 
vt 0.1377745 11.66822 
vt 7.887408 9.805004 
vt 5.906572 8.344712 
vt -4.526077 14.23781 
vt 4.448299 14.57819 
vt 4.760078 13.21374 
vt -4.92411 12.49587 
vt 5.1695 13.63119 
vt -6.349856 14.44448 
vt 3.743418 25.59229 
vt -3.885532 24.85794 
vt 4.83219 12.89815 
vt -4.591225 13.9527 
vt 4.591225 13.9527 
vt -4.448299 14.57819 
vt 4.858854 0.422975 
vt 4.170428 1.128695 
vt 6.023686 6.711721 
vt 4.852958 6.404604 
vt 1.164833 10.86579 
vt 1.023609 9.564171 
vt -3.643173 8.003666 
vt -4.858854 8.731104 
vt -1.164833 -1.711707 
vt -0.9216822 -0.8561386 
vt -6.023686 2.442357 
vt -4.893715 2.891752 
vt 3.598227 27.92477 
vt 4.862412 13.90143 
vt -3.541917 26.77043 
vt -6.628458 15.12676 
vt 5.039624 27.38195 
vt -3.876678 26.69654 
vt 2.54282 40.20419 
vt -2.919266 40.39066 
vt -3.759844 25.27925 
vt 3.89338 24.62125 
vt -5.442123 13.70074 
vt 6.093203 14.14872 
vt -4.852139 13.75673 
vt -3.624546 27.48531 
vt 6.637592 14.9927 
vt 3.62257 26.29764 
vt -5.005118 28.74939 
vt -2.161128 43.86137 
vt 3.913678 28.09723 
vt 2.75767 44.00086 
vt 3.687222 41.89108 
vt -2.694073 41.51189 
vt -0.402781 61.05037 
vt -2.92645 39.88526 
vt -0.2168327 59.16597 
vt 3.4611 40.08741 
vt 3.70734 40.41703 
vt -2.673213 40.02555 
vt -0.4194007 59.40358 
vt 8.896499 -4.907521 
vt 7.461419 -4.29373 
vt 10.81675 6.487837 
vt 8.598773 5.12005 
vt 1.92025 13.85053 
vt 1.462442 10.70369 
vt -6.988748 7.665155 
vt -8.896499 9.817874 
vt -1.92025 -8.940183 
vt -1.618872 -7.884766 
vt -10.81675 -1.577485 
vt -8.915015 -1.476558 
vt 3.802298 26.70465 
vt -5.108528 27.47481 
vt 2.93447 40.62947 
vt -2.515313 40.2779 
vt -5.611035 28.75805 
vt -2.095665 42.25975 
vt 3.238872 27.3477 
vt 3.146409 42.72469 
vt -3.842425 28.05085 
vt -2.799767 43.96231 
vt 5.071431 28.7851 
vt 2.156737 43.67975 
vt 5.462122 14.50987 
vt -6.074018 14.93636 
vt 3.327257 29.19948 
vt -3.240917 28.7286 
vt 0.617955 60.49184 
vt 2.422822 40.9446 
vt -3.946531 41.52468 
vt -2.415227 40.58908 
vt -0.6239511 60.09799 
vt 3.953721 41.1736 
vt 5.613684 28.70731 
vt -3.2358 27.2943 
vt 2.149059 41.99045 
vt -3.149048 42.47121 
vt 4.92411 12.49587 
vt -4.83219 12.89815 
vt -5.199906 14.30024 
vt -3.419796 29.03705 
vt 6.321674 15.0814 
vt 3.217035 28.51055 
vt 0.2062088 61.21037 
vt 2.93967 41.72882 
vt -3.448125 41.92311 
vt 1.906823 7.005846 
vt 2.173778 1.916139 
vt -1.906823 7.005846 
vt -2.173778 1.916139 
vt -2.565058 -1.272239 
vt -2.173778 1.094431 
vt 2.565058 -1.272239 
vt 2.173778 1.094431 
vt 5.130117 1.710632E-12 
vt 2.565058 -4.442811 
vt 2.565058 4.442811 
vt -2.565058 -4.442811 
vt -2.565058 4.442811 
vt -5.130117 -1.707079E-12 

usemtl snow

f 2/2/1 1/1/1 3/3/1 
f 3/3/1 4/4/1 2/2/1 
f 4/4/1 5/5/1 2/2/1 
f 4/4/1 6/6/1 5/5/1 
f 4/4/1 7/7/1 6/6/1 
f 4/4/1 8/8/1 7/7/1 
f 3/3/1 1/1/1 9/9/1 
f 9/9/1 10/10/1 3/3/1 
f 1/1/1 11/11/1 9/9/1 
f 11/11/1 7/7/1 9/9/1 
f 11/11/1 12/12/1 7/7/1 
f 12/12/1 6/6/1 7/7/1 
f 13/14/2 7/13/2 8/15/2 
f 8/15/2 14/16/2 13/14/2 
f 16/18/3 15/17/3 17/19/3 
f 17/19/3 18/20/3 16/18/3 
f 17/19/3 19/21/3 18/20/3 
f 19/21/3 20/22/3 18/20/3 
f 19/21/3 21/23/3 20/22/3 
f 19/21/3 22/24/3 21/23/3 
f 23/25/3 15/17/3 16/18/3 
f 16/18/3 24/26/3 23/25/3 
f 24/26/3 25/27/3 23/25/3 
f 21/23/3 22/24/3 25/27/3 
f 24/26/3 26/28/3 25/27/3 
f 26/28/3 21/23/3 25/27/3 
f 14/29/4 8/13/4 4/15/4 
f 4/15/4 27/30/4 14/29/4 
f 9/13/5 7/15/5 13/31/5 
f 13/31/5 28/32/5 9/13/5 
f 30/34/6 29/33/6 18/35/6 
f 18/35/6 20/36/6 30/34/6 
f 10/15/7 31/37/7 32/38/7 
f 32/38/7 3/13/7 10/15/7 
f 4/13/8 3/15/8 32/39/8 
f 32/39/8 27/40/8 4/13/8 
f 34/42/9 33/41/9 35/43/9 
f 35/43/9 36/44/9 34/42/9 
f 35/43/9 37/45/9 36/44/9 
f 37/45/9 38/46/9 36/44/9 
f 37/45/9 39/47/9 38/46/9 
f 37/45/9 40/48/9 39/47/9 
f 41/49/9 33/41/9 34/42/9 
f 34/42/9 42/50/9 41/49/9 
f 42/50/9 43/51/9 41/49/9 
f 39/47/9 40/48/9 43/51/9 
f 42/50/9 44/52/9 43/51/9 
f 44/52/9 39/47/9 43/51/9 
f 45/54/10 16/53/10 18/55/10 
f 18/55/10 29/56/10 45/54/10 
f 15/58/11 23/57/11 42/59/11 
f 42/59/11 34/60/11 15/58/11 
f 20/62/12 21/61/12 46/63/12 
f 46/63/12 30/64/12 20/62/12 
f 26/66/13 47/65/13 46/67/13 
f 46/67/13 21/68/13 26/66/13 
f 39/70/14 22/69/14 19/71/14 
f 19/71/14 38/72/14 39/70/14 
f 41/74/15 43/73/15 48/75/15 
f 48/77/16 40/76/16 37/78/16 
f 35/80/17 37/79/17 48/81/17 
f 35/80/18 48/81/18 37/79/18 
f 31/83/19 45/82/19 29/84/19 
f 29/84/19 32/85/19 31/83/19 
f 29/84/19 30/86/19 32/85/19 
f 30/86/19 27/87/19 32/85/19 
f 30/86/19 14/88/19 27/87/19 
f 30/86/19 46/89/19 14/88/19 
f 49/90/19 45/82/19 31/83/19 
f 31/83/19 28/91/19 49/90/19 
f 28/91/19 47/92/19 49/90/19 
f 14/88/19 46/89/19 47/92/19 
f 28/91/19 13/93/19 47/92/19 
f 13/93/19 14/88/19 47/92/19 
f 23/95/20 25/94/20 44/96/20 
f 44/96/20 42/97/20 23/95/20 
f 44/99/21 25/98/21 22/100/21 
f 22/100/21 39/101/21 44/99/21 
f 38/103/22 19/102/22 17/104/22 
f 17/104/22 36/105/22 38/103/22 
f 45/107/23 49/106/23 24/108/23 
f 24/108/23 16/109/23 45/107/23 
f 33/111/24 48/110/24 35/112/24 
f 48/114/25 43/113/25 40/115/25 
f 17/117/26 15/116/26 34/118/26 
f 34/118/26 36/119/26 17/117/26 
f 10/13/27 9/15/27 28/120/27 
f 28/120/27 31/121/27 10/13/27 
f 24/123/28 49/122/28 47/124/28 
f 47/124/28 26/125/28 24/123/28 
f 41/127/29 48/126/29 33/128/29 

usemtl wood

f 50/130/30 1/129/30 2/131/30 
f 2/131/30 51/132/30 50/130/30 
f 53/134/31 52/133/31 54/135/31 
f 54/135/31 55/136/31 53/134/31 
f 57/133/32 56/135/32 51/136/32 
f 51/136/32 58/134/32 57/133/32 
f 59/133/33 52/135/33 53/136/33 
f 53/136/33 60/134/33 59/133/33 
f 55/134/34 54/133/34 57/135/34 
f 57/135/34 58/136/34 55/134/34 
f 61/135/35 50/136/35 51/134/35 
f 51/134/35 56/133/35 61/135/35 
f 6/131/36 55/132/36 58/130/36 
f 58/130/36 5/129/36 6/131/36 
f 58/132/37 51/130/37 2/129/37 
f 2/129/37 5/131/37 58/132/37 
f 12/131/38 53/132/38 55/130/38 
f 55/130/38 6/129/38 12/131/38 
f 59/138/1 61/137/1 56/139/1 
f 56/139/1 52/140/1 59/138/1 
f 56/139/1 57/141/1 52/140/1 
f 57/141/1 54/142/1 52/140/1 
f 61/133/39 59/135/39 60/136/39 
f 60/136/39 50/134/39 61/133/39 
f 50/132/40 60/130/40 11/129/40 
f 11/129/40 1/131/40 50/132/40 
f 60/132/41 53/130/41 12/129/41 
f 12/129/41 11/131/41 60/132/41 
g treePineSnowed




usemtl snow

f 2/2/1 1/1/1 3/3/1 
f 3/3/1 4/4/1 2/2/1 
f 4/4/1 5/5/1 2/2/1 
f 4/4/1 6/6/1 5/5/1 
f 4/4/1 7/7/1 6/6/1 
f 4/4/1 8/8/1 7/7/1 
f 3/3/1 1/1/1 9/9/1 
f 9/9/1 10/10/1 3/3/1 
f 1/1/1 11/11/1 9/9/1 
f 11/11/1 7/7/1 9/9/1 
f 11/11/1 12/12/1 7/7/1 
f 12/12/1 6/6/1 7/7/1 
f 13/14/2 7/13/2 8/15/2 
f 8/15/2 14/16/2 13/14/2 
f 16/18/3 15/17/3 17/19/3 
f 17/19/3 18/20/3 16/18/3 
f 17/19/3 19/21/3 18/20/3 
f 19/21/3 20/22/3 18/20/3 
f 19/21/3 21/23/3 20/22/3 
f 19/21/3 22/24/3 21/23/3 
f 23/25/3 15/17/3 16/18/3 
f 16/18/3 24/26/3 23/25/3 
f 24/26/3 25/27/3 23/25/3 
f 21/23/3 22/24/3 25/27/3 
f 24/26/3 26/28/3 25/27/3 
f 26/28/3 21/23/3 25/27/3 
f 14/29/4 8/13/4 4/15/4 
f 4/15/4 27/30/4 14/29/4 
f 9/13/5 7/15/5 13/31/5 
f 13/31/5 28/32/5 9/13/5 
f 30/34/6 29/33/6 18/35/6 
f 18/35/6 20/36/6 30/34/6 
f 10/15/7 31/37/7 32/38/7 
f 32/38/7 3/13/7 10/15/7 
f 4/13/8 3/15/8 32/39/8 
f 32/39/8 27/40/8 4/13/8 
f 34/42/9 33/41/9 35/43/9 
f 35/43/9 36/44/9 34/42/9 
f 35/43/9 37/45/9 36/44/9 
f 37/45/9 38/46/9 36/44/9 
f 37/45/9 39/47/9 38/46/9 
f 37/45/9 40/48/9 39/47/9 
f 41/49/9 33/41/9 34/42/9 
f 34/42/9 42/50/9 41/49/9 
f 42/50/9 43/51/9 41/49/9 
f 39/47/9 40/48/9 43/51/9 
f 42/50/9 44/52/9 43/51/9 
f 44/52/9 39/47/9 43/51/9 
f 45/54/10 16/53/10 18/55/10 
f 18/55/10 29/56/10 45/54/10 
f 15/58/11 23/57/11 42/59/11 
f 42/59/11 34/60/11 15/58/11 
f 20/62/12 21/61/12 46/63/12 
f 46/63/12 30/64/12 20/62/12 
f 26/66/13 47/65/13 46/67/13 
f 46/67/13 21/68/13 26/66/13 
f 39/70/14 22/69/14 19/71/14 
f 19/71/14 38/72/14 39/70/14 
f 41/74/15 43/73/15 48/75/15 
f 48/77/16 40/76/16 37/78/16 
f 35/80/17 37/79/17 48/81/17 
f 35/80/18 48/81/18 37/79/18 
f 31/83/19 45/82/19 29/84/19 
f 29/84/19 32/85/19 31/83/19 
f 29/84/19 30/86/19 32/85/19 
f 30/86/19 27/87/19 32/85/19 
f 30/86/19 14/88/19 27/87/19 
f 30/86/19 46/89/19 14/88/19 
f 49/90/19 45/82/19 31/83/19 
f 31/83/19 28/91/19 49/90/19 
f 28/91/19 47/92/19 49/90/19 
f 14/88/19 46/89/19 47/92/19 
f 28/91/19 13/93/19 47/92/19 
f 13/93/19 14/88/19 47/92/19 
f 23/95/20 25/94/20 44/96/20 
f 44/96/20 42/97/20 23/95/20 
f 44/99/21 25/98/21 22/100/21 
f 22/100/21 39/101/21 44/99/21 
f 38/103/22 19/102/22 17/104/22 
f 17/104/22 36/105/22 38/103/22 
f 45/107/23 49/106/23 24/108/23 
f 24/108/23 16/109/23 45/107/23 
f 33/111/24 48/110/24 35/112/24 
f 48/114/25 43/113/25 40/115/25 
f 17/117/26 15/116/26 34/118/26 
f 34/118/26 36/119/26 17/117/26 
f 10/13/27 9/15/27 28/120/27 
f 28/120/27 31/121/27 10/13/27 
f 24/123/28 49/122/28 47/124/28 
f 47/124/28 26/125/28 24/123/28 
f 41/127/29 48/126/29 33/128/29 

usemtl wood

f 50/130/30 1/129/30 2/131/30 
f 2/131/30 51/132/30 50/130/30 
f 53/134/31 52/133/31 54/135/31 
f 54/135/31 55/136/31 53/134/31 
f 57/133/32 56/135/32 51/136/32 
f 51/136/32 58/134/32 57/133/32 
f 59/133/33 52/135/33 53/136/33 
f 53/136/33 60/134/33 59/133/33 
f 55/134/34 54/133/34 57/135/34 
f 57/135/34 58/136/34 55/134/34 
f 61/135/35 50/136/35 51/134/35 
f 51/134/35 56/133/35 61/135/35 
f 6/131/36 55/132/36 58/130/36 
f 58/130/36 5/129/36 6/131/36 
f 58/132/37 51/130/37 2/129/37 
f 2/129/37 5/131/37 58/132/37 
f 12/131/38 53/132/38 55/130/38 
f 55/130/38 6/129/38 12/131/38 
f 59/138/1 61/137/1 56/139/1 
f 56/139/1 52/140/1 59/138/1 
f 56/139/1 57/141/1 52/140/1 
f 57/141/1 54/142/1 52/140/1 
f 61/133/39 59/135/39 60/136/39 
f 60/136/39 50/134/39 61/133/39 
f 50/132/40 60/130/40 11/129/40 
f 11/129/40 1/131/40 50/132/40 
f 60/132/41 53/130/41 12/129/41 
f 12/129/41 11/131/41 60/132/41 
