# Created by Kenney (www.kenney.nl) 

mtllib treePineSnow.mtl 

g treePineSnow

v -0.2155208 0.61894 -0.124491 
v -0.1665696 0.7421092 -0.09444235 
v -0.2096352 0.6180064 0.1186215 
v -0.1547983 0.759481 0.09909435 
v 0.1997274 0.6208284 -0.1178466 
v 0.196695 0.6176924 0.1127466 
v 0.1573707 0.7861999 -0.07911461 
v 0.151306 0.799167 0.08938351 
v -0.0009743508 0.6171438 0.230187 
v 0.009245338 0.7875323 0.1769006 
v -0.002618071 0.6214103 -0.2430679 
v 0.005957905 0.7575871 -0.1842324 
v 0.2710701 0.3126579 0.1565024 
v 4.62978E-09 0.3173496 0.31067 
v 0.2166318 0.4389757 0.1250724 
v 3.658211E-09 0.4483592 0.2454752 
v 0.1579168 0.9591637 -0.09002167 
v 0.161307 0.964192 0.09233472 
v 0.100836 1.12643 -0.07739426 
v 0.1076164 1.117984 0.06089446 
v 0.002618206 0.9582075 0.182706 
v -0.01447199 1.122457 0.1268095 
v -0.1503574 0.9409888 -0.08591476 
v 0.0007425444 0.9474514 -0.1756537 
v -0.125134 1.141466 -0.07241154 
v -0.0182233 1.13795 -0.1370618 
v -0.2637476 0.3296489 0.1522747 
v -0.2019867 0.4729577 0.1166171 
v -4.513909E-09 0.3329741 -0.3028947 
v -3.426469E-09 0.4796082 -0.2299247 
v -0.2606036 0.336944 -0.1504596 
v -0.1956989 0.4875479 -0.1129868 
v 0.2674619 0.3210303 -0.1544192 
v 0.2094153 0.4557206 -0.120906 
v -0.07015797 1.371407 -0.0403143 
v -1.207859E-09 1.369002 -0.08105036 
v 0.0122154 1.598415 0.01040234 
v -0.07015797 1.366727 0.04073606 
v 0.07015797 1.361916 -0.04073606 
v 0.07015797 1.357235 0.0403143 
v 7.575689E-05 1.361121 0.08061223 
v -0.1514585 0.9466799 0.09023684 
v -0.1273362 1.134346 0.05346763 
v -0.1755808 0.740511 -0.09941798 
v -0.1755808 0.7590135 0.1270061 
v 0.1281005 1.116056 0.07022626 
v -0.0122154 1.120867 0.1516984 
v 0.01970839 0.7569529 -0.2142455 
v 0.3255084 0.18634 -0.1879324 
v 0.3255084 0.18634 0.1879323 
v -0.1525313 1.1444 -0.09103094 
v -0.1525313 1.135038 0.07106978 
v -0.0122154 1.139589 -0.172503 
v -0.3255084 0.18634 -0.1879323 
v -5.601349E-09 0.18634 -0.3758647 
v 0.1281005 1.125417 -0.09187445 
v 5.601349E-09 0.18634 0.3758647 
v -0.3255084 0.18634 0.1879324 
v 0.2149976 0.7918974 -0.1026491 
v 0.2149976 0.8103999 0.123775 
v 0.0197084 0.7939579 0.2386025 
v 0.242084 0.4362178 0.1361097 
v -0.01119404 0.4467553 0.2834734 
v -0.2644721 0.4957708 -0.1545396 
v -0.2644721 0.4765318 0.1381487 
v -0.01119405 0.4852333 -0.3019033 
v 0.08388895 0.18634 0.0484333 
v 1.443561E-09 0.18634 0.09686661 
v -0.08388894 0.18634 0.04843331 
v -0.08388895 0.18634 -0.0484333 
v 0.08388894 0.18634 -0.04843331 
v -1.443561E-09 0.18634 -0.09686661 
v 0.242084 0.4554568 -0.1565787 
v 0.1128474 0 0.06515248 
v 1.941878E-09 0 0.130305 
v 0.0956334 0.057596 0.05521397 
v 1.64566E-09 0.057596 0.1104279 
v -0.1128474 0 -0.06515248 
v -0.0956334 0.057596 -0.05521397 
v -0.1128474 0 0.06515248 
v -0.0956334 0.057596 0.05521397 
v -1.645659E-09 0.057596 -0.1104279 
v 0.0956334 0.057596 -0.05521397 
v 0.1128474 0 -0.06515248 
v -1.941878E-09 0 -0.130305 

vn -0.931022 0.3641771 0.0239381 
vn 0.9695024 0.2445539 0.016075 
vn -0.4501655 0.2910093 0.8441947 
vn 0.4997833 0.3168149 -0.8061296 
vn -0.4539441 0.377335 -0.8071883 
vn 0.4963835 0.2318518 0.8365692 
vn 0.4591739 0.395774 0.7953126 
vn 0.9454625 0.3246486 -0.02652907 
vn 0.4579715 0.3287354 0.8259511 
vn -0.5106877 0.1215807 -0.8511265 
vn -0.4591739 0.395774 0.7953126 
vn -0.4591739 0.395774 -0.7953126 
vn -0.918348 0.395774 0 
vn 0.918348 0.395774 0 
vn 0.4591739 0.395774 -0.7953126 
vn 0.4539923 0.2201079 -0.8633907 
vn -0.4614485 0.3496103 -0.8153759 
vn -0.9412346 0.3371917 0.01947281 
vn 0.4980294 0.2980976 -0.8143123 
vn 0.9718593 0.2351704 0.01358105 
vn -0.4582806 0.2736493 0.8456328 
vn 0.4951807 0.2231027 0.8396553 
vn -0.5135161 0.2280811 0.8272123 
vn -0.9920399 0.1255058 -0.01025585 
vn 0.9412346 -0.3371917 -0.01947281 
vn 0.1306715 -0.9881321 0.08074643 
vn -0.06754791 -0.9960564 -0.05752217 
vn 0 -1 0 
vn -0.07942531 -0.9946943 -0.06538323 
vn 0.4790612 0.286359 0.8297583 
vn -0.9581224 0.286359 0 
vn 0.4979325 0.09084608 -0.8624443 
vn -0.4979325 0.09084608 -0.8624443 
vn -0.4790612 0.286359 0.8297583 
vn 0.9581224 0.286359 0 
vn -0.4790612 0.286359 -0.8297583 
vn 0.4790612 0.286359 -0.8297583 
vn -0.995865 0.09084609 0 
vn 0.4979325 0.09084608 0.8624443 
vn -0.4979325 0.09084608 0.8624443 
vn 0.995865 0.09084609 0 

vt -5.117694 19.65121 
vt -3.885532 24.85794 
vt 4.456459 19.61174 
vt 3.743418 25.59229 
vt 4.769354 21.79597 
vt -4.309851 21.66864 
vt 3.217035 28.51055 
vt -3.419796 29.03705 
vt 4.23032 20.9131 
vt -5.085188 20.9486 
vt 3.598227 27.92477 
vt -3.541917 26.77043 
vt -4.238343 20.62102 
vt -3.624546 27.48531 
vt 5.130081 20.64517 
vt 3.62257 26.29764 
vt 4.993291 19.38498 
vt -4.600983 19.49 
vt 3.89338 24.62125 
vt -3.759844 25.27925 
vt -4.657467 21.83248 
vt -3.240917 28.7286 
vt 4.39469 21.85468 
vt 3.327257 29.19948 
vt 6.161511 7.080559 
vt -6.115551 7.281697 
vt 4.92411 12.49587 
vt -4.83219 12.89815 
vt 3.368384 33.66706 
vt -3.811921 33.87636 
vt 2.93447 40.62947 
vt -2.515313 40.2779 
vt -3.397972 33.54359 
vt -2.919266 40.39066 
vt 3.791222 33.79307 
vt 2.54282 40.20419 
vt 3.335674 36.04904 
vt -3.583123 36.30538 
vt 2.75767 44.00086 
vt -2.161128 43.86137 
vt 6.115551 7.281697 
vt -5.995068 7.808973 
vt 4.83219 12.89815 
vt -4.591225 13.9527 
vt -5.962494 7.951528 
vt -4.526077 14.23781 
vt 5.923606 8.121719 
vt 4.448299 14.57819 
vt -5.923606 8.121719 
vt -4.448299 14.57819 
vt 5.995068 7.808973 
vt 4.591225 13.9527 
vt 6.079495 7.43949 
vt -6.161511 7.080559 
vt 4.760078 13.21374 
vt -4.92411 12.49587 
vt -6.079495 7.43949 
vt -4.760078 13.21374 
vt 5.962494 7.951528 
vt 4.526077 14.23781 
vt 3.192641 35.03619 
vt -3.85335 35.5089 
vt 3.146409 42.72469 
vt -2.095665 42.25975 
vt 1.622134 49.62669 
vt -1.571641 49.52562 
vt -0.2168327 59.16597 
vt -1.546306 49.71457 
vt 1.64397 49.91031 
vt -0.4194007 59.40358 
vt 1.664885 50.6358 
vt -1.519589 50.34354 
vt -0.6239511 60.09799 
vt -0.402781 61.05037 
vt 1.64222 51.47073 
vt -1.548427 51.28113 
vt 1.514792 50.77883 
vt -1.664288 51.00826 
vt 0.617955 60.49184 
vt 1.572939 51.46959 
vt -1.609626 51.62654 
vt 0.2062088 61.21037 
vt -3.192424 34.88275 
vt -3.149048 42.47121 
vt 3.881371 35.34888 
vt 2.149059 41.99045 
vt -3.321096 36.00658 
vt -2.799767 43.96231 
vt 3.614084 36.23243 
vt 2.156737 43.67975 
vt -3.842425 28.05085 
vt 5.071431 28.7851 
vt 2.93967 41.72882 
vt -3.448125 41.92311 
vt 3.913678 28.09723 
vt -5.005118 28.74939 
vt 7.398912 1.665244 
vt -7.398912 1.665244 
vt 3.70734 40.41703 
vt -2.673213 40.02555 
vt -2.92645 39.88526 
vt 3.4611 40.08741 
vt 3.687222 41.89108 
vt -2.694073 41.51189 
vt -2.415227 40.58908 
vt 3.953721 41.1736 
vt 3.238872 27.3477 
vt -5.611035 28.75805 
vt 2.422822 40.9446 
vt -3.946531 41.52468 
vt 7.887408 9.805004 
vt 0.1377745 11.66822 
vt 0.3040866 14.54728 
vt -7.583322 10.33314 
vt 5.906572 8.344712 
vt -5.733359 8.686201 
vt -7.887408 1.376713 
vt -6.52249 1.496526 
vt -0.2842346 -2.955925 
vt 7.583322 0.8485816 
vt 6.293555 1.011126 
vt -0.3040866 -3.365564 
vt 5.462122 14.50987 
vt -6.074018 14.93636 
vt -6.349856 14.44448 
vt 5.1695 13.63119 
vt -5.442123 13.70074 
vt 6.093203 14.14872 
vt -6.023686 2.442357 
vt -0.9216822 -0.8561386 
vt -1.164833 -1.711707 
vt 4.858854 0.422975 
vt 4.170428 1.128695 
vt 6.023686 6.711721 
vt 4.852958 6.404604 
vt -4.893715 2.891752 
vt -4.858854 8.731104 
vt -3.643173 8.003666 
vt 1.164833 10.86579 
vt 1.023609 9.564171 
vt 12.81529 7.398911 
vt 12.81529 -7.398912 
vt 2.205255E-07 14.79782 
vt 3.302715 1.906823 
vt 5.683312E-08 3.813646 
vt -12.81529 7.398912 
vt -3.302714 1.906823 
vt -3.302715 -1.906823 
vt 3.302714 -1.906823 
vt -2.205255E-07 -14.79782 
vt -5.683311E-08 -3.813646 
vt -12.81529 -7.398911 
vt 6.321674 15.0814 
vt -5.199906 14.30024 
vt -10.81675 -1.577485 
vt -1.618872 -7.884766 
vt -1.92025 -8.940183 
vt 8.896499 -4.907521 
vt 7.461419 -4.29373 
vt 8.598773 5.12005 
vt 10.81675 6.487837 
vt -8.915015 -1.476558 
vt -8.896499 9.817874 
vt -6.988748 7.665155 
vt 1.462442 10.70369 
vt 1.92025 13.85053 
vt 4.862412 13.90143 
vt -6.628458 15.12676 
vt -4.852139 13.75673 
vt 6.637592 14.9927 
vt -3.2358 27.2943 
vt 5.613684 28.70731 
vt -3.876678 26.69654 
vt 5.039624 27.38195 
vt 3.802298 26.70465 
vt -5.108528 27.47481 
vt 2.565058 -1.272239 
vt -2.565058 -1.272239 
vt 2.173778 1.094431 
vt -2.173778 1.094431 
vt 2.173778 1.916139 
vt -2.173778 1.916139 
vt 1.906823 7.005846 
vt -1.906823 7.005846 
vt 4.442811 2.565058 
vt 4.442811 -2.565058 
vt 7.645191E-08 5.130117 
vt -7.64519E-08 -5.130117 
vt -4.442811 2.565058 
vt -4.442811 -2.565058 

usemtl snow

f 2/2/1 1/1/1 3/3/1 
f 3/3/1 4/4/1 2/2/1 
f 6/6/2 5/5/2 7/7/2 
f 7/7/2 8/8/2 6/6/2 
f 3/10/3 9/9/3 10/11/3 
f 10/11/3 4/12/3 3/10/3 
f 7/14/4 5/13/4 11/15/4 
f 11/15/4 12/16/4 7/14/4 
f 11/18/5 1/17/5 2/19/5 
f 2/19/5 12/20/5 11/18/5 
f 10/22/6 9/21/6 6/23/6 
f 6/23/6 8/24/6 10/22/6 
f 14/26/7 13/25/7 15/27/7 
f 15/27/7 16/28/7 14/26/7 
f 18/30/8 17/29/8 19/31/8 
f 19/31/8 20/32/8 18/30/8 
f 22/34/9 21/33/9 18/35/9 
f 18/35/9 20/36/9 22/34/9 
f 24/38/10 23/37/10 25/39/10 
f 25/39/10 26/40/10 24/38/10 
f 27/42/11 14/41/11 16/43/11 
f 16/43/11 28/44/11 27/42/11 
f 30/46/12 29/45/12 31/47/12 
f 31/47/12 32/48/12 30/46/12 
f 32/50/13 31/49/13 27/51/13 
f 27/51/13 28/52/13 32/50/13 
f 13/54/14 33/53/14 34/55/14 
f 34/55/14 15/56/14 13/54/14 
f 34/58/15 33/57/15 29/59/15 
f 29/59/15 30/60/15 34/58/15 
f 17/62/16 24/61/16 26/63/16 
f 26/63/16 19/64/16 17/62/16 
f 36/66/17 35/65/17 37/67/17 
f 35/69/18 38/68/18 37/70/18 
f 39/72/19 36/71/19 37/73/19 
f 39/75/20 37/74/20 40/76/20 
f 38/78/21 41/77/21 37/79/21 
f 41/81/22 40/80/22 37/82/22 
f 43/84/23 42/83/23 21/85/23 
f 21/85/23 22/86/23 43/84/23 
f 25/88/24 23/87/24 42/89/24 
f 42/89/24 43/90/24 25/88/24 

usemtl leaves

f 23/87/24 44/91/24 45/92/24 
f 45/92/24 42/89/24 23/87/24 
f 47/94/22 46/93/22 40/80/22 
f 40/80/22 41/81/22 47/94/22 
f 48/96/10 44/95/10 23/37/10 
f 23/37/10 24/38/10 48/96/10 
f 50/98/14 49/97/14 33/53/14 
f 33/53/14 13/54/14 50/98/14 
f 52/100/25 51/99/25 35/69/25 
f 35/69/25 38/68/25 52/100/25 
f 35/69/25 37/70/25 38/68/25 
f 52/100/18 35/69/18 51/99/18 
f 35/69/18 52/100/18 38/68/18 
f 36/66/17 53/101/17 51/102/17 
f 51/102/17 35/65/17 36/66/17 
f 55/98/12 54/97/12 31/47/12 
f 31/47/12 29/45/12 55/98/12 
f 46/104/20 56/103/20 39/75/20 
f 39/75/20 40/76/20 46/104/20 
f 39/72/19 56/105/19 53/106/19 
f 53/106/19 36/71/19 39/72/19 
f 49/98/15 55/97/15 29/59/15 
f 29/59/15 33/57/15 49/98/15 
f 58/98/11 57/97/11 14/41/11 
f 14/41/11 27/42/11 58/98/11 
f 59/108/16 48/107/16 24/61/16 
f 24/61/16 17/62/16 59/108/16 
f 52/110/21 47/109/21 41/77/21 
f 41/77/21 38/78/21 52/110/21 
f 57/98/7 50/97/7 13/25/7 
f 13/25/7 14/26/7 57/98/7 
f 31/49/13 54/98/13 58/97/13 
f 58/97/13 27/51/13 31/49/13 
f 8/112/26 59/111/26 60/113/26 
f 60/113/26 61/114/26 8/112/26 
f 8/112/26 7/115/26 59/111/26 
f 61/114/26 10/116/26 8/112/26 
f 61/114/26 45/117/26 10/116/26 
f 45/117/26 4/118/26 10/116/26 
f 45/117/26 2/119/26 4/118/26 
f 48/120/26 59/111/26 7/115/26 
f 7/115/26 12/121/26 48/120/26 
f 12/121/26 44/122/26 48/120/26 
f 12/121/26 2/119/26 44/122/26 
f 2/119/26 45/117/26 44/122/26 
f 63/124/6 62/123/6 6/23/6 
f 6/23/6 9/21/6 63/124/6 
f 1/1/1 64/125/1 65/126/1 
f 65/126/1 3/3/1 1/1/1 
f 11/18/5 66/127/5 64/128/5 
f 64/128/5 1/17/5 11/18/5 
f 20/130/27 56/129/27 46/131/27 
f 46/131/27 47/132/27 20/130/27 
f 47/132/27 22/133/27 20/130/27 
f 47/132/27 52/134/27 22/133/27 
f 52/134/27 43/135/27 22/133/27 
f 56/129/27 20/130/27 19/136/27 
f 19/136/27 53/137/27 56/129/27 
f 19/136/27 26/138/27 53/137/27 
f 26/138/27 51/139/27 53/137/27 
f 43/135/27 52/134/27 51/139/27 
f 26/138/27 25/140/27 51/139/27 
f 25/140/27 43/135/27 51/139/27 
f 49/142/28 50/141/28 57/143/28 
f 57/143/28 67/144/28 49/142/28 
f 57/143/28 68/145/28 67/144/28 
f 57/143/28 58/146/28 68/145/28 
f 58/146/28 69/147/28 68/145/28 
f 58/146/28 70/148/28 69/147/28 
f 49/142/28 67/144/28 71/149/28 
f 71/149/28 55/150/28 49/142/28 
f 71/149/28 72/151/28 55/150/28 
f 72/151/28 70/148/28 55/150/28 
f 70/148/28 54/152/28 55/150/28 
f 70/148/28 58/146/28 54/152/28 
f 62/154/2 73/153/2 5/5/2 
f 5/5/2 6/6/2 62/154/2 
f 15/156/29 73/155/29 62/157/29 
f 62/157/29 63/158/29 15/156/29 
f 63/158/29 16/159/29 15/156/29 
f 63/158/29 28/160/29 16/159/29 
f 63/158/29 65/161/29 28/160/29 
f 73/155/29 15/156/29 34/162/29 
f 34/162/29 66/163/29 73/155/29 
f 34/162/29 30/164/29 66/163/29 
f 30/164/29 32/165/29 66/163/29 
f 32/165/29 64/166/29 66/163/29 
f 32/165/29 28/160/29 64/166/29 
f 28/160/29 65/161/29 64/166/29 
f 65/168/3 63/167/3 9/9/3 
f 9/9/3 3/10/3 65/168/3 
f 5/13/4 73/169/4 66/170/4 
f 66/170/4 11/15/4 5/13/4 
f 42/83/23 45/171/23 61/172/23 
f 61/172/23 21/85/23 42/83/23 
f 21/33/9 61/173/9 60/174/9 
f 60/174/9 18/35/9 21/33/9 
f 60/176/8 59/175/8 17/29/8 
f 17/29/8 18/30/8 60/176/8 

usemtl wood

f 75/178/30 74/177/30 76/179/30 
f 76/179/30 77/180/30 75/178/30 
f 79/180/31 78/178/31 80/177/31 
f 80/177/31 81/179/31 79/180/31 
f 83/182/32 82/181/32 72/183/32 
f 72/183/32 71/184/32 83/182/32 
f 82/182/33 79/181/33 70/183/33 
f 70/183/33 72/184/33 82/182/33 
f 80/178/34 75/177/34 77/179/34 
f 77/179/34 81/180/34 80/178/34 
f 74/178/35 84/177/35 83/179/35 
f 83/179/35 76/180/35 74/178/35 
f 85/178/36 78/177/36 79/179/36 
f 79/179/36 82/180/36 85/178/36 
f 84/178/37 85/177/37 82/179/37 
f 82/179/37 83/180/37 84/178/37 
f 70/184/38 79/182/38 81/181/38 
f 81/181/38 69/183/38 70/184/38 
f 77/182/39 76/181/39 67/183/39 
f 67/183/39 68/184/39 77/182/39 
f 81/182/40 77/181/40 68/183/40 
f 68/183/40 69/184/40 81/182/40 
f 84/186/28 74/185/28 75/187/28 
f 75/187/28 85/188/28 84/186/28 
f 75/187/28 80/189/28 85/188/28 
f 80/189/28 78/190/28 85/188/28 
f 76/182/41 83/181/41 71/183/41 
f 71/183/41 67/184/41 76/182/41 
g treePineSnow




usemtl snow

f 2/2/1 1/1/1 3/3/1 
f 3/3/1 4/4/1 2/2/1 
f 6/6/2 5/5/2 7/7/2 
f 7/7/2 8/8/2 6/6/2 
f 3/10/3 9/9/3 10/11/3 
f 10/11/3 4/12/3 3/10/3 
f 7/14/4 5/13/4 11/15/4 
f 11/15/4 12/16/4 7/14/4 
f 11/18/5 1/17/5 2/19/5 
f 2/19/5 12/20/5 11/18/5 
f 10/22/6 9/21/6 6/23/6 
f 6/23/6 8/24/6 10/22/6 
f 14/26/7 13/25/7 15/27/7 
f 15/27/7 16/28/7 14/26/7 
f 18/30/8 17/29/8 19/31/8 
f 19/31/8 20/32/8 18/30/8 
f 22/34/9 21/33/9 18/35/9 
f 18/35/9 20/36/9 22/34/9 
f 24/38/10 23/37/10 25/39/10 
f 25/39/10 26/40/10 24/38/10 
f 27/42/11 14/41/11 16/43/11 
f 16/43/11 28/44/11 27/42/11 
f 30/46/12 29/45/12 31/47/12 
f 31/47/12 32/48/12 30/46/12 
f 32/50/13 31/49/13 27/51/13 
f 27/51/13 28/52/13 32/50/13 
f 13/54/14 33/53/14 34/55/14 
f 34/55/14 15/56/14 13/54/14 
f 34/58/15 33/57/15 29/59/15 
f 29/59/15 30/60/15 34/58/15 
f 17/62/16 24/61/16 26/63/16 
f 26/63/16 19/64/16 17/62/16 
f 36/66/17 35/65/17 37/67/17 
f 35/69/18 38/68/18 37/70/18 
f 39/72/19 36/71/19 37/73/19 
f 39/75/20 37/74/20 40/76/20 
f 38/78/21 41/77/21 37/79/21 
f 41/81/22 40/80/22 37/82/22 
f 43/84/23 42/83/23 21/85/23 
f 21/85/23 22/86/23 43/84/23 
f 25/88/24 23/87/24 42/89/24 
f 42/89/24 43/90/24 25/88/24 

usemtl leaves

f 23/87/24 44/91/24 45/92/24 
f 45/92/24 42/89/24 23/87/24 
f 47/94/22 46/93/22 40/80/22 
f 40/80/22 41/81/22 47/94/22 
f 48/96/10 44/95/10 23/37/10 
f 23/37/10 24/38/10 48/96/10 
f 50/98/14 49/97/14 33/53/14 
f 33/53/14 13/54/14 50/98/14 
f 52/100/25 51/99/25 35/69/25 
f 35/69/25 38/68/25 52/100/25 
f 35/69/25 37/70/25 38/68/25 
f 52/100/18 35/69/18 51/99/18 
f 35/69/18 52/100/18 38/68/18 
f 36/66/17 53/101/17 51/102/17 
f 51/102/17 35/65/17 36/66/17 
f 55/98/12 54/97/12 31/47/12 
f 31/47/12 29/45/12 55/98/12 
f 46/104/20 56/103/20 39/75/20 
f 39/75/20 40/76/20 46/104/20 
f 39/72/19 56/105/19 53/106/19 
f 53/106/19 36/71/19 39/72/19 
f 49/98/15 55/97/15 29/59/15 
f 29/59/15 33/57/15 49/98/15 
f 58/98/11 57/97/11 14/41/11 
f 14/41/11 27/42/11 58/98/11 
f 59/108/16 48/107/16 24/61/16 
f 24/61/16 17/62/16 59/108/16 
f 52/110/21 47/109/21 41/77/21 
f 41/77/21 38/78/21 52/110/21 
f 57/98/7 50/97/7 13/25/7 
f 13/25/7 14/26/7 57/98/7 
f 31/49/13 54/98/13 58/97/13 
f 58/97/13 27/51/13 31/49/13 
f 8/112/26 59/111/26 60/113/26 
f 60/113/26 61/114/26 8/112/26 
f 8/112/26 7/115/26 59/111/26 
f 61/114/26 10/116/26 8/112/26 
f 61/114/26 45/117/26 10/116/26 
f 45/117/26 4/118/26 10/116/26 
f 45/117/26 2/119/26 4/118/26 
f 48/120/26 59/111/26 7/115/26 
f 7/115/26 12/121/26 48/120/26 
f 12/121/26 44/122/26 48/120/26 
f 12/121/26 2/119/26 44/122/26 
f 2/119/26 45/117/26 44/122/26 
f 63/124/6 62/123/6 6/23/6 
f 6/23/6 9/21/6 63/124/6 
f 1/1/1 64/125/1 65/126/1 
f 65/126/1 3/3/1 1/1/1 
f 11/18/5 66/127/5 64/128/5 
f 64/128/5 1/17/5 11/18/5 
f 20/130/27 56/129/27 46/131/27 
f 46/131/27 47/132/27 20/130/27 
f 47/132/27 22/133/27 20/130/27 
f 47/132/27 52/134/27 22/133/27 
f 52/134/27 43/135/27 22/133/27 
f 56/129/27 20/130/27 19/136/27 
f 19/136/27 53/137/27 56/129/27 
f 19/136/27 26/138/27 53/137/27 
f 26/138/27 51/139/27 53/137/27 
f 43/135/27 52/134/27 51/139/27 
f 26/138/27 25/140/27 51/139/27 
f 25/140/27 43/135/27 51/139/27 
f 49/142/28 50/141/28 57/143/28 
f 57/143/28 67/144/28 49/142/28 
f 57/143/28 68/145/28 67/144/28 
f 57/143/28 58/146/28 68/145/28 
f 58/146/28 69/147/28 68/145/28 
f 58/146/28 70/148/28 69/147/28 
f 49/142/28 67/144/28 71/149/28 
f 71/149/28 55/150/28 49/142/28 
f 71/149/28 72/151/28 55/150/28 
f 72/151/28 70/148/28 55/150/28 
f 70/148/28 54/152/28 55/150/28 
f 70/148/28 58/146/28 54/152/28 
f 62/154/2 73/153/2 5/5/2 
f 5/5/2 6/6/2 62/154/2 
f 15/156/29 73/155/29 62/157/29 
f 62/157/29 63/158/29 15/156/29 
f 63/158/29 16/159/29 15/156/29 
f 63/158/29 28/160/29 16/159/29 
f 63/158/29 65/161/29 28/160/29 
f 73/155/29 15/156/29 34/162/29 
f 34/162/29 66/163/29 73/155/29 
f 34/162/29 30/164/29 66/163/29 
f 30/164/29 32/165/29 66/163/29 
f 32/165/29 64/166/29 66/163/29 
f 32/165/29 28/160/29 64/166/29 
f 28/160/29 65/161/29 64/166/29 
f 65/168/3 63/167/3 9/9/3 
f 9/9/3 3/10/3 65/168/3 
f 5/13/4 73/169/4 66/170/4 
f 66/170/4 11/15/4 5/13/4 
f 42/83/23 45/171/23 61/172/23 
f 61/172/23 21/85/23 42/83/23 
f 21/33/9 61/173/9 60/174/9 
f 60/174/9 18/35/9 21/33/9 
f 60/176/8 59/175/8 17/29/8 
f 17/29/8 18/30/8 60/176/8 

usemtl wood

f 75/178/30 74/177/30 76/179/30 
f 76/179/30 77/180/30 75/178/30 
f 79/180/31 78/178/31 80/177/31 
f 80/177/31 81/179/31 79/180/31 
f 83/182/32 82/181/32 72/183/32 
f 72/183/32 71/184/32 83/182/32 
f 82/182/33 79/181/33 70/183/33 
f 70/183/33 72/184/33 82/182/33 
f 80/178/34 75/177/34 77/179/34 
f 77/179/34 81/180/34 80/178/34 
f 74/178/35 84/177/35 83/179/35 
f 83/179/35 76/180/35 74/178/35 
f 85/178/36 78/177/36 79/179/36 
f 79/179/36 82/180/36 85/178/36 
f 84/178/37 85/177/37 82/179/37 
f 82/179/37 83/180/37 84/178/37 
f 70/184/38 79/182/38 81/181/38 
f 81/181/38 69/183/38 70/184/38 
f 77/182/39 76/181/39 67/183/39 
f 67/183/39 68/184/39 77/182/39 
f 81/182/40 77/181/40 68/183/40 
f 68/183/40 69/184/40 81/182/40 
f 84/186/28 74/185/28 75/187/28 
f 75/187/28 85/188/28 84/186/28 
f 75/187/28 80/189/28 85/188/28 
f 80/189/28 78/190/28 85/188/28 
f 76/182/41 83/181/41 71/183/41 
f 71/183/41 67/184/41 76/182/41 
