# Blender v2.75 (sub 0) OBJ File: 'Bush1.blend'
# www.blender.org
mtllib Bush1.mtl
o Cylinder
v 1.100487 -0.058326 1.026070
v 1.100487 0.190894 1.026070
v 1.129640 0.190894 0.945972
v 1.129640 -0.058326 0.945972
v 1.203459 -0.058326 0.903353
v 1.287402 -0.058326 0.918154
v 1.342192 -0.058326 0.983451
v 1.342192 -0.058326 1.068689
v 1.287402 -0.058326 1.133985
v 1.203459 -0.058326 1.148787
v 1.129640 -0.058326 1.106168
v 1.129640 0.190894 1.106168
v 1.146045 0.269178 0.870884
v 1.203459 0.190894 0.903353
v 1.287402 0.190894 0.918154
v 1.342192 0.190894 0.983451
v 1.342192 0.190894 1.068689
v 1.287402 0.190894 1.133985
v 1.203459 0.190894 1.148787
v 1.121902 0.317714 0.916097
v 1.207177 0.243353 0.846826
v 1.276694 0.252322 0.855182
v 1.322068 0.291889 0.892040
v 1.322068 0.343539 0.940155
v 1.276694 0.383106 0.977013
v 1.207177 0.392074 0.985369
v 1.146045 0.366249 0.961311
v 1.137121 0.323501 0.130130
v 1.205154 0.298720 0.100090
v 1.110252 0.370073 0.186587
v 1.282519 0.307327 0.110522
v 1.333015 0.345293 0.156547
v 1.333015 0.394854 0.216627
v 1.282519 0.432820 0.262652
v 1.270652 0.426402 0.376485
v 1.137121 0.416645 0.243044
v 1.141583 0.433948 -0.234521
v 1.206166 0.412204 -0.264505
v 1.279606 0.419756 -0.254091
v 1.280818 0.427431 0.342159
v 1.280505 0.426889 0.350432
v 1.269887 0.426357 0.378478
v 1.205154 0.441426 0.273084
v 1.116077 0.474814 -0.178169
v 1.327542 0.453070 -0.208153
v 1.327542 0.496559 -0.148184
v 1.279606 0.529873 -0.102246
v 1.280030 0.428453 0.329246
v 1.279525 0.467808 0.524266
v 1.268210 0.426289 0.382396
v 1.225716 0.434710 0.334548
v 1.141583 0.515681 -0.121816
v 1.169801 0.691004 -0.582268
v 1.212562 0.677918 -0.603202
v 1.261188 0.682463 -0.595931
v 1.292926 0.702512 -0.563858
v 1.206166 0.537425 -0.091832
v 1.279210 0.428819 0.325655
v 1.282181 0.436917 0.330892
v 1.280537 0.426981 0.349066
v 1.266915 0.463657 0.538803
v 1.253362 0.428076 0.382427
v 1.228913 0.435613 0.315858
v 1.251168 0.428363 0.382100
v 1.152914 0.715598 -0.542923
v 1.292926 0.728685 -0.521989
v 1.261188 0.748734 -0.489916
v 1.212562 0.753279 -0.482646
v 1.276299 0.429456 0.322319
v 1.280482 0.478656 0.507865
v 1.275014 0.504218 0.625678
v 1.244733 0.434351 0.306507
v 1.227451 0.434983 0.327556
v 1.235519 0.432269 0.352804
v 1.169801 0.740192 -0.503580
v 1.164550 0.786595 -0.587304
v 1.173112 0.794071 -0.611170
v 1.184145 0.811632 -0.643479
v 1.216748 0.837597 -0.675020
v 1.248399 0.850256 -0.674699
v 1.271238 0.847518 -0.645193
v 1.277189 0.827830 -0.590721
v 1.270268 0.430661 0.315386
v 1.272582 0.449017 0.321992
v 1.286594 0.507317 0.611299
v 1.257790 0.508927 0.631560
v 1.248551 0.468145 0.544674
v 1.236692 0.434917 0.312356
v 1.233469 0.445948 0.344305
v 1.240788 0.454912 0.330747
v 1.236779 0.431975 0.354873
v 1.174087 0.772420 -0.527966
v 1.257219 0.793521 -0.526019
v 1.231797 0.774557 -0.504587
v 1.213074 0.769718 -0.496344
v 1.264838 0.431660 0.310382
v 1.269337 0.491125 0.497274
v 1.287111 0.516773 0.595150
v 1.297051 0.578516 0.702942
v 1.285800 0.581964 0.707064
v 1.233026 0.479172 0.539132
v 1.256235 0.456123 0.321935
v 1.234824 0.499559 0.508308
v 1.237702 0.433427 0.356265
v 1.240488 0.431366 0.357227
v 1.253698 0.433135 0.308461
v 1.304430 0.579947 0.692994
v 1.242980 0.519239 0.626192
v 1.275941 0.588677 0.703430
v 1.251305 0.499380 0.497449
v 1.227605 0.491578 0.524770
v 1.276323 0.528161 0.584787
v 1.304484 0.585587 0.681874
v 1.326239 0.648123 0.723571
v 1.323197 0.647533 0.727671
v 1.318560 0.648954 0.729370
v 1.314496 0.651721 0.727872
v 1.237515 0.530329 0.612085
v 1.243952 0.537009 0.595841
v 1.259278 0.536153 0.585061
v 1.326261 0.650448 0.718987
v 1.323254 0.653419 0.716066
v 1.318624 0.655648 0.716173
v 1.314538 0.656090 0.719259
v 1.312908 0.654539 0.723879
v 1.272088 0.595514 0.693742
v 1.297189 0.592797 0.674786
v 1.285956 0.598204 0.675046
v 1.276043 0.599277 0.682532
v 0.709436 1.151398 1.900035
v 0.716193 0.692834 1.309849
v 1.099901 0.950959 1.837374
v 1.403756 1.292013 1.820874
v 0.135395 0.972837 0.980247
v 1.486244 0.839149 1.495147
v 0.820369 0.510276 0.279693
v 0.193259 1.563583 1.268418
v 1.836908 1.163250 1.241111
v 0.053707 1.220425 -0.351408
v -0.110054 1.415578 0.419745
v 1.547405 0.669608 0.068617
v 0.530918 0.982576 -0.701325
v 1.049996 0.835011 -0.834774
v 1.974404 1.255857 0.081841
v 0.770482 1.412717 -1.057868
v 1.543909 0.988909 -0.722163
v 1.830848 1.686672 -0.449181
v 1.365517 1.415498 -1.070787
v 1.406210 1.423886 1.829810
v 0.707667 1.282416 1.909451
v 1.361106 1.739112 1.679978
v 0.188352 1.697107 1.273994
v 0.948813 1.883970 1.530822
v 1.841995 1.294340 1.246521
v -0.116805 1.548202 0.420161
v 1.670310 1.913912 0.865685
v 0.047951 1.351862 -0.355682
v 0.132962 1.977974 -0.036155
v 0.783548 2.246772 0.619286
v 1.980328 1.387509 0.080201
v 0.769084 1.545323 -1.066438
v 1.835899 1.820944 -0.454050
v 0.539907 2.085500 -0.592361
v 1.485788 2.090837 -0.611323
v 1.367738 1.548121 -1.079436
v 1.053821 1.953726 -0.933961
vt 0.960589 0.948871
vt 0.937848 0.948871
vt 0.937848 0.926129
vt 0.960589 0.926129
vt 0.949219 0.926129
vt 0.941910 0.928790
vt 0.938021 0.935526
vt 0.939372 0.943185
vt 0.945330 0.948185
vt 0.953108 0.948185
vt 0.959066 0.943185
vt 0.960417 0.935526
vt 0.956528 0.928790
vt 0.942535 0.928301
vt 0.938405 0.933986
vt 0.938405 0.941014
vt 0.942535 0.946699
vt 0.949219 0.948871
vt 0.955902 0.946699
vt 0.960033 0.941014
vt 0.960033 0.933986
vt 0.955902 0.928301
vt 0.958418 0.944183
vt 0.960589 0.937500
vt 0.958418 0.930817
vt 0.952732 0.926686
vt 0.945705 0.926686
vt 0.940020 0.930817
vt 0.937848 0.937500
vt 0.940020 0.944183
vt 0.945705 0.948314
vt 0.952732 0.948314
vt 0.937848 0.942634
vt 0.947794 0.941219
vt 0.960589 0.938835
vt 0.960589 0.935949
vt 0.937848 0.938835
vt 0.960589 0.935162
vt 0.937848 0.935949
vt 0.960589 0.936500
vt 0.937848 0.935162
vt 0.960589 0.939895
vt 0.937848 0.936500
vt 0.960589 0.942634
vt 0.937848 0.945872
vt 0.960589 0.944616
vt 0.937848 0.939895
vt 0.937848 0.944616
vt 0.951381 0.946660
vt 0.960589 0.947291
vt 0.960589 0.945872
vt 0.937848 0.947291
vt 0.048895 0.911156
vt 0.049011 0.911142
vt 0.049036 0.911261
vt 0.048249 0.912389
vt 0.048345 0.912442
vt 0.048471 0.912641
vt 0.049445 0.913471
vt 0.049951 0.913336
vt 0.049411 0.912848
vt 0.049493 0.911810
vt 0.049609 0.911909
vt 0.049695 0.912113
vt 0.049075 0.912124
vt 0.049277 0.912100
vt 0.049226 0.912243
vt 0.047437 0.912193
vt 0.047794 0.912519
vt 0.047728 0.912351
vt 0.047941 0.912541
vt 0.047314 0.911859
vt 0.049493 0.910909
vt 0.049541 0.911196
vt 0.049771 0.911574
vt 0.049329 0.912034
vt 0.049426 0.912134
vt 0.049571 0.912401
vt 0.049014 0.914249
vt 0.050819 0.914380
vt 0.049112 0.912486
vt 0.048960 0.913314
vt 0.048368 0.912763
vt 0.047757 0.912574
vt 0.048268 0.910906
vt 0.048762 0.911833
vt 0.049977 0.911289
vt 0.050221 0.911200
vt 0.050152 0.911430
vt 0.051298 0.913069
vt 0.050738 0.912950
vt 0.050687 0.912084
vt 0.046614 0.911713
vt 0.045832 0.911314
vt 0.046006 0.911167
vt 0.049290 0.910523
vt 0.048968 0.911453
vt 0.049215 0.911439
vt 0.049255 0.911373
vt 0.047897 0.910828
vt 0.048156 0.911249
vt 0.049106 0.911826
vt 0.047270 0.912389
vt 0.047966 0.912875
vt 0.047096 0.911777
vt 0.047954 0.912205
vt 0.047772 0.912044
vt 0.048165 0.912543
vt 0.050554 0.912255
vt 0.050409 0.912439
vt 0.050380 0.912474
vt 0.050325 0.912590
vt 0.050360 0.912091
vt 0.049906 0.911716
vt 0.049803 0.912535
vt 0.050298 0.912371
vt 0.049169 0.912831
vt 0.049730 0.912795
vt 0.049241 0.912346
vt 0.051935 0.099260
vt 0.043937 0.099645
vt 0.043921 0.098387
vt 0.051253 0.098133
vt 0.035007 0.078102
vt 0.046412 0.076480
vt 0.046390 0.077799
vt 0.035647 0.079272
vt 0.050043 0.912733
vt 0.050206 0.912827
vt 0.049962 0.912274
vt 0.050532 0.912288
vt 0.050334 0.911830
vt 0.030711 0.084261
vt 0.031942 0.084816
vt 0.049687 0.912440
vt 0.049989 0.912787
vt 0.050785 0.081274
vt 0.056884 0.085117
vt 0.055622 0.085548
vt 0.050304 0.082255
vt 0.036394 0.096138
vt 0.037160 0.095167
vt 0.047545 0.912205
vt 0.048372 0.912153
vt 0.047840 0.911811
vt 0.056884 0.090990
vt 0.055721 0.090547
vt 0.029053 0.091239
vt 0.030374 0.090849
vt 0.034660 0.085745
vt 0.036127 0.088805
vt 0.040523 0.083317
vt 0.047103 0.094323
vt 0.042717 0.089771
vt 0.050375 0.091289
vt 0.050523 0.085533
vt 0.052729 0.088162
vn -0.939700 0.000000 -0.342000
vn 0.000000 -1.000000 -0.000000
vn -0.939700 0.000000 0.342000
vn -0.929600 -0.137300 -0.342200
vn -0.500000 0.000000 -0.866000
vn 0.173600 0.000000 -0.984800
vn 0.766000 0.000000 -0.642800
vn 1.000000 0.000000 0.000000
vn 0.766000 0.000000 0.642800
vn 0.173700 0.000000 0.984800
vn -0.500000 0.000000 0.866000
vn -0.907700 0.331000 0.257800
vn -0.443500 -0.601000 -0.664900
vn 0.145300 -0.712000 -0.687000
vn 0.727800 -0.394800 -0.560700
vn 0.992000 0.117800 -0.045600
vn 0.710900 0.485100 0.509200
vn 0.152000 0.625800 0.765000
vn -0.447200 0.580800 0.680200
vn -0.890100 -0.455400 -0.020600
vn -0.387500 -0.919600 -0.065000
vn -0.899100 0.435500 0.043700
vn 0.127700 -0.989100 -0.072900
vn 0.652800 -0.756000 -0.048000
vn 0.999800 -0.014900 0.013900
vn 0.658700 0.750000 0.060400
vn 0.135900 0.988300 0.069900
vn -0.388200 0.919100 0.067100
vn -0.914400 -0.384600 -0.126400
vn -0.424900 -0.864500 -0.268600
vn 0.141800 -0.945400 -0.293300
vn 0.119400 0.990500 0.068300
vn -0.905900 0.411000 0.102000
vn 0.696500 -0.684700 -0.214700
vn 0.999800 0.014100 -0.010900
vn 0.683700 0.706100 0.184500
vn 0.552800 -0.810500 0.193900
vn -0.413900 0.880200 0.232100
vn -0.937800 -0.238500 -0.252300
vn -0.481500 -0.685400 -0.546200
vn 0.165000 -0.777600 -0.606700
vn 0.752900 -0.501800 -0.425700
vn 0.137600 0.957600 0.253000
vn 0.969800 -0.231300 -0.077500
vn 0.998100 -0.058700 0.019400
vn 0.510100 -0.835600 0.203900
vn -0.916000 0.371400 0.151700
vn 0.996400 0.070300 -0.048100
vn 0.721500 0.616700 0.315000
vn 0.155100 0.863600 0.479800
vn 0.951500 -0.195600 -0.237300
vn 0.994100 -0.102700 0.033800
vn 0.582400 -0.756500 0.297500
vn -0.115800 -0.966300 0.229900
vn -0.455500 0.782000 0.425300
vn -0.931800 -0.070000 -0.356200
vn -0.495800 -0.345400 -0.796800
vn 0.172200 -0.407800 -0.896700
vn 0.759600 -0.228000 -0.609100
vn 0.991600 0.109800 -0.068600
vn 0.759100 0.133600 -0.637100
vn 0.805200 0.579400 -0.126600
vn 0.993000 -0.115000 -0.026800
vn -0.090300 -0.898500 0.429600
vn -0.160200 -0.959400 0.232200
vn -0.742800 0.650400 -0.159000
vn -0.823500 0.562700 -0.072500
vn -0.858100 0.171900 0.483800
vn -0.931800 0.289600 0.218900
vn 0.759600 0.447700 0.471800
vn 0.172200 0.627400 0.759400
vn -0.495800 0.565000 0.659500
vn 0.669900 -0.621400 0.406300
vn 0.034100 -0.724900 0.688000
vn -0.617100 -0.766800 0.176800
vn -0.248200 0.682800 -0.687100
vn -0.410100 0.661500 -0.627900
vn -0.865500 0.478300 -0.149200
vn -0.851000 0.039200 0.523700
vn 0.684600 0.168900 -0.709100
vn 0.816600 0.504400 -0.280500
vn 0.398400 0.893300 -0.208100
vn 0.984300 -0.162500 -0.069300
vn -0.619600 -0.683400 0.386000
vn -0.571500 -0.473800 0.670000
vn -0.180500 0.953100 -0.242900
vn 0.248400 0.469300 -0.847400
vn -0.948300 -0.313200 0.051300
vn -0.539500 -0.378100 0.752300
vn 0.210300 0.477000 -0.853400
vn 0.744800 -0.456500 0.486700
vn 0.205500 -0.398200 0.894000
vn -0.405500 -0.104100 0.908100
vn -0.958800 -0.201500 0.200300
vn -0.852100 0.507400 -0.128300
vn -0.217300 0.906200 -0.362800
vn 0.959900 -0.251900 -0.123100
vn 0.402200 0.815700 0.415700
vn -0.925900 0.019300 0.377200
vn -0.802500 0.288200 0.522500
vn 0.383600 0.838800 -0.386300
vn 0.813200 0.366100 -0.452400
vn 0.750300 0.120100 -0.650100
vn 0.214000 0.485300 -0.847800
vn -0.398100 0.672800 -0.623600
vn -0.799500 0.595000 -0.082400
vn -0.822600 0.560100 -0.098300
vn -0.288000 0.825600 -0.485200
vn 0.333300 0.727300 -0.600000
vn -0.294500 -0.756300 0.584200
vn 0.125900 -0.064300 0.990000
vn -0.588500 -0.641700 0.491800
vn 0.080300 -0.917200 0.390300
vn 0.524700 -0.432000 0.733500
vn -0.479900 -0.870900 0.105800
vn -0.816800 -0.186300 0.546000
vn 0.139900 -0.972400 0.186500
vn 0.728200 -0.307800 0.612400
vn -0.628000 -0.771100 -0.104900
vn -0.934400 -0.078000 0.347600
vn 0.246800 -0.961000 0.124800
vn 0.717200 -0.687800 0.112500
vn -0.559400 -0.799200 -0.219700
vn -0.847700 -0.528500 -0.046300
vn 0.137100 -0.958200 -0.251000
vn 0.806800 -0.588800 0.048700
vn -0.335200 -0.883700 -0.326600
vn -0.648700 -0.237900 -0.722900
vn 0.350700 -0.867800 -0.352000
vn 0.788500 -0.569100 -0.233300
vn -0.343700 -0.478400 -0.808100
vn -0.979500 -0.049300 -0.195500
vn 0.992500 -0.043200 0.114300
vn 0.338600 -0.506500 -0.793000
vn 0.889500 -0.206200 -0.407800
vn 0.793900 -0.055800 0.605500
vn -0.018500 -0.367900 -0.929700
vn 0.810200 -0.051600 -0.583900
vn -0.937800 -0.048800 0.343700
vn 0.818800 -0.116900 -0.562000
vn -0.693600 -0.053700 -0.718400
vn -0.021400 -0.064700 -0.997700
vn 0.126900 -0.069400 0.989500
vn 0.954100 -0.046600 -0.295800
vn -0.790300 -0.054500 0.610300
vn 0.015600 0.431100 0.902200
vn -0.101500 0.558800 0.823100
vn 0.785300 0.353900 0.508100
vn -0.384500 0.597200 0.703900
vn 0.790100 0.464700 0.399800
vn -0.766100 0.621000 0.165500
vn -0.343900 0.849300 0.400400
vn 0.929500 0.342100 0.137600
vn -0.928900 0.260400 -0.263200
vn -0.538300 0.819100 0.198400
vn 0.254700 0.913500 0.317400
vn 0.909000 0.408000 0.085300
vn -0.711800 0.267800 -0.649300
vn -0.784000 0.363300 -0.503400
vn -0.329700 0.942200 -0.059100
vn 0.333200 0.940200 0.071000
vn 0.604800 0.796100 0.019800
vn -0.379500 0.514100 -0.769200
vn -0.008200 0.991400 -0.130300
vn 0.623800 0.428200 -0.653800
vn -0.022100 0.322400 -0.946400
vn -0.012800 0.926300 -0.376500
vn 0.376300 0.556800 -0.740500
vn 0.224200 0.931900 0.285200
usemtl Material.001
s off
f 1/1/1 2/2/1 3/3/1 4/4/1
f 1/5/2 4/6/2 5/7/2 6/8/2 7/9/2 8/10/2 9/11/2 10/12/2 11/13/2
f 11/1/3 12/2/3 2/3/3 1/4/3
f 3/4/4 2/1/4 20/2/4 13/3/4
f 4/1/5 3/2/5 14/3/5 5/4/5
f 5/1/6 14/2/6 15/3/6 6/4/6
f 6/1/7 15/2/7 16/3/7 7/4/7
f 7/1/8 16/2/8 17/3/8 8/4/8
f 8/1/9 17/2/9 18/3/9 9/4/9
f 9/1/10 18/2/10 19/3/10 10/4/10
f 10/1/11 19/2/11 12/3/11 11/4/11
f 2/4/12 12/1/12 27/2/12 20/3/12
f 13/2/13 21/3/13 14/4/13 3/1/13
f 15/4/14 14/1/14 21/2/14 22/3/14
f 16/4/15 15/1/15 22/2/15 23/3/15
f 17/2/16 16/3/16 23/4/16 24/1/16
f 18/2/17 17/3/17 24/4/17 25/1/17
f 19/2/18 18/3/18 25/4/18 26/1/18
f 12/4/19 19/1/19 26/2/19 27/3/19
f 13/2/20 20/3/20 30/4/20 28/1/20
f 21/4/21 13/1/21 28/2/21 29/3/21
f 20/2/22 27/3/22 36/4/22 30/1/22
f 29/2/23 31/3/23 22/4/23 21/1/23
f 23/4/24 22/1/24 31/2/24 32/3/24
f 24/4/25 23/1/25 32/2/25 33/3/25
f 25/4/26 24/1/26 33/2/26 34/3/26
f 26/5/27 25/14/27 34/15/27 69/16/27 58/17/27 48/18/27 40/19/27 60/20/27 41/21/27 35/22/27
f 27/4/28 26/1/28 43/2/28 36/3/28
f 28/4/29 30/1/29 44/2/29 37/3/29
f 29/4/30 28/1/30 37/2/30 38/3/30
f 31/4/31 29/1/31 38/2/31 39/3/31
f 88/19/32 72/23/32 106/20/32 96/24/32 83/21/32 69/25/32 34/22/32 43/26/32 26/5/32 35/27/32 42/14/32 50/28/32 62/15/32 64/29/32 105/16/32 91/30/32 74/17/32 51/31/32 73/18/32 63/32/32
f 30/4/33 36/1/33 52/2/33 44/3/33
f 39/2/34 45/3/34 32/4/34 31/1/34
f 33/4/35 32/1/35 45/2/35 46/3/35
f 34/4/36 33/1/36 46/2/36 47/3/36
f 41/1/37 49/2/37 42/3/37 35/4/37
f 36/4/38 43/1/38 57/2/38 52/3/38
f 37/4/39 44/1/39 65/2/39 53/3/39
f 38/4/40 37/1/40 53/2/40 54/3/40
f 39/4/41 38/1/41 54/2/41 55/3/41
f 45/4/42 39/1/42 55/2/42 56/3/42
f 47/2/43 57/3/43 43/4/43 34/1/43
f 48/1/44 59/2/44 40/3/44
f 41/4/45 60/1/45 70/2/45 49/3/45
f 42/1/46 49/2/46 61/3/46 50/4/46
f 44/4/47 52/1/47 75/2/47 65/3/47
f 56/2/48 66/3/48 46/4/48 45/1/48
f 47/4/49 46/1/49 66/2/49 67/3/49
f 57/4/50 47/1/50 67/2/50 68/3/50
f 58/1/51 59/2/51 48/3/51
f 59/2/52 70/3/52 60/4/52 40/1/52
f 61/2/53 49/3/53 85/4/53 71/1/53
f 50/1/54 61/2/54 62/3/54
f 52/4/55 57/1/55 68/2/55 75/3/55
f 53/1/56 65/2/56 76/33/56 77/34/56 78/35/56
f 79/36/57 54/1/57 53/2/57 78/37/57
f 80/38/58 55/1/58 54/2/58 79/39/58
f 81/40/59 56/1/59 55/2/59 80/41/59
f 82/42/60 66/1/60 56/2/60 81/43/60
f 58/19/61 69/21/61 83/5/61 84/15/61 59/17/61
f 59/2/62 84/3/62 97/4/62 70/1/62
f 49/2/63 70/3/63 98/4/63 85/1/63
f 71/2/64 86/3/64 87/4/64 61/1/64
f 62/1/65 61/2/65 87/3/65 64/4/65
f 51/1/66 89/2/66 73/3/66
f 73/1/67 89/2/67 90/3/67 63/4/67
f 51/4/68 74/1/68 104/2/68 89/3/68
f 76/44/69 65/1/69 75/2/69 92/45/69
f 93/46/70 67/1/70 66/2/70 82/47/70
f 68/1/71 67/2/71 93/48/71 94/49/71 95/50/71
f 92/51/72 75/1/72 68/2/72 95/52/72
f 71/4/73 85/1/73 107/2/73 99/3/73
f 86/4/74 71/1/74 99/2/74 100/3/74
f 87/15/75 101/17/75 104/19/75 105/21/75 64/5/75
f 63/1/76 90/2/76 88/3/76
f 88/1/77 90/2/77 102/3/77 72/4/77
f 90/4/78 89/1/78 111/2/78 103/3/78
f 91/1/79 104/2/79 74/3/79
f 96/1/80 84/2/80 83/3/80
f 70/2/81 97/3/81 112/4/81 98/1/81
f 84/4/82 102/1/82 110/2/82 97/3/82
f 85/2/83 98/3/83 113/4/83 107/1/83
f 86/2/84 108/3/84 101/4/84 87/1/84
f 100/2/85 109/3/85 108/4/85 86/1/85
f 102/4/86 90/1/86 103/2/86 110/3/86
f 72/1/87 102/2/87 106/3/87
f 89/4/88 104/1/88 101/2/88 111/3/88
f 105/1/89 104/2/89 91/3/89
f 106/1/90 102/2/90 84/3/90 96/4/90
f 99/1/91 107/2/91 114/3/91 115/4/91
f 100/1/92 99/2/92 115/3/92 116/4/92
f 109/1/93 100/2/93 116/3/93 117/4/93
f 108/2/94 118/3/94 111/4/94 101/1/94
f 103/4/95 111/1/95 118/2/95 119/3/95
f 110/4/96 103/1/96 119/2/96 120/3/96
f 107/1/97 113/2/97 121/3/97 114/4/97
f 115/5/98 114/6/98 121/7/98 122/8/98 123/9/98 124/10/98 125/11/98 117/12/98 116/13/98
f 109/2/99 126/3/99 118/4/99 108/1/99
f 126/1/100 109/2/100 117/3/100 125/4/100
f 120/2/101 112/3/101 97/4/101 110/1/101
f 127/4/102 113/1/102 98/2/102 112/3/102
f 113/1/103 127/2/103 122/3/103 121/4/103
f 127/1/104 128/2/104 123/3/104 122/4/104
f 128/1/105 129/2/105 124/3/105 123/4/105
f 129/1/106 126/2/106 125/3/106 124/4/106
f 126/2/107 129/3/107 119/4/107 118/1/107
f 120/4/108 119/1/108 129/2/108 128/3/108
f 112/2/109 120/3/109 128/4/109 127/1/109
f 130/53/110 131/54/110 132/55/110
f 130/56/111 132/57/111 133/58/111
f 131/59/112 130/60/112 134/61/112
f 132/62/113 131/63/113 135/64/113
f 132/65/114 135/66/114 133/67/114
f 136/68/115 131/69/115 134/70/115
f 134/68/116 130/71/116 137/72/116
f 131/73/117 136/74/117 135/75/117
f 135/76/118 138/77/118 133/78/118
f 136/79/119 134/80/119 139/81/119
f 140/82/120 134/83/120 137/84/120
f 136/85/121 141/85/121 135/86/121
f 135/87/122 141/88/122 138/89/122
f 136/90/123 139/91/123 142/92/123
f 139/93/124 134/94/124 140/95/124
f 136/96/125 143/97/125 77/98/125 76/98/125 92/99/125 95/99/125 94/99/125 141/88/125
f 141/100/126 144/101/126 138/102/126
f 143/103/127 136/104/127 142/105/127
f 145/106/128 142/107/128 139/108/128
f 141/109/129 94/110/129 93/110/129 82/110/129 81/110/129 80/110/129 79/110/129 78/111/129 77/111/129 143/112/129 146/113/129
f 141/114/130 146/115/130 144/116/130
f 143/117/131 142/118/131 145/119/131
f 139/120/132 140/121/132 155/122/132 157/123/132
f 138/124/133 144/125/133 160/126/133 154/127/133
f 146/128/134 143/129/134 148/130/134
f 144/131/135 146/131/135 147/132/135
f 133/133/136 138/124/136 154/127/136 149/134/136
f 143/135/137 145/118/137 148/136/137
f 147/137/138 148/138/138 165/139/138 162/140/138
f 140/121/139 137/141/139 152/142/139 155/122/139
f 147/143/140 146/144/140 148/145/140
f 145/146/141 139/120/141 157/123/141 161/147/141
f 148/138/142 145/146/142 161/147/142 165/139/142
f 130/148/143 133/133/143 149/134/143 150/149/143
f 144/125/144 147/137/144 162/140/144 160/126/144
f 137/141/145 130/148/145 150/149/145 152/142/145
f 150/149/146 149/134/146 151/150/146
f 150/149/147 151/150/147 153/151/147
f 149/134/148 154/127/148 151/150/148
f 152/142/149 150/149/149 153/151/149
f 154/127/150 156/152/150 151/150/150
f 155/122/151 152/142/151 158/153/151
f 152/142/152 153/151/152 159/154/152
f 154/127/153 160/126/153 156/152/153
f 157/123/154 155/122/154 158/153/154
f 158/153/155 152/142/155 159/154/155
f 153/151/156 156/152/156 159/154/156
f 160/126/157 162/140/157 156/152/157
f 161/147/158 157/123/158 163/155/158
f 157/123/159 158/153/159 163/155/159
f 163/155/160 158/153/160 159/154/160
f 156/152/161 164/156/161 159/154/161
f 156/152/162 162/140/162 164/156/162
f 161/147/163 163/155/163 166/157/163
f 164/156/164 163/155/164 159/154/164
f 162/140/165 165/139/165 164/156/165
f 165/139/166 161/147/166 166/157/166
f 164/156/167 166/157/167 163/155/167
f 165/139/168 166/157/168 164/156/168
f 153/151/169 151/150/169 156/152/169
