# Blender v2.75 (sub 0) OBJ File: 'MediumBush.blend'
# www.blender.org
mtllib MediumBush.mtl
o Cylinder
v 0.000000 -0.112114 -0.112114
v 0.000000 0.112114 -0.112114
v 0.087654 0.112114 -0.069902
v 0.087654 -0.112114 -0.069902
v 0.109303 -0.112114 0.024948
v 0.048644 -0.112114 0.101011
v -0.048644 -0.112114 0.101011
v -0.109303 -0.112114 0.024948
v -0.087654 -0.112114 -0.069902
v -0.087654 0.112114 -0.069902
v 0.032701 0.433869 -0.078308
v 0.011313 0.442331 -0.088133
v 0.109303 0.112114 0.024948
v 0.048644 0.112114 0.101011
v -0.048644 0.112114 0.101011
v -0.109303 0.112114 0.024948
v -0.040939 0.434839 -0.074286
v -0.061543 0.446703 -0.063698
v 0.069452 0.411546 -0.053748
v 0.076785 0.417936 -0.047782
v -0.031766 0.428399 -0.077354
v 0.082447 0.422908 -0.021845
v 0.067763 0.410274 0.052623
v 0.084561 0.424843 0.030366
v 0.004670 0.431264 0.084685
v 0.028416 0.432987 0.084597
v -0.062077 0.440837 0.057314
v -0.048438 0.441656 0.074350
v -0.089315 0.427854 0.009280
v -0.088562 0.423698 0.005033
v -0.083639 0.432793 -0.014463
v 0.063089 0.406217 0.057139
v -0.025030 0.423937 0.079970
v 0.410414 0.708786 0.314675
v -0.133586 0.872288 0.506109
v 0.404315 0.702314 -0.317587
v 0.312096 1.431546 0.479858
v -0.532950 0.843090 0.000853
v 0.678677 1.450092 -0.035136
v -0.166367 0.861643 -0.514141
v 0.154984 1.419960 -0.525306
v -0.018239 2.138115 0.353457
v 0.517482 2.126205 -0.052584
v -0.215695 2.164416 0.329429
v 0.312871 2.113972 0.235535
v -0.322715 2.141640 0.194871
v -0.230835 2.210652 -0.399934
v -0.320591 2.174951 -0.274384
v -0.111659 2.207203 -0.420207
v 0.232018 2.176540 -0.306778
v -0.022832 2.143731 0.413536
v -0.283685 2.701681 0.313721
v -0.250154 2.174010 0.385873
v 0.358357 2.115937 0.277778
v 0.359490 3.113282 -0.079293
v 0.569490 2.232464 -0.056562
v -0.289901 2.694237 -0.414267
v 0.265275 2.187967 -0.346558
v 0.593915 2.130019 -0.053918
v -0.373360 2.147789 0.230964
v -0.267583 2.227238 -0.453803
v -0.370915 2.186137 -0.309265
v -0.130382 2.223268 -0.477142
vt 0.903518 0.903518
vt 0.962745 0.903510
vt 0.958803 0.963624
vt 0.903518 0.963669
vt 0.933343 0.963667
vt 0.954470 0.952321
vt 0.960860 0.926882
vt 0.946637 0.906497
vt 0.920545 0.906497
vt 0.904273 0.926901
vt 0.910080 0.952345
vt 0.944369 0.948822
vt 0.959884 0.949949
vt 0.944472 0.948872
vt 0.959840 0.950528
vt 0.910635 0.945813
vt 0.903518 0.946746
vt 0.937400 0.947978
vt 0.903518 0.949984
vt 0.943019 0.947485
vt 0.960128 0.946713
vt 0.941430 0.945858
vt 0.960039 0.947904
vt 0.944493 0.948846
vt 0.959946 0.949131
vt 0.945712 0.950043
vt 0.959863 0.950225
vt 0.960029 0.948036
vt 0.957282 0.947444
vt 0.944338 0.948685
vt 0.903518 0.950563
vt 0.903518 0.947938
vt 0.936664 0.945292
vt 0.903518 0.949165
vt 0.921850 0.947772
vt 0.903518 0.950261
vt 0.903518 0.948070
vt 0.099836 0.902795
vt 0.102481 0.902496
vt 0.100997 0.903302
vt 0.099185 0.903672
vt 0.099501 0.903527
vt 0.099723 0.903361
vt 0.093372 0.899895
vt 0.095437 0.899699
vt 0.095413 0.899770
vt 0.095366 0.900077
vt 0.095681 0.900572
vt 0.095888 0.900796
vt 0.096001 0.900820
vt 0.094784 0.902331
vt 0.093243 0.906322
vt 0.098444 0.913828
vt 0.094663 0.901476
vt 0.102999 0.900582
vt 0.103974 0.900949
vt 0.102884 0.902536
vt 0.102057 0.902004
vt 0.102771 0.901253
vt 0.102979 0.900947
vt 0.094697 0.908424
vt 0.100415 0.909453
vt 0.097787 0.903665
vt 0.103122 0.897796
vt 0.103921 0.899118
vt 0.103420 0.900924
vt 0.102419 0.898861
vt 0.102927 0.898480
vt 0.103135 0.898266
vt 0.103407 0.911131
vt 0.105871 0.901480
vt 0.105940 0.900695
vt 0.058852 0.063908
vt 0.055708 0.064887
vt 0.055935 0.064176
vt 0.057963 0.062825
vt 0.102669 0.900396
vt 0.103566 0.901235
vt 0.102623 0.902860
vt 0.101813 0.901800
vt 0.101950 0.901729
vt 0.102249 0.901518
vt 0.102591 0.900716
vt 0.109920 0.901854
vt 0.104411 0.903007
vt 0.104217 0.903591
vt 0.095126 0.910208
vt 0.102339 0.907478
vt 0.099850 0.901227
vt 0.047748 0.060371
vt 0.047339 0.056768
vt 0.048156 0.057065
vt 0.048841 0.060004
vt 0.060551 0.061560
vt 0.059484 0.061481
vt 0.049551 0.062896
vt 0.049859 0.062111
vt 0.049684 0.051691
vt 0.050387 0.052475
vt 0.090964 0.906579
vt 0.104405 0.904915
vt 0.101792 0.905612
vt 0.094522 0.906479
vt 0.098731 0.891610
vt 0.105868 0.896707
vt 0.109506 0.897329
vt 0.112377 0.895575
vt 0.055640 0.051691
vt 0.062036 0.054734
vt 0.061046 0.055056
vt 0.055233 0.052687
vt 0.096547 0.895940
vt 0.101112 0.903756
vt 0.100260 0.900733
vt 0.096055 0.902860
vt 0.102395 0.897172
vt 0.097717 0.900722
vt 0.091940 0.902523
vt 0.102093 0.909569
vt 0.101701 0.908555
vt 0.098948 0.906462
vt 0.092241 0.904440
vt 0.103751 0.906809
vt 0.100535 0.907157
vt 0.094106 0.905831
vt 0.090677 0.894065
vt 0.101595 0.902145
vt 0.103255 0.900568
vt 0.090697 0.903304
vt 0.106502 0.904735
vt 0.099219 0.906371
vt 0.095030 0.905965
vt 0.088132 0.904772
vt 0.105086 0.903203
vt 0.101401 0.905920
vt 0.097394 0.906347
vt 0.053135 0.059201
vt 0.054230 0.058358
vt 0.055078 0.054032
vt 0.054822 0.059506
vn 0.433900 0.000000 -0.901000
vn 0.000000 -1.000000 0.000000
vn -0.433900 0.000000 -0.901000
vn 0.433300 0.050500 -0.899800
vn 0.974900 0.000000 -0.222500
vn 0.781800 0.000000 0.623500
vn -0.000000 0.000000 1.000000
vn -0.781800 0.000000 0.623500
vn -0.974900 0.000000 -0.222500
vn -0.433300 0.050500 -0.899800
vn 0.586700 0.079100 -0.805900
vn -0.265900 0.078900 -0.960800
vn 0.973700 0.050700 -0.222200
vn 0.780800 0.051000 0.622700
vn -0.000000 0.051100 0.998700
vn -0.780800 0.050900 0.622700
vn -0.973700 0.050600 -0.222200
vn -0.917600 0.078800 -0.389600
vn 0.995900 0.079500 -0.043300
vn 0.656000 0.079700 0.750600
vn -0.175400 0.079500 0.981300
vn -0.876200 0.079100 0.475500
vn 0.052200 -0.681300 0.730100
vn 0.656300 -0.754500 0.001400
vn 0.278700 -0.177800 0.943800
vn -0.594500 -0.624900 0.506000
vn 0.939500 -0.342600 -0.005600
vn 0.049000 -0.701500 -0.710900
vn 0.814900 -0.021500 0.579300
vn -0.016200 -0.958600 -0.284100
vn -0.608400 -0.649200 -0.456500
vn 0.682300 0.025600 -0.730600
vn 0.275800 -0.177600 -0.944700
vn -0.141300 -0.986600 0.081400
vn -0.070400 -0.965800 -0.249400
vn -0.000500 -0.985900 0.167300
vn -0.040500 -0.995100 0.089900
vn 0.672100 0.141500 -0.726800
vn -0.165100 0.075400 -0.983400
vn 0.044200 -0.969400 -0.241500
vn 0.323500 0.232000 -0.917300
vn 0.338600 0.316800 0.886000
vn -0.102900 0.128300 0.986400
vn 0.794000 0.204100 0.572600
vn -0.987300 0.158800 0.006800
vn -0.785000 0.034700 0.618500
vn -0.814800 0.010100 -0.579600
vn -0.169600 -0.983000 -0.070500
vn 0.049700 -0.998700 -0.007100
vn 0.004200 -0.962100 -0.272800
vn -0.540700 0.841200 -0.004000
usemtl Material.001
s off
f 1/1/1 2/2/1 3/3/1 4/4/1
f 1/5/2 4/6/2 5/7/2 6/8/2 7/9/2 8/10/2 9/11/2
f 9/1/3 10/2/3 2/3/3 1/4/3
f 11/12/4 3/1/4 2/2/4 12/13/4
f 4/1/5 3/2/5 13/3/5 5/4/5
f 5/1/6 13/2/6 14/3/6 6/4/6
f 6/1/7 14/2/7 15/3/7 7/4/7
f 7/1/8 15/2/8 16/3/8 8/4/8
f 8/1/9 16/2/9 10/3/9 9/4/9
f 17/14/10 2/1/10 10/2/10 18/15/10
f 3/1/11 11/12/11 19/16/11 20/17/11
f 2/1/12 17/14/12 21/18/12 12/19/12
f 22/20/13 13/1/13 3/2/13 20/21/13
f 23/22/14 14/1/14 13/2/14 24/23/14
f 25/24/15 15/1/15 14/2/15 26/25/15
f 27/26/16 16/1/16 15/2/16 28/27/16
f 10/1/17 16/2/17 29/28/17 30/29/17 31/30/17
f 18/31/18 10/1/18 31/30/18
f 24/32/19 13/1/19 22/20/19
f 14/1/20 23/22/20 32/33/20 26/34/20
f 15/1/21 25/24/21 33/35/21 28/36/21
f 29/37/22 16/1/22 27/26/22
f 32/38/23 34/39/23 35/40/23 33/41/23 25/42/23 26/43/23
f 34/44/24 32/45/24 23/46/24 24/47/24 22/48/24 20/49/24 19/50/24 36/51/24
f 35/52/25 34/53/25 37/54/25
f 33/55/26 35/56/26 38/57/26 30/58/26 29/58/26 27/59/26 28/60/26
f 34/61/27 36/62/27 39/63/27
f 21/64/28 40/65/28 36/66/28 19/67/28 11/68/28 12/69/28
f 34/70/29 39/71/29 37/72/29
f 47/73/30 48/74/30 62/75/30 61/76/30
f 30/77/31 38/78/31 40/79/31 21/80/31 17/81/31 18/82/31 31/83/31
f 36/84/32 41/85/32 39/86/32
f 36/87/33 40/88/33 41/89/33
f 44/90/34 42/91/34 51/92/34 53/93/34
f 49/94/35 47/73/35 61/76/35 63/95/35
f 46/96/36 44/90/36 53/93/36 60/97/36
f 42/91/37 45/98/37 54/99/37 51/92/37
f 39/100/38 41/101/38 50/102/38 43/103/38
f 40/104/39 47/105/39 49/106/39 41/107/39
f 43/108/40 50/109/40 58/110/40 59/111/40
f 41/112/41 49/113/41 50/114/41
f 42/115/42 37/116/42 45/117/42
f 35/118/43 37/119/43 42/120/43 44/121/43
f 37/122/44 39/123/44 43/124/44 45/125/44
f 38/126/45 46/127/45 48/128/45
f 38/129/46 35/130/46 44/131/46 46/132/46
f 40/133/47 38/134/47 48/135/47 47/136/47
f 48/74/48 46/96/48 60/97/48 62/75/48
f 45/98/49 43/108/49 59/111/49 54/99/49
f 50/109/50 49/94/50 63/95/50 58/110/50
f 53/93/43 51/92/43 52/137/43
f 60/97/46 53/93/46 52/137/46
f 52/137/42 51/92/42 54/99/42 55/138/42
f 54/99/44 59/111/44 56/139/44 55/138/44
f 60/97/45 52/137/45 57/140/45 62/75/45
f 61/76/47 62/75/47 57/140/47
f 57/140/51 52/137/51 55/138/51
f 61/76/39 57/140/39 63/95/39
f 63/95/41 57/140/41 55/138/41 58/110/41
f 59/111/38 58/110/38 55/138/38 56/139/38
