# Blender v2.75 (sub 0) OBJ File: 'SmallBush2.blend'
# www.blender.org
mtllib SmallBush2.mtl
o Cylinder_Cylinder.004
v -0.000000 -0.182849 -0.098142
v -0.000000 -0.063560 -0.049685
v 0.043028 -0.063560 -0.024842
v 0.084994 -0.182849 -0.049071
v 0.084994 -0.182849 0.049071
v -0.000000 -0.182849 0.098142
v -0.084994 -0.182849 0.049071
v -0.084994 -0.182849 -0.049071
v -0.043028 -0.063560 -0.024842
v 0.000000 0.023346 -0.035243
v 0.027605 0.018829 -0.020056
v 0.030818 0.021284 -0.017793
v 0.043028 -0.063560 0.024843
v -0.000000 -0.063560 0.049685
v -0.043028 -0.063560 0.024842
v -0.030372 0.024385 -0.017535
v -0.009906 0.017552 -0.030487
v 0.030818 0.021284 0.017793
v 0.027605 0.018829 0.020056
v -0.000000 0.023346 0.035243
v -0.009906 0.017552 0.030487
v -0.030372 0.024385 0.017535
v -0.031412 0.017154 0.000000
v 0.174590 0.131116 0.126846
v -0.066686 0.131116 0.205242
v 0.174590 0.131116 -0.126846
v -0.215807 0.131116 0.000000
v -0.066686 0.131116 -0.205242
v -0.127495 0.252734 0.161062
v 0.197677 0.252000 0.055794
v 0.008286 0.252427 0.205242
v -0.192551 0.252880 0.071569
v 0.114054 0.252188 0.170827
v 0.114412 0.251472 -0.170567
v 0.007645 0.251391 -0.205242
v 0.197627 0.251739 -0.055947
v -0.127947 0.253637 -0.160734
v -0.192311 0.254139 -0.072309
v 0.122745 0.253409 0.187990
v 0.072461 0.353978 0.224523
v 0.211464 0.252932 -0.052746
v 0.230762 0.353978 0.006645
v -0.183669 0.353978 0.141300
v 0.123126 0.252649 -0.174423
v 0.072461 0.353978 -0.211233
v 0.009785 0.252563 -0.211233
v 0.001669 0.495565 0.006645
v -0.183669 0.353978 -0.128010
v -0.133675 0.253988 0.177624
v 0.211517 0.253209 0.065874
v 0.010465 0.253663 0.224523
v -0.202736 0.254144 0.082621
v -0.134154 0.254948 -0.163984
v -0.202481 0.255481 -0.070116
vt 0.045335 0.937531
vt 0.052846 0.937883
vt 0.052846 0.948230
vt 0.045140 0.940863
vt 0.045978 0.940598
vt 0.033168 0.937883
vt 0.040326 0.937531
vt 0.040336 0.937898
vt 0.043500 0.941061
vt 0.043867 0.941072
vt 0.043515 0.948230
vt 0.042849 0.953508
vt 0.058789 0.953507
vt 0.051759 0.948391
vt 0.044766 0.948381
vt 0.045140 0.937544
vt 0.045079 0.940798
vt 0.046120 0.940023
vt 0.045335 0.941072
vt 0.045978 0.938648
vt 0.059170 0.946218
vt 0.057524 0.943572
vt 0.057519 0.947221
vt 0.051728 0.948368
vt 0.046120 0.939364
vt 0.051646 0.948308
vt 0.044784 0.948329
vt 0.057507 0.943546
vt 0.036351 0.036842
vt 0.033983 0.035446
vt 0.034214 0.035073
vt 0.036256 0.036571
vt 0.039358 0.036842
vt 0.039176 0.036693
vt 0.042301 0.029202
vt 0.043545 0.032200
vt 0.043401 0.032132
vt 0.042052 0.029219
vt 0.033716 0.029216
vt 0.036555 0.027129
vt 0.036506 0.027567
vt 0.034046 0.029561
vt 0.041748 0.035577
vt 0.041575 0.035536
vt 0.039497 0.027524
vt 0.039244 0.027694
vt 0.032538 0.032126
vt 0.033080 0.032085
vt 0.036122 0.034694
vt 0.034997 0.031308
vt 0.037902 0.032282
vt 0.037896 0.029188
vt 0.040972 0.031259
vt 0.039608 0.034933
vt 0.957345 0.957631
vt 0.955297 0.957631
vt 0.955297 0.955583
vt 0.957345 0.955583
vt 0.956321 0.955583
vt 0.955434 0.956095
vt 0.955434 0.957119
vt 0.956321 0.957631
vt 0.957208 0.957119
vt 0.957208 0.956095
vt 0.955297 0.956908
vt 0.957109 0.956946
vt 0.957345 0.956926
vt 0.956696 0.956957
vt 0.955532 0.956946
vt 0.955945 0.956957
vt 0.956321 0.956960
vn 0.187600 -0.794700 0.577400
vn 0.607100 -0.794700 0.000000
vn 0.303500 -0.187600 0.934200
vn -0.491100 -0.794700 0.356800
vn 0.982200 -0.187600 -0.000000
vn 0.187600 -0.794700 -0.577400
vn -0.303500 0.187600 0.934200
vn 0.794600 0.187600 0.577400
vn -0.794600 -0.187600 0.577400
vn -0.491100 -0.794700 -0.356800
vn 0.794600 0.187600 -0.577400
vn 0.303500 -0.187600 -0.934200
vn -0.982200 0.187600 -0.000000
vn -0.794600 -0.187600 -0.577400
vn -0.303500 0.187600 -0.934200
vn -0.070100 -0.996300 0.049300
vn -0.132600 -0.991100 -0.008900
vn 0.056700 -0.983400 -0.172200
vn 0.056200 -0.997500 0.042500
vn -0.088900 -0.971100 -0.221700
vn 0.085400 -0.996300 0.002300
vn -0.023900 -0.997500 0.066600
vn -0.152300 -0.982700 -0.105300
vn 0.102200 -0.992200 -0.071900
vn 0.017900 -0.997900 0.061900
vn -0.187600 0.794700 0.577400
vn 0.491100 0.794700 0.356800
vn 0.491100 0.794700 -0.356800
vn -0.607100 0.794700 0.000000
vn -0.187600 0.794700 -0.577400
vn 0.471700 0.331900 -0.816900
vn 0.000000 -1.000000 -0.000000
vn -0.471700 0.331900 -0.816900
vn 0.494900 0.142400 -0.857200
vn 0.943300 0.331900 0.000000
vn 0.471700 0.331900 0.816900
vn -0.471700 0.331900 0.816900
vn -0.943300 0.331900 0.000000
vn -0.494900 0.142400 -0.857200
vn 0.989800 0.142400 0.000000
vn 0.494900 0.142400 0.857200
vn -0.494900 0.142400 0.857200
vn -0.989800 0.142400 0.000000
usemtl Material.002
s off
f 19/1/1 24/2/1 25/3/1 21/4/1 20/5/1
f 24/6/2 19/7/2 18/8/2 12/9/2 11/10/2 26/11/2
f 25/12/3 24/13/3 33/14/3 31/15/3
f 21/16/4 25/2/4 27/3/4 23/17/4 22/18/4
f 24/12/5 26/13/5 36/14/5 30/15/5
f 17/16/6 28/2/6 26/3/6 11/19/6 10/20/6
f 25/21/7 31/22/7 29/23/7
f 24/21/8 30/22/8 33/23/8
f 27/12/9 25/13/9 29/24/9 32/15/9
f 23/16/10 27/2/10 28/3/10 17/4/10 16/25/10
f 26/21/11 34/22/11 36/23/11
f 26/12/12 28/13/12 35/14/12 34/15/12
f 27/21/13 32/22/13 38/23/13
f 28/12/14 27/13/14 38/26/14 37/27/14
f 28/21/15 37/28/15 35/23/15
f 32/29/16 29/30/16 49/31/16 52/32/16
f 38/33/17 32/29/17 52/32/17 54/34/17
f 34/35/18 35/36/18 46/37/18 44/38/18
f 33/39/19 30/40/19 50/41/19 39/42/19
f 35/36/20 37/43/20 53/44/20 46/37/20
f 30/40/21 36/45/21 41/46/21 50/41/21
f 29/30/22 31/47/22 51/48/22 49/31/22
f 37/43/23 38/33/23 54/34/23 53/44/23
f 36/45/24 34/35/24 44/38/24 41/46/24
f 31/47/25 33/39/25 39/42/25 51/48/25
f 43/49/26 40/50/26 47/51/26
f 40/50/27 42/52/27 47/51/27
f 42/52/28 45/53/28 47/51/28
f 48/54/29 43/49/29 47/51/29
f 45/53/30 48/54/30 47/51/30
f 51/48/3 39/42/3 40/50/3
f 51/48/7 40/50/7 43/49/7 49/31/7
f 50/41/8 42/52/8 40/50/8 39/42/8
f 52/32/9 49/31/9 43/49/9
f 44/38/11 45/53/11 42/52/11 41/46/11
f 50/41/5 41/46/5 42/52/5
f 44/38/12 46/37/12 45/53/12
f 53/44/15 48/54/15 45/53/15 46/37/15
f 52/32/13 43/49/13 48/54/13 54/34/13
f 53/44/14 54/34/14 48/54/14
usemtl Material.002_NONE
f 1/55/31 2/56/31 3/57/31 4/58/31
f 1/59/32 4/60/32 5/61/32 6/62/32 7/63/32 8/64/32
f 8/55/33 9/56/33 2/57/33 1/58/33
f 3/55/34 2/56/34 10/65/34 11/66/34 12/67/34
f 4/55/35 3/56/35 13/57/35 5/58/35
f 5/55/36 13/56/36 14/57/36 6/58/36
f 6/55/37 14/56/37 15/57/37 7/58/37
f 7/55/38 15/56/38 9/57/38 8/58/38
f 2/55/39 9/56/39 16/65/39 17/68/39 10/67/39
f 18/67/40 13/55/40 3/56/40 12/65/40
f 14/55/41 13/56/41 18/65/41 19/69/41 20/67/41
f 15/55/42 14/56/42 20/65/42 21/70/42 22/67/42
f 9/55/43 15/56/43 22/65/43 23/71/43 16/67/43
