# Blender v2.76 (sub 0) OBJ File: 'Boat.blend'
# www.blender.org
mtllib Boat.mtl
o Boat_Cube
v 0.123276 -0.002203 0.100888
v 0.136678 0.036109 0.137295
v 0.119015 -0.002203 -0.237769
v 0.131509 0.036109 -0.298091
v 0.169267 0.036109 -0.110348
v 0.150136 -0.002203 -0.098390
v 0.139369 0.073116 -0.341333
v 0.108476 0.036109 -0.265006
v 0.140700 0.036109 -0.101391
v 0.112888 0.036109 0.117717
v 0.182269 0.073116 -0.116111
v 0.145242 0.073116 0.169011
v 0.118211 0.073116 0.146766
v 0.113199 0.073116 -0.303743
v 0.149812 0.073116 -0.105934
v 0.136398 0.059566 -0.319015
v 0.141895 0.059566 0.151152
v 0.176543 0.059566 -0.113881
v 0.139369 0.127418 -0.341333
v 0.182269 0.127418 -0.116111
v 0.145242 0.127418 0.169011
v 0.118211 0.127418 0.146766
v 0.113199 0.127418 -0.303743
v 0.149812 0.127418 -0.105934
v 0.128650 0.028921 -0.279798
v 0.133518 0.028921 0.123558
v 0.164210 0.028921 -0.108070
v 0.022183 0.036109 0.247003
v 0.018417 -0.002203 0.191312
v 0.031722 0.036109 0.211344
v 0.024589 0.073116 0.293661
v 0.033218 0.073116 0.253146
v 0.023649 0.059566 0.283737
v 0.023248 0.127418 0.303232
v 0.033218 0.127418 0.253146
v 0.021295 0.028921 0.238838
v 0.018417 -0.002203 0.216358
v 0.023649 0.059566 0.302642
v 0.021295 0.028921 0.264035
v 0.022183 0.036109 0.272695
v 0.024589 0.073116 0.310518
v 0.024589 0.127418 0.323205
v 0.023248 0.154712 0.307096
v 0.024589 0.154712 0.327068
v -0.123276 -0.002203 0.100888
v -0.136678 0.036109 0.137295
v -0.119015 -0.002203 -0.237769
v -0.131509 0.036109 -0.298091
v -0.169267 0.036109 -0.110348
v -0.150136 -0.002203 -0.098390
v -0.139369 0.073116 -0.341333
v -0.108476 0.036109 -0.265006
v -0.140700 0.036109 -0.101391
v -0.112888 0.036109 0.117717
v -0.182269 0.073116 -0.116111
v -0.145242 0.073116 0.169011
v -0.118211 0.073116 0.146766
v -0.113199 0.073116 -0.303743
v -0.149812 0.073116 -0.105934
v -0.136398 0.059566 -0.319015
v -0.141895 0.059566 0.151152
v -0.176543 0.059566 -0.113881
v -0.139369 0.127418 -0.341333
v -0.182269 0.127418 -0.116111
v -0.145242 0.127418 0.169011
v -0.118211 0.127418 0.146766
v -0.113199 0.127418 -0.303743
v -0.149812 0.127418 -0.105934
v -0.128650 0.028921 -0.279798
v -0.133518 0.028921 0.123558
v -0.164210 0.028921 -0.108070
v -0.022183 0.036109 0.247003
v -0.018417 -0.002203 0.191312
v -0.031722 0.036109 0.211344
v -0.024589 0.073116 0.293661
v -0.033218 0.073116 0.253146
v -0.023649 0.059566 0.283737
v -0.023248 0.127418 0.303232
v -0.033218 0.127418 0.253146
v -0.021295 0.028921 0.238838
v -0.018417 -0.002203 0.216358
v -0.023649 0.059566 0.302642
v -0.021295 0.028921 0.264035
v -0.022183 0.036109 0.272695
v -0.024589 0.073116 0.310518
v -0.024589 0.127418 0.323205
v -0.023248 0.154712 0.307096
v -0.024589 0.154712 0.327068
vn 0.000000 -0.930700 -0.365700
vn 0.568400 -0.631100 0.527900
vn 0.000000 -1.000000 0.000000
vn 0.915500 -0.383200 0.122300
vn 0.858000 -0.479600 -0.183900
vn 0.000000 -0.803600 -0.595100
vn 0.882900 -0.437600 -0.170400
vn 0.918600 -0.376600 0.119700
vn 0.000000 -0.665700 -0.746200
vn 0.951600 -0.280900 0.124800
vn 0.924200 -0.335200 -0.183200
vn 0.549600 -0.647500 0.527900
vn 0.755600 -0.636700 -0.154100
vn 0.823200 -0.557200 0.108700
vn 0.495300 -0.693800 0.522700
vn 0.433700 -0.788000 0.437000
vn -0.568400 -0.631100 0.527900
vn -0.915500 -0.383200 0.122300
vn -0.858000 -0.479600 -0.183900
vn -0.882900 -0.437600 -0.170400
vn -0.918600 -0.376600 0.119700
vn -0.951600 -0.280900 0.124800
vn -0.924200 -0.335200 -0.183200
vn -0.549600 -0.647500 0.527900
vn -0.755600 -0.636700 -0.154100
vn -0.823200 -0.557200 0.108700
vn -0.495300 -0.693800 0.522700
vn -0.433700 -0.788000 0.437000
vn 0.000000 -0.854800 -0.519000
vn 0.000000 0.748700 -0.662900
vn -0.942700 0.281200 0.179500
vn 0.000000 0.000000 -1.000000
vn 0.000000 1.000000 0.000000
vn -0.965900 0.228600 -0.121600
vn 0.728600 -0.051200 0.683000
vn 0.000000 0.723100 0.690800
vn -0.992300 0.000000 -0.124100
vn 0.982300 0.000000 -0.187100
vn 0.991700 0.000000 0.128800
vn -0.983300 0.000000 0.182000
vn 0.992500 -0.122600 0.000000
vn 0.997700 0.009500 -0.067000
vn 0.000000 0.000000 1.000000
vn 0.997600 -0.069300 0.000000
vn -0.635300 0.563800 -0.527800
vn -0.781300 0.000000 -0.624200
vn 0.995800 -0.092100 0.000000
vn 0.000000 -0.227500 0.973800
vn 0.000000 0.140200 -0.990100
vn 0.000000 -0.769500 0.638600
vn 0.000000 -0.502500 0.864600
vn 0.000000 -0.787200 0.616600
vn 0.000000 -0.837400 0.546600
vn 0.999100 0.019800 -0.036400
vn 0.998100 -0.062400 0.000000
vn 0.000000 -0.140200 0.990100
vn 0.942700 0.281200 0.179500
vn 0.965900 0.228600 -0.121600
vn -0.728600 -0.051200 0.683000
vn 0.992300 0.000000 -0.124100
vn -0.982300 0.000000 -0.187100
vn -0.991700 0.000000 0.128800
vn 0.983300 0.000000 0.182000
vn -0.992500 -0.122600 0.000000
vn -0.997700 0.009500 -0.067000
vn -0.997600 -0.069300 0.000000
vn 0.635300 0.563800 -0.527800
vn 0.781300 0.000000 -0.624200
vn -0.995800 -0.092100 0.000000
vn -0.999100 0.019800 -0.036400
vn -0.998100 -0.062400 0.000000
usemtl DarkWood
s off
f 25//1 69//1 48//1 4//1
f 33//2 17//2 12//2 31//2
f 6//3 50//3 47//3 3//3
f 27//4 26//4 1//4 6//4
f 29//3 73//3 45//3 1//3
f 25//5 27//5 6//5 3//5
f 1//3 45//3 50//3 6//3
f 3//6 47//6 69//6 25//6
f 18//7 16//7 7//7 11//7
f 17//8 18//8 11//8 12//8
f 48//9 60//9 16//9 4//9
f 2//10 5//10 18//10 17//10
f 5//11 4//11 16//11 18//11
f 28//12 2//12 17//12 33//12
f 4//13 5//13 27//13 25//13
f 5//14 2//14 26//14 27//14
f 1//15 26//15 36//15 29//15
f 26//16 2//16 28//16 36//16
f 77//17 75//17 56//17 61//17
f 71//18 50//18 45//18 70//18
f 69//19 47//19 50//19 71//19
f 62//20 55//20 51//20 60//20
f 61//21 56//21 55//21 62//21
f 46//22 61//22 62//22 49//22
f 49//23 62//23 60//23 48//23
f 72//24 77//24 61//24 46//24
f 48//25 69//25 71//25 49//25
f 49//26 71//26 70//26 46//26
f 45//27 73//27 80//27 70//27
f 70//28 80//28 72//28 46//28
f 60//29 51//29 7//29 16//29
usemtl Wood
f 74//30 76//30 32//30 30//30
f 8//31 9//31 15//31 14//31
f 76//32 79//32 35//32 32//32
f 53//33 9//33 8//33 52//33
f 54//33 74//33 30//33 10//33
f 9//34 10//34 13//34 15//34
f 51//32 63//32 19//32 7//32
f 31//35 12//35 21//35 34//35
f 14//36 58//36 52//36 8//36
f 54//33 10//33 9//33 53//33
f 63//33 67//33 23//33 19//33
f 21//33 20//33 24//33 22//33
f 34//33 21//33 22//33 35//33
f 20//33 19//33 23//33 24//33
f 35//33 79//33 78//33 34//33
f 15//37 13//37 22//37 24//37
f 11//38 7//38 19//38 20//38
f 12//39 11//39 20//39 21//39
f 14//40 15//40 24//40 23//40
f 36//41 28//41 40//41 39//41
f 42//42 34//42 43//42 44//42
f 37//3 81//3 73//3 29//3
f 23//43 67//43 58//43 14//43
f 33//44 31//44 41//44 38//44
f 10//45 30//45 32//45 13//45
f 13//46 32//46 35//46 22//46
f 29//47 36//47 39//47 37//47
f 42//48 86//48 85//48 41//48
f 78//49 87//49 43//49 34//49
f 83//50 39//50 40//50 84//50
f 41//51 85//51 82//51 38//51
f 38//52 82//52 84//52 40//52
f 81//53 37//53 39//53 83//53
f 31//54 34//54 42//54 41//54
f 28//55 33//55 38//55 40//55
f 44//56 88//56 86//56 42//56
f 87//33 88//33 44//33 43//33
f 52//57 58//57 59//57 53//57
f 53//58 59//58 57//58 54//58
f 75//59 78//59 65//59 56//59
f 65//33 66//33 68//33 64//33
f 78//33 79//33 66//33 65//33
f 64//33 68//33 67//33 63//33
f 59//60 68//60 66//60 57//60
f 55//61 64//61 63//61 51//61
f 56//62 65//62 64//62 55//62
f 58//63 67//63 68//63 59//63
f 80//64 83//64 84//64 72//64
f 86//65 88//65 87//65 78//65
f 77//66 82//66 85//66 75//66
f 54//67 57//67 76//67 74//67
f 57//68 66//68 79//68 76//68
f 73//69 81//69 83//69 80//69
f 75//70 85//70 86//70 78//70
f 72//71 84//71 82//71 77//71
