# Blender v2.75 (sub 0) OBJ File: 'Potion2Full.blend'
# www.blender.org
mtllib Potion2Full.mtl
o Cylinder.001
v -0.000000 1.085143 -0.785132
v -0.000000 1.425597 -0.785132
v 0.424474 1.085143 -0.660495
v 0.424474 1.425597 -0.660495
v 0.714181 1.085143 -0.326155
v 0.714181 1.425597 -0.326155
v 0.777140 1.085143 0.111736
v 0.777140 1.425597 0.111736
v 0.593363 1.085143 0.514152
v 0.593363 1.425597 0.514152
v 0.221197 1.085143 0.753328
v 0.221197 1.425597 0.753328
v -0.221197 1.085143 0.753328
v -0.221197 1.425597 0.753328
v -0.593363 1.085143 0.514152
v -0.593363 1.425597 0.514152
v -0.777140 1.085143 0.111736
v -0.777140 1.425597 0.111736
v -0.714181 1.085143 -0.326156
v -0.714181 1.425597 -0.326156
v -0.424474 1.085143 -0.660495
v -0.424474 1.425597 -0.660495
vn 0.281700 0.000000 -0.959500
vn 0.755700 0.000000 -0.654900
vn 0.989800 0.000000 -0.142300
vn 0.909600 0.000000 0.415400
vn 0.540600 0.000000 0.841300
vn -0.000000 0.000000 1.000000
vn -0.540600 0.000000 0.841300
vn -0.909600 0.000000 0.415400
vn -0.989800 0.000000 -0.142300
vn 0.000000 1.000000 0.000000
vn -0.281700 0.000000 -0.959500
vn -0.755700 0.000000 -0.654900
vn 0.000000 -1.000000 0.000000
usemtl Material.001
s off
f 1//1 2//1 4//1 3//1
f 3//2 4//2 6//2 5//2
f 5//3 6//3 8//3 7//3
f 7//4 8//4 10//4 9//4
f 9//5 10//5 12//5 11//5
f 11//6 12//6 14//6 13//6
f 13//7 14//7 16//7 15//7
f 15//8 16//8 18//8 17//8
f 17//9 18//9 20//9 19//9
f 4//10 2//10 22//10 20//10 18//10 16//10 14//10 12//10 10//10 8//10 6//10
f 21//11 22//11 2//11 1//11
f 19//12 20//12 22//12 21//12
f 1//13 3//13 5//13 7//13 9//13 11//13 13//13 15//13 17//13 19//13 21//13
o Cylinder
v 0.000000 -0.881976 -1.000000
v -0.000000 1.000000 -0.901255
v 0.540641 -0.881976 -0.841254
v 0.487255 1.000000 -0.758184
v 0.909632 -0.881976 -0.415415
v 0.819810 1.000000 -0.374395
v 0.989821 -0.881976 0.142315
v 0.892081 1.000000 0.128262
v 0.755749 -0.881976 0.654861
v 0.681123 1.000000 0.590196
v 0.281732 -0.881976 0.959493
v 0.253913 1.000000 0.864748
v -0.281733 -0.881976 0.959493
v -0.253913 1.000000 0.864748
v -0.755750 -0.881976 0.654861
v -0.681123 1.000000 0.590196
v -0.989821 -0.881976 0.142315
v -0.892081 1.000000 0.128262
v -0.909632 -0.881976 -0.415415
v -0.819810 1.000000 -0.374395
v -0.540641 -0.881976 -0.841253
v -0.487255 1.000000 -0.758184
v -0.000000 -1.076169 -0.804156
v 0.434759 -1.076169 -0.676499
v 0.731486 -1.076169 -0.334058
v 0.795971 -1.076169 0.114443
v 0.607740 -1.076169 0.526610
v 0.226557 -1.076169 0.771582
v -0.226557 -1.076169 0.771582
v -0.607741 -1.076169 0.526610
v -0.795971 -1.076169 0.114443
v -0.731486 -1.076169 -0.334058
v -0.434759 -1.076169 -0.676499
v -0.000000 -1.076169 -0.000000
v 0.000000 0.766909 -1.000000
v 0.540641 0.766909 -0.841254
v 0.909632 0.766909 -0.415415
v 0.989821 0.766909 0.142315
v 0.755749 0.766909 0.654861
v 0.281732 0.766909 0.959493
v -0.281733 0.766909 0.959493
v -0.755750 0.766909 0.654861
v -0.989821 0.766909 0.142315
v -0.909632 0.766909 -0.415415
v -0.540641 0.766909 -0.841253
v 0.554085 1.213899 -0.862174
v -0.000000 1.213899 -1.024868
v 0.932253 1.213899 -0.425745
v 1.014436 1.213899 0.145854
v 0.774543 1.213899 0.671146
v 0.288738 1.213899 0.983354
v -0.288739 1.213899 0.983354
v -0.774544 1.213899 0.671146
v -1.014436 1.213899 0.145854
v -0.932253 1.213899 -0.425746
v -0.554086 1.213899 -0.862174
v 1.011464 1.106950 0.145427
v 0.772274 1.106950 0.669180
v -0.000000 1.106950 -1.021865
v 0.552462 1.106950 -0.859648
v 0.929522 1.106950 -0.424498
v -0.552462 1.106950 -0.859648
v -0.929522 1.106950 -0.424498
v -1.011465 1.106950 0.145426
v -0.772275 1.106950 0.669179
v -0.287893 1.106950 0.980473
v 0.287893 1.106950 0.980473
v 0.757485 1.017825 0.656364
v 0.541882 1.017825 -0.843185
v 0.992094 1.017825 0.142642
v 0.000000 1.017825 -1.002296
v 0.911721 1.017825 -0.416369
v -0.541882 1.017825 -0.843185
v -0.911721 1.017825 -0.416369
v -0.992094 1.017825 0.142641
v -0.757485 1.017825 0.656364
v -0.282380 1.017825 0.961696
v 0.282379 1.017825 0.961696
v 0.399009 1.213899 -0.620870
v -0.000000 1.213899 -0.738029
v 0.671335 1.213899 -0.306588
v 0.730517 1.213899 0.105033
v 0.557765 1.213899 0.483306
v 0.207927 1.213899 0.708134
v -0.207927 1.213899 0.708134
v -0.557765 1.213899 0.483306
v -0.730517 1.213899 0.105032
v -0.671335 1.213899 -0.306589
v -0.399009 1.213899 -0.620870
v 0.399009 0.944703 -0.620870
v -0.000000 0.944703 -0.738029
v 0.671335 0.944703 -0.306588
v 0.730517 0.944703 0.105033
v 0.557765 0.944703 0.483306
v 0.207927 0.944703 0.708134
v -0.207927 0.944703 0.708134
v -0.557765 0.944703 0.483306
v -0.730517 0.944703 0.105032
v -0.671335 0.944703 -0.306589
v -0.399009 0.944703 -0.620870
v 0.493435 0.758147 -0.767799
v -0.000000 0.758147 -0.912685
v 0.830207 0.758147 -0.379143
v 0.903395 0.758147 0.129889
v 0.689761 0.758147 0.597682
v 0.257133 0.758147 0.875715
v -0.257133 0.758147 0.875715
v -0.689761 0.758147 0.597681
v -0.903395 0.758147 0.129888
v -0.830207 0.758147 -0.379143
v -0.493435 0.758147 -0.767799
v 0.493435 -0.845543 -0.767799
v -0.000000 -0.845543 -0.912685
v 0.830207 -0.845543 -0.379143
v 0.903395 -0.845543 0.129889
v 0.689761 -0.845543 0.597682
v 0.257133 -0.845543 0.875715
v -0.257133 -0.845543 0.875715
v -0.689761 -0.845543 0.597681
v -0.903395 -0.845543 0.129888
v -0.830207 -0.845543 -0.379143
v -0.493435 -0.845543 -0.767799
v 0.395132 -0.980952 -0.614838
v -0.000000 -0.980952 -0.730859
v 0.664813 -0.980952 -0.303610
v 0.723420 -0.980952 0.104012
v 0.552346 -0.980952 0.478611
v 0.205907 -0.980952 0.701254
v -0.205907 -0.980952 0.701254
v -0.552347 -0.980952 0.478611
v -0.723420 -0.980952 0.104012
v -0.664813 -0.980952 -0.303610
v -0.395132 -0.980952 -0.614838
v -0.493435 0.668611 -0.767799
v -0.000000 0.668611 -0.912685
v 0.493435 0.668611 -0.767799
v -0.689761 0.668611 0.597681
v -0.903395 0.668611 0.129888
v 0.689761 0.668611 0.597682
v 0.257133 0.668611 0.875715
v 0.830207 0.668611 -0.379143
v -0.830207 0.668611 -0.379143
v -0.257133 0.668611 0.875715
v 0.903395 0.668611 0.129889
v -0.000000 0.668611 -0.000000
vn 0.261000 0.376600 -0.888900
vn 0.700100 0.376600 -0.606700
vn 0.917000 0.376600 -0.131800
vn 0.842700 0.376600 0.384800
vn 0.500800 0.376600 0.779300
vn -0.000000 0.376600 0.926400
vn -0.500800 0.376600 0.779300
vn -0.842700 0.376600 0.384800
vn -0.917000 0.376600 -0.131800
vn 0.909300 -0.026900 0.415300
vn -0.261000 0.376600 -0.888900
vn -0.700100 0.376600 -0.606700
vn 0.653700 -0.695400 0.298500
vn 0.202500 -0.695400 -0.689500
vn 0.711300 -0.695400 -0.102300
vn -0.202500 -0.695400 -0.689500
vn 0.543100 -0.695400 -0.470600
vn -0.543100 -0.695400 -0.470600
vn -0.711300 -0.695400 -0.102300
vn -0.653700 -0.695400 0.298500
vn -0.388500 -0.695400 0.604600
vn -0.000000 -0.695400 0.718600
vn 0.388500 -0.695400 0.604600
vn 0.000000 -1.000000 -0.000000
vn -0.755700 0.000000 -0.654900
vn -0.281700 0.000000 -0.959500
vn -0.989800 0.000000 -0.142300
vn -0.909600 0.000000 0.415400
vn -0.540600 0.000000 0.841300
vn -0.000000 0.000000 1.000000
vn 0.540600 0.000000 0.841300
vn 0.909600 0.000000 0.415400
vn 0.989800 0.000000 -0.142300
vn 0.755700 0.000000 -0.654900
vn 0.281700 0.000000 -0.959500
vn 0.000000 1.000000 0.000000
vn 0.281600 -0.026900 -0.959100
vn 0.989500 -0.026900 -0.142300
vn -0.281600 -0.026900 -0.959100
vn 0.755500 -0.026900 -0.654600
vn -0.755500 -0.026900 -0.654600
vn -0.989500 -0.026900 -0.142300
vn -0.909300 -0.026900 0.415300
vn -0.540400 -0.026900 0.840900
vn -0.000000 -0.026900 0.999600
vn 0.540400 -0.026900 0.840900
vn 0.529000 -0.206200 0.823200
vn -0.000000 -0.206200 0.978500
vn -0.529000 -0.206200 0.823200
vn -0.890100 -0.206200 0.406500
vn -0.968600 -0.206200 -0.139300
vn -0.739500 -0.206200 -0.640800
vn 0.739500 -0.206200 -0.640800
vn -0.275700 -0.206200 -0.938900
vn 0.968600 -0.206200 -0.139300
vn 0.275700 -0.206200 -0.938900
vn 0.890100 -0.206200 0.406500
vn 0.164500 -0.983500 0.075100
vn 0.050900 -0.983500 -0.173500
vn 0.179000 -0.983500 -0.025700
vn -0.050900 -0.983500 -0.173500
vn 0.136700 -0.983500 -0.118400
vn -0.136700 -0.983500 -0.118400
vn -0.179000 -0.983500 -0.025700
vn -0.164500 -0.983500 0.075100
vn -0.097800 -0.983500 0.152100
vn -0.000000 -0.983500 0.180800
vn 0.097800 -0.983500 0.152100
vn -0.909600 0.000000 -0.415400
vn 0.000000 -0.668300 -0.743900
vn 0.281700 0.000000 0.959500
vn -0.281700 0.000000 0.959500
vn 0.909600 0.000000 -0.415400
vn -0.540600 0.000000 -0.841300
vn -0.755700 0.000000 0.654900
vn 0.989800 0.000000 0.142300
vn 0.000000 0.000000 -1.000000
vn -0.989800 0.000000 0.142300
vn 0.755700 0.000000 0.654900
vn 0.540600 0.000000 -0.841300
vn -0.736400 -0.668300 0.105900
vn 0.562200 -0.668300 0.487200
vn 0.402200 -0.668300 -0.625800
vn -0.676700 -0.668300 -0.309000
vn 0.209600 -0.668300 0.713800
vn -0.209600 -0.668300 0.713800
vn 0.676700 -0.668300 -0.309000
vn -0.402200 -0.668300 -0.625800
vn -0.562200 -0.668300 0.487200
vn 0.736400 -0.668300 0.105900
vn 0.000000 0.790000 -0.613100
vn -0.606900 0.790000 0.087300
vn 0.463400 0.790000 0.401500
vn 0.331500 0.790000 -0.515800
vn -0.557700 0.790000 -0.254700
vn 0.172700 0.790000 0.588300
vn -0.172700 0.790000 0.588300
vn 0.557700 0.790000 -0.254700
vn -0.331500 0.790000 -0.515800
vn -0.463400 0.790000 0.401500
vn 0.606900 0.790000 0.087300
usemtl Glass
s off
f 57//14 24//14 26//14 58//14
f 58//15 26//15 28//15 59//15
f 59//16 28//16 30//16 60//16
f 60//17 30//17 32//17 61//17
f 61//18 32//18 34//18 62//18
f 62//19 34//19 36//19 63//19
f 63//20 36//20 38//20 64//20
f 64//21 38//21 40//21 65//21
f 65//22 40//22 42//22 66//22
f 80//23 79//23 71//23 72//23
f 67//24 44//24 24//24 57//24
f 66//25 42//25 44//25 67//25
f 29//26 31//26 49//26 48//26
f 23//27 25//27 46//27 45//27
f 27//28 29//28 48//28 47//28
f 43//29 23//29 45//29 55//29
f 25//30 27//30 47//30 46//30
f 41//31 43//31 55//31 54//31
f 39//32 41//32 54//32 53//32
f 37//33 39//33 53//33 52//33
f 35//34 37//34 52//34 51//34
f 33//35 35//35 51//35 50//35
f 31//36 33//36 50//36 49//36
f 46//37 47//37 56//37
f 53//37 54//37 56//37
f 50//37 51//37 56//37
f 47//37 48//37 56//37
f 54//37 55//37 56//37
f 51//37 52//37 56//37
f 48//37 49//37 56//37
f 55//37 45//37 56//37
f 45//37 46//37 56//37
f 52//37 53//37 56//37
f 49//37 50//37 56//37
f 41//38 66//38 67//38 43//38
f 43//39 67//39 57//39 23//39
f 39//40 65//40 66//40 41//40
f 37//41 64//41 65//41 39//41
f 35//42 63//42 64//42 37//42
f 33//43 62//43 63//43 35//43
f 31//44 61//44 62//44 33//44
f 29//45 60//45 61//45 31//45
f 27//46 59//46 60//46 29//46
f 25//47 58//47 59//47 27//47
f 23//48 57//48 58//48 25//48
f 70//49 68//49 101//49 103//49
f 82//50 81//50 69//50 68//50
f 79//51 83//51 70//51 71//51
f 81//52 84//52 78//52 69//52
f 83//53 82//53 68//53 70//53
f 84//54 85//54 77//54 78//54
f 85//55 86//55 76//55 77//55
f 86//56 87//56 75//56 76//56
f 87//57 88//57 74//57 75//57
f 88//58 89//58 73//58 74//58
f 89//59 80//59 72//59 73//59
f 100//60 90//60 80//60 89//60
f 99//61 100//61 89//61 88//61
f 98//62 99//62 88//62 87//62
f 97//63 98//63 87//63 86//63
f 96//64 97//64 86//64 85//64
f 95//65 96//65 85//65 84//65
f 94//66 91//66 82//66 83//66
f 93//67 95//67 84//67 81//67
f 92//68 94//68 83//68 79//68
f 91//69 93//69 81//69 82//69
f 90//70 92//70 79//70 80//70
f 32//71 30//71 92//71 90//71
f 26//72 24//72 93//72 91//72
f 30//73 28//73 94//73 92//73
f 24//74 44//74 95//74 93//74
f 28//75 26//75 91//75 94//75
f 44//76 42//76 96//76 95//76
f 42//77 40//77 97//77 96//77
f 40//78 38//78 98//78 97//78
f 38//79 36//79 99//79 98//79
f 36//80 34//80 100//80 99//80
f 34//81 32//81 90//81 100//81
f 105//82 104//82 115//82 116//82
f 77//49 76//49 109//49 110//49
f 74//49 73//49 106//49 107//49
f 71//49 70//49 103//49 104//49
f 78//49 77//49 110//49 111//49
f 75//49 74//49 107//49 108//49
f 72//49 71//49 104//49 105//49
f 69//49 78//49 111//49 102//49
f 68//49 69//49 102//49 101//49
f 76//49 75//49 108//49 109//49
f 73//49 72//49 105//49 106//49
f 118//83 117//83 128//83 129//83
f 102//84 111//84 122//84 113//84
f 101//85 102//85 113//85 112//85
f 109//86 108//86 119//86 120//86
f 106//87 105//87 116//87 117//87
f 103//88 101//88 112//88 114//88
f 110//89 109//89 120//89 121//89
f 107//90 106//90 117//90 118//90
f 104//91 103//91 114//91 115//91
f 111//92 110//92 121//92 122//92
f 108//93 107//93 118//93 119//93
f 115//94 114//94 125//94 126//94
f 122//95 121//95 132//95 133//95
f 119//96 118//96 129//96 130//96
f 116//97 115//97 126//97 127//97
f 113//98 122//98 133//98 124//98
f 112//99 113//99 124//99 123//99
f 120//100 119//100 130//100 131//100
f 117//101 116//101 127//101 128//101
f 114//102 112//102 123//102 125//102
f 121//103 120//103 131//103 132//103
f 127//82 126//82 166//82 161//82
f 130//93 129//93 165//93 159//93
f 133//92 132//92 164//92 156//92
f 126//91 125//91 163//91 166//91
f 129//90 128//90 162//90 165//90
f 132//89 131//89 160//89 164//89
f 125//88 123//88 158//88 163//88
f 128//87 127//87 161//87 162//87
f 131//86 130//86 159//86 160//86
f 123//85 124//85 157//85 158//85
f 124//84 133//84 156//84 157//84
usemtl Liquid
f 157//84 156//84 144//84 135//84
f 140//104 139//104 150//104 151//104
f 158//85 157//85 135//85 134//85
f 160//86 159//86 141//86 142//86
f 162//87 161//87 138//87 139//87
f 163//88 158//88 134//88 136//88
f 164//89 160//89 142//89 143//89
f 165//90 162//90 139//90 140//90
f 166//91 163//91 136//91 137//91
f 156//92 164//92 143//92 144//92
f 159//93 165//93 140//93 141//93
f 161//82 166//82 137//82 138//82
f 145//49 146//49 155//49 154//49 153//49 152//49 151//49 150//49 149//49 148//49 147//49
f 137//105 136//105 147//105 148//105
f 144//106 143//106 154//106 155//106
f 141//107 140//107 151//107 152//107
f 138//108 137//108 148//108 149//108
f 135//109 144//109 155//109 146//109
f 134//110 135//110 146//110 145//110
f 142//111 141//111 152//111 153//111
f 139//112 138//112 149//112 150//112
f 136//113 134//113 145//113 147//113
f 143//114 142//114 153//114 154//114
f 164//49 160//49 167//49
f 156//49 164//49 167//49
f 158//49 157//49 167//49
f 163//49 158//49 167//49
f 166//49 163//49 167//49
f 157//49 156//49 167//49
f 161//49 166//49 167//49
f 162//49 161//49 167//49
f 165//49 162//49 167//49
f 159//49 165//49 167//49
f 160//49 159//49 167//49
