# Blender v2.75 (sub 0) OBJ File: 'Potion1Empty.blend'
# www.blender.org
mtllib Potion1Empty.mtl
o Cylinder.001_Cylinder.007
v 0.000000 1.117991 -0.095412
v 0.000000 1.308815 -0.095412
v 0.056082 1.117991 -0.077190
v 0.056082 1.308815 -0.077190
v 0.090742 1.117991 -0.029484
v 0.090742 1.308815 -0.029484
v 0.090742 1.117991 0.029484
v 0.090742 1.308815 0.029484
v 0.056082 1.117991 0.077190
v 0.056082 1.308815 0.077190
v -0.000000 1.117991 0.095412
v -0.000000 1.308815 0.095412
v -0.056082 1.117991 0.077190
v -0.056082 1.308815 0.077190
v -0.090742 1.117991 0.029484
v -0.090742 1.308815 0.029484
v -0.090742 1.117991 -0.029484
v -0.090742 1.308815 -0.029484
v -0.056082 1.117991 -0.077190
v -0.056082 1.308815 -0.077190
vn 0.309000 0.000000 -0.951100
vn 0.809000 0.000000 -0.587800
vn 1.000000 0.000000 0.000000
vn 0.809000 0.000000 0.587800
vn 0.309000 0.000000 0.951100
vn -0.309000 0.000000 0.951100
vn -0.809000 0.000000 0.587800
vn -1.000000 0.000000 0.000000
vn 0.000000 1.000000 0.000000
vn -0.309000 0.000000 -0.951100
vn -0.809000 0.000000 -0.587800
vn 0.000000 -1.000000 0.000000
usemtl Material.005
s off
f 1//1 2//1 4//1 3//1
f 3//2 4//2 6//2 5//2
f 5//3 6//3 8//3 7//3
f 7//4 8//4 10//4 9//4
f 9//5 10//5 12//5 11//5
f 11//6 12//6 14//6 13//6
f 13//7 14//7 16//7 15//7
f 15//8 16//8 18//8 17//8
f 4//9 2//9 20//9 18//9 16//9 14//9 12//9 10//9 8//9 6//9
f 19//10 20//10 2//10 1//10
f 17//11 18//11 20//11 19//11
f 1//12 3//12 5//12 7//12 9//12 11//12 13//12 15//12 17//12 19//12
o Cylinder.004
v 0.000000 -0.497753 -0.665943
v 0.000000 -0.441616 -0.665752
v 0.390560 -0.441616 -0.538851
v 0.390672 -0.497753 -0.539006
v 0.317144 -0.606440 -0.437804
v 0.000000 -0.606440 -0.540850
v -0.390672 -0.497753 -0.539006
v -0.390560 -0.441616 -0.538851
v 0.000000 -0.291012 -0.670025
v 0.393072 -0.291012 -0.542308
v 0.631939 -0.441616 -0.206621
v 0.632121 -0.497753 -0.206680
v -0.317144 -0.606440 -0.437804
v 0.513151 -0.606440 -0.168024
v 0.000000 -0.648664 -0.001292
v -0.632121 -0.497753 -0.206680
v -0.631939 -0.441616 -0.206621
v -0.393071 -0.291012 -0.542309
v 0.636003 -0.291012 -0.207942
v 0.000000 -0.048413 -0.493086
v 0.289070 -0.048413 -0.399162
v 0.631939 -0.441616 0.204038
v 0.632121 -0.497753 0.204097
v -0.513151 -0.606440 -0.168025
v 0.513151 -0.606440 0.165441
v -0.632121 -0.497753 0.204097
v -0.631939 -0.441616 0.204038
v -0.636003 -0.291012 -0.207942
v -0.289070 -0.048413 -0.399162
v 0.636003 -0.291012 0.205358
v 0.467724 -0.048413 -0.153265
v 0.000000 0.228614 -0.259995
v 0.152062 0.228614 -0.210587
v 0.390560 -0.441616 0.536268
v 0.390672 -0.497753 0.536423
v -0.513151 -0.606440 0.165441
v 0.317144 -0.606440 0.435220
v -0.390672 -0.497753 0.536423
v -0.390560 -0.441616 0.536268
v -0.636003 -0.291012 0.205358
v -0.467724 -0.048413 -0.153265
v -0.152062 0.228614 -0.210587
v 0.393072 -0.291012 0.539725
v 0.467724 -0.048413 0.150681
v 0.246041 0.228614 -0.081235
v 0.000000 0.677393 -0.160801
v 0.093757 0.677393 -0.130337
v -0.000000 -0.441616 0.663168
v -0.000000 -0.497753 0.663360
v -0.317145 -0.606440 0.435220
v -0.000000 -0.606440 0.538267
v -0.393072 -0.291012 0.539725
v -0.467724 -0.048413 0.150681
v -0.246041 0.228614 -0.081235
v -0.093757 0.677393 -0.130337
v -0.000000 -0.291012 0.667442
v 0.289070 -0.048413 0.396578
v 0.246041 0.228614 0.078652
v 0.151702 0.677393 -0.050583
v -0.000000 1.174178 -0.135139
v 0.078673 1.174178 -0.109576
v -0.289070 -0.048413 0.396578
v -0.246041 0.228614 0.078652
v -0.151702 0.677393 -0.050583
v -0.078673 1.174178 -0.109576
v -0.000000 -0.048413 0.490503
v 0.152062 0.228614 0.208004
v 0.151702 0.677393 0.047999
v 0.127296 1.174178 -0.042653
v 0.000000 1.174178 -0.095412
v 0.056082 1.174178 -0.077190
v 0.090742 1.174178 -0.029484
v 0.090742 1.174178 0.029484
v 0.056082 1.174178 0.077190
v -0.000000 1.174178 0.095412
v -0.000000 1.174178 0.132555
v 0.078673 1.174178 0.106993
v 0.127296 1.174178 0.040069
v -0.090742 1.174178 0.029484
v -0.090742 1.174178 -0.029484
v -0.056082 1.174178 -0.077190
v -0.127296 1.174178 -0.042653
v -0.127296 1.174178 0.040069
v -0.078673 1.174178 0.106992
v -0.056082 1.174178 0.077190
v -0.152062 0.228614 0.208003
v -0.151702 0.677393 0.047999
v -0.000000 0.228614 0.257411
v 0.093757 0.677393 0.127754
v -0.093757 0.677393 0.127754
v -0.000000 0.677393 0.158217
v 0.219875 -0.102105 -0.301355
v 0.115663 0.108609 -0.157920
v 0.000000 0.108609 -0.195501
v 0.000000 -0.102105 -0.372797
v 0.355765 -0.102105 -0.114319
v 0.187146 0.108609 -0.059531
v 0.071314 0.449964 -0.096880
v 0.000000 0.449964 -0.120051
v -0.115663 0.108609 -0.157920
v -0.219875 -0.102105 -0.301356
v 0.355765 -0.102105 0.116871
v 0.187146 0.108609 0.062084
v 0.115389 0.449964 -0.036216
v 0.059841 1.137786 -0.081088
v -0.000000 1.137786 -0.100532
v -0.071314 0.449964 -0.096880
v -0.187146 0.108609 -0.059531
v -0.355765 -0.102105 -0.114319
v 0.219875 -0.102105 0.303908
v 0.115663 0.108609 0.160472
v 0.115389 0.449964 0.038768
v 0.096825 1.137786 -0.030184
v -0.090742 1.137786 0.029484
v -0.056082 1.137786 0.077190
v -0.000000 1.137786 0.095412
v -0.000000 1.137786 0.103084
v -0.059841 1.137786 0.083640
v -0.096825 1.137786 0.032736
v -0.096825 1.137786 -0.030184
v -0.059841 1.137786 -0.081088
v 0.000000 1.137786 -0.095412
v -0.056082 1.137786 -0.077190
v -0.090742 1.137786 -0.029484
v 0.096825 1.137786 0.032736
v 0.059841 1.137786 0.083640
v 0.056082 1.137786 0.077190
v 0.090742 1.137786 0.029484
v 0.090742 1.137786 -0.029484
v 0.056082 1.137786 -0.077190
v -0.115389 0.449964 -0.036216
v -0.187146 0.108609 0.062084
v -0.355765 -0.102105 0.116871
v -0.000000 -0.102105 0.375349
v -0.000000 0.108609 0.198053
v 0.071314 0.449964 0.099432
v -0.000000 0.449964 0.122603
v -0.071314 0.449964 0.099432
v -0.115389 0.449964 0.038768
v -0.115663 0.108609 0.160472
v -0.219875 -0.102105 0.303908
v 0.000000 -0.443886 -0.504277
v 0.297157 -0.443886 -0.407725
v 0.297071 -0.401187 -0.407607
v 0.000000 -0.401187 -0.504131
v -0.297156 -0.443886 -0.407725
v -0.297071 -0.401187 -0.407607
v 0.000000 -0.526556 -0.409127
v 0.241229 -0.526556 -0.330747
v 0.480810 -0.443886 -0.154948
v 0.480671 -0.401187 -0.154903
v 0.298982 -0.286633 -0.410237
v 0.000000 -0.286633 -0.507382
v -0.480810 -0.443886 -0.154948
v -0.480671 -0.401187 -0.154903
v -0.241229 -0.526556 -0.330748
v -0.298981 -0.286633 -0.410237
v 0.000000 -0.558673 0.001276
v 0.390317 -0.526556 -0.125546
v 0.480810 -0.443886 0.157501
v 0.480671 -0.401187 0.157456
v 0.483762 -0.286633 -0.155908
v 0.219875 -0.102105 -0.301355
v 0.000000 -0.102105 -0.372797
v -0.480810 -0.443886 0.157501
v -0.480671 -0.401187 0.157456
v -0.390317 -0.526556 -0.125546
v -0.483762 -0.286633 -0.155908
v -0.219875 -0.102105 -0.301356
v 0.390317 -0.526556 0.128098
v 0.297157 -0.443886 0.410277
v 0.297071 -0.401187 0.410159
v 0.483762 -0.286633 0.158460
v 0.355765 -0.102105 -0.114319
v -0.297157 -0.443886 0.410277
v -0.297071 -0.401187 0.410159
v -0.390317 -0.526556 0.128098
v -0.483762 -0.286633 0.158460
v -0.355765 -0.102105 -0.114319
v 0.241229 -0.526556 0.333300
v -0.000000 -0.443886 0.506829
v -0.000000 -0.401187 0.506684
v 0.298981 -0.286633 0.412789
v 0.355765 -0.102105 0.116871
v -0.241229 -0.526556 0.333300
v -0.298982 -0.286633 0.412789
v -0.355765 -0.102105 0.116871
v -0.000000 -0.526556 0.411680
v -0.000000 -0.286633 0.509934
v 0.219875 -0.102105 0.303908
v -0.219875 -0.102105 0.303908
v -0.000000 -0.102105 0.375349
vn 0.309000 0.003200 -0.951100
vn 0.208400 -0.738300 -0.641500
vn -0.309000 0.003200 -0.951100
vn 0.308900 -0.027000 -0.950700
vn 0.809000 0.003200 -0.587800
vn -0.208400 -0.738300 -0.641500
vn 0.545700 -0.738300 -0.396400
vn 0.025300 -0.996600 -0.078000
vn -0.809000 0.003200 -0.587800
vn -0.308900 -0.027000 -0.950700
vn 0.808700 -0.027000 -0.587600
vn 0.253900 0.570000 -0.781500
vn 1.000000 0.003200 0.000000
vn -0.545700 -0.738300 -0.396400
vn -0.025300 -0.996600 -0.078000
vn 0.674500 -0.738300 0.000000
vn 0.066300 -0.996600 -0.048200
vn -1.000000 0.003200 0.000000
vn -0.808700 -0.027000 -0.587600
vn -0.253900 0.570000 -0.781500
vn 0.999600 -0.027000 0.000000
vn 0.664800 0.570000 -0.483000
vn 0.241300 0.624800 -0.742600
vn 0.809000 0.003200 0.587800
vn -0.674500 -0.738300 0.000000
vn -0.066300 -0.996600 -0.048200
vn 0.545700 -0.738300 0.396400
vn 0.082000 -0.996600 0.000000
vn -0.809000 0.003200 0.587800
vn -0.999600 -0.027000 0.000000
vn -0.664800 0.570000 -0.483000
vn -0.241300 0.624800 -0.742600
vn 0.808700 -0.027000 0.587600
vn 0.821700 0.570000 -0.000000
vn 0.631700 0.624800 -0.458900
vn 0.302400 0.205700 -0.930700
vn 0.309000 0.003200 0.951100
vn -0.545700 -0.738300 0.396400
vn -0.082000 -0.996600 0.000000
vn 0.208400 -0.738300 0.641500
vn 0.066300 -0.996600 0.048200
vn -0.309000 0.003200 0.951100
vn -0.808700 -0.027000 0.587600
vn -0.821700 0.570000 -0.000000
vn -0.631700 0.624800 -0.458900
vn -0.302400 0.205700 -0.930700
vn 0.308900 -0.027000 0.950700
vn 0.664700 0.570000 0.483000
vn 0.780800 0.624800 0.000000
vn 0.791700 0.205700 -0.575200
vn 0.308600 0.049100 -0.949900
vn -0.208400 -0.738300 0.641500
vn -0.066300 -0.996600 0.048200
vn 0.025300 -0.996600 0.078000
vn -0.308900 -0.027000 0.950700
vn -0.664800 0.570000 0.483000
vn -0.780800 0.624800 0.000000
vn -0.791700 0.205700 -0.575200
vn -0.308600 0.049100 -0.949900
vn 0.253900 0.570000 0.781500
vn 0.631700 0.624800 0.458900
vn 0.978600 0.205700 0.000000
vn 0.808000 0.049100 -0.587100
vn 0.000000 1.000000 0.000000
vn -0.025300 -0.996600 0.078000
vn -0.253900 0.570000 0.781500
vn -0.631700 0.624800 0.458900
vn -0.978600 0.205700 0.000000
vn -0.808000 0.049100 -0.587100
vn 0.241300 0.624800 0.742600
vn 0.791700 0.205700 0.575200
vn 0.998800 0.049100 0.000000
vn -0.998800 0.049100 0.000000
vn -0.808000 0.049100 0.587100
vn -0.308600 0.049100 0.949900
vn 0.308600 0.049100 0.949900
vn 0.808000 0.049100 0.587100
vn -0.241300 0.624800 0.742600
vn -0.791700 0.205700 0.575200
vn 0.302400 0.205700 0.930700
vn -0.302400 0.205700 0.930700
vn -0.241300 -0.624800 0.742600
vn -0.631700 -0.624800 0.458900
vn -0.302400 -0.205700 0.930700
vn 0.241300 -0.624800 0.742600
vn -0.780800 -0.624800 0.000000
vn -0.791700 -0.205700 0.575200
vn 0.302400 -0.205700 0.930700
vn 0.631700 -0.624800 0.458900
vn -0.631700 -0.624800 -0.458900
vn -0.978600 -0.205700 0.000000
vn 0.000000 -1.000000 0.000000
vn 0.791700 -0.205700 0.575200
vn 0.780800 -0.624800 0.000000
vn -0.241300 -0.624800 -0.742600
vn -0.791700 -0.205700 -0.575200
vn 0.978600 -0.205700 0.000000
vn 0.631700 -0.624800 -0.458900
vn 0.241300 -0.624800 -0.742600
vn -0.302400 -0.205700 -0.930700
vn 0.302400 -0.205700 -0.930700
vn 0.791700 -0.205700 -0.575200
vn -0.309000 0.000000 0.951100
vn 0.309000 0.000000 0.951100
vn -0.809000 0.000000 0.587800
vn 0.809000 0.000000 0.587800
vn -1.000000 0.000000 -0.000000
vn 1.000000 0.000000 0.000000
vn -0.809000 0.000000 -0.587800
vn 0.809000 0.000000 -0.587800
vn -0.309000 0.000000 -0.951100
vn 0.309000 0.000000 -0.951100
vn -0.309000 -0.003200 0.951100
vn 0.309000 -0.003200 0.951100
vn -0.208400 0.738300 0.641500
vn -0.809000 -0.003200 0.587800
vn -0.308900 0.027000 0.950700
vn 0.809000 -0.003200 0.587800
vn 0.208400 0.738300 0.641500
vn 0.308900 0.027000 0.950700
vn -0.025300 0.996600 0.078000
vn -0.545700 0.738300 0.396400
vn -1.000000 -0.003200 -0.000000
vn -0.808700 0.027000 0.587600
vn -0.253900 -0.570000 0.781500
vn 1.000000 -0.003200 0.000000
vn 0.545700 0.738300 0.396400
vn 0.808700 0.027000 0.587600
vn 0.025300 0.996600 0.078000
vn 0.253900 -0.570000 0.781500
vn -0.066300 0.996600 0.048200
vn -0.674500 0.738300 -0.000000
vn -0.809000 -0.003200 -0.587800
vn -0.999600 0.027000 0.000000
vn -0.664800 -0.570000 0.483000
vn 0.809000 -0.003200 -0.587800
vn 0.674500 0.738300 -0.000000
vn 0.999600 0.027000 0.000000
vn 0.066300 0.996600 0.048200
vn 0.664800 -0.570000 0.483000
vn -0.082000 0.996600 -0.000000
vn -0.545700 0.738300 -0.396400
vn -0.309000 -0.003200 -0.951100
vn -0.808700 0.027000 -0.587600
vn -0.821700 -0.570000 0.000000
vn 0.309000 -0.003200 -0.951100
vn 0.545700 0.738300 -0.396400
vn 0.808700 0.027000 -0.587600
vn 0.082000 0.996600 -0.000000
vn 0.821700 -0.570000 0.000000
vn -0.066300 0.996600 -0.048200
vn -0.208400 0.738300 -0.641500
vn -0.308900 0.027000 -0.950700
vn -0.664800 -0.570000 -0.483000
vn 0.208400 0.738300 -0.641500
vn 0.308900 0.027000 -0.950700
vn 0.066300 0.996600 -0.048200
vn 0.664800 -0.570000 -0.483000
vn -0.025300 0.996600 -0.078000
vn -0.253900 -0.570000 -0.781500
vn 0.025300 0.996600 -0.078000
vn 0.253900 -0.570000 -0.781500
usemtl Glass
s off
f 21//13 22//13 23//13 24//13
f 21//14 24//14 25//14 26//14
f 27//15 28//15 22//15 21//15
f 23//16 22//16 29//16 30//16
f 24//17 23//17 31//17 32//17
f 27//18 21//18 26//18 33//18
f 24//19 32//19 34//19 25//19
f 26//20 25//20 35//20
f 36//21 37//21 28//21 27//21
f 22//22 28//22 38//22 29//22
f 31//23 23//23 30//23 39//23
f 30//24 29//24 40//24 41//24
f 32//25 31//25 42//25 43//25
f 36//26 27//26 33//26 44//26
f 33//27 26//27 35//27
f 32//28 43//28 45//28 34//28
f 25//29 34//29 35//29
f 46//30 47//30 37//30 36//30
f 28//31 37//31 48//31 38//31
f 29//32 38//32 49//32 40//32
f 42//33 31//33 39//33 50//33
f 39//34 30//34 41//34 51//34
f 41//35 40//35 52//35 53//35
f 43//36 42//36 54//36 55//36
f 46//37 36//37 44//37 56//37
f 44//38 33//38 35//38
f 43//39 55//39 57//39 45//39
f 34//40 45//40 35//40
f 58//41 59//41 47//41 46//41
f 37//42 47//42 60//42 48//42
f 38//43 48//43 61//43 49//43
f 40//44 49//44 62//44 52//44
f 54//45 42//45 50//45 63//45
f 50//46 39//46 51//46 64//46
f 51//47 41//47 53//47 65//47
f 53//48 52//48 66//48 67//48
f 55//49 54//49 68//49 69//49
f 58//50 46//50 56//50 70//50
f 56//51 44//51 35//51
f 55//52 69//52 71//52 57//52
f 45//53 57//53 35//53
f 69//54 68//54 59//54 58//54
f 47//55 59//55 72//55 60//55
f 48//56 60//56 73//56 61//56
f 49//57 61//57 74//57 62//57
f 52//58 62//58 75//58 66//58
f 68//59 54//59 63//59 76//59
f 63//60 50//60 64//60 77//60
f 64//61 51//61 65//61 78//61
f 65//62 53//62 67//62 79//62
f 67//63 66//63 80//63 81//63
f 69//64 58//64 70//64 71//64
f 70//65 56//65 35//65
f 57//66 71//66 35//66
f 59//67 68//67 76//67 72//67
f 60//68 72//68 82//68 73//68
f 61//69 73//69 83//69 74//69
f 62//70 74//70 84//70 75//70
f 66//71 75//71 85//71 80//71
f 76//72 63//72 77//72 86//72
f 77//73 64//73 78//73 87//73
f 78//74 65//74 79//74 88//74
f 79//75 67//75 81//75 89//75
f 90//76 91//76 92//76 93//76 94//76 95//76 96//76 97//76 98//76 89//76 81//76 80//76
f 99//76 100//76 101//76 90//76 80//76 85//76 102//76 103//76 104//76 96//76 95//76 105//76
f 71//77 70//77 35//77
f 72//78 76//78 86//78 82//78
f 73//79 82//79 106//79 83//79
f 74//80 83//80 107//80 84//80
f 75//81 84//81 102//81 85//81
f 86//82 77//82 87//82 108//82
f 87//83 78//83 88//83 109//83
f 88//84 79//84 89//84 98//84
f 84//85 107//85 103//85 102//85
f 107//86 110//86 104//86 103//86
f 110//87 111//87 96//87 104//87
f 111//88 109//88 97//88 96//88
f 109//89 88//89 98//89 97//89
f 82//90 86//90 108//90 106//90
f 83//91 106//91 110//91 107//91
f 108//92 87//92 109//92 111//92
f 106//93 108//93 111//93 110//93
f 112//94 113//94 114//94 115//94
f 116//95 117//95 113//95 112//95
f 113//96 118//96 119//96 114//96
f 115//97 114//97 120//97 121//97
f 122//98 123//98 117//98 116//98
f 117//99 124//99 118//99 113//99
f 118//67 125//67 126//67 119//67
f 114//100 119//100 127//100 120//100
f 121//101 120//101 128//101 129//101
f 130//102 131//102 123//102 122//102
f 123//103 132//103 124//103 117//103
f 124//55 133//55 125//55 118//55
f 134//104 135//104 136//104 137//104 138//104 139//104 140//104 141//104 126//104 142//104 143//104 144//104
f 142//104 126//104 125//104 133//104 145//104 146//104 137//104 136//104 147//104 148//104 149//104 150//104
f 119//59 126//59 141//59 127//59
f 120//105 127//105 151//105 128//105
f 129//106 128//106 152//106 153//106
f 154//107 155//107 131//107 130//107
f 131//108 156//108 132//108 123//108
f 132//42 145//42 133//42 124//42
f 156//31 146//31 145//31 132//31
f 157//22 137//22 146//22 156//22
f 158//16 138//16 137//16 157//16
f 159//23 139//23 138//23 158//23
f 151//33 140//33 139//33 159//33
f 127//45 141//45 140//45 151//45
f 128//109 151//109 159//109 152//109
f 153//110 152//110 160//110 161//110
f 161//111 160//111 155//111 154//111
f 155//112 157//112 156//112 131//112
f 160//113 158//113 157//113 155//113
f 152//114 159//114 158//114 160//114
f 142//115 150//115 91//115 90//115
f 143//116 142//116 90//116 101//116
f 150//117 149//117 92//117 91//117
f 144//118 143//118 101//118 100//118
f 149//119 148//119 93//119 92//119
f 134//120 144//120 100//120 99//120
f 148//121 147//121 94//121 93//121
f 135//122 134//122 99//122 105//122
f 147//123 136//123 95//123 94//123
f 136//124 135//124 105//124 95//124
f 162//125 163//125 164//125 165//125
f 166//126 162//126 165//126 167//126
f 162//127 168//127 169//127 163//127
f 163//128 170//128 171//128 164//128
f 164//129 172//129 173//129 165//129
f 174//130 166//130 167//130 175//130
f 166//131 176//131 168//131 162//131
f 165//132 173//132 177//132 167//132
f 168//133 178//133 169//133
f 163//134 169//134 179//134 170//134
f 170//135 180//135 181//135 171//135
f 171//136 182//136 172//136 164//136
f 172//137 183//137 184//137 173//137
f 185//138 174//138 175//138 186//138
f 174//139 187//139 176//139 166//139
f 167//140 177//140 188//140 175//140
f 176//141 178//141 168//141
f 173//142 184//142 189//142 177//142
f 169//143 178//143 179//143
f 170//144 179//144 190//144 180//144
f 180//145 191//145 192//145 181//145
f 181//146 193//146 182//146 171//146
f 182//147 194//147 183//147 172//147
f 195//148 185//148 186//148 196//148
f 185//149 197//149 187//149 174//149
f 175//150 188//150 198//150 186//150
f 187//151 178//151 176//151
f 177//152 189//152 199//152 188//152
f 179//153 178//153 190//153
f 180//154 190//154 200//154 191//154
f 191//155 201//155 202//155 192//155
f 192//156 203//156 193//156 181//156
f 193//157 204//157 194//157 182//157
f 201//158 195//158 196//158 202//158
f 195//159 205//159 197//159 185//159
f 186//160 198//160 206//160 196//160
f 197//161 178//161 187//161
f 188//162 199//162 207//162 198//162
f 190//163 178//163 200//163
f 191//164 200//164 208//164 201//164
f 202//165 209//165 203//165 192//165
f 203//166 210//166 204//166 193//166
f 201//167 208//167 205//167 195//167
f 196//168 206//168 209//168 202//168
f 205//169 178//169 197//169
f 198//170 207//170 211//170 206//170
f 200//171 178//171 208//171
f 209//172 212//172 210//172 203//172
f 208//173 178//173 205//173
f 206//174 211//174 212//174 209//174
