# Blender v2.75 (sub 0) OBJ File: 'Potion4Empty.blend'
# www.blender.org
mtllib Potion4Empty.mtl
o Cylinder.001
v -0.000000 2.068185 -0.186105
v -0.000000 2.408962 -0.186105
v 0.100616 2.068185 -0.156561
v 0.100616 2.408962 -0.156561
v 0.169287 2.068185 -0.077311
v 0.169287 2.408962 -0.077311
v 0.184210 2.068185 0.026485
v 0.184210 2.408962 0.026485
v 0.140648 2.068185 0.121873
v 0.140648 2.408962 0.121873
v 0.052432 2.068185 0.178566
v 0.052432 2.408962 0.178566
v -0.052432 2.068185 0.178566
v -0.052432 2.408962 0.178566
v -0.140649 2.068185 0.121873
v -0.140649 2.408962 0.121873
v -0.184210 2.068185 0.026485
v -0.184210 2.408962 0.026485
v -0.169287 2.068185 -0.077311
v -0.169287 2.408962 -0.077311
v -0.100616 2.068185 -0.156561
v -0.100616 2.408962 -0.156561
vn 0.281700 0.000000 -0.959500
vn 0.755700 0.000000 -0.654900
vn 0.989800 0.000000 -0.142300
vn 0.909600 0.000000 0.415400
vn 0.540600 0.000000 0.841300
vn -0.000000 0.000000 1.000000
vn -0.540600 0.000000 0.841300
vn -0.909600 0.000000 0.415400
vn -0.989800 0.000000 -0.142300
vn 0.000000 1.000000 -0.000000
vn -0.281700 0.000000 -0.959500
vn -0.755700 0.000000 -0.654900
vn 0.000000 -1.000000 0.000000
usemtl Material.001
s off
f 1//1 2//1 4//1 3//1
f 3//2 4//2 6//2 5//2
f 5//3 6//3 8//3 7//3
f 7//4 8//4 10//4 9//4
f 9//5 10//5 12//5 11//5
f 11//6 12//6 14//6 13//6
f 13//7 14//7 16//7 15//7
f 15//8 16//8 18//8 17//8
f 17//9 18//9 20//9 19//9
f 4//10 2//10 22//10 20//10 18//10 16//10 14//10 12//10 10//10 8//10 6//10
f 21//11 22//11 2//11 1//11
f 19//12 20//12 22//12 21//12
f 1//13 3//13 5//13 7//13 9//13 11//13 13//13 15//13 17//13 19//13 21//13
o Cylinder
v 0.000000 0.799159 -0.603591
v -0.000000 2.172734 -0.213630
v 0.326326 0.799159 -0.507773
v 0.115497 2.172734 -0.179717
v 0.549046 0.799159 -0.250741
v 0.194325 2.172734 -0.088745
v 0.597447 0.799159 0.085900
v 0.211456 2.172734 0.030403
v 0.456164 0.799159 0.395268
v 0.161451 2.172734 0.139898
v 0.170051 0.799159 0.579141
v 0.060186 2.172734 0.204977
v -0.170051 0.799159 0.579141
v -0.060187 2.172734 0.204977
v -0.456164 0.799159 0.395268
v -0.161451 2.172734 0.139898
v -0.597447 0.799159 0.085900
v -0.211456 2.172734 0.030403
v -0.549046 0.799159 -0.250741
v -0.194325 2.172734 -0.088745
v -0.326326 0.799159 -0.507773
v -0.115497 2.172734 -0.179717
v 0.000000 0.681946 -0.485381
v 0.262417 0.681946 -0.408329
v 0.441518 0.681946 -0.201635
v 0.480441 0.681946 0.069077
v 0.366827 0.681946 0.317857
v 0.136748 0.681946 0.465720
v -0.136748 0.681946 0.465720
v -0.366827 0.681946 0.317857
v -0.480441 0.681946 0.069077
v -0.441518 0.681946 -0.201635
v -0.262417 0.681946 -0.408329
v -0.000000 0.681946 -0.000000
v -0.000000 2.117483 -0.237036
v 0.128151 2.117483 -0.199408
v 0.215616 2.117483 -0.098468
v 0.234624 2.117483 0.033734
v 0.179140 2.117483 0.155226
v 0.066781 2.117483 0.227435
v -0.066781 2.117483 0.227435
v -0.179140 2.117483 0.155226
v -0.234624 2.117483 0.033734
v -0.215616 2.117483 -0.098468
v -0.128151 2.117483 -0.199408
v 0.131338 2.223436 -0.204366
v -0.000000 2.223436 -0.242931
v 0.220978 2.223436 -0.100917
v 0.240458 2.223436 0.034573
v 0.183595 2.223436 0.159086
v 0.068441 2.223436 0.233090
v -0.068442 2.223436 0.233090
v -0.183595 2.223436 0.159086
v -0.240458 2.223436 0.034573
v -0.220978 2.223436 -0.100917
v -0.131338 2.223436 -0.204366
v 0.239754 2.198085 0.034471
v 0.183057 2.198085 0.158620
v -0.000000 2.198085 -0.242219
v 0.130954 2.198085 -0.203768
v 0.220330 2.198085 -0.100621
v -0.130954 2.198085 -0.203768
v -0.220330 2.198085 -0.100621
v -0.239754 2.198085 0.034471
v -0.183057 2.198085 0.158620
v -0.068241 2.198085 0.232408
v 0.068241 2.198085 0.232408
v 0.179551 2.176960 0.155582
v 0.128446 2.176960 -0.199865
v 0.235162 2.176960 0.033811
v -0.000000 2.176960 -0.237580
v 0.216111 2.176960 -0.098694
v -0.128446 2.176960 -0.199865
v -0.216111 2.176960 -0.098695
v -0.235162 2.176960 0.033811
v -0.179551 2.176960 0.155582
v -0.066934 2.176960 0.227957
v 0.066934 2.176960 0.227957
v 0.094580 2.223436 -0.147169
v -0.000000 2.223436 -0.174940
v 0.159131 2.223436 -0.072673
v 0.173159 2.223436 0.024897
v 0.132211 2.223436 0.114561
v 0.049286 2.223436 0.167853
v -0.049286 2.223436 0.167853
v -0.132211 2.223436 0.114561
v -0.173159 2.223436 0.024896
v -0.159131 2.223436 -0.072673
v -0.094580 2.223436 -0.147169
v 0.094580 2.159627 -0.147169
v -0.000000 2.159627 -0.174940
v 0.159131 2.159627 -0.072673
v 0.173159 2.159627 0.024897
v 0.132211 2.159627 0.114561
v 0.049286 2.159627 0.167853
v -0.049286 2.159627 0.167853
v -0.132211 2.159627 0.114561
v -0.173159 2.159627 0.024896
v -0.159131 2.159627 -0.072673
v -0.094580 2.159627 -0.147169
v 0.116962 2.115407 -0.181996
v -0.000000 2.115407 -0.216339
v 0.196789 2.115407 -0.089871
v 0.214137 2.115407 0.030788
v 0.163498 2.115407 0.141672
v 0.060950 2.115407 0.207576
v -0.060950 2.115407 0.207576
v -0.163498 2.115407 0.141672
v -0.214137 2.115407 0.030788
v -0.196789 2.115407 -0.089871
v -0.116962 2.115407 -0.181996
v 0.297833 0.821150 -0.463437
v -0.000000 0.821150 -0.550888
v 0.501106 0.821150 -0.228847
v 0.545281 0.821150 0.078400
v 0.416334 0.821150 0.360755
v 0.155203 0.821150 0.528574
v -0.155203 0.821150 0.528574
v -0.416334 0.821150 0.360755
v -0.545281 0.821150 0.078399
v -0.501106 0.821150 -0.228847
v -0.297833 0.821150 -0.463437
v 0.238498 0.739418 -0.371111
v -0.000000 0.739418 -0.441140
v 0.401275 0.739418 -0.183256
v 0.436650 0.739418 0.062781
v 0.333391 0.739418 0.288885
v 0.124283 0.739418 0.423271
v -0.124284 0.739418 0.423271
v -0.333391 0.739418 0.288885
v -0.436650 0.739418 0.062781
v -0.401275 0.739418 -0.183256
v -0.238498 0.739418 -0.371111
v -0.303572 0.891255 -0.472367
v 0.000000 0.891255 -0.561503
v 0.303572 0.891255 -0.472367
v -0.424356 0.891255 0.367706
v -0.555788 0.891255 0.079910
v 0.424356 0.891255 0.367707
v 0.158194 0.891255 0.538759
v 0.510761 0.891255 -0.233257
v -0.510761 0.891255 -0.233257
v -0.158194 0.891255 0.538759
v 0.555788 0.891255 0.079910
vn 0.261000 0.376600 -0.888900
vn 0.700100 0.376600 -0.606700
vn 0.917000 0.376600 -0.131800
vn 0.842700 0.376600 0.384800
vn 0.500800 0.376600 0.779300
vn 0.000000 0.376600 0.926400
vn -0.500800 0.376600 0.779300
vn -0.842700 0.376600 0.384800
vn -0.917000 0.376600 -0.131800
vn 0.909300 -0.026900 0.415300
vn -0.261000 0.376600 -0.888900
vn -0.700100 0.376600 -0.606700
vn 0.653700 -0.695400 0.298500
vn 0.202500 -0.695400 -0.689500
vn 0.711300 -0.695400 -0.102300
vn -0.202500 -0.695400 -0.689500
vn 0.543100 -0.695400 -0.470600
vn -0.543100 -0.695400 -0.470600
vn -0.711300 -0.695400 -0.102300
vn -0.653700 -0.695400 0.298500
vn -0.388500 -0.695400 0.604600
vn -0.000000 -0.695400 0.718600
vn 0.388500 -0.695400 0.604600
vn 0.000000 -1.000000 0.000000
vn -0.730200 0.257800 -0.632700
vn -0.272200 0.257800 -0.927100
vn -0.956400 0.257800 -0.137500
vn -0.878900 0.257800 0.401400
vn -0.522400 0.257800 0.812800
vn -0.000000 0.257800 0.966200
vn 0.522400 0.257800 0.812800
vn 0.878900 0.257800 0.401400
vn 0.956400 0.257800 -0.137500
vn 0.730200 0.257800 -0.632700
vn 0.272200 0.257800 -0.927100
vn 0.000000 1.000000 -0.000000
vn 0.281600 -0.026900 -0.959100
vn 0.989500 -0.026900 -0.142300
vn -0.281600 -0.026900 -0.959100
vn 0.755500 -0.026900 -0.654600
vn -0.755500 -0.026900 -0.654600
vn -0.989500 -0.026900 -0.142300
vn -0.909300 -0.026900 0.415300
vn -0.540400 -0.026900 0.840900
vn -0.000000 -0.026900 0.999600
vn 0.540400 -0.026900 0.840900
vn 0.529000 -0.206200 0.823200
vn -0.000000 -0.206200 0.978500
vn -0.529000 -0.206200 0.823200
vn -0.890100 -0.206200 0.406500
vn -0.968600 -0.206200 -0.139300
vn -0.739500 -0.206200 -0.640800
vn 0.739500 -0.206200 -0.640800
vn -0.275700 -0.206200 -0.938900
vn 0.968600 -0.206200 -0.139300
vn 0.275700 -0.206200 -0.938900
vn 0.890100 -0.206200 0.406500
vn 0.164500 -0.983500 0.075100
vn 0.050900 -0.983500 -0.173500
vn 0.179000 -0.983500 -0.025700
vn -0.050900 -0.983500 -0.173500
vn 0.136700 -0.983500 -0.118400
vn -0.136700 -0.983500 -0.118400
vn -0.179000 -0.983500 -0.025700
vn -0.164500 -0.983500 0.075100
vn -0.097800 -0.983500 0.152100
vn -0.000000 -0.983500 0.180800
vn 0.097800 -0.983500 0.152100
vn -0.909600 0.000000 -0.415400
vn 0.000000 -0.668300 -0.743900
vn 0.281700 0.000000 0.959500
vn -0.281700 0.000000 0.959500
vn 0.909600 0.000000 -0.415400
vn -0.540600 0.000000 -0.841300
vn -0.755700 0.000000 0.654900
vn 0.989800 0.000000 0.142300
vn 0.000000 0.000000 -1.000000
vn -0.989800 0.000000 0.142300
vn 0.755800 0.000000 0.654900
vn 0.540600 0.000000 -0.841300
vn 0.278800 0.143800 0.949500
vn -0.736400 -0.668300 0.105900
vn 0.562200 -0.668300 0.487200
vn 0.402200 -0.668300 -0.625800
vn -0.676700 -0.668300 -0.309000
vn 0.209600 -0.668300 0.713800
vn -0.209600 -0.668300 0.713800
vn 0.676700 -0.668300 -0.309000
vn -0.402200 -0.668300 -0.625800
vn -0.562200 -0.668300 0.487200
vn 0.736400 -0.668300 0.105900
vn 0.000000 0.790000 -0.613100
vn -0.278800 0.143800 0.949500
vn 0.900200 0.143800 -0.411100
vn -0.535000 0.143800 -0.832500
vn -0.747900 0.143800 0.648100
vn 0.979500 0.143800 0.140800
vn 0.000000 0.143800 -0.989600
vn -0.979500 0.143800 0.140800
vn 0.747900 0.143800 0.648100
vn 0.535000 0.143800 -0.832500
vn -0.900200 0.143800 -0.411100
vn -0.606900 0.790000 0.087300
vn 0.463400 0.790000 0.401500
vn 0.331500 0.790000 -0.515800
vn -0.557700 0.790000 -0.254700
vn 0.172700 0.790000 0.588300
vn -0.172700 0.790000 0.588300
vn 0.557700 0.790000 -0.254700
vn -0.331500 0.790000 -0.515800
vn -0.463400 0.790000 0.401500
vn 0.606900 0.790000 0.087300
vn -0.878100 -0.261200 -0.401000
vn 0.521900 -0.261200 -0.812100
vn 0.729500 -0.261200 0.632100
vn -0.955500 -0.261200 0.137400
vn 0.000000 -0.261200 -0.965300
vn 0.955500 -0.261200 0.137400
vn -0.729500 -0.261200 0.632100
vn -0.521900 -0.261200 -0.812100
vn 0.878100 -0.261200 -0.401000
vn -0.272000 -0.261200 0.926200
vn 0.272000 -0.261200 0.926200
usemtl Glass
s off
f 57//14 24//14 26//14 58//14
f 58//15 26//15 28//15 59//15
f 59//16 28//16 30//16 60//16
f 60//17 30//17 32//17 61//17
f 61//18 32//18 34//18 62//18
f 62//19 34//19 36//19 63//19
f 63//20 36//20 38//20 64//20
f 64//21 38//21 40//21 65//21
f 65//22 40//22 42//22 66//22
f 80//23 79//23 71//23 72//23
f 67//24 44//24 24//24 57//24
f 66//25 42//25 44//25 67//25
f 29//26 31//26 49//26 48//26
f 23//27 25//27 46//27 45//27
f 27//28 29//28 48//28 47//28
f 43//29 23//29 45//29 55//29
f 25//30 27//30 47//30 46//30
f 41//31 43//31 55//31 54//31
f 39//32 41//32 54//32 53//32
f 37//33 39//33 53//33 52//33
f 35//34 37//34 52//34 51//34
f 33//35 35//35 51//35 50//35
f 31//36 33//36 50//36 49//36
f 46//37 47//37 56//37
f 53//37 54//37 56//37
f 50//37 51//37 56//37
f 47//37 48//37 56//37
f 54//37 55//37 56//37
f 51//37 52//37 56//37
f 48//37 49//37 56//37
f 55//37 45//37 56//37
f 45//37 46//37 56//37
f 52//37 53//37 56//37
f 49//37 50//37 56//37
f 41//38 66//38 67//38 43//38
f 43//39 67//39 57//39 23//39
f 39//40 65//40 66//40 41//40
f 37//41 64//41 65//41 39//41
f 35//42 63//42 64//42 37//42
f 33//43 62//43 63//43 35//43
f 31//44 61//44 62//44 33//44
f 29//45 60//45 61//45 31//45
f 27//46 59//46 60//46 29//46
f 25//47 58//47 59//47 27//47
f 23//48 57//48 58//48 25//48
f 70//49 68//49 101//49 103//49
f 82//50 81//50 69//50 68//50
f 79//51 83//51 70//51 71//51
f 81//52 84//52 78//52 69//52
f 83//53 82//53 68//53 70//53
f 84//54 85//54 77//54 78//54
f 85//55 86//55 76//55 77//55
f 86//56 87//56 75//56 76//56
f 87//57 88//57 74//57 75//57
f 88//58 89//58 73//58 74//58
f 89//59 80//59 72//59 73//59
f 100//60 90//60 80//60 89//60
f 99//61 100//61 89//61 88//61
f 98//62 99//62 88//62 87//62
f 97//63 98//63 87//63 86//63
f 96//64 97//64 86//64 85//64
f 95//65 96//65 85//65 84//65
f 94//66 91//66 82//66 83//66
f 93//67 95//67 84//67 81//67
f 92//68 94//68 83//68 79//68
f 91//69 93//69 81//69 82//69
f 90//70 92//70 79//70 80//70
f 32//71 30//71 92//71 90//71
f 26//72 24//72 93//72 91//72
f 30//73 28//73 94//73 92//73
f 24//74 44//74 95//74 93//74
f 28//75 26//75 91//75 94//75
f 44//76 42//76 96//76 95//76
f 42//77 40//77 97//77 96//77
f 40//78 38//78 98//78 97//78
f 38//79 36//79 99//79 98//79
f 36//80 34//80 100//80 99//80
f 34//81 32//81 90//81 100//81
f 105//82 104//82 115//82 116//82
f 77//49 76//49 109//49 110//49
f 74//49 73//49 106//49 107//49
f 71//49 70//49 103//49 104//49
f 78//49 77//49 110//49 111//49
f 75//49 74//49 107//49 108//49
f 72//49 71//49 104//49 105//49
f 69//49 78//49 111//49 102//49
f 68//49 69//49 102//49 101//49
f 76//49 75//49 108//49 109//49
f 73//49 72//49 105//49 106//49
f 118//83 117//83 128//83 129//83
f 102//84 111//84 122//84 113//84
f 101//85 102//85 113//85 112//85
f 109//86 108//86 119//86 120//86
f 106//87 105//87 116//87 117//87
f 103//88 101//88 112//88 114//88
f 110//89 109//89 120//89 121//89
f 107//90 106//90 117//90 118//90
f 104//91 103//91 114//91 115//91
f 111//92 110//92 121//92 122//92
f 108//93 107//93 118//93 119//93
f 157//94 156//94 144//94 135//94
f 115//95 114//95 125//95 126//95
f 122//96 121//96 132//96 133//96
f 119//97 118//97 129//97 130//97
f 116//98 115//98 126//98 127//98
f 113//99 122//99 133//99 124//99
f 112//100 113//100 124//100 123//100
f 120//101 119//101 130//101 131//101
f 117//102 116//102 127//102 128//102
f 114//103 112//103 123//103 125//103
f 121//104 120//104 131//104 132//104
f 140//105 139//105 150//105 151//105
f 158//106 157//106 135//106 134//106
f 160//107 159//107 141//107 142//107
f 162//108 161//108 138//108 139//108
f 163//109 158//109 134//109 136//109
f 164//110 160//110 142//110 143//110
f 165//111 162//111 139//111 140//111
f 166//112 163//112 136//112 137//112
f 156//113 164//113 143//113 144//113
f 159//114 165//114 140//114 141//114
f 161//115 166//115 137//115 138//115
f 145//49 146//49 155//49 154//49 153//49 152//49 151//49 150//49 149//49 148//49 147//49
f 137//116 136//116 147//116 148//116
f 144//117 143//117 154//117 155//117
f 141//118 140//118 151//118 152//118
f 138//119 137//119 148//119 149//119
f 135//120 144//120 155//120 146//120
f 134//121 135//121 146//121 145//121
f 142//122 141//122 152//122 153//122
f 139//123 138//123 149//123 150//123
f 136//124 134//124 145//124 147//124
f 143//125 142//125 153//125 154//125
f 127//126 126//126 166//126 161//126
f 130//127 129//127 165//127 159//127
f 133//128 132//128 164//128 156//128
f 126//129 125//129 163//129 166//129
f 129//130 128//130 162//130 165//130
f 132//131 131//131 160//131 164//131
f 125//132 123//132 158//132 163//132
f 128//133 127//133 161//133 162//133
f 131//134 130//134 159//134 160//134
f 123//135 124//135 157//135 158//135
f 124//136 133//136 156//136 157//136
