# Blender v2.75 (sub 0) OBJ File: 'Potion5HalfFull.blend'
# www.blender.org
mtllib Potion5HalfFull.mtl
o Cylinder.001_Cylinder.007
v 0.000000 0.448887 -0.095412
v 0.000000 0.639712 -0.095412
v 0.056082 0.448887 -0.077190
v 0.056082 0.639712 -0.077190
v 0.090742 0.448887 -0.029484
v 0.090742 0.639712 -0.029484
v 0.090742 0.448887 0.029484
v 0.090742 0.639712 0.029484
v 0.056082 0.448887 0.077190
v 0.056082 0.639712 0.077190
v -0.000000 0.448887 0.095412
v -0.000000 0.639712 0.095412
v -0.056082 0.448887 0.077190
v -0.056082 0.639712 0.077190
v -0.090742 0.448887 0.029484
v -0.090742 0.639712 0.029484
v -0.090742 0.448887 -0.029484
v -0.090742 0.639712 -0.029484
v -0.056082 0.448887 -0.077190
v -0.056082 0.639712 -0.077190
vn 0.309000 0.000000 -0.951100
vn 0.809000 0.000000 -0.587800
vn 1.000000 0.000000 0.000000
vn 0.809000 0.000000 0.587800
vn 0.309000 0.000000 0.951100
vn -0.309000 0.000000 0.951100
vn -0.809000 0.000000 0.587800
vn -1.000000 0.000000 0.000000
vn 0.000000 1.000000 0.000000
vn -0.309000 0.000000 -0.951100
vn -0.809000 0.000000 -0.587800
vn 0.000000 -1.000000 -0.000000
usemtl Material.005
s off
f 1//1 2//1 4//1 3//1
f 3//2 4//2 6//2 5//2
f 5//3 6//3 8//3 7//3
f 7//4 8//4 10//4 9//4
f 9//5 10//5 12//5 11//5
f 11//6 12//6 14//6 13//6
f 13//7 14//7 16//7 15//7
f 15//8 16//8 18//8 17//8
f 4//9 2//9 20//9 18//9 16//9 14//9 12//9 10//9 8//9 6//9
f 19//10 20//10 2//10 1//10
f 17//11 18//11 20//11 19//11
f 1//12 3//12 5//12 7//12 9//12 11//12 13//12 15//12 17//12 19//12
o Cylinder.004
v 0.000000 -0.497753 -0.665943
v 0.000000 -0.441616 -0.665752
v 0.390560 -0.441616 -0.538851
v 0.390672 -0.497753 -0.539006
v 0.317144 -0.606440 -0.437804
v 0.000000 -0.606440 -0.540850
v -0.390672 -0.497753 -0.539006
v -0.390560 -0.441616 -0.538851
v 0.000000 -0.291012 -0.670025
v 0.393072 -0.291012 -0.542308
v 0.631939 -0.441616 -0.206621
v 0.632121 -0.497753 -0.206680
v -0.317144 -0.606440 -0.437804
v 0.513151 -0.606440 -0.168024
v 0.000000 -0.648664 -0.001292
v -0.632121 -0.497753 -0.206680
v -0.631939 -0.441616 -0.206621
v -0.393071 -0.291012 -0.542309
v 0.636003 -0.291012 -0.207942
v 0.000000 -0.048413 -0.493086
v 0.289070 -0.048413 -0.399162
v 0.631939 -0.441616 0.204038
v 0.632121 -0.497753 0.204097
v -0.513151 -0.606440 -0.168025
v 0.513151 -0.606440 0.165441
v -0.632121 -0.497753 0.204097
v -0.631939 -0.441616 0.204038
v -0.636003 -0.291012 -0.207942
v -0.289070 -0.048413 -0.399162
v 0.636003 -0.291012 0.205358
v 0.467724 -0.048413 -0.153265
v 0.000000 0.228614 -0.259995
v 0.152062 0.228614 -0.210587
v 0.390560 -0.441616 0.536268
v 0.390672 -0.497753 0.536423
v -0.513151 -0.606440 0.165441
v 0.317144 -0.606440 0.435220
v -0.390672 -0.497753 0.536423
v -0.390560 -0.441616 0.536268
v -0.636003 -0.291012 0.205358
v -0.467724 -0.048413 -0.153265
v -0.152062 0.228614 -0.210587
v 0.393072 -0.291012 0.539725
v 0.467724 -0.048413 0.150681
v 0.246041 0.228614 -0.081235
v 0.000000 0.394644 -0.160801
v 0.093757 0.394644 -0.130337
v -0.000000 -0.441616 0.663168
v -0.000000 -0.497753 0.663360
v -0.317145 -0.606440 0.435220
v -0.000000 -0.606440 0.538267
v -0.393072 -0.291012 0.539725
v -0.467724 -0.048413 0.150681
v -0.246041 0.228614 -0.081235
v -0.093757 0.394644 -0.130337
v -0.000000 -0.291012 0.667442
v 0.289070 -0.048413 0.396578
v 0.246041 0.228614 0.078652
v 0.151702 0.394644 -0.050583
v -0.000000 0.504107 -0.166708
v 0.097229 0.504107 -0.135116
v -0.289070 -0.048413 0.396578
v -0.246041 0.228614 0.078652
v -0.151702 0.394644 -0.050583
v -0.097229 0.504107 -0.135116
v -0.000000 -0.048413 0.490503
v 0.152062 0.228614 0.208004
v 0.151702 0.394644 0.047999
v 0.157320 0.504107 -0.052408
v 0.000000 0.498012 -0.095412
v 0.056082 0.498012 -0.077190
v 0.090742 0.498012 -0.029484
v 0.090742 0.498012 0.029484
v 0.056082 0.498012 0.077190
v -0.000000 0.498012 0.095412
v -0.000000 0.504107 0.164124
v 0.097229 0.504107 0.132533
v 0.157320 0.504107 0.049825
v -0.090742 0.498012 0.029484
v -0.090742 0.498012 -0.029484
v -0.056082 0.498012 -0.077190
v -0.157320 0.504107 -0.052408
v -0.157320 0.504107 0.049825
v -0.097229 0.504107 0.132533
v -0.056082 0.498012 0.077190
v -0.152062 0.228614 0.208003
v -0.151702 0.394644 0.047999
v -0.000000 0.228614 0.257411
v 0.093757 0.394644 0.127754
v -0.093757 0.394644 0.127754
v -0.000000 0.394644 0.158217
v 0.219875 -0.102105 -0.301355
v 0.115663 0.108609 -0.157920
v 0.000000 0.108609 -0.195501
v 0.000000 -0.102105 -0.372797
v 0.355765 -0.102105 -0.114319
v 0.187146 0.108609 -0.059531
v 0.071314 0.449964 -0.096880
v 0.000000 0.449964 -0.120051
v -0.115663 0.108609 -0.157920
v -0.219875 -0.102105 -0.301356
v 0.355765 -0.102105 0.116871
v 0.187146 0.108609 0.062084
v 0.115389 0.449964 -0.036216
v 0.059841 0.461620 -0.081088
v -0.000000 0.461620 -0.100532
v -0.071314 0.449964 -0.096880
v -0.187146 0.108609 -0.059531
v -0.355765 -0.102105 -0.114319
v 0.219875 -0.102105 0.303908
v 0.115663 0.108609 0.160472
v 0.115389 0.449964 0.038768
v 0.096825 0.461620 -0.030184
v -0.090742 0.461620 0.029484
v -0.056082 0.461620 0.077190
v -0.000000 0.461620 0.095412
v -0.000000 0.461620 0.103084
v -0.059841 0.461620 0.083640
v -0.096825 0.461620 0.032736
v -0.096825 0.461620 -0.030184
v -0.059841 0.461620 -0.081088
v 0.000000 0.461620 -0.095412
v -0.056082 0.461620 -0.077190
v -0.090742 0.461620 -0.029484
v 0.096825 0.461620 0.032736
v 0.059841 0.461620 0.083640
v 0.056082 0.461620 0.077190
v 0.090742 0.461620 0.029484
v 0.090742 0.461620 -0.029484
v 0.056082 0.461620 -0.077190
v -0.115389 0.449964 -0.036216
v -0.187146 0.108609 0.062084
v -0.355765 -0.102105 0.116871
v -0.000000 -0.102105 0.375349
v -0.000000 0.108609 0.198053
v 0.071314 0.449964 0.099432
v -0.000000 0.449964 0.122603
v -0.071314 0.449964 0.099432
v -0.115389 0.449964 0.038768
v -0.115663 0.108609 0.160472
v -0.219875 -0.102105 0.303908
v 0.000000 -0.443886 -0.504277
v 0.297157 -0.443886 -0.407725
v 0.297071 -0.401187 -0.407607
v 0.000000 -0.401187 -0.504131
v -0.297156 -0.443886 -0.407725
v -0.297071 -0.401187 -0.407607
v 0.000000 -0.526556 -0.409127
v 0.241229 -0.526556 -0.330747
v 0.480810 -0.443886 -0.154948
v 0.480671 -0.401187 -0.154903
v 0.298982 -0.286633 -0.410237
v 0.000000 -0.286633 -0.507382
v -0.480810 -0.443886 -0.154948
v -0.480671 -0.401187 -0.154903
v -0.241229 -0.526556 -0.330748
v -0.298981 -0.286633 -0.410237
v 0.000000 -0.558673 0.001276
v 0.390317 -0.526556 -0.125546
v 0.480810 -0.443886 0.157501
v 0.480671 -0.401187 0.157456
v 0.483762 -0.286633 -0.155908
v 0.219875 -0.102105 -0.301355
v 0.000000 -0.102105 -0.372797
v -0.480810 -0.443886 0.157501
v -0.480671 -0.401187 0.157456
v -0.390317 -0.526556 -0.125546
v -0.483762 -0.286633 -0.155908
v -0.219875 -0.102105 -0.301356
v 0.390317 -0.526556 0.128098
v 0.297157 -0.443886 0.410277
v 0.297071 -0.401187 0.410159
v 0.483762 -0.286633 0.158460
v 0.355765 -0.102105 -0.114319
v -0.297157 -0.443886 0.410277
v -0.297071 -0.401187 0.410159
v -0.390317 -0.526556 0.128098
v -0.483762 -0.286633 0.158460
v -0.355765 -0.102105 -0.114319
v 0.241229 -0.526556 0.333300
v -0.000000 -0.443886 0.506829
v -0.000000 -0.401187 0.506684
v 0.298981 -0.286633 0.412789
v 0.355765 -0.102105 0.116871
v -0.241229 -0.526556 0.333300
v -0.298982 -0.286633 0.412789
v -0.355765 -0.102105 0.116871
v -0.000000 -0.526556 0.411680
v -0.000000 -0.286633 0.509934
v 0.219875 -0.102105 0.303908
v -0.219875 -0.102105 0.303908
v -0.000000 -0.102105 0.375349
v -0.000000 0.446328 -0.147970
v 0.086215 0.446328 -0.119957
v -0.086215 0.446328 -0.119957
v 0.139499 0.446328 -0.046618
v 0.139499 0.446328 0.044034
v -0.139499 0.446328 -0.046618
v -0.139499 0.446328 0.044034
v -0.000000 0.446328 0.145386
v -0.086215 0.446328 0.117373
v 0.086215 0.446328 0.117373
v -0.000000 0.440233 -0.182565
v -0.106550 0.440233 -0.147945
v -0.000000 0.440233 0.179982
v 0.106550 0.440233 0.145362
v 0.106550 0.440233 -0.147945
v 0.172401 0.440233 -0.057308
v 0.172401 0.440233 0.054725
v -0.172401 0.440233 -0.057308
v -0.172401 0.440233 0.054725
v -0.106550 0.440233 0.145362
v 0.269424 -0.138552 -0.369505
v 0.000000 -0.138552 -0.457046
v -0.269424 -0.138552 -0.369505
v 0.435937 -0.138552 -0.140319
v -0.435937 -0.138552 -0.140319
v 0.435937 -0.138552 0.142970
v -0.435937 -0.138552 0.142970
v 0.269424 -0.138552 0.372156
v -0.269424 -0.138552 0.372156
v -0.000000 -0.138552 0.459697
v 0.000000 -0.140300 -0.623914
v 0.365939 -0.140300 -0.505013
v -0.365939 -0.140300 -0.505013
v 0.592102 -0.140300 -0.193727
v -0.592102 -0.140300 0.191044
v -0.592102 -0.140300 -0.193727
v 0.592102 -0.140300 0.191044
v 0.365939 -0.140300 0.502331
v -0.365939 -0.140300 0.502331
v -0.000000 -0.140300 0.621231
v 0.269424 -0.138552 -0.369505
v 0.000000 -0.138552 -0.457046
v -0.269424 -0.138552 -0.369505
v 0.435937 -0.138552 -0.140319
v -0.435937 -0.138552 -0.140319
v 0.435937 -0.138552 0.142970
v -0.435937 -0.138552 0.142970
v 0.269424 -0.138552 0.372156
v -0.269424 -0.138552 0.372156
v -0.000000 -0.138552 0.459697
v 0.000000 -0.138552 0.001326
vn 0.309000 0.003200 -0.951100
vn 0.208400 -0.738300 -0.641500
vn -0.309000 0.003200 -0.951100
vn 0.308900 -0.027000 -0.950700
vn 0.809000 0.003200 -0.587800
vn -0.208400 -0.738300 -0.641500
vn 0.545700 -0.738300 -0.396400
vn 0.025300 -0.996600 -0.078000
vn -0.809000 0.003200 -0.587800
vn -0.308900 -0.027000 -0.950700
vn 0.808700 -0.027000 -0.587600
vn 0.183600 0.804400 -0.565000
vn 1.000000 0.003200 0.000000
vn -0.545700 -0.738300 -0.396400
vn -0.025300 -0.996600 -0.078000
vn 0.674500 -0.738300 0.000000
vn 0.066300 -0.996600 -0.048200
vn -1.000000 0.003200 0.000000
vn -0.808700 -0.027000 -0.587600
vn -0.183600 0.804400 -0.565000
vn 0.999600 -0.027000 0.000000
vn 0.480700 0.804400 -0.349200
vn 0.241300 0.624800 -0.742600
vn 0.809000 0.003200 0.587800
vn -0.674500 -0.738300 0.000000
vn -0.066300 -0.996600 -0.048200
vn 0.545700 -0.738300 0.396400
vn 0.082000 -0.996600 0.000000
vn -0.809000 0.003200 0.587800
vn -0.999600 -0.027000 0.000000
vn -0.480700 0.804400 -0.349200
vn -0.241300 0.624800 -0.742600
vn 0.808700 -0.027000 0.587600
vn 0.594200 0.804300 -0.000000
vn 0.631700 0.624800 -0.458900
vn 0.268700 0.494000 -0.826900
vn 0.309000 0.003200 0.951100
vn -0.545700 -0.738300 0.396400
vn -0.082000 -0.996600 0.000000
vn 0.208400 -0.738300 0.641500
vn 0.066300 -0.996600 0.048200
vn -0.309000 0.003200 0.951100
vn -0.808700 -0.027000 0.587600
vn -0.594200 0.804300 -0.000000
vn -0.631700 0.624800 -0.458900
vn -0.268700 0.494000 -0.826900
vn 0.308900 -0.027000 0.950700
vn 0.480800 0.804200 0.349300
vn 0.780800 0.624800 0.000000
vn 0.703400 0.494000 -0.511000
vn 0.300700 0.229800 -0.925600
vn -0.208400 -0.738300 0.641500
vn -0.066300 -0.996600 0.048200
vn 0.025300 -0.996600 0.078000
vn -0.308900 -0.027000 0.950700
vn -0.480800 0.804200 0.349300
vn -0.780800 0.624800 0.000000
vn -0.703400 0.494000 -0.511000
vn -0.300700 0.229800 -0.925600
vn 0.183700 0.804200 0.565300
vn 0.631700 0.624800 0.458900
vn 0.869400 0.494000 0.000000
vn 0.787400 0.229800 -0.572100
vn -0.059100 0.998200 0.000000
vn 0.059100 0.998200 -0.000000
vn -0.025300 -0.996600 0.078000
vn -0.183700 0.804200 0.565300
vn -0.631700 0.624800 0.458900
vn -0.869400 0.494000 0.000000
vn -0.787400 0.229800 -0.572100
vn 0.241300 0.624800 0.742600
vn 0.703400 0.494000 0.511000
vn 0.973200 0.229800 0.000000
vn -0.973200 0.229800 0.000000
vn -0.787400 0.229800 0.572100
vn -0.300700 0.229800 0.925600
vn 0.300700 0.229800 0.925600
vn 0.787400 0.229800 0.572100
vn -0.241300 0.624800 0.742600
vn -0.703400 0.494000 0.511000
vn 0.268700 0.494000 0.826900
vn -0.268700 0.494000 0.826900
vn -0.241300 -0.624800 0.742600
vn -0.631700 -0.624800 0.458900
vn -0.302400 -0.205700 0.930700
vn 0.241300 -0.624800 0.742600
vn -0.780800 -0.624800 0.000000
vn -0.791700 -0.205700 0.575200
vn -0.164300 -0.846900 0.505700
vn 0.302400 -0.205700 0.930700
vn 0.631700 -0.624800 0.458900
vn -0.631700 -0.624800 -0.458900
vn -0.978600 -0.205700 0.000000
vn -0.430200 -0.846900 0.312600
vn 0.000000 -1.000000 0.000000
vn 0.164300 -0.846900 0.505700
vn 0.791700 -0.205700 0.575200
vn 0.780800 -0.624800 0.000000
vn -0.241300 -0.624800 -0.742600
vn -0.791700 -0.205700 -0.575200
vn -0.531700 -0.846900 0.000000
vn -0.430200 -0.846900 -0.312600
vn -0.164300 -0.846900 -0.505700
vn 0.164300 -0.846900 -0.505700
vn 0.430200 -0.846900 -0.312600
vn 0.531700 -0.846900 0.000000
vn 0.430200 -0.846900 0.312600
vn 0.978600 -0.205700 0.000000
vn 0.631700 -0.624800 -0.458900
vn 0.241300 -0.624800 -0.742600
vn -0.302400 -0.205700 -0.930700
vn 0.302400 -0.205700 -0.930700
vn 0.791700 -0.205700 -0.575200
vn -0.309000 0.000000 0.951100
vn 0.309000 0.000000 0.951100
vn -0.809000 0.000000 0.587800
vn 0.809000 0.000000 0.587800
vn -1.000000 0.000000 -0.000000
vn 1.000000 0.000000 0.000000
vn -0.809000 0.000000 -0.587800
vn 0.809000 0.000000 -0.587800
vn -0.309000 0.000000 -0.951100
vn 0.309000 0.000000 -0.951100
vn -0.128000 -0.910300 0.393800
vn 0.128000 -0.910300 0.393800
vn -0.334900 -0.910300 0.243300
vn 0.334900 -0.910300 0.243300
vn -0.413900 -0.910300 0.000000
vn 0.413900 -0.910300 0.000000
vn -0.334700 -0.910400 -0.243200
vn 0.334700 -0.910400 -0.243200
vn -0.127800 -0.910400 -0.393400
vn 0.127800 -0.910400 -0.393400
vn -0.147400 -0.983300 -0.107100
vn -0.056300 -0.983300 -0.173200
vn 0.056300 -0.983300 -0.173200
vn 0.147400 -0.983300 -0.107100
vn 0.182100 -0.983300 0.000000
vn -0.182100 -0.983300 0.000000
vn 0.147400 -0.983300 0.107100
vn -0.147400 -0.983300 0.107100
vn 0.056300 -0.983300 0.173200
vn -0.056300 -0.983300 0.173200
vn -0.296700 0.279900 0.913000
vn 0.296700 0.279900 0.913000
vn -0.776700 0.279800 0.564300
vn 0.776700 0.279800 0.564300
vn -0.960100 0.279700 -0.000000
vn 0.960100 0.279700 -0.000000
vn -0.776800 0.279500 -0.564400
vn 0.776800 0.279500 -0.564400
vn -0.296700 0.279400 -0.913200
vn 0.296700 0.279400 -0.913200
vn -0.309000 -0.003200 0.951100
vn 0.309000 -0.003200 0.951100
vn -0.208400 0.738300 0.641500
vn -0.809000 -0.003200 0.587800
vn -0.308900 0.027000 0.950700
vn 0.809000 -0.003200 0.587800
vn 0.208400 0.738300 0.641500
vn 0.308900 0.027000 0.950700
vn -0.025300 0.996600 0.078000
vn -0.545700 0.738300 0.396400
vn -1.000000 -0.003200 -0.000000
vn -0.808700 0.027000 0.587600
vn 1.000000 -0.003200 0.000000
vn 0.545700 0.738300 0.396400
vn 0.808700 0.027000 0.587600
vn 0.025300 0.996600 0.078000
vn -0.066300 0.996600 0.048200
vn -0.674500 0.738300 -0.000000
vn -0.809000 -0.003200 -0.587800
vn -0.999600 0.027000 0.000000
vn 0.809000 -0.003200 -0.587800
vn 0.674500 0.738300 -0.000000
vn 0.999600 0.027000 0.000000
vn 0.066300 0.996600 0.048200
vn -0.082000 0.996600 -0.000000
vn -0.545700 0.738300 -0.396400
vn -0.309000 -0.003200 -0.951100
vn -0.808700 0.027000 -0.587600
vn 0.309000 -0.003200 -0.951100
vn 0.545700 0.738300 -0.396400
vn 0.808700 0.027000 -0.587600
vn 0.082000 0.996600 -0.000000
vn -0.066300 0.996600 -0.048200
vn -0.208400 0.738300 -0.641500
vn -0.308900 0.027000 -0.950700
vn 0.208400 0.738300 -0.641500
vn 0.308900 0.027000 -0.950700
vn 0.066300 0.996600 -0.048200
vn -0.025300 0.996600 -0.078000
vn 0.025300 0.996600 -0.078000
vn 0.294100 -0.307100 -0.905100
vn -0.294100 -0.307100 -0.905100
vn 0.769900 -0.307200 -0.559400
vn -0.769900 -0.307200 -0.559400
vn 0.951600 -0.307300 0.000000
vn -0.951600 -0.307300 0.000000
vn 0.769800 -0.307500 0.559300
vn -0.769800 -0.307500 0.559300
vn 0.294000 -0.307600 0.904900
vn -0.294000 -0.307600 0.904900
vn 0.000000 0.000000 1.000000
usemtl Glass
s off
f 21//13 22//13 23//13 24//13
f 21//14 24//14 25//14 26//14
f 27//15 28//15 22//15 21//15
f 23//16 22//16 29//16 30//16
f 24//17 23//17 31//17 32//17
f 27//18 21//18 26//18 33//18
f 24//19 32//19 34//19 25//19
f 26//20 25//20 35//20
f 36//21 37//21 28//21 27//21
f 22//22 28//22 38//22 29//22
f 31//23 23//23 30//23 39//23
f 244//24 243//24 40//24 41//24
f 32//25 31//25 42//25 43//25
f 36//26 27//26 33//26 44//26
f 33//27 26//27 35//27
f 32//28 43//28 45//28 34//28
f 25//29 34//29 35//29
f 46//30 47//30 37//30 36//30
f 28//31 37//31 48//31 38//31
f 243//32 245//32 49//32 40//32
f 42//33 31//33 39//33 50//33
f 246//34 244//34 41//34 51//34
f 41//35 40//35 52//35 53//35
f 43//36 42//36 54//36 55//36
f 46//37 36//37 44//37 56//37
f 44//38 33//38 35//38
f 43//39 55//39 57//39 45//39
f 34//40 45//40 35//40
f 58//41 59//41 47//41 46//41
f 37//42 47//42 60//42 48//42
f 245//43 248//43 61//43 49//43
f 40//44 49//44 62//44 52//44
f 54//45 42//45 50//45 63//45
f 249//46 246//46 51//46 64//46
f 51//47 41//47 53//47 65//47
f 53//48 52//48 66//48 67//48
f 55//49 54//49 68//49 69//49
f 58//50 46//50 56//50 70//50
f 56//51 44//51 35//51
f 55//52 69//52 71//52 57//52
f 45//53 57//53 35//53
f 69//54 68//54 59//54 58//54
f 47//55 59//55 72//55 60//55
f 248//56 247//56 73//56 61//56
f 49//57 61//57 74//57 62//57
f 52//58 62//58 75//58 66//58
f 68//59 54//59 63//59 76//59
f 250//60 249//60 64//60 77//60
f 64//61 51//61 65//61 78//61
f 65//62 53//62 67//62 79//62
f 227//63 223//63 80//63 81//63
f 69//64 58//64 70//64 71//64
f 70//65 56//65 35//65
f 57//66 71//66 35//66
f 59//67 68//67 76//67 72//67
f 247//68 251//68 82//68 73//68
f 61//69 73//69 83//69 74//69
f 62//70 74//70 84//70 75//70
f 223//71 224//71 85//71 80//71
f 252//72 250//72 77//72 86//72
f 77//73 64//73 78//73 87//73
f 78//74 65//74 79//74 88//74
f 228//75 227//75 81//75 89//75
f 90//76 91//76 92//76 93//76 94//76 95//76 96//76 97//76 98//76 89//76 81//76 80//76
f 99//77 100//77 101//77 90//77 80//77 85//77 102//77 103//77 104//77 96//77 95//77 105//77
f 71//78 70//78 35//78
f 251//79 252//79 86//79 82//79
f 73//80 82//80 106//80 83//80
f 74//81 83//81 107//81 84//81
f 224//82 230//82 102//82 85//82
f 86//83 77//83 87//83 108//83
f 87//84 78//84 88//84 109//84
f 229//85 228//85 89//85 98//85
f 230//86 231//86 103//86 102//86
f 231//87 232//87 104//87 103//87
f 232//88 225//88 96//88 104//88
f 225//89 226//89 97//89 96//89
f 226//90 229//90 98//90 97//90
f 82//91 86//91 108//91 106//91
f 83//92 106//92 110//92 107//92
f 108//93 87//93 109//93 111//93
f 106//94 108//94 111//94 110//94
f 112//95 113//95 114//95 115//95
f 116//96 117//96 113//96 112//96
f 113//97 118//97 119//97 114//97
f 115//98 114//98 120//98 121//98
f 122//99 123//99 117//99 116//99
f 117//100 124//100 118//100 113//100
f 118//101 125//101 126//101 119//101
f 114//102 119//102 127//102 120//102
f 121//103 120//103 128//103 129//103
f 130//104 131//104 123//104 122//104
f 123//105 132//105 124//105 117//105
f 124//106 133//106 125//106 118//106
f 134//107 135//107 136//107 137//107 138//107 139//107 140//107 141//107 126//107 142//107 143//107 144//107
f 142//107 126//107 125//107 133//107 145//107 146//107 137//107 136//107 147//107 148//107 149//107 150//107
f 119//108 126//108 141//108 127//108
f 120//109 127//109 151//109 128//109
f 129//110 128//110 152//110 153//110
f 154//111 155//111 131//111 130//111
f 131//112 156//112 132//112 123//112
f 132//113 145//113 133//113 124//113
f 156//114 146//114 145//114 132//114
f 157//115 137//115 146//115 156//115
f 158//116 138//116 137//116 157//116
f 159//117 139//117 138//117 158//117
f 151//118 140//118 139//118 159//118
f 127//119 141//119 140//119 151//119
f 128//120 151//120 159//120 152//120
f 153//121 152//121 160//121 161//121
f 161//122 160//122 155//122 154//122
f 155//123 157//123 156//123 131//123
f 160//124 158//124 157//124 155//124
f 152//125 159//125 158//125 160//125
f 142//126 150//126 91//126 90//126
f 143//127 142//127 90//127 101//127
f 150//128 149//128 92//128 91//128
f 144//129 143//129 101//129 100//129
f 149//130 148//130 93//130 92//130
f 134//131 144//131 100//131 99//131
f 148//132 147//132 94//132 93//132
f 135//133 134//133 99//133 105//133
f 147//134 136//134 95//134 94//134
f 136//135 135//135 105//135 95//135
f 233//136 183//136 184//136 234//136
f 234//137 184//137 189//137 235//137
f 236//138 194//138 183//138 233//138
f 235//139 189//139 199//139 237//139
f 238//140 204//140 194//140 236//140
f 237//141 199//141 207//141 239//141
f 240//142 210//142 204//142 238//142
f 239//143 207//143 211//143 241//143
f 242//144 212//144 210//144 240//144
f 241//145 211//145 212//145 242//145
f 109//90 88//90 217//90 222//90
f 111//89 109//89 222//89 220//89
f 110//88 111//88 220//88 221//88
f 107//87 110//87 221//87 219//87
f 84//86 107//86 219//86 218//86
f 88//85 79//85 216//85 217//85
f 75//82 84//82 218//82 215//82
f 79//75 67//75 214//75 216//75
f 66//71 75//71 215//71 213//71
f 67//63 66//63 213//63 214//63
f 222//146 217//146 229//146 226//146
f 220//147 222//147 226//147 225//147
f 221//148 220//148 225//148 232//148
f 219//149 221//149 232//149 231//149
f 218//150 219//150 231//150 230//150
f 217//151 216//151 228//151 229//151
f 215//152 218//152 230//152 224//152
f 216//153 214//153 227//153 228//153
f 213//154 215//154 224//154 223//154
f 214//155 213//155 223//155 227//155
f 72//156 76//156 252//156 251//156
f 76//157 63//157 250//157 252//157
f 60//158 72//158 251//158 247//158
f 63//159 50//159 249//159 250//159
f 48//160 60//160 247//160 248//160
f 50//161 39//161 246//161 249//161
f 38//162 48//162 248//162 245//162
f 39//163 30//163 244//163 246//163
f 29//164 38//164 245//164 243//164
f 30//165 29//165 243//165 244//165
usemtl Liquid
f 162//166 163//166 164//166 165//166
f 166//167 162//167 165//167 167//167
f 162//168 168//168 169//168 163//168
f 163//169 170//169 171//169 164//169
f 164//170 172//170 173//170 165//170
f 174//171 166//171 167//171 175//171
f 166//172 176//172 168//172 162//172
f 165//173 173//173 177//173 167//173
f 168//174 178//174 169//174
f 163//175 169//175 179//175 170//175
f 170//176 180//176 181//176 171//176
f 171//177 182//177 172//177 164//177
f 185//178 174//178 175//178 186//178
f 174//179 187//179 176//179 166//179
f 167//180 177//180 188//180 175//180
f 176//181 178//181 168//181
f 169//182 178//182 179//182
f 170//183 179//183 190//183 180//183
f 180//184 191//184 192//184 181//184
f 181//185 193//185 182//185 171//185
f 195//186 185//186 186//186 196//186
f 185//187 197//187 187//187 174//187
f 175//188 188//188 198//188 186//188
f 187//189 178//189 176//189
f 179//190 178//190 190//190
f 180//191 190//191 200//191 191//191
f 191//192 201//192 202//192 192//192
f 192//193 203//193 193//193 181//193
f 201//194 195//194 196//194 202//194
f 195//195 205//195 197//195 185//195
f 186//196 198//196 206//196 196//196
f 197//197 178//197 187//197
f 190//198 178//198 200//198
f 191//199 200//199 208//199 201//199
f 202//200 209//200 203//200 192//200
f 201//201 208//201 205//201 195//201
f 196//202 206//202 209//202 202//202
f 205//203 178//203 197//203
f 200//204 178//204 208//204
f 208//205 178//205 205//205
f 206//206 241//206 242//206 209//206
f 209//207 242//207 240//207 203//207
f 198//208 239//208 241//208 206//208
f 203//209 240//209 238//209 193//209
f 188//210 237//210 239//210 198//210
f 193//211 238//211 236//211 182//211
f 177//212 235//212 237//212 188//212
f 182//213 236//213 233//213 172//213
f 173//214 234//214 235//214 177//214
f 172//215 233//215 234//215 173//215
f 242//216 241//216 261//216 262//216
f 233//216 236//216 256//216 253//216
f 239//216 237//216 257//216 259//216
f 240//216 242//216 262//216 260//216
f 235//216 234//216 254//216 255//216
f 236//216 238//216 258//216 256//216
f 241//216 239//216 259//216 261//216
f 234//216 233//216 253//216 254//216
f 237//216 235//216 255//216 257//216
f 238//216 240//216 260//216 258//216
f 259//107 257//107 263//107
f 260//107 262//107 263//107
f 255//107 254//107 263//107
f 256//107 258//107 263//107
f 261//107 259//107 263//107
f 254//107 253//107 263//107
f 257//107 255//107 263//107
f 258//107 260//107 263//107
f 262//107 261//107 263//107
f 253//107 256//107 263//107
