# Blender v2.76 (sub 0) OBJ File: 'Flower3.blend'
# www.blender.org
mtllib Flower3.mtl
o Flower_Cylinder
v -0.110093 0.071867 -0.000000
v -0.099259 0.071486 -0.000000
v -0.055047 0.071709 -0.094170
v -0.049629 0.071344 -0.084903
v 0.055047 0.071709 -0.094170
v 0.049630 0.071344 -0.084903
v 0.110093 0.071867 0.000000
v 0.099259 0.071486 0.000000
v -0.050094 0.194794 -0.142321
v -0.050094 0.190010 -0.143635
v 0.050094 0.190010 -0.143635
v 0.050094 0.194794 -0.142321
v -0.008099 0.210057 -0.197913
v -0.008099 0.205273 -0.199226
v 0.008099 0.205273 -0.199226
v 0.008099 0.210057 -0.197913
v 0.098251 0.194794 -0.115506
v 0.099385 0.190010 -0.116168
v 0.149921 0.190010 -0.029660
v 0.148787 0.194794 -0.028998
v 0.167434 0.210057 -0.107286
v 0.168569 0.205273 -0.107949
v 0.176739 0.205273 -0.093962
v 0.175605 0.210057 -0.093300
v -0.149540 0.194794 -0.027523
v -0.150679 0.190010 -0.028179
v -0.100706 0.190010 -0.115014
v -0.099568 0.194794 -0.114358
v -0.176776 0.210057 -0.091650
v -0.177915 0.205273 -0.092305
v -0.169835 0.205273 -0.106344
v -0.168697 0.210057 -0.105689
v 0.055047 0.071709 0.094170
v 0.049630 0.071344 0.084903
v -0.055047 0.071709 0.094170
v -0.049629 0.071344 0.084903
v 0.050094 0.194794 0.142321
v 0.050094 0.190010 0.143635
v -0.050094 0.190010 0.143635
v -0.050094 0.194794 0.142321
v 0.008099 0.210057 0.197912
v 0.008099 0.205273 0.199226
v -0.008099 0.205273 0.199226
v -0.008099 0.210057 0.197912
v -0.098250 0.194794 0.115506
v -0.099385 0.190010 0.116168
v -0.149921 0.190010 0.029660
v -0.148787 0.194794 0.028998
v -0.167434 0.210057 0.107286
v -0.168569 0.205273 0.107949
v -0.176739 0.205273 0.093962
v -0.175605 0.210057 0.093300
v 0.149540 0.194794 0.027523
v 0.150679 0.190010 0.028179
v 0.100706 0.190010 0.115014
v 0.099568 0.194794 0.114358
v 0.176776 0.210057 0.091649
v 0.177915 0.205273 0.092305
v 0.169835 0.205273 0.106344
v 0.168697 0.210057 0.105689
v -0.197285 0.074932 -0.000000
v -0.174411 0.074128 -0.000000
v -0.098643 0.074648 -0.168751
v -0.087205 0.073877 -0.149185
v 0.098643 0.074648 -0.168751
v 0.087206 0.073877 -0.149185
v 0.197285 0.074932 0.000000
v 0.174411 0.074128 0.000000
v -0.097994 0.190024 -0.278409
v -0.097994 0.180664 -0.280979
v 0.097994 0.180664 -0.280979
v 0.097994 0.190024 -0.278409
v -0.015843 0.219882 -0.387158
v -0.015843 0.210522 -0.389728
v 0.015844 0.210522 -0.389728
v 0.015844 0.219882 -0.387158
v 0.192198 0.190024 -0.225953
v 0.194417 0.180664 -0.227249
v 0.293277 0.180664 -0.058021
v 0.291058 0.190024 -0.056725
v 0.327536 0.219882 -0.209874
v 0.329755 0.210522 -0.211170
v 0.345739 0.210522 -0.183810
v 0.343520 0.219882 -0.182513
v -0.292531 0.190024 -0.053841
v -0.294759 0.180664 -0.055123
v -0.197002 0.180664 -0.224991
v -0.194775 0.190024 -0.223709
v -0.345811 0.219882 -0.179286
v -0.348038 0.210522 -0.180567
v -0.332233 0.210522 -0.208031
v -0.330006 0.219882 -0.206750
v 0.098643 0.074648 0.168751
v 0.087206 0.073877 0.149185
v -0.098643 0.074648 0.168751
v -0.087206 0.073877 0.149185
v 0.097994 0.190024 0.278409
v 0.097994 0.180664 0.280979
v -0.097994 0.180664 0.280979
v -0.097994 0.190024 0.278409
v 0.015844 0.219882 0.387158
v 0.015844 0.210522 0.389728
v -0.015844 0.210522 0.389728
v -0.015844 0.219882 0.387158
v -0.192198 0.190024 0.225953
v -0.194417 0.180664 0.227249
v -0.293277 0.180664 0.058021
v -0.291058 0.190024 0.056725
v -0.327536 0.219882 0.209874
v -0.329755 0.210522 0.211170
v -0.345739 0.210522 0.183810
v -0.343520 0.219882 0.182513
v 0.292532 0.190024 0.053841
v 0.294759 0.180664 0.055123
v 0.197003 0.180664 0.224991
v 0.194775 0.190024 0.223709
v 0.345811 0.219882 0.179285
v 0.348038 0.210522 0.180567
v 0.332233 0.210522 0.208031
v 0.330006 0.219882 0.206749
v -0.197285 0.059046 -0.000000
v -0.098643 0.059330 -0.172957
v 0.098643 0.059330 -0.172957
v 0.197285 0.059046 0.000000
v 0.000000 0.011640 -0.000000
v -0.160381 0.153420 -0.455658
v -0.160381 0.138102 -0.459864
v 0.160382 0.138102 -0.459864
v 0.160382 0.153420 -0.455658
v -0.025930 0.202287 -0.633641
v -0.025930 0.186968 -0.637846
v 0.025930 0.186968 -0.637846
v 0.025930 0.202287 -0.633641
v 0.314561 0.153420 -0.369805
v 0.318192 0.138102 -0.371926
v 0.479991 0.138102 -0.094961
v 0.476359 0.153420 -0.092839
v 0.536061 0.202287 -0.343489
v 0.539693 0.186968 -0.345611
v 0.565852 0.186968 -0.300831
v 0.562221 0.202287 -0.298710
v -0.478771 0.153420 -0.088119
v -0.482416 0.138102 -0.090217
v -0.322423 0.138102 -0.368230
v -0.318778 0.153420 -0.366132
v -0.565970 0.202287 -0.293427
v -0.569615 0.186968 -0.295525
v -0.543748 0.186968 -0.340474
v -0.540103 0.202287 -0.338376
v 0.098643 0.059330 0.172957
v -0.098643 0.059330 0.172957
v 0.160381 0.153420 0.455658
v 0.160381 0.138102 0.459864
v -0.160381 0.138102 0.459863
v -0.160381 0.153420 0.455658
v 0.025930 0.202287 0.633641
v 0.025930 0.186968 0.637846
v -0.025930 0.186968 0.637846
v -0.025930 0.202287 0.633641
v -0.314561 0.153420 0.369805
v -0.318192 0.138102 0.371926
v -0.479991 0.138102 0.094961
v -0.476359 0.153420 0.092839
v -0.536061 0.202287 0.343489
v -0.539693 0.186968 0.345611
v -0.565852 0.186968 0.300831
v -0.562221 0.202287 0.298710
v 0.478771 0.153420 0.088119
v 0.482416 0.138102 0.090217
v 0.322424 0.138102 0.368230
v 0.318778 0.153420 0.366132
v 0.565970 0.202287 0.293427
v 0.569616 0.186968 0.295525
v 0.543748 0.186968 0.340474
v 0.540103 0.202287 0.338376
v 0.000000 0.047635 -0.000000
vt 0.531228 0.308536
vt 0.541430 0.866537
vt 0.516142 0.310902
vt 0.532875 0.310188
vt 0.536783 0.844910
vt 0.521412 0.844910
vt 0.551308 0.935526
vt 0.541664 0.844910
vt 0.551542 0.913899
vt 0.521149 0.844910
vt 0.536578 0.844910
vt 0.536666 0.866537
vt 0.521294 0.866537
vt 0.532720 0.935526
vt 0.535205 0.935526
vt 0.516142 0.309181
vt 0.535323 0.913899
vt 0.532838 0.913899
vt 0.521032 0.866537
vt 0.536462 0.866537
vt 0.534921 0.935526
vt 0.532427 0.935526
vt 0.532543 0.913899
vt 0.535038 0.913899
vt 0.501055 0.308536
vt 0.490853 0.866537
vt 0.499409 0.310188
vt 0.511135 0.844910
vt 0.495705 0.844910
vt 0.510871 0.844910
vt 0.510989 0.866537
vt 0.495821 0.866537
vt 0.511251 0.866537
vt 0.480975 0.935526
vt 0.490619 0.844910
vt 0.480741 0.913899
vt 0.495618 0.866537
vt 0.499563 0.935526
vt 0.497078 0.935526
vt 0.495500 0.844910
vt 0.496960 0.913899
vt 0.499446 0.913899
vt 0.497362 0.935526
vt 0.499856 0.935526
vt 0.499740 0.913899
vt 0.497245 0.913899
vt 0.542650 0.319988
vt 0.565612 0.844974
vt 0.516142 0.324755
vt 0.546127 0.323474
vt 0.556521 0.802668
vt 0.526451 0.802668
vt 0.584935 0.979931
vt 0.566069 0.802668
vt 0.585392 0.937624
vt 0.525936 0.802668
vt 0.556120 0.802668
vt 0.556291 0.844974
vt 0.526221 0.844974
vt 0.548572 0.979931
vt 0.553434 0.979931
vt 0.516142 0.321121
vt 0.553664 0.937624
vt 0.548803 0.937624
vt 0.525709 0.844974
vt 0.555892 0.844974
vt 0.552879 0.979931
vt 0.547999 0.979931
vt 0.548226 0.937624
vt 0.553106 0.937624
vt 0.489633 0.319988
vt 0.466671 0.844974
vt 0.486156 0.323474
vt 0.506347 0.802668
vt 0.476163 0.802668
vt 0.505832 0.802668
vt 0.506062 0.844974
vt 0.476391 0.844974
vt 0.506575 0.844974
vt 0.447348 0.979931
vt 0.466215 0.802668
vt 0.446891 0.937624
vt 0.475992 0.844974
vt 0.483711 0.979931
vt 0.478849 0.979931
vt 0.475762 0.802668
vt 0.478619 0.937624
vt 0.483481 0.937624
vt 0.479405 0.979931
vt 0.484285 0.979931
vt 0.484057 0.937624
vt 0.479177 0.937624
vt 0.516142 0.252952
vt 0.500484 0.679525
vt 0.500111 0.610284
vt 0.546874 0.254233
vt 0.582229 0.610284
vt 0.533015 0.610284
vt 0.516142 0.038672
vt 0.597107 0.679525
vt 0.628733 0.900402
vt 0.451084 0.679525
vt 0.597854 0.610284
vt 0.629480 0.831161
vt 0.532172 0.610284
vt 0.581572 0.610284
vt 0.581852 0.679525
vt 0.532638 0.679525
vt 0.569219 0.900402
vt 0.577176 0.900401
vt 0.577553 0.831161
vt 0.569596 0.831161
vt 0.531799 0.679525
vt 0.581199 0.679525
vt 0.576267 0.900402
vt 0.568280 0.900401
vt 0.568653 0.831161
vt 0.576640 0.831161
vt 0.485409 0.254233
vt 0.450711 0.610284
vt 0.435176 0.679525
vt 0.403551 0.900402
vt 0.434429 0.610284
vt 0.402803 0.831161
vt 0.450431 0.679525
vt 0.499645 0.679525
vt 0.463064 0.900402
vt 0.455107 0.900401
vt 0.450054 0.610284
vt 0.499268 0.610284
vt 0.454730 0.831161
vt 0.462687 0.831161
vt 0.456016 0.900402
vt 0.464003 0.900401
vt 0.463630 0.831161
vt 0.455643 0.831161
vt 0.516142 0.201371
vn -0.000000 0.421700 0.906700
vn 0.796900 -0.385300 -0.465300
vn 0.000000 0.964300 0.264800
vn -0.903900 0.186900 0.384700
vn 0.903900 0.186900 0.384700
vn 0.000000 -0.385800 -0.922600
vn 0.000000 0.264800 -0.964300
vn -0.808300 0.155900 -0.567800
vn 0.808300 0.155900 -0.567800
vn 0.000000 -0.964300 -0.264800
vn -0.797700 -0.386900 -0.462500
vn -0.228600 0.964300 0.133500
vn -0.785200 0.172500 -0.594800
vn 0.124100 0.190700 0.973800
vn -0.783000 0.421800 0.457200
vn 0.832600 0.264800 -0.486400
vn 0.082500 0.155900 -0.984300
vn 0.898000 0.155900 0.411500
vn 0.228600 -0.964300 -0.133500
vn 0.229500 0.964300 0.132100
vn -0.119700 0.180200 0.976300
vn 0.780300 0.184200 -0.597600
vn 0.783900 0.423300 0.454300
vn -0.835800 0.264800 -0.481000
vn -0.895300 0.155900 0.417400
vn -0.089000 0.155900 -0.983800
vn -0.229500 -0.964300 -0.132100
vn 0.000000 0.421700 -0.906700
vn 0.797700 -0.386900 0.462500
vn -0.124100 0.190700 -0.973800
vn -0.783900 0.423300 -0.454300
vn 0.000000 0.964300 -0.264800
vn 0.903900 0.186900 -0.384700
vn -0.903900 0.186900 -0.384700
vn -0.000000 -0.385800 0.922600
vn 0.000000 0.264800 0.964300
vn 0.808300 0.155900 0.567800
vn -0.808300 0.155900 0.567800
vn 0.000000 -0.964300 0.264800
vn 0.228600 0.964300 -0.133500
vn 0.785200 0.172500 0.594800
vn -0.796900 -0.385300 0.465300
vn -0.832600 0.264800 0.486400
vn -0.082500 0.155900 0.984300
vn -0.898000 0.155900 -0.411500
vn -0.228600 -0.964300 0.133500
vn -0.229500 0.964300 -0.132100
vn 0.119700 0.180200 -0.976300
vn -0.780300 0.184200 0.597600
vn 0.835800 0.264800 0.481000
vn 0.895300 0.155900 -0.417400
vn 0.089000 0.155900 0.983800
vn 0.229500 -0.964300 0.132100
vn 0.783000 0.421800 -0.457200
vn -0.000000 0.743700 0.668500
vn 0.592900 -0.727200 -0.345800
vn -0.886300 0.321600 0.333200
vn 0.886300 0.321600 0.333200
vn 0.000000 -0.726900 -0.686700
vn -0.592700 -0.728600 -0.343200
vn -0.737800 0.298000 -0.605700
vn 0.160100 0.328400 0.930900
vn -0.576700 0.744400 0.336400
vn 0.082600 0.155900 -0.984300
vn -0.154000 0.311300 0.937800
vn 0.728000 0.317100 -0.607800
vn 0.576800 0.745600 0.333800
vn 0.000000 0.743700 -0.668500
vn 0.592700 -0.728600 0.343200
vn -0.160100 0.328400 -0.930900
vn -0.576800 0.745600 -0.333800
vn 0.886300 0.321600 -0.333200
vn -0.886300 0.321600 -0.333200
vn -0.000000 -0.726900 0.686700
vn 0.737800 0.298000 0.605700
vn -0.592900 -0.727200 0.345800
vn -0.082600 0.155900 0.984300
vn 0.154000 0.311300 -0.937800
vn -0.728000 0.317100 0.607800
vn 0.835800 0.264700 0.481000
vn 0.576700 0.744400 -0.336400
vn 0.307200 -0.028100 -0.951200
vn 0.226300 -0.965100 -0.131600
vn 0.231500 -0.963600 -0.133600
vn 0.000000 -0.964000 -0.265800
vn -0.231500 -0.963600 -0.133600
vn -0.227800 0.964800 -0.131200
vn -0.226200 -0.965300 -0.130400
vn -0.227800 0.964600 0.132500
vn 0.227800 0.964800 0.131200
vn 0.226200 -0.965300 0.130400
vn -0.231500 -0.963600 0.133600
vn -0.035100 0.999200 -0.018900
vn 0.227800 0.964600 -0.132500
vn -0.226300 -0.965100 0.131600
vn 0.231500 -0.963600 0.133600
vn -0.000000 -0.964000 0.265800
vn 0.674900 0.070800 -0.734500
vn -0.688100 0.067600 -0.722400
vn -0.979100 -0.053800 0.195900
vn 0.979100 -0.053800 0.195900
vn -0.323600 -0.026600 -0.945800
vn -0.000000 0.999200 0.039400
vn 0.035100 0.999200 0.018900
vn 0.979100 -0.053800 -0.195900
vn -0.674900 0.070800 0.734500
vn 0.688100 0.067600 0.722400
vn 0.323600 -0.026600 0.945800
vn -0.979100 -0.053800 -0.195900
vn -0.307200 -0.028100 0.951200
vn 0.000000 0.999200 -0.039400
vn 0.231500 0.963600 -0.133700
vn 0.035100 0.999200 -0.018900
vn -0.000000 0.963200 0.269000
vn -0.231500 0.963600 -0.133700
vn 0.231500 0.963600 0.133700
vn -0.035100 0.999200 0.018900
vn -0.231500 0.963600 0.133700
vn 0.000000 0.963200 -0.269000
usemtl Texture
s off
f 4/1/1 6/1/1 12/2/1 9/2/1
f 7/3/2 5/4/2 18/5/2 19/6/2
f 9/2/3 12/2/3 16/7/3 13/7/3
f 3/4/4 4/1/4 9/2/4 10/8/4
f 6/1/5 5/4/5 11/8/5 12/2/5
f 5/4/6 3/4/6 10/8/6 11/8/6
f 14/9/7 13/7/7 16/7/7 15/9/7
f 10/8/8 9/2/8 13/7/8 14/9/8
f 12/2/9 11/8/9 15/9/9 16/7/9
f 11/8/10 10/8/10 14/9/10 15/9/10
f 3/4/11 1/3/11 26/10/11 27/11/11
f 17/12/12 20/13/12 24/14/12 21/15/12
f 5/4/13 6/1/13 17/12/13 18/5/13
f 8/16/14 7/3/14 19/6/14 20/13/14
f 6/1/15 8/16/15 20/13/15 17/12/15
f 22/17/16 21/15/16 24/14/16 23/18/16
f 18/5/17 17/12/17 21/15/17 22/17/17
f 20/13/18 19/6/18 23/18/18 24/14/18
f 19/6/19 18/5/19 22/17/19 23/18/19
f 25/19/20 28/20/20 32/21/20 29/22/20
f 1/3/21 2/16/21 25/19/21 26/10/21
f 4/1/22 3/4/22 27/11/22 28/20/22
f 2/16/23 4/1/23 28/20/23 25/19/23
f 30/23/24 29/22/24 32/21/24 31/24/24
f 26/10/25 25/19/25 29/22/25 30/23/25
f 28/20/26 27/11/26 31/24/26 32/21/26
f 27/11/27 26/10/27 30/23/27 31/24/27
f 34/25/28 36/25/28 40/26/28 37/26/28
f 33/27/29 7/3/29 54/28/29 55/29/29
f 2/16/30 1/3/30 47/30/30 48/31/30
f 8/16/31 34/25/31 56/32/31 53/33/31
f 37/26/32 40/26/32 44/34/32 41/34/32
f 33/27/33 34/25/33 37/26/33 38/35/33
f 36/25/34 35/27/34 39/35/34 40/26/34
f 35/27/35 33/27/35 38/35/35 39/35/35
f 42/36/36 41/34/36 44/34/36 43/36/36
f 38/35/37 37/26/37 41/34/37 42/36/37
f 40/26/38 39/35/38 43/36/38 44/34/38
f 39/35/39 38/35/39 42/36/39 43/36/39
f 45/37/40 48/31/40 52/38/40 49/39/40
f 35/27/41 36/25/41 45/37/41 46/40/41
f 1/3/42 35/27/42 46/40/42 47/30/42
f 50/41/43 49/39/43 52/38/43 51/42/43
f 46/40/44 45/37/44 49/39/44 50/41/44
f 48/31/45 47/30/45 51/42/45 52/38/45
f 47/30/46 46/40/46 50/41/46 51/42/46
f 53/33/47 56/32/47 60/43/47 57/44/47
f 7/3/48 8/16/48 53/33/48 54/28/48
f 34/25/49 33/27/49 55/29/49 56/32/49
f 58/45/50 57/44/50 60/43/50 59/46/50
f 54/28/51 53/33/51 57/44/51 58/45/51
f 56/32/52 55/29/52 59/46/52 60/43/52
f 55/29/53 54/28/53 58/45/53 59/46/53
f 36/25/54 2/16/54 48/31/54 45/37/54
f 64/47/55 66/47/55 72/48/55 69/48/55
f 67/49/56 65/50/56 78/51/56 79/52/56
f 69/48/3 72/48/3 76/53/3 73/53/3
f 63/50/57 64/47/57 69/48/57 70/54/57
f 66/47/58 65/50/58 71/54/58 72/48/58
f 65/50/59 63/50/59 70/54/59 71/54/59
f 74/55/7 73/53/7 76/53/7 75/55/7
f 70/54/8 69/48/8 73/53/8 74/55/8
f 72/48/9 71/54/9 75/55/9 76/53/9
f 71/54/10 70/54/10 74/55/10 75/55/10
f 63/50/60 61/49/60 86/56/60 87/57/60
f 77/58/12 80/59/12 84/60/12 81/61/12
f 65/50/61 66/47/61 77/58/61 78/51/61
f 68/62/62 67/49/62 79/52/62 80/59/62
f 66/47/63 68/62/63 80/59/63 77/58/63
f 82/63/16 81/61/16 84/60/16 83/64/16
f 78/51/64 77/58/64 81/61/64 82/63/64
f 80/59/18 79/52/18 83/64/18 84/60/18
f 79/52/19 78/51/19 82/63/19 83/64/19
f 85/65/20 88/66/20 92/67/20 89/68/20
f 61/49/65 62/62/65 85/65/65 86/56/65
f 64/47/66 63/50/66 87/57/66 88/66/66
f 62/62/67 64/47/67 88/66/67 85/65/67
f 90/69/24 89/68/24 92/67/24 91/70/24
f 86/56/25 85/65/25 89/68/25 90/69/25
f 88/66/26 87/57/26 91/70/26 92/67/26
f 87/57/27 86/56/27 90/69/27 91/70/27
f 94/71/68 96/71/68 100/72/68 97/72/68
f 93/73/69 67/49/69 114/74/69 115/75/69
f 62/62/70 61/49/70 107/76/70 108/77/70
f 68/62/71 94/71/71 116/78/71 113/79/71
f 97/72/32 100/72/32 104/80/32 101/80/32
f 93/73/72 94/71/72 97/72/72 98/81/72
f 96/71/73 95/73/73 99/81/73 100/72/73
f 95/73/74 93/73/74 98/81/74 99/81/74
f 102/82/36 101/80/36 104/80/36 103/82/36
f 98/81/37 97/72/37 101/80/37 102/82/37
f 100/72/38 99/81/38 103/82/38 104/80/38
f 99/81/39 98/81/39 102/82/39 103/82/39
f 105/83/40 108/77/40 112/84/40 109/85/40
f 95/73/75 96/71/75 105/83/75 106/86/75
f 61/49/76 95/73/76 106/86/76 107/76/76
f 110/87/43 109/85/43 112/84/43 111/88/43
f 106/86/77 105/83/77 109/85/77 110/87/77
f 108/77/45 107/76/45 111/88/45 112/84/45
f 107/76/46 106/86/46 110/87/46 111/88/46
f 113/79/47 116/78/47 120/89/47 117/90/47
f 67/49/78 68/62/78 113/79/78 114/74/78
f 94/71/79 93/73/79 115/75/79 116/78/79
f 118/91/80 117/90/80 120/89/80 119/92/80
f 114/74/51 113/79/51 117/90/51 118/91/51
f 116/78/52 115/75/52 119/92/52 120/89/52
f 115/75/53 114/74/53 118/91/53 119/92/53
f 96/71/81 62/62/81 108/77/81 105/83/81
f 124/93/82 67/49/82 168/94/82 169/95/82
f 124/93/83 123/96/83 135/97/83 136/98/83
f 123/96/84 124/93/84 125/99/84
f 122/96/85 123/96/85 125/99/85
f 121/93/86 122/96/86 125/99/86
f 126/100/3 129/100/3 133/101/3 130/101/3
f 63/50/3 65/50/3 129/100/3 126/100/3
f 67/49/87 93/73/87 171/102/87 168/94/87
f 123/96/10 122/96/10 127/103/10 128/103/10
f 131/104/7 130/101/7 133/101/7 132/104/7
f 127/103/8 126/100/8 130/101/8 131/104/8
f 129/100/9 128/103/9 132/104/9 133/101/9
f 128/103/10 127/103/10 131/104/10 132/104/10
f 122/96/88 121/93/88 143/105/88 144/106/88
f 134/107/12 137/108/12 141/109/12 138/110/12
f 139/111/16 138/110/16 141/109/16 140/112/16
f 135/97/64 134/107/64 138/110/64 139/111/64
f 137/108/18 136/98/18 140/112/18 141/109/18
f 136/98/19 135/97/19 139/111/19 140/112/19
f 142/113/20 145/114/20 149/115/20 146/116/20
f 65/50/89 67/49/89 137/108/89 134/107/89
f 61/49/90 63/50/90 145/114/90 142/113/90
f 147/117/24 146/116/24 149/115/24 148/118/24
f 143/105/25 142/113/25 146/116/25 147/117/25
f 145/114/26 144/106/26 148/118/26 149/115/26
f 144/106/27 143/105/27 147/117/27 148/118/27
f 150/119/91 124/93/91 169/95/91 170/120/91
f 151/119/92 121/93/92 125/99/92
f 94/71/93 68/62/93 7/3/93 33/27/93
f 152/121/32 155/121/32 159/122/32 156/122/32
f 151/119/39 150/119/39 153/123/39 154/123/39
f 157/124/36 156/122/36 159/122/36 158/124/36
f 153/123/37 152/121/37 156/122/37 157/124/37
f 155/121/38 154/123/38 158/124/38 159/122/38
f 154/123/39 153/123/39 157/124/39 158/124/39
f 160/125/40 163/126/40 167/127/40 164/128/40
f 95/73/94 61/49/94 163/126/94 160/125/94
f 121/93/95 151/119/95 161/129/95 162/130/95
f 165/131/43 164/128/43 167/127/43 166/132/43
f 161/129/44 160/125/44 164/128/44 165/131/44
f 163/126/45 162/130/45 166/132/45 167/127/45
f 162/130/46 161/129/46 165/131/46 166/132/46
f 168/94/47 171/102/47 175/133/47 172/134/47
f 124/93/96 150/119/96 125/99/96
f 173/135/50 172/134/50 175/133/50 174/136/50
f 169/95/51 168/94/51 172/134/51 173/135/51
f 171/102/52 170/120/52 174/136/52 175/133/52
f 170/120/53 169/95/53 173/135/53 174/136/53
f 150/119/97 151/119/97 125/99/97
f 63/50/98 122/96/98 144/106/98 145/114/98
f 123/96/99 65/50/99 134/107/99 135/97/99
f 122/96/100 63/50/100 126/100/100 127/103/100
f 65/50/101 123/96/101 128/103/101 129/100/101
f 61/49/102 121/93/102 162/130/102 163/126/102
f 66/47/103 64/47/103 3/4/103 5/4/103
f 64/47/104 62/62/104 1/3/104 3/4/104
f 150/119/105 93/73/105 152/121/105 153/123/105
f 93/73/106 150/119/106 170/120/106 171/102/106
f 151/119/107 95/73/107 160/125/107 161/129/107
f 67/49/108 124/93/108 136/98/108 137/108/108
f 95/73/109 151/119/109 154/123/109 155/121/109
f 93/73/32 95/73/32 155/121/32 152/121/32
f 121/93/110 61/49/110 142/113/110 143/105/110
f 96/71/111 94/71/111 33/27/111 35/27/111
f 2/16/112 36/25/112 176/137/112
f 62/62/113 96/71/113 35/27/113 1/3/113
f 6/1/114 4/1/114 176/137/114
f 34/25/115 8/16/115 176/137/115
f 4/1/116 2/16/116 176/137/116
f 68/62/117 66/47/117 5/4/117 7/3/117
f 8/16/118 6/1/118 176/137/118
f 36/25/119 34/25/119 176/137/119
