# Blender v2.76 (sub 0) OBJ File: 'Flower2.blend'
# www.blender.org
mtllib Flower2.mtl
o Flower_Cylinder
v -0.000000 1.138303 -0.171218
v 0.000000 1.415718 -0.161771
v 0.121070 1.138303 -0.121070
v 0.114389 1.445469 -0.114389
v 0.171218 1.138303 0.000000
v 0.161771 1.415718 0.000000
v 0.121070 1.138303 0.121070
v 0.114389 1.445469 0.114389
v -0.000000 1.138303 0.171218
v -0.000000 1.415718 0.161771
v -0.121070 1.138303 0.121070
v -0.114389 1.445469 0.114389
v -0.171218 1.138303 -0.000000
v -0.161771 1.415718 -0.000000
v -0.121070 1.138303 -0.121070
v -0.114389 1.445469 -0.114389
v 0.000000 1.080580 -0.141439
v 0.100013 1.080580 -0.100013
v 0.141439 1.080580 0.000000
v 0.100013 1.080580 0.100013
v -0.000000 1.080580 0.141439
v -0.100013 1.080580 0.100013
v -0.141439 1.080580 -0.000000
v -0.100013 1.080580 -0.100013
v 0.000000 1.060171 -0.121631
v 0.086006 1.060171 -0.086006
v 0.121631 1.060171 0.000000
v 0.086006 1.060171 0.086006
v -0.000000 1.060171 0.121631
v -0.086006 1.060171 0.086006
v -0.121631 1.060171 -0.000000
v -0.086006 1.060171 -0.086006
v -0.000000 1.032442 -0.030027
v 0.021232 1.032442 -0.021232
v 0.030027 1.032442 0.000000
v 0.021232 1.032442 0.021232
v -0.000000 1.032442 0.030027
v -0.021232 1.032442 0.021232
v -0.030027 1.032442 -0.000000
v -0.021232 1.032442 -0.021232
v -0.000000 1.287442 -0.151461
v 0.107099 1.287442 -0.107099
v 0.151461 1.287442 0.000000
v 0.107099 1.287442 0.107099
v -0.000000 1.287442 0.151461
v -0.107099 1.287442 0.107099
v -0.151461 1.287442 -0.000000
v -0.107099 1.287442 -0.107099
v 0.105315 1.445469 -0.105315
v -0.000000 1.415718 -0.148938
v 0.148938 1.415718 0.000000
v 0.105315 1.445469 0.105315
v -0.000000 1.415718 0.148938
v -0.105315 1.445469 0.105315
v -0.148938 1.415718 -0.000000
v -0.105315 1.445469 -0.105315
v 0.092507 1.289070 -0.092507
v -0.000000 1.289070 -0.130824
v 0.130824 1.289070 0.000000
v 0.092507 1.289070 0.092507
v -0.000000 1.289070 0.130824
v -0.092507 1.289070 0.092507
v -0.130824 1.289070 -0.000000
v -0.092507 1.289070 -0.092507
v 0.104614 1.121920 -0.104614
v -0.000000 1.121920 -0.147946
v 0.147946 1.121920 0.000000
v 0.104614 1.121920 0.104614
v -0.000000 1.121920 0.147946
v -0.104614 1.121920 0.104614
v -0.147946 1.121920 -0.000000
v -0.104614 1.121920 -0.104614
v 0.072258 1.067633 -0.072258
v -0.000000 1.067633 -0.102188
v 0.102188 1.067633 0.000000
v 0.072258 1.067633 0.072258
v -0.000000 1.067633 0.102188
v -0.072258 1.067633 0.072258
v -0.102188 1.067633 -0.000000
v -0.072258 1.067633 -0.072258
v -0.000000 0.880922 -0.057501
v 0.020048 0.879072 -0.049405
v 0.028352 0.874606 -0.029861
v 0.020048 0.870139 -0.010317
v -0.000000 0.868289 -0.002221
v -0.020048 0.870139 -0.010317
v -0.028352 0.874606 -0.029861
v -0.020048 0.879072 -0.049405
v 0.000000 0.586043 -0.034749
v 0.025955 0.587849 -0.024151
v 0.036706 0.592209 0.001436
v 0.025955 0.596568 0.027022
v 0.000000 0.598374 0.037621
v -0.025955 0.596568 0.027022
v -0.036706 0.592209 0.001436
v -0.025955 0.587849 -0.024151
v 0.000000 0.008889 -0.030540
v 0.025148 0.009242 -0.020130
v 0.035565 0.010095 0.005004
v 0.026546 0.013181 0.030273
v 0.000000 0.011301 0.040548
v -0.025148 0.017120 0.030138
v -0.035565 0.016267 0.005004
v -0.025148 0.015414 -0.020130
v 0.000000 -0.008019 -0.030269
v 0.025148 -0.007666 -0.019858
v 0.035565 -0.006813 0.005275
v 0.025148 -0.005960 0.030409
v 0.000000 -0.005607 0.040820
v -0.025148 -0.005960 0.030409
v -0.035565 -0.006813 0.005275
v -0.025148 -0.007666 -0.019858
v -0.119439 0.175999 0.090651
v -0.137115 0.174962 0.004675
v -0.121053 0.176191 -0.081300
v -0.135050 0.172587 0.091579
v -0.152725 0.182540 0.005604
v -0.136664 0.172780 -0.080372
v -0.088938 0.559944 0.012032
v -0.088745 0.565125 0.005102
v -0.089778 0.560044 -0.001828
v -0.096131 0.563115 0.012107
v -0.095938 0.568296 0.005177
v -0.096971 0.563216 -0.001753
v 0.122235 0.175999 -0.080372
v 0.139911 0.174962 0.005604
v 0.123849 0.176191 0.091579
v 0.137846 0.172587 -0.081300
v 0.155521 0.182540 0.004675
v 0.139460 0.172780 0.090651
v 0.091734 0.559944 -0.001753
v 0.091541 0.565125 0.005177
v 0.092574 0.560044 0.012107
v 0.098927 0.563115 -0.001827
v 0.098734 0.568296 0.005102
v 0.099767 0.563216 0.012032
v -0.085090 0.175999 -0.116917
v 0.000886 0.174962 -0.134592
v 0.086861 0.176191 -0.118531
v -0.086018 0.172587 -0.132527
v -0.000043 0.182540 -0.150202
v 0.085933 0.172780 -0.134141
v -0.006471 0.559944 -0.086415
v 0.000459 0.565125 -0.086222
v 0.007389 0.560044 -0.087255
v -0.006546 0.563115 -0.093608
v 0.000384 0.568296 -0.093415
v 0.007314 0.563216 -0.094449
v 0.085933 0.175999 0.127489
v -0.000043 0.174962 0.145165
v -0.086018 0.176191 0.129103
v 0.086861 0.172587 0.143100
v 0.000886 0.182540 0.160775
v -0.085090 0.172780 0.144714
v 0.007314 0.559944 0.096988
v 0.000384 0.565125 0.096794
v -0.006546 0.560044 0.097828
v 0.007389 0.563115 0.104181
v 0.000459 0.568296 0.103988
v -0.006471 0.563216 0.105021
vt 0.637502 0.611543
vt 0.646861 0.906645
vt 0.603847 0.975087
vt 0.597229 0.611543
vt 0.500000 0.906645
vt 0.500000 0.611543
vt 0.396153 0.975087
vt 0.402771 0.611543
vt 0.353139 0.906645
vt 0.362498 0.611543
vt 0.404391 0.975087
vt 0.500000 0.268448
vt 0.390089 0.268448
vt 0.409205 0.135654
vt 0.500000 0.135654
vt 0.500000 0.088705
vt 0.421920 0.088705
vt 0.344562 0.268448
vt 0.371596 0.135654
vt 0.609911 0.268448
vt 0.590795 0.135654
vt 0.655438 0.268448
vt 0.628403 0.135654
vt 0.610421 0.088705
vt 0.578080 0.088705
vt 0.519275 0.024913
vt 0.527260 0.024913
vt 0.389579 0.088705
vt 0.183172 0.947737
vt 0.190804 0.947737
vt 0.214649 0.817331
vt 0.207623 0.815739
vt 0.500000 0.024913
vt 0.480725 0.024913
vt 0.472740 0.024913
vt 0.595609 0.975087
vt 0.500000 0.615288
vt 0.589718 0.615288
vt 0.364788 0.906645
vt 0.635212 0.906645
vt 0.594972 0.230759
vt 0.500000 0.230759
vt 0.373120 0.615288
vt 0.410283 0.615288
vt 0.626880 0.615288
vt 0.634311 0.230759
vt 0.565598 0.105869
vt 0.592769 0.105869
vt 0.365689 0.230759
vt 0.405028 0.230759
vt 0.500000 0.105869
vt 0.434402 0.105869
vt 0.407230 0.105869
vt 0.190660 0.811895
vt 0.163498 0.568850
vt 0.185705 0.565098
vt 0.146317 0.947737
vt 0.164744 0.947737
vt 0.173698 0.808051
vt 0.138684 0.947737
vt 0.166672 0.806459
vt 0.194903 0.563544
vt 0.191250 0.066815
vt 0.182214 0.072431
vt 0.141292 0.572602
vt 0.132093 0.574156
vt 0.160401 0.073165
vt 0.138588 0.073899
vt 0.129553 0.068891
vt 0.138470 0.070509
vt 0.160401 0.067853
vt 0.182214 0.067119
vt 0.191014 0.052263
vt 0.181979 0.052567
vt 0.160166 0.053301
vt 0.138352 0.054035
vt 0.129317 0.054339
vt 0.160686 0.209746
vt 0.086069 0.210638
vt 0.040549 0.207702
vt 0.025209 0.216268
vt 0.085263 0.207702
vt 0.234498 0.210638
vt 0.235304 0.207702
vt 0.266215 0.210638
vt 0.279763 0.207702
vt 0.235304 0.210804
vt 0.234498 0.207868
vt 0.166265 0.543897
vt 0.166330 0.541167
vt 0.154302 0.541081
vt 0.154237 0.543810
vt 0.159880 0.216268
vt 0.160316 0.545540
vt 0.160251 0.548269
vt 0.159880 0.209746
vt 0.085263 0.210804
vt 0.086069 0.207868
vt 0.154301 0.543897
vt 0.154236 0.541167
vt 0.166265 0.541081
vt 0.166330 0.543810
vt 0.160686 0.216268
vt 0.281556 0.209746
vt 0.267616 0.210804
vt 0.281164 0.207868
vt 0.246715 0.543897
vt 0.240472 0.541167
vt 0.239743 0.541081
vt 0.245986 0.543810
vt 0.295104 0.216268
vt 0.239576 0.545540
vt 0.245819 0.548269
vt 0.054097 0.210638
vt 0.052696 0.210804
vt 0.039148 0.207868
vt 0.073597 0.543897
vt 0.079840 0.541167
vt 0.080569 0.541081
vt 0.074326 0.543810
vt 0.038757 0.209746
vt 0.080737 0.545540
vt 0.074494 0.548269
vn 0.389400 -0.066400 -0.918700
vn 0.918700 -0.066400 -0.389400
vn 0.918700 -0.066400 0.389400
vn 0.389400 -0.066400 0.918700
vn -0.389400 -0.066400 0.918700
vn -0.918700 -0.066400 0.389400
vn -0.092900 0.970100 -0.224300
vn -0.389400 -0.066400 -0.918700
vn -0.918700 -0.066400 -0.389400
vn 0.834000 -0.430300 0.345500
vn -0.687800 -0.667600 0.284900
vn -0.834000 -0.430300 0.345500
vn 0.345500 -0.430300 0.834000
vn -0.834000 -0.430300 -0.345500
vn 0.834000 -0.430300 -0.345500
vn -0.345500 -0.430300 0.834000
vn -0.345500 -0.430300 -0.834000
vn 0.345500 -0.430300 -0.834000
vn 0.119200 -0.950300 -0.287700
vn 0.284900 -0.667600 0.687800
vn 0.687800 -0.667600 -0.284900
vn -0.687800 -0.667600 -0.284900
vn -0.284900 -0.667600 0.687800
vn 0.687800 -0.667600 0.284900
vn 0.284900 -0.667600 -0.687800
vn -0.284900 -0.667600 -0.687800
vn -0.379800 0.164700 -0.910300
vn -0.119200 -0.950300 -0.287700
vn -0.287700 -0.950300 0.119200
vn 0.119200 -0.950300 0.287700
vn 0.287700 -0.950300 -0.119200
vn -0.287700 -0.950300 -0.119200
vn -0.119200 -0.950300 0.287700
vn 0.287700 -0.950300 0.119200
vn -0.917000 0.121500 -0.379800
vn -0.379800 0.121500 -0.917000
vn -0.917000 0.121500 0.379800
vn -0.379800 0.121500 0.917000
vn 0.379800 0.121500 0.917000
vn 0.917000 0.121500 0.379800
vn 0.917000 0.121500 -0.379800
vn 0.379800 0.121500 -0.917000
vn 0.911100 0.117400 0.395100
vn -0.224200 0.970100 0.092900
vn -0.092900 0.970100 0.224300
vn 0.092900 0.970100 0.224200
vn 0.224200 0.970100 0.092900
vn 0.224200 0.970100 -0.092900
vn -0.224200 0.970100 -0.092900
vn 0.092900 0.970100 -0.224200
vn -0.919800 -0.094200 0.381000
vn 0.395100 0.117400 -0.911100
vn -0.911100 0.117400 -0.395100
vn -0.395100 0.117400 0.911100
vn 0.395100 0.117400 0.911100
vn 0.911100 0.117400 -0.395100
vn -0.395100 0.117400 -0.911100
vn -0.911100 0.117400 0.395100
vn 0.301900 0.614400 0.728900
vn 0.919800 -0.094200 0.381000
vn 0.381000 -0.094200 -0.919800
vn -0.919800 -0.094200 -0.381000
vn -0.381000 -0.094200 0.919800
vn 0.381000 -0.094200 0.919800
vn 0.919800 -0.094200 -0.381000
vn -0.381000 -0.094200 -0.919800
vn 0.000000 1.000000 0.000000
vn 0.728900 0.614400 -0.301900
vn -0.301900 0.614400 -0.728900
vn -0.728900 0.614400 0.301900
vn 0.728900 0.614400 0.301900
vn 0.301900 0.614400 -0.728900
vn -0.728900 0.614400 -0.301900
vn -0.301900 0.614400 0.728900
vn 0.921100 -0.015400 -0.389000
vn -0.922300 -0.080700 0.377900
vn 0.379400 -0.178800 0.907800
vn 0.922800 0.062400 -0.380100
vn -0.922800 0.062400 -0.380100
vn -0.379400 -0.178800 0.907800
vn 0.922300 -0.080700 0.377900
vn 0.379800 0.164700 -0.910300
vn -0.381200 -0.006900 -0.924500
vn -0.921100 -0.015400 -0.389000
vn -0.372900 0.134400 0.918100
vn 0.918800 0.071500 0.388100
vn 0.375400 -0.071900 -0.924100
vn -0.375400 -0.071900 -0.924100
vn -0.918800 0.071500 0.388100
vn 0.372900 0.134400 0.918100
vn -0.922900 0.000700 0.385100
vn 0.369400 0.005100 0.929200
vn 0.923000 -0.004100 -0.384800
vn -0.923000 -0.004100 -0.384800
vn -0.379900 0.004500 0.925000
vn 0.932100 0.001700 0.362100
vn 0.380500 -0.006900 -0.924800
vn 0.000000 -0.999400 0.033900
vn 0.812600 0.541800 -0.214700
vn 0.156800 -0.548000 0.821600
vn 0.318400 -0.145200 0.936800
vn -0.264700 -0.172700 -0.948700
vn -0.940600 -0.144800 0.307000
vn -0.045200 0.203800 -0.978000
vn 0.041000 0.196300 0.979700
vn 0.247200 -0.188700 -0.950400
vn -0.826700 -0.537800 0.165000
vn 0.816700 0.542600 0.196500
vn -0.830500 -0.537400 -0.146600
vn 0.336400 0.749700 0.569900
vn 0.320400 0.740600 -0.590700
vn -0.968600 0.140500 0.205200
vn 0.974900 -0.118400 -0.188700
vn -0.973800 0.139200 -0.179700
vn 0.979500 -0.117700 0.163300
vn -0.819000 0.534800 0.207900
vn 0.045200 0.203800 0.978000
vn -0.041000 0.196300 -0.979700
vn -0.816000 0.540500 -0.204900
vn 0.824100 -0.544800 -0.155400
vn -0.244100 -0.187300 0.951500
vn 0.822500 -0.548100 0.152100
vn -0.336400 0.749700 -0.569900
vn -0.320400 0.740600 0.590700
vn 0.968600 0.140500 -0.205200
vn -0.974900 -0.118400 0.188700
vn 0.973800 0.139200 0.179700
vn -0.979500 -0.117700 -0.163300
vn 0.240600 0.539600 0.806800
vn 0.978000 0.203800 -0.045200
vn -0.979700 0.196300 0.041000
vn -0.202800 0.536200 0.819300
vn -0.161300 -0.543300 -0.823900
vn 0.954900 -0.205500 0.214400
vn 0.150300 -0.545200 -0.824700
vn -0.569900 0.749700 0.336400
vn 0.590700 0.740600 0.320400
vn -0.205200 0.140500 -0.968600
vn 0.188700 -0.118400 0.974900
vn 0.179700 0.139200 -0.973800
vn -0.163300 -0.117700 0.979500
vn 0.951700 -0.188800 -0.242000
vn -0.978000 0.203800 0.045200
vn 0.979700 0.196300 -0.041000
vn 0.226400 0.549900 -0.804000
vn -0.215900 0.541500 -0.812500
vn -0.951000 -0.182800 -0.249300
vn -0.146100 -0.549000 0.823000
vn 0.569900 0.749700 -0.336400
vn -0.590700 0.740600 -0.320400
vn 0.205200 0.140500 0.968600
vn -0.188700 -0.118400 -0.974900
vn -0.179700 0.139200 0.973800
vn 0.163300 -0.117700 -0.979500
usemtl Texture
s off
f 41/1/1 2/2/1 4/3/1 42/4/1
f 42/4/2 4/3/2 6/5/2 43/6/2
f 43/6/3 6/5/3 8/7/3 44/8/3
f 44/8/4 8/7/4 10/9/4 45/10/4
f 45/10/5 10/9/5 12/7/5 46/8/5
f 46/8/6 12/7/6 14/5/6 47/6/6
f 14/5/7 12/7/7 54/11/7 55/5/7
f 48/4/8 16/3/8 2/2/8 41/1/8
f 47/6/9 14/5/9 16/3/9 48/4/9
f 5/12/10 7/13/10 20/14/10 19/15/10
f 22/14/11 23/15/11 31/16/11 30/17/11
f 11/13/12 13/12/12 23/15/12 22/14/12
f 7/13/13 9/18/13 21/19/13 20/14/13
f 13/12/14 15/20/14 24/21/14 23/15/14
f 3/20/15 5/12/15 19/15/15 18/21/15
f 9/18/16 11/13/16 22/14/16 21/19/16
f 15/20/17 1/22/17 17/23/17 24/21/17
f 1/22/18 3/20/18 18/21/18 17/23/18
f 25/24/19 26/25/19 34/26/19 33/27/19
f 20/14/20 21/19/20 29/28/20 28/17/20
f 18/21/21 19/15/21 27/16/21 26/25/21
f 23/15/22 24/21/22 32/25/22 31/16/22
f 21/19/23 22/14/23 30/17/23 29/28/23
f 19/15/24 20/14/24 28/17/24 27/16/24
f 17/23/25 18/21/25 26/25/25 25/24/25
f 24/21/26 17/23/26 25/24/26 32/25/26
f 40/29/27 33/30/27 81/31/27 88/32/27
f 32/25/28 25/24/28 33/27/28 40/26/28
f 30/17/29 31/16/29 39/33/29 38/34/29
f 28/17/30 29/28/30 37/35/30 36/34/30
f 26/25/31 27/16/31 35/33/31 34/26/31
f 31/16/32 32/25/32 40/26/32 39/33/32
f 29/28/33 30/17/33 38/34/33 37/35/33
f 27/16/34 28/17/34 36/34/34 35/33/34
f 13/12/35 47/6/35 48/4/35 15/20/35
f 15/20/36 48/4/36 41/1/36 1/22/36
f 11/13/37 46/8/37 47/6/37 13/12/37
f 9/18/38 45/10/38 46/8/38 11/13/38
f 7/13/39 44/8/39 45/10/39 9/18/39
f 5/12/40 43/6/40 44/8/40 7/13/40
f 3/20/41 42/4/41 43/6/41 5/12/41
f 1/22/42 41/1/42 42/4/42 3/20/42
f 56/36/43 55/5/43 63/37/43 64/38/43
f 10/9/44 8/7/44 52/11/44 53/39/44
f 16/3/45 14/5/45 55/5/45 56/36/45
f 6/5/46 4/3/46 49/36/46 51/5/46
f 12/7/47 10/9/47 53/39/47 54/11/47
f 2/2/48 16/3/48 56/36/48 50/40/48
f 4/3/49 2/2/49 50/40/49 49/36/49
f 8/7/50 6/5/50 51/5/50 52/11/50
f 59/37/51 57/38/51 65/41/51 67/42/51
f 54/11/52 53/39/52 61/43/52 62/44/52
f 52/11/53 51/5/53 59/37/53 60/44/53
f 49/36/54 50/40/54 58/45/54 57/38/54
f 50/40/55 56/36/55 64/38/55 58/45/55
f 55/5/56 54/11/56 62/44/56 63/37/56
f 53/39/57 52/11/57 60/44/57 61/43/57
f 51/5/58 49/36/58 57/38/58 59/37/58
f 66/46/59 72/41/59 80/47/59 74/48/59
f 64/38/60 63/37/60 71/42/60 72/41/60
f 62/44/61 61/43/61 69/49/61 70/50/61
f 60/44/62 59/37/62 67/42/62 68/50/62
f 57/38/63 58/45/63 66/46/63 65/41/63
f 58/45/64 64/38/64 72/41/64 66/46/64
f 63/37/65 62/44/65 70/50/65 71/42/65
f 61/43/66 60/44/66 68/50/66 69/49/66
f 73/47/67 74/48/67 80/47/67 79/51/67 78/52/67 77/53/67 76/52/67 75/51/67
f 71/42/68 70/50/68 78/52/68 79/51/68
f 69/49/69 68/50/69 76/52/69 77/53/69
f 67/42/70 65/41/70 73/47/70 75/51/70
f 72/41/71 71/42/71 79/51/71 80/47/71
f 70/50/72 69/49/72 77/53/72 78/52/72
f 68/50/73 67/42/73 75/51/73 76/52/73
f 65/41/74 66/46/74 74/48/74 73/47/74
f 82/32/75 83/54/75 91/55/75 90/56/75
f 38/57/76 39/58/76 87/54/76 86/59/76
f 36/57/77 37/60/77 85/61/77 84/59/77
f 34/29/78 35/58/78 83/54/78 82/32/78
f 39/58/79 40/29/79 88/32/79 87/54/79
f 37/60/80 38/57/80 86/59/80 85/61/80
f 35/58/81 36/57/81 84/59/81 83/54/81
f 33/30/82 34/29/82 82/32/82 81/31/82
f 96/56/83 89/62/83 97/63/83 104/64/83
f 87/54/84 88/32/84 96/56/84 95/55/84
f 85/61/85 86/59/85 94/65/85 93/66/85
f 83/54/86 84/59/86 92/65/86 91/55/86
f 81/31/87 82/32/87 90/56/87 89/62/87
f 88/32/88 81/31/88 89/62/88 96/56/88
f 86/59/89 87/54/89 95/55/89 94/65/89
f 84/59/90 85/61/90 93/66/90 92/65/90
f 94/65/91 95/55/91 103/67/91 102/68/91
f 92/65/92 93/66/92 101/69/92 100/70/92
f 90/56/93 91/55/93 99/71/93 98/72/93
f 95/55/94 96/56/94 104/64/94 103/67/94
f 93/66/95 94/65/95 102/68/95 101/69/95
f 91/55/96 92/65/96 100/70/96 99/71/96
f 89/62/97 90/56/97 98/72/97 97/63/97
f 105/73/98 106/74/98 107/75/98 108/76/98 109/77/98 110/76/98 111/75/98 112/74/98
f 102/68/99 103/67/99 114/78/99 113/79/99
f 109/77/100 108/76/100 152/80/100 153/81/100
f 110/76/101 102/68/101 113/79/101 116/82/101
f 106/74/102 98/72/102 125/83/102 128/84/102
f 112/74/103 104/64/103 137/85/103 140/86/103
f 115/87/104 118/88/104 124/89/104 121/90/104
f 116/82/105 113/79/105 119/91/105 122/92/105
f 104/64/106 112/74/106 118/88/106 115/87/106
f 111/75/107 110/76/107 116/82/107 117/93/107
f 103/67/108 104/64/108 115/87/108 114/78/108
f 112/74/109 111/75/109 117/93/109 118/88/109
f 119/91/110 120/94/110 123/95/110 122/92/110
f 120/94/111 121/90/111 124/89/111 123/95/111
f 117/93/112 116/82/112 122/92/112 123/95/112
f 113/79/113 114/78/113 120/94/113 119/91/113
f 118/88/114 117/93/114 123/95/114 124/89/114
f 114/78/115 115/87/115 121/90/115 120/94/115
f 98/72/116 99/71/116 126/96/116 125/83/116
f 127/97/117 130/98/117 136/99/117 133/100/117
f 128/84/118 125/83/118 131/101/118 134/102/118
f 99/71/119 100/70/119 127/97/119 126/96/119
f 107/75/120 106/74/120 128/84/120 129/103/120
f 100/70/121 108/76/121 130/98/121 127/97/121
f 108/76/122 107/75/122 129/103/122 130/98/122
f 131/101/123 132/94/123 135/95/123 134/102/123
f 132/94/124 133/100/124 136/99/124 135/95/124
f 129/103/125 128/84/125 134/102/125 135/95/125
f 125/83/126 126/96/126 132/94/126 131/101/126
f 130/98/127 129/103/127 135/95/127 136/99/127
f 126/96/128 127/97/128 133/100/128 132/94/128
f 104/64/129 97/63/129 138/104/129 137/85/129
f 139/105/130 142/106/130 148/107/130 145/108/130
f 140/86/131 137/85/131 143/109/131 146/110/131
f 97/63/132 98/72/132 139/105/132 138/104/132
f 105/73/133 112/74/133 140/86/133 141/111/133
f 98/72/134 106/74/134 142/106/134 139/105/134
f 106/74/135 105/73/135 141/111/135 142/106/135
f 143/109/136 144/112/136 147/113/136 146/110/136
f 144/112/137 145/108/137 148/107/137 147/113/137
f 141/111/138 140/86/138 146/110/138 147/113/138
f 137/85/139 138/104/139 144/112/139 143/109/139
f 142/106/140 141/111/140 147/113/140 148/107/140
f 138/104/141 139/105/141 145/108/141 144/112/141
f 108/76/142 100/70/142 149/114/142 152/80/142
f 151/115/143 154/116/143 160/117/143 157/118/143
f 152/80/144 149/114/144 155/119/144 158/120/144
f 101/69/145 102/68/145 151/115/145 150/121/145
f 100/70/146 101/69/146 150/121/146 149/114/146
f 102/68/147 110/76/147 154/116/147 151/115/147
f 110/76/148 109/77/148 153/81/148 154/116/148
f 155/119/149 156/122/149 159/123/149 158/120/149
f 156/122/150 157/118/150 160/117/150 159/123/150
f 153/81/151 152/80/151 158/120/151 159/123/151
f 149/114/152 150/121/152 156/122/152 155/119/152
f 154/116/153 153/81/153 159/123/153 160/117/153
f 150/121/154 151/115/154 157/118/154 156/122/154
