# Blender v2.76 (sub 0) OBJ File: 'Flower.blend'
# www.blender.org
mtllib Flower.mtl
o Flower_Cylinder
v -0.000000 1.014435 -0.199628
v -0.000000 1.041707 -0.199628
v 0.120471 1.014435 -0.141612
v 0.120471 1.041707 -0.141612
v 0.150225 1.014435 -0.011252
v 0.150225 1.041707 -0.011252
v 0.066857 1.014435 0.093290
v 0.066857 1.041707 0.093290
v -0.066857 1.014435 0.093290
v -0.066857 1.041707 0.093290
v -0.150225 1.014435 -0.011252
v -0.150225 1.041707 -0.011252
v -0.120472 1.014435 -0.141612
v -0.120472 1.041707 -0.141612
v 0.104462 1.063546 -0.128845
v -0.000000 1.063546 -0.179151
v 0.130262 1.063546 -0.015808
v 0.057972 1.063546 0.074840
v -0.057972 1.063546 0.074840
v -0.130262 1.063546 -0.015808
v -0.104462 1.063546 -0.128845
v 0.069158 1.092913 -0.100691
v -0.000000 1.092913 -0.133996
v 0.086238 1.092913 -0.025856
v 0.038380 1.092913 0.034156
v -0.038380 1.092913 0.034156
v -0.086238 1.092913 -0.025856
v -0.069158 1.092913 -0.100691
v 0.035874 1.106367 -0.074148
v -0.000000 1.106367 -0.091424
v 0.044734 1.106367 -0.035329
v 0.019909 1.106367 -0.004199
v -0.019909 1.106367 -0.004199
v -0.044734 1.106367 -0.035329
v -0.035874 1.106367 -0.074148
v -0.000000 0.986347 -0.167950
v 0.095704 0.986347 -0.121861
v 0.119341 0.986347 -0.018301
v 0.053112 0.986347 0.064748
v -0.053112 0.986347 0.064748
v -0.119341 0.986347 -0.018301
v -0.095704 0.986347 -0.121861
v 0.066857 1.041707 0.307676
v 0.066857 1.014435 0.307676
v -0.066857 1.014435 0.307676
v -0.066857 1.041707 0.307676
v -0.234471 1.041707 0.226957
v -0.234471 1.014435 0.226957
v -0.317840 1.014435 0.122416
v -0.317840 1.041707 0.122416
v -0.359237 1.041707 -0.058957
v -0.359237 1.014435 -0.058957
v -0.329483 1.014435 -0.189318
v -0.329483 1.041707 -0.189318
v -0.093019 1.014435 -0.392784
v -0.093019 1.041707 -0.392784
v -0.213490 1.041707 -0.334768
v -0.213490 1.014435 -0.334768
v 0.093019 1.014435 -0.392784
v 0.213490 1.014435 -0.334768
v 0.213490 1.041707 -0.334768
v 0.093019 1.041707 -0.392784
v 0.329483 1.041707 -0.189318
v 0.329483 1.014435 -0.189318
v 0.359237 1.014435 -0.058957
v 0.359237 1.041707 -0.058957
v 0.317840 1.041707 0.122416
v 0.317840 1.014435 0.122416
v 0.234471 1.014435 0.226957
v 0.234471 1.041707 0.226957
v 0.133716 0.999823 0.181375
v 0.133716 1.056319 0.181375
v 0.250980 0.999823 0.034330
v 0.250980 1.056319 0.034330
v 0.260780 1.056319 -0.008604
v 0.218929 1.056319 -0.191966
v 0.218929 0.999823 -0.191966
v 0.260780 0.999823 -0.008604
v 0.022019 0.999823 -0.308000
v 0.191471 0.999823 -0.226396
v 0.191471 1.056319 -0.226396
v 0.022019 1.056319 -0.308000
v -0.022019 1.056319 -0.308000
v -0.191471 1.056319 -0.226396
v -0.191471 0.999823 -0.226396
v -0.022019 0.999823 -0.308000
v -0.218929 0.999823 -0.191966
v -0.218929 1.056319 -0.191966
v -0.260780 0.999823 -0.008604
v -0.260780 1.056319 -0.008604
v -0.250980 1.056319 0.034330
v -0.133716 1.056319 0.181375
v -0.133716 0.999823 0.181375
v -0.250980 0.999823 0.034330
v -0.094039 1.056319 0.200483
v 0.094039 1.056319 0.200483
v 0.094039 0.999823 0.200483
v -0.094039 0.999823 0.200483
v -0.000000 0.986347 -0.077393
v 0.024904 0.986347 -0.065400
v 0.031055 0.986347 -0.038452
v 0.013821 0.986347 -0.016841
v -0.013821 0.986347 -0.016841
v -0.031055 0.986347 -0.038452
v -0.024904 0.986347 -0.065400
v -0.000000 0.802610 -0.031384
v 0.024904 0.801432 -0.019449
v 0.031055 0.798784 0.007369
v 0.013821 0.796662 0.028875
v -0.013821 0.796662 0.028875
v -0.031055 0.798784 0.007369
v -0.024904 0.801432 -0.019449
v -0.000000 0.558198 -0.014537
v 0.030218 0.558414 0.000014
v 0.037682 0.558898 0.032709
v 0.016770 0.559287 0.058929
v -0.016770 0.559287 0.058929
v -0.037682 0.558898 0.032709
v -0.030218 0.558414 0.000014
v -0.000000 0.232629 -0.013272
v 0.033000 0.232865 0.002618
v 0.041150 0.233394 0.038323
v 0.018314 0.233818 0.066956
v -0.018314 0.233818 0.066956
v -0.041150 0.233394 0.038323
v -0.033000 0.232865 0.002618
v -0.000000 -0.030309 -0.047310
v 0.033000 -0.030074 -0.031420
v 0.041150 -0.029545 0.004285
v 0.018314 -0.029121 0.032918
v -0.018314 -0.029121 0.032918
v -0.041150 -0.029545 0.004285
v -0.033000 -0.030074 -0.031420
vt 0.578536 0.200525
vt 0.608195 0.200525
vt 0.639010 0.372123
vt 0.617924 0.372123
vt 0.566023 0.863984
vt 0.499380 0.863984
vt 0.517681 0.692386
vt 0.565060 0.692386
vt 0.430332 0.863984
vt 0.430332 0.200525
vt 0.413765 0.372123
vt 0.413765 0.692386
vt 0.423387 0.863984
vt 0.384428 0.692386
vt 0.483775 0.863984
vt 0.451760 0.692386
vt 0.831208 0.047448
vt 0.918805 0.047448
vt 0.910226 0.353151
vt 0.834270 0.353151
vt 0.578536 0.863984
vt 0.608195 0.863984
vt 0.639010 0.692386
vt 0.617924 0.692386
vt 0.566023 0.200525
vt 0.565060 0.372123
vt 0.462346 0.372123
vt 0.472720 0.042266
vt 0.944030 0.353151
vt 0.891307 0.764223
vt 0.913687 0.764223
vt 0.760961 0.047448
vt 0.773358 0.353151
vt 0.957789 0.047448
vt 0.841022 0.764223
vt 0.847387 0.952552
vt 0.873472 0.952552
vt 0.800696 0.764223
vt 0.885081 0.952552
vt 0.826469 0.952552
vt 0.502904 0.042266
vt 0.502373 0.042266
vt 0.510228 0.042266
vt 0.547722 0.372123
vt 0.568807 0.372123
vt 0.557294 0.042266
vt 0.540543 0.042266
vt 0.500342 0.372123
vt 0.384428 0.372123
vt 0.423387 0.200525
vt 0.451760 0.372123
vt 0.483775 0.200525
vt 0.517680 0.372123
vt 0.499380 0.200525
vt 0.500342 0.692386
vt 0.462346 0.692386
vt 0.547722 0.692386
vt 0.568807 0.692386
vt 0.237017 0.952940
vt 0.250777 0.952940
vt 0.197989 0.789223
vt 0.184296 0.788174
vt 0.520022 0.042266
vt 0.524381 0.042266
vt 0.153527 0.785815
vt 0.161966 0.571635
vt 0.124453 0.572067
vt 0.181304 0.952940
vt 0.206098 0.952940
vt 0.128852 0.783923
vt 0.094371 0.572413
vt 0.085161 0.282407
vt 0.118012 0.282030
vt 0.178660 0.571443
vt 0.158978 0.281558
vt 0.177209 0.281348
vt 0.216262 0.047060
vt 0.198030 0.047270
vt 0.157065 0.047741
vt 0.124214 0.048119
vn 0.058600 -0.990800 -0.121700
vn 0.131700 0.990800 -0.030100
vn -0.412200 0.000000 0.911100
vn -0.000000 0.990800 0.135100
vn -0.105600 0.990800 0.084200
vn 0.744800 0.645300 -0.170000
vn -0.058600 0.990800 -0.121700
vn -0.023900 0.000000 -0.999700
vn -0.000000 -0.712700 0.701400
vn -0.253900 0.810800 -0.527300
vn -0.597200 0.645300 0.476300
vn 0.331400 0.645300 -0.688300
vn 0.597200 0.645300 0.476300
vn -0.744800 0.645300 -0.170000
vn -0.000000 0.645300 0.763900
vn -0.331400 0.645300 -0.688300
vn -0.322700 0.943600 -0.073700
vn -0.457600 0.810800 0.364900
vn 0.457600 0.810800 0.364900
vn 0.253900 0.810800 -0.527300
vn -0.570600 0.810800 -0.130200
vn -0.000000 0.810800 0.585300
vn 0.570600 0.810800 -0.130200
vn 0.000000 1.000000 0.000000
vn -0.000000 0.943600 0.331000
vn 0.322700 0.943600 -0.073700
vn -0.143600 0.943600 -0.298200
vn -0.258800 0.943600 0.206400
vn 0.258800 0.943600 0.206400
vn 0.143600 0.943600 -0.298200
vn 0.000000 -1.000000 -0.000000
vn -0.304300 -0.712700 -0.632000
vn 0.683800 -0.712700 -0.156100
vn -0.548400 -0.712700 0.437300
vn 0.304300 -0.712700 -0.632000
vn 0.548400 -0.712700 0.437300
vn -0.683800 -0.712700 -0.156100
vn -0.000000 0.000000 1.000000
vn 0.969300 0.000000 0.245800
vn -0.969300 0.000000 0.245800
vn -0.000000 -0.990800 0.135100
vn -0.781800 0.000000 0.623500
vn 0.412200 0.000000 0.911100
vn -0.796500 0.000000 -0.604600
vn -0.105600 -0.990800 0.084200
vn -0.974900 0.000000 -0.222500
vn -0.131700 -0.990800 -0.030100
vn -0.131700 0.990800 -0.030100
vn -0.455300 0.000000 0.890300
vn -0.433900 0.000000 -0.901000
vn -0.980000 0.000000 0.199100
vn -0.058600 -0.990800 -0.121700
vn 0.766700 0.000000 -0.642000
vn 0.433900 0.000000 -0.901000
vn 0.980000 0.000000 0.199100
vn 0.058600 0.990800 -0.121700
vn -0.766700 0.000000 -0.642000
vn 0.974900 0.000000 -0.222500
vn 0.023900 0.000000 -0.999700
vn 0.455300 0.000000 0.890300
vn 0.131700 -0.990800 -0.030100
vn 0.781800 0.000000 0.623500
vn 0.105600 -0.990800 0.084200
vn 0.105600 0.990800 0.084200
vn 0.796500 0.000000 -0.604600
vn 0.412200 0.000000 -0.911100
vn -0.105600 0.990800 -0.084200
vn -0.105600 -0.990800 -0.084200
vn -0.796500 0.000000 0.604600
vn -0.131700 -0.990800 0.030100
vn -0.023900 0.000000 0.999700
vn -0.455300 0.000000 -0.890300
vn -0.131700 0.990800 0.030100
vn -0.980000 0.000000 -0.199100
vn -0.058600 0.990800 0.121700
vn 0.766700 0.000000 0.642000
vn -0.058600 -0.990800 0.121700
vn 0.980000 0.000000 -0.199100
vn 0.058600 -0.990800 0.121700
vn -0.766700 0.000000 0.642000
vn 0.058600 0.990800 0.121700
vn 0.023900 0.000000 0.999700
vn 0.131700 0.990800 0.030100
vn 0.131700 -0.990800 0.030100
vn 0.455300 0.000000 -0.890300
vn 0.105600 -0.990800 -0.084200
vn -0.412200 0.000000 -0.911100
vn 0.796500 0.000000 0.604600
vn 0.105600 0.990800 -0.084200
vn 0.000000 -0.990800 -0.135100
vn -0.969300 0.000000 -0.245800
vn 0.969300 0.000000 -0.245800
vn 0.000000 0.990800 -0.135100
vn -0.418200 -0.219900 -0.881300
vn -0.974800 0.003400 -0.222900
vn -0.768500 0.150900 0.621800
vn 0.768500 0.150900 0.621800
vn 0.418200 -0.219900 -0.881300
vn -0.972700 -0.055500 -0.225300
vn -0.000000 0.234300 0.972200
vn 0.972700 -0.055500 -0.225300
vn 0.781800 0.019100 0.623200
vn 0.000000 0.125600 0.992100
vn 0.974800 0.003400 -0.222900
vn -0.431400 -0.062300 -0.900000
vn -0.776600 0.088000 0.623900
vn 0.776600 0.088000 0.623900
vn 0.431400 -0.062300 -0.900000
vn -0.430300 0.115900 -0.895200
vn 0.433900 -0.003500 -0.901000
vn -0.974900 0.006500 -0.222600
vn 0.000000 0.024700 0.999700
vn 0.974900 0.006500 -0.222600
vn -0.433900 -0.003500 -0.901000
vn -0.781800 0.019100 0.623200
vn 0.000000 -0.999900 0.014800
vn -0.778700 -0.080500 0.622200
vn 0.778700 -0.080500 0.622200
vn 0.430300 0.115900 -0.895200
vn -0.974400 0.028800 -0.222900
vn 0.000000 -0.128400 0.991700
vn 0.974400 0.028800 -0.222900
usemtl Texture
s off
f 80/1/1 79/2/1 59/3/1 60/4/1
f 76/5/2 75/6/2 66/7/2 63/8/2
f 72/9/3 71/10/3 69/11/3 70/12/3
f 96/13/4 95/13/4 46/14/4 43/14/4
f 92/9/5 91/15/5 50/16/5 47/12/5
f 6/17/6 4/18/6 15/19/6 17/20/6
f 84/21/7 83/22/7 56/23/7 57/24/7
f 88/5/8 87/25/8 53/26/8 54/8/8
f 7/27/9 9/27/9 40/28/9 39/28/9
f 16/29/10 21/19/10 28/30/10 23/31/10
f 12/17/11 10/32/11 19/33/11 20/20/11
f 4/18/12 2/34/12 16/29/12 15/19/12
f 8/32/13 6/17/13 17/20/13 18/33/13
f 14/18/14 12/17/14 20/20/14 21/19/14
f 10/32/15 8/32/15 18/33/15 19/33/15
f 2/34/16 14/18/16 21/19/16 16/29/16
f 28/30/17 27/35/17 34/36/17 35/37/17
f 20/20/18 19/33/18 26/38/18 27/35/18
f 18/33/19 17/20/19 24/35/19 25/38/19
f 15/19/20 16/29/20 23/31/20 22/30/20
f 21/19/21 20/20/21 27/35/21 28/30/21
f 19/33/22 18/33/22 25/38/22 26/38/22
f 17/20/23 15/19/23 22/30/23 24/35/23
f 29/37/24 30/39/24 35/37/24 34/36/24 33/40/24 32/40/24 31/36/24
f 26/38/25 25/38/25 32/40/25 33/40/25
f 24/35/26 22/30/26 29/37/26 31/36/26
f 23/31/27 28/30/27 35/37/27 30/39/27
f 27/35/28 26/38/28 33/40/28 34/36/28
f 25/38/29 24/35/29 31/36/29 32/40/29
f 22/30/30 23/31/30 30/39/30 29/37/30
f 38/41/31 39/28/31 102/42/31 101/43/31
f 13/44/32 1/45/32 36/46/32 42/47/32
f 3/44/33 5/48/33 38/41/33 37/47/33
f 9/27/34 11/48/34 41/41/34 40/28/34
f 1/45/35 3/44/35 37/47/35 36/46/35
f 5/48/36 7/27/36 39/28/36 38/41/36
f 11/48/37 13/44/37 42/47/37 41/41/37
f 44/49/38 43/14/38 46/14/38 45/49/38
f 97/50/39 96/13/39 43/14/39 44/49/39
f 95/13/40 98/50/40 45/49/40 46/14/40
f 98/50/41 97/50/41 44/49/41 45/49/41
f 48/11/42 47/12/42 50/16/42 49/51/42
f 93/10/43 92/9/43 47/12/43 48/11/43
f 91/15/44 94/52/44 49/51/44 50/16/44
f 94/52/45 93/10/45 48/11/45 49/51/45
f 52/53/46 51/7/46 54/8/46 53/26/46
f 87/25/47 89/54/47 52/53/47 53/26/47
f 90/6/48 88/5/48 54/8/48 51/7/48
f 89/54/49 90/6/49 51/7/49 52/53/49
f 58/4/50 57/24/50 56/23/50 55/3/50
f 85/1/51 84/21/51 57/24/51 58/4/51
f 86/2/52 85/1/52 58/4/52 55/3/52
f 83/22/53 86/2/53 55/3/53 56/23/53
f 59/3/54 62/23/54 61/24/54 60/4/54
f 81/21/55 80/1/55 60/4/55 61/24/55
f 82/22/56 81/21/56 61/24/56 62/23/56
f 79/2/57 82/22/57 62/23/57 59/3/57
f 64/26/58 63/8/58 66/7/58 65/53/58
f 77/25/59 76/5/59 63/8/59 64/26/59
f 75/6/60 78/54/60 65/53/60 66/7/60
f 78/54/61 77/25/61 64/26/61 65/53/61
f 68/51/62 67/16/62 70/12/62 69/11/62
f 71/10/63 73/52/63 68/51/63 69/11/63
f 74/15/64 72/9/64 70/12/64 67/16/64
f 73/52/65 74/15/65 67/16/65 68/51/65
f 5/48/66 6/55/66 74/15/66 73/52/66
f 6/55/67 8/56/67 72/9/67 74/15/67
f 7/27/68 5/48/68 73/52/68 71/10/68
f 8/56/69 7/27/69 71/10/69 72/9/69
f 5/48/70 3/44/70 77/25/70 78/54/70
f 6/55/71 5/48/71 78/54/71 75/6/71
f 3/44/72 4/57/72 76/5/72 77/25/72
f 4/57/73 6/55/73 75/6/73 76/5/73
f 1/45/74 2/58/74 82/22/74 79/2/74
f 2/58/75 4/57/75 81/21/75 82/22/75
f 4/57/76 3/44/76 80/1/76 81/21/76
f 3/44/77 1/45/77 79/2/77 80/1/77
f 2/58/78 1/45/78 86/2/78 83/22/78
f 1/45/79 13/44/79 85/1/79 86/2/79
f 13/44/80 14/57/80 84/21/80 85/1/80
f 14/57/81 2/58/81 83/22/81 84/21/81
f 11/48/82 12/55/82 90/6/82 89/54/82
f 12/55/83 14/57/83 88/5/83 90/6/83
f 13/44/84 11/48/84 89/54/84 87/25/84
f 14/57/85 13/44/85 87/25/85 88/5/85
f 11/48/86 9/27/86 93/10/86 94/52/86
f 12/55/87 11/48/87 94/52/87 91/15/87
f 9/27/88 10/56/88 92/9/88 93/10/88
f 10/56/89 12/55/89 91/15/89 92/9/89
f 9/27/90 7/27/90 97/50/90 98/50/90
f 10/56/91 9/27/91 98/50/91 95/13/91
f 7/27/92 8/56/92 96/13/92 97/50/92
f 8/56/93 10/56/93 95/13/93 96/13/93
f 105/59/94 99/60/94 106/61/94 112/62/94
f 36/46/31 37/47/31 100/63/31 99/64/31
f 41/41/31 42/47/31 105/63/31 104/43/31
f 39/28/31 40/28/31 103/42/31 102/42/31
f 37/47/31 38/41/31 101/43/31 100/63/31
f 42/47/31 36/46/31 99/64/31 105/63/31
f 40/28/31 41/41/31 104/43/31 103/42/31
f 111/65/95 112/62/95 119/66/95 118/67/95
f 103/68/96 104/69/96 111/65/96 110/70/96
f 101/69/97 102/68/97 109/70/97 108/65/97
f 99/60/98 100/59/98 107/62/98 106/61/98
f 104/69/99 105/59/99 112/62/99 111/65/99
f 102/68/100 103/68/100 110/70/100 109/70/100
f 100/59/101 101/69/101 108/65/101 107/62/101
f 115/67/102 116/71/102 123/72/102 122/73/102
f 109/70/103 110/70/103 117/71/103 116/71/103
f 107/62/104 108/65/104 115/67/104 114/66/104
f 112/62/105 106/61/105 113/74/105 119/66/105
f 110/70/106 111/65/106 118/67/106 117/71/106
f 108/65/107 109/70/107 116/71/107 115/67/107
f 106/61/108 107/62/108 114/66/108 113/74/108
f 126/75/109 120/76/109 127/77/109 133/78/109
f 113/74/110 114/66/110 121/75/110 120/76/110
f 118/67/111 119/66/111 126/75/111 125/73/111
f 116/71/112 117/71/112 124/72/112 123/72/112
f 114/66/113 115/67/113 122/73/113 121/75/113
f 119/66/114 113/74/114 120/76/114 126/75/114
f 117/71/115 118/67/115 125/73/115 124/72/115
f 127/77/116 128/78/116 129/79/116 130/80/116 131/80/116 132/79/116 133/78/116
f 124/72/117 125/73/117 132/79/117 131/80/117
f 122/73/118 123/72/118 130/80/118 129/79/118
f 120/76/119 121/75/119 128/78/119 127/77/119
f 125/73/120 126/75/120 133/78/120 132/79/120
f 123/72/121 124/72/121 131/80/121 130/80/121
f 121/75/122 122/73/122 129/79/122 128/78/122
