# Blender v2.75 (sub 0) OBJ File: 'Chest.blend'
# www.blender.org
mtllib Chest.mtl
o Gold_Icosphere.001
v 0.424586 -1.530299 2.021401
v 0.347484 -1.525562 0.811239
v 0.188464 -0.387424 2.400579
v 0.358023 -0.345468 2.195636
v 0.430799 -0.112497 1.817824
v -0.007562 0.071560 1.953225
v 0.091410 -0.340644 2.422427
v 0.311277 -0.495113 2.350286
v 0.454302 -0.037257 1.345484
v 0.456512 -0.037257 1.339732
v 0.185944 0.154882 0.994151
v -0.500753 -0.205244 2.485661
v -0.268859 0.301378 1.204674
v 0.422550 -0.138904 0.959732
v 0.454302 -0.037257 1.332710
v -0.785169 0.079743 1.919276
v -0.737320 -0.207480 2.484617
v 0.004037 0.231919 0.360874
v 0.544142 -0.037257 0.307713
v 0.454302 -0.037257 0.600883
v -1.063893 -0.157086 2.210379
v -1.026915 -0.275460 2.452869
v -0.645594 0.188396 0.889032
v 0.541219 -0.037257 0.238373
v 0.539647 -0.037257 0.201063
v -1.085634 -0.087489 1.736356
v -1.088330 -0.078857 1.369822
v 0.272347 -0.037257 -0.086803
v 0.454302 -0.037257 0.109151
v -0.358195 -0.037257 0.121230
v -0.304505 -0.037257 0.069734
v -1.000466 -0.192954 0.668291
v -1.051848 -0.195644 0.826813
v -0.572914 -0.107824 0.271329
v -0.449637 -0.037257 0.238373
v -1.038899 -0.237096 0.720970
v -0.897409 -0.518880 0.463302
v -0.927351 -0.594188 0.498473
v -0.660825 -1.393956 0.871983
v -0.677520 -1.393956 0.886294
v -0.684722 -1.370900 0.861215
v 0.409243 -1.525562 2.006808
v 0.454302 -0.037257 0.238373
v 0.030497 -1.393956 1.930505
v 0.030497 -1.393956 0.871983
v -0.677520 -1.393956 1.930505
vt 0.000000 0.000000
vt 0.493270 0.090588
vt 0.493435 0.090219
vt 0.493270 0.090219
vt 0.426111 0.923658
vt 0.425641 0.923070
vt 0.425450 0.923059
vt 0.425450 0.923658
vt 0.493774 0.091278
vt 0.493994 0.091219
vt 0.494209 0.091037
vt 0.494329 0.090920
vt 0.494329 0.090219
vt 0.493270 0.091278
vt 0.493435 0.091278
vt 0.493591 0.091198
vt 0.494329 0.091278
vt 0.494329 0.090662
vt 0.493960 0.090725
vt 0.493797 0.090761
vt 0.493304 0.091154
vt 0.493922 0.091278
vt 0.493768 0.090219
vt 0.493270 0.090843
vt 0.493316 0.090902
vt 0.493713 0.091278
vt 0.493398 0.091004
vt 0.493483 0.091041
vt 0.493926 0.091147
vt 0.494096 0.091145
vt 0.494329 0.091092
vt 0.493270 0.091092
vt 0.493416 0.091184
vt 0.493814 0.091245
vt 0.494076 0.091154
vt 0.494329 0.090843
vn 0.462200 0.712300 0.528200
vn 0.644000 0.443200 0.623600
vn 0.424300 0.890700 0.163000
vn 0.237800 0.754000 0.612300
vn 0.366700 0.917600 0.153700
vn 0.743600 0.626300 -0.234000
vn -0.010400 0.891100 0.453600
vn -0.002800 0.955700 0.294400
vn 0.316700 0.948200 0.024400
vn 0.770100 0.592600 0.236000
vn -0.250500 0.854400 0.455300
vn -0.328700 0.942800 0.054900
vn 0.444500 0.895600 -0.018700
vn -0.177100 0.974500 -0.137500
vn -0.547500 0.823900 0.146100
vn -0.497300 0.867200 0.024100
vn 0.346700 0.881000 -0.321900
vn -0.371200 0.844100 -0.387000
vn -0.656600 0.727100 -0.200500
vn -0.156300 0.802300 -0.576100
vn -0.533000 0.736800 -0.416000
vn -0.862700 0.426100 -0.272400
vn -0.687000 0.218600 -0.693000
vn -0.835400 0.078000 -0.544100
vn -0.453500 -0.717200 -0.529100
vn 0.000000 -1.000000 0.000000
vn 0.954500 -0.298200 0.000000
vn 0.000000 -0.423200 -0.906100
vn 0.000000 -0.423200 0.906100
vn -0.954500 -0.298200 0.000000
usemtl Material
s off
f 3/1/1 4/1/1 5/1/1 6/1/1 7/1/1
f 4/1/2 3/1/2 8/1/2
f 6/1/3 5/1/3 9/1/3 10/1/3 11/1/3
f 7/1/4 6/1/4 12/1/4
f 6/1/5 11/1/5 13/1/5
f 14/1/6 11/1/6 10/1/6 15/1/6
f 16/1/7 17/1/7 12/1/7 6/1/7
f 16/1/8 6/1/8 13/1/8
f 11/1/9 18/1/9 13/1/9
f 19/1/10 11/1/10 14/1/10 20/1/10
f 17/1/11 16/1/11 21/1/11 22/1/11
f 23/1/12 16/1/12 13/1/12
f 11/1/13 19/1/13 24/1/13 25/1/13 18/1/13
f 18/1/14 23/1/14 13/1/14
f 21/1/15 16/1/15 26/1/15
f 23/1/16 27/1/16 26/1/16 16/1/16
f 28/1/17 18/1/17 25/1/17 29/1/17
f 30/1/18 23/1/18 18/1/18 31/1/18
f 32/1/19 33/1/19 27/1/19 23/1/19
f 31/1/20 18/1/20 28/1/20
f 34/1/21 32/1/21 23/1/21 30/1/21 35/1/21
f 33/1/22 32/1/22 36/1/22
f 37/1/23 32/1/23 34/1/23
f 36/1/24 32/1/24 37/1/24 38/1/24
f 39/1/25 40/1/25 41/1/25
f 24/2/26 19/2/26 20/3/26 43/4/26
f 29/5/26 25/6/26 24/7/26 43/8/26
f 9/9/27 5/10/27 4/11/27 8/12/27 44/13/27 45/4/27 43/14/27 20/15/27 14/16/27 15/9/27
f 43/17/26 35/18/26 30/19/26 31/20/26 28/21/26 29/22/26
f 15/23/26 10/23/26 9/23/26
f 43/17/28 45/13/28 39/4/28 41/4/28 38/24/28 37/25/28 34/16/28 35/26/28
f 40/4/26 39/4/26 45/14/26 44/17/26 46/13/26
f 8/25/29 3/27/29 7/28/29 12/29/29 17/30/29 22/31/29 46/13/29 44/4/29
f 22/32/30 21/33/30 26/16/30 27/34/30 33/35/30 36/30/30 38/36/30 41/13/30 40/13/30 46/4/30
l 1 42
o Cylinder
v -2.005453 1.761846 -0.082972
v -2.005453 1.761845 2.720695
v -1.844106 1.516770 2.720695
v -1.844106 1.516770 2.430380
v -1.891622 1.588943 2.430380
v -1.891621 1.588943 0.190489
v -1.844105 1.516770 0.190489
v -1.844105 1.516770 -0.082972
v -1.468071 0.917337 -0.082972
v -1.138580 0.291113 -0.082972
v -1.007689 0.028506 -0.082972
v -1.766636 -0.070415 -0.082973
v -2.373241 0.396294 -0.082972
v -2.472162 1.155241 -0.082972
v -2.472163 1.155241 2.720695
v -2.373242 0.396294 2.720695
v -1.766637 -0.070415 2.720695
v -1.007690 0.028505 2.720695
v -1.138580 0.291113 2.720695
v -1.468072 0.917337 2.720696
v -1.468072 0.917337 2.430380
v -1.468071 0.917337 0.190489
v -1.138580 0.291113 0.190488
v -1.078600 0.170775 0.190488
v -1.078601 0.170775 2.430380
v -1.138580 0.291113 2.430380
v -1.807220 0.056553 0.190488
v -1.807221 0.056553 2.430379
v -2.291846 0.429413 2.430380
v -2.370876 1.035747 2.430379
v -2.291845 0.429413 0.190489
v -2.370875 1.035747 0.190488
v -2.129835 1.600180 2.720695
v -2.129835 1.600180 -0.082972
v -2.472163 1.155241 2.438594
v -2.005453 1.761845 2.438594
v -1.007690 0.028505 2.438594
v -1.766637 -0.070415 2.438594
v -2.373242 0.396294 2.438594
v -2.129835 1.600180 2.438594
v -2.005453 1.761845 0.223890
v -1.007689 0.028506 0.223890
v -1.766636 -0.070415 0.223890
v -2.373241 0.396294 0.223890
v -2.129835 1.600180 0.223890
v -2.472162 1.155241 0.223890
v -1.202614 0.003099 -0.082972
v -1.202615 0.003099 2.720695
v -1.202615 0.003099 2.438594
v -1.202615 0.003099 0.223890
v -1.189691 -0.096062 2.720695
v -0.994765 -0.070656 2.720695
v -0.994765 -0.070656 0.223890
v -0.994764 -0.070656 -0.082972
v -0.994765 -0.070656 2.438594
v -1.189690 -0.096062 -0.082972
v -1.189691 -0.096062 2.438594
v -1.189690 -0.096062 0.223890
v -2.551123 1.141963 2.438594
v -2.551123 1.141963 2.720695
v -2.434220 0.317037 2.720695
v -1.827616 -0.149672 2.720695
v -1.827615 -0.149672 2.438594
v -2.434220 0.317037 2.438594
v -1.827615 -0.149672 -0.082973
v -2.434219 0.317037 -0.082972
v -2.540014 1.178166 -0.082972
v -1.827615 -0.149672 0.223890
v -2.434219 0.317037 0.223890
v -2.540014 1.178166 0.223890
v -2.209091 1.661159 -0.082972
v -2.209092 1.661158 2.720695
v -2.209091 1.661159 0.223890
v -2.209092 1.661158 2.438594
v -2.209092 1.661158 2.720695
v -2.084710 1.822824 2.720695
v -2.084710 1.822824 0.223890
v -2.084710 1.822824 -0.082972
v -2.209091 1.661159 -0.082972
v -2.209091 1.661159 0.223890
v -2.084710 1.822824 2.438594
v -2.209092 1.661158 2.438594
vt 0.255734 0.109814
vt 0.254317 0.108213
vt 0.250382 0.099322
vt 0.250563 0.099104
vt 0.250406 0.098980
vt 0.250210 0.099229
vt 0.250073 0.099659
vt 0.253337 0.106991
vt 0.253623 0.106941
vt 0.254606 0.107485
vt 0.253775 0.105734
vt 0.253525 0.104775
vt 0.253443 0.104592
vt 0.253395 0.104708
vt 0.253447 0.104757
vt 0.254140 0.105035
vt 0.254863 0.106117
vt 0.255624 0.108323
vt 0.150583 0.970126
vt 0.149844 0.970127
vt 0.149876 0.970149
vt 0.150149 0.970171
vt 0.250683 0.099127
vt 0.250341 0.099071
vt 0.249572 0.098687
vt 0.248840 0.097528
vt 0.248002 0.095142
vt 0.248003 0.093705
vt 0.249141 0.096158
vt 0.250048 0.097952
vt 0.250150 0.098186
vt 0.253717 0.105489
vt 0.253707 0.104465
vt 0.253896 0.103956
vt 0.250301 0.096409
vt 0.250270 0.096752
vt 0.249375 0.095429
vt 0.253493 0.104239
vt 0.150296 0.970371
vt 0.149501 0.970137
vt 0.149193 0.970012
vt 0.150017 0.970306
vt 0.148790 0.969710
vt 0.149044 0.969743
vt 0.253198 0.104194
vt 0.250785 0.098142
vt 0.250876 0.098943
vt 0.250686 0.099405
vt 0.252958 0.104641
vt 0.252991 0.105438
vt 0.150386 0.970175
vt 0.149998 0.970130
vt 0.254467 0.105475
vt 0.251160 0.099383
vt 0.251462 0.099125
vt 0.255607 0.106787
vt 0.253323 0.104596
vt 0.252462 0.104389
vt 0.249181 0.098308
vt 0.251990 0.104630
vt 0.248071 0.097188
vt 0.154636 0.980268
vt 0.154532 0.978853
vt 0.154815 0.979823
vt 0.155904 0.982248
vt 0.149558 0.970312
vt 0.153293 0.978749
vt 0.154294 0.978851
vt 0.149935 0.970153
vt 0.153811 0.976760
vt 0.153124 0.975733
vt 0.152785 0.975634
vt 0.153578 0.976689
vt 0.257073 0.092244
vt 0.257677 0.092244
vt 0.257677 0.092385
vt 0.257073 0.092385
vt 0.257073 0.091883
vt 0.257629 0.091883
vt 0.257629 0.092080
vt 0.257073 0.092080
vt 0.093135 0.074978
vt 0.089227 0.066619
vt 0.088271 0.066474
vt 0.092767 0.075118
vt 0.147366 0.968288
vt 0.151084 0.975350
vt 0.151924 0.975053
vt 0.147602 0.967059
vt 0.152399 0.975266
vt 0.152142 0.975118
vt 0.152418 0.975186
vt 0.147646 0.966474
vt 0.146066 0.963065
vt 0.147202 0.965558
vt 0.257073 0.091683
vt 0.257677 0.091683
vt 0.257677 0.091880
vt 0.083713 0.081564
vt 0.083760 0.081228
vt 0.083392 0.081368
vt 0.083649 0.081516
vt 0.079852 0.072869
vt 0.078551 0.071233
vt 0.077316 0.069315
vt 0.078896 0.072724
vt 0.152418 0.975423
vt 0.152463 0.975314
vt 0.147301 0.964983
vt 0.147300 0.966346
vt 0.147287 0.967328
vt 0.147322 0.966205
vt 0.148410 0.968752
vt 0.148257 0.969177
vt 0.148419 0.969351
vt 0.148095 0.968610
vt 0.257629 0.092241
vt 0.152051 0.975624
vt 0.151474 0.975536
vt 0.151857 0.975191
vt 0.152205 0.975399
vt 0.152611 0.975357
vt 0.153648 0.976292
vt 0.151532 0.975121
vt 0.152349 0.975317
vt 0.152467 0.975470
vt 0.153435 0.976151
vt 0.153523 0.976779
vt 0.153653 0.976346
vt 0.154513 0.977549
vt 0.154337 0.978393
vt 0.149742 0.970162
vt 0.255418 0.107838
vt 0.255604 0.106948
vt 0.154516 0.977396
vt 0.154391 0.978318
vt 0.149730 0.970106
vt 0.255475 0.107758
vt 0.255922 0.109345
vt 0.251005 0.099173
vn 0.835200 0.549900 0.000000
vn 0.000000 0.000000 -1.000000
vn -0.609800 -0.792600 0.000000
vn -0.000000 -0.000000 1.000000
vn 0.847100 0.531400 -0.000000
vn 0.885000 0.465600 0.000000
vn 0.895000 0.446100 0.000000
vn -0.154900 0.987900 0.000000
vn 0.609800 0.792600 0.000000
vn 0.755800 -0.654800 0.000000
vn 0.991600 0.129200 0.000000
vn -0.792600 0.609800 -0.000000
vn -0.991600 -0.129200 -0.000000
vn 0.129200 -0.991600 -0.000000
vn 0.320100 0.947400 0.000000
vn 0.083700 -0.996500 -0.000000
vn -0.990100 -0.140300 0.000000
vn -0.165800 0.986200 0.000000
vn -0.992500 -0.121900 -0.000000
vn -0.824900 0.565200 -0.000000
vn -0.835100 0.550100 0.000000
usemtl Material.001
s off
f 47/37/31 87/38/31 82/39/31 48/40/31 49/41/31 50/42/31 51/43/31 52/44/31 53/45/31 54/46/31
f 47/37/32 54/46/32 55/47/32 56/48/32 57/49/32 93/50/32 58/51/32 59/52/32 60/53/32 80/54/32
f 86/55/33 79/56/33 121/57/33 128/58/33
f 49/41/34 48/40/34 79/59/34 61/60/34 62/61/34 63/62/34 94/63/34 64/64/34 65/65/34 66/66/34
f 50/42/35 49/41/35 66/66/35 67/67/35
f 54/46/35 53/45/35 68/68/35 55/47/35
f 55/47/36 68/68/36 69/69/36 56/48/36
f 56/48/37 69/69/37 70/70/37 71/71/37 72/72/37 65/65/37 64/64/37 83/73/37 88/74/37 57/49/37
f 81/75/32 85/76/32 110/77/32 105/78/32
f 62/79/34 61/76/34 106/56/34 107/80/34
f 67/67/36 66/66/36 65/65/36 72/72/36
f 71/71/38 70/70/38 73/81/38 74/82/38
f 51/43/32 50/42/32 67/67/32 72/72/32 71/71/32 74/82/32 75/83/32 76/84/32
f 73/81/39 77/85/39 75/83/39 74/82/39
f 70/70/34 69/69/34 68/68/34 53/45/34 52/44/34 78/86/34 77/85/34 73/81/34
f 52/44/40 51/43/40 76/84/40 78/86/40
f 77/85/41 78/86/41 76/84/41 75/83/41
f 79/56/39 86/55/39 120/87/39 118/88/39
f 92/89/42 81/90/42 86/91/42 91/92/42
f 90/93/43 85/60/43 81/90/43 92/89/43
f 89/94/33 84/95/33 85/60/33 90/93/33
f 96/96/44 95/97/44 84/95/44 89/94/44
f 47/98/32 80/99/32 125/100/32 124/101/32
f 82/102/39 87/103/39 123/104/39 127/105/39
f 60/106/32 59/107/32 112/108/32 113/109/32
f 92/110/45 60/111/45 113/112/45 116/113/45
f 94/114/43 95/115/43 103/116/43 97/117/43
f 88/118/41 83/119/41 101/120/41 99/121/41
f 95/122/43 96/123/43 104/124/43 103/125/43
f 100/126/44 99/127/44 104/124/44 102/128/44
f 99/127/44 101/129/44 103/125/44 104/124/44
f 101/129/44 98/130/44 97/131/44 103/125/44
f 96/132/43 93/133/43 102/134/43 104/114/43
f 57/135/41 88/136/41 99/137/41 100/138/41
f 83/139/41 64/140/41 98/141/41 101/142/41
f 93/143/32 57/144/32 100/126/32 102/128/32
f 64/145/34 94/146/34 97/131/34 98/130/34
f 103/147/46 97/148/46 108/149/46 109/150/46
f 109/150/33 108/149/33 107/80/33 110/77/33
f 110/77/47 107/80/47 106/56/47 105/78/47
f 85/76/32 84/151/32 109/150/32 110/77/32
f 63/152/34 62/79/34 107/80/34 108/149/34
f 84/151/32 95/122/32 103/147/32 109/150/32
f 61/117/48 81/116/48 105/153/48 106/110/48
f 102/154/46 104/155/46 114/156/46 111/157/46
f 111/157/33 114/156/33 115/158/33 112/108/33
f 112/108/49 115/158/49 116/159/49 113/109/49
f 89/160/34 90/161/34 115/158/34 114/156/34
f 58/162/32 93/143/32 102/154/32 111/157/32
f 59/107/32 58/162/32 111/157/32 112/108/32
f 90/161/34 92/163/34 116/159/34 115/158/34
f 94/146/34 63/152/34 108/149/34 97/148/34
f 96/123/34 89/160/34 114/156/34 104/155/34
f 113/164/50 116/165/50 119/166/50 117/167/50
f 105/78/51 106/168/51 118/88/51 120/87/51
f 91/92/39 80/54/39 117/169/39 119/170/39
f 86/55/32 81/75/32 105/78/32 120/87/32
f 92/163/34 91/171/34 119/166/34 116/165/34
f 128/58/42 121/57/42 122/56/42 127/105/42
f 126/172/42 128/58/42 127/105/42 123/104/42
f 125/100/42 126/172/42 123/104/42 124/101/42
f 87/103/39 47/98/39 124/101/39 123/104/39
f 48/173/39 82/102/39 127/105/39 122/56/39
f 80/54/33 91/92/33 126/174/33 125/175/33
f 91/92/33 86/91/33 128/176/33 126/174/33
f 79/56/34 48/173/34 122/56/34 121/57/34
f 61/76/34 79/56/34 118/88/34 106/168/34
f 80/99/32 60/106/32 113/164/32 117/167/32
o BottomChest_Cube.002
v -1.008944 -1.525153 2.002162
v -1.296480 -0.036848 2.769958
v -1.008944 -1.525153 0.583975
v -1.296480 -0.036848 -0.102383
v 0.409243 -1.525153 2.002162
v 0.703520 -0.036848 2.769958
v 0.409243 -1.525153 0.583975
v 0.703520 -0.036848 -0.102383
v -1.296480 -0.036848 0.233727
v -1.008944 -1.525153 0.749926
v 0.703520 -0.036848 0.233727
v 0.409243 -1.525153 0.749926
v 0.454302 -0.036848 -0.102383
v 0.232524 -1.525153 0.583975
v 0.454302 -0.036848 2.769958
v 0.232524 -1.525153 2.002162
v 0.454302 -0.036848 0.233727
v 0.232524 -1.525153 0.749926
v -1.008944 -1.525153 1.898236
v 0.703520 -0.036848 2.559470
v -1.296480 -0.036848 2.559470
v 0.409243 -1.525153 1.898236
v 0.232524 -1.525153 1.898236
v 0.454302 -0.036848 2.559470
v -0.870560 -1.525153 0.583975
v -1.101325 -0.036848 2.769958
v -1.101325 -0.036848 0.233727
v -1.101325 -0.036848 -0.102383
v -0.870560 -1.525153 2.002162
v -0.870560 -1.525153 0.749926
v -0.870560 -1.525153 1.898236
v -1.101325 -0.036848 2.559470
v 0.030497 -1.393547 0.867338
v 0.030497 -1.393547 1.925860
v -0.677520 -1.393547 0.867338
v -0.677520 -1.393547 1.925860
v 0.525013 -0.054803 -0.170776
v 0.774231 -0.054803 -0.170776
v 0.459384 -1.537884 0.535478
v 0.459384 -1.537884 0.701429
v 0.774231 -0.054803 0.165334
v 0.282665 -1.537884 0.535478
v 0.774231 -0.058678 2.626726
v 0.774231 -0.058678 2.837214
v 0.459384 -1.540632 2.049853
v 0.282665 -1.540632 2.049853
v 0.525013 -0.058678 2.837214
v 0.459384 -1.540632 1.945927
v -1.059084 -1.540632 2.049853
v -1.367191 -0.058678 2.837214
v -1.059084 -1.540632 1.945927
v -1.172036 -0.058678 2.837214
v -1.367191 -0.058678 2.626726
v -0.920701 -1.540632 2.049853
v -1.367191 -0.054803 0.165334
v -1.367191 -0.054803 -0.170776
v -1.059084 -1.537884 0.535478
v -0.920701 -1.537884 0.535478
v -1.059084 -1.537884 0.701429
v -1.172036 -0.054803 -0.170776
vt 0.425450 0.921941
vt 0.427168 0.921941
vt 0.427168 0.923658
vt 0.425450 0.923658
vt 0.494329 0.091278
vt 0.493270 0.091278
vt 0.493270 0.090219
vt 0.494329 0.090219
vn -0.246100 0.969200 0.000000
vn 0.000000 -0.967200 0.253900
vn 0.000000 -0.951200 -0.308700
vn -0.295000 0.955500 0.000000
vn 0.000000 -1.000000 0.000000
vn 0.000000 1.000000 0.000000
vn 0.246100 0.969200 0.000000
vn -0.981800 -0.189700 0.000000
vn -0.295000 -0.955500 0.000000
vn 0.000000 -0.418800 -0.908100
vn 0.295000 -0.955500 0.000000
vn 0.981000 -0.194000 0.000000
vn 0.000000 0.967200 -0.253900
vn 0.000000 0.423200 -0.906100
vn 0.000000 -0.458500 0.888700
vn -0.954500 0.298200 0.000000
vn 0.000000 0.423200 0.906100
vn 0.954500 0.298200 0.000000
vn 0.000000 -0.429900 -0.902900
vn 0.978200 -0.207700 0.000000
vn -0.706800 -0.206700 -0.676500
vn -0.246100 -0.969200 0.000000
vn 0.705000 0.103900 0.701600
vn 0.978200 -0.207800 0.000000
vn 0.000000 -0.469200 0.883100
vn 0.000000 0.951200 0.308700
vn 0.295000 0.955500 0.000000
vn 0.706100 0.166200 -0.688400
vn -0.706900 -0.238200 0.665900
vn -0.979100 -0.203600 0.000000
vn 0.707000 -0.234600 0.667200
vn -0.706200 0.169000 -0.687600
vn -0.979100 -0.203400 0.000000
vn 0.706900 -0.202900 -0.677600
vn -0.705100 0.106900 0.701000
vn 0.246100 -0.969200 0.000000
usemtl Material.002
s off
f 137/177/52 132/178/52 184/179/52 183/180/52
f 135/177/53 142/178/53 170/179/53 167/180/53
f 144/177/54 133/178/54 173/179/54 174/180/54
f 130/177/55 149/178/55 181/179/55 178/180/55
f 146/177/56 142/178/56 135/179/56 140/180/56
f 155/177/57 156/178/57 132/179/57 137/180/57
f 160/181/57 155/182/57 137/183/57 149/184/57
f 151/181/56 146/182/56 140/183/56 150/184/56
f 136/177/58 139/178/58 169/179/58 166/180/58
f 149/181/59 137/182/59 138/183/59 147/184/59
f 159/181/56 158/182/56 146/183/56 151/184/56
f 148/181/57 139/182/57 145/183/57 152/184/57
f 139/177/57 136/178/57 141/179/57 145/180/57
f 158/181/56 153/182/56 142/183/56 146/184/56
f 133/177/60 150/178/60 176/179/60 173/180/60
f 156/181/61 141/182/61 142/183/61 153/184/61
f 134/177/57 148/178/57 152/179/57 143/180/57
f 157/181/56 159/182/56 151/183/56 144/184/56
f 147/177/62 129/178/62 177/179/62 179/180/62
f 144/177/56 151/178/56 150/179/56 133/180/56
f 154/177/57 160/178/57 149/179/57 130/180/57
f 139/181/63 148/182/63 150/183/63 140/184/63
f 143/181/57 152/182/57 160/183/57 154/184/57
f 129/177/56 147/178/56 159/179/56 157/180/56
f 132/177/64 156/178/64 188/179/64 184/180/64
f 138/177/56 131/178/56 153/179/56 158/180/56
f 147/181/56 138/182/56 158/183/56 159/184/56
f 160/181/65 152/182/65 162/183/65 164/184/65
f 145/181/57 141/182/57 156/183/57 155/184/57
f 143/181/66 154/182/66 157/183/66 144/184/66
f 162/181/57 161/182/57 163/183/57 164/184/57
f 152/181/67 145/182/67 161/183/67 162/184/67
f 145/181/68 155/182/68 163/183/68 161/184/68
f 155/181/69 160/182/69 164/183/69 163/184/69
f 165/177/70 166/178/70 167/179/70 170/180/70
f 166/177/71 169/178/71 168/179/71 167/180/71
f 141/177/64 136/178/64 166/179/64 165/180/64
f 142/177/72 141/178/72 165/179/72 170/180/72
f 140/177/73 135/178/73 167/179/73 168/180/73
f 139/177/74 140/178/74 168/179/74 169/180/74
f 171/177/75 172/178/75 173/179/75 176/180/75
f 172/177/76 175/178/76 174/179/76 173/180/76
f 134/177/77 143/178/77 175/179/77 172/180/77
f 148/177/78 134/178/78 172/179/78 171/180/78
f 150/177/79 148/178/79 171/179/79 176/180/79
f 143/177/80 144/178/80 174/179/80 175/180/80
f 180/177/76 178/178/76 177/179/76 182/180/76
f 178/177/81 181/178/81 179/179/81 177/180/81
f 154/177/77 130/178/77 178/179/77 180/180/77
f 157/181/82 154/182/82 180/183/82 182/184/82
f 129/177/54 157/178/54 182/179/54 177/180/54
f 149/177/83 147/178/83 179/179/83 181/180/83
f 183/177/84 184/178/84 185/179/84 187/180/84
f 184/177/70 188/178/70 186/179/70 185/180/70
f 156/177/85 153/178/85 186/179/85 188/180/85
f 138/177/86 137/178/86 183/179/86 187/180/86
f 153/177/53 131/178/53 185/179/53 186/180/53
f 131/177/87 138/178/87 187/179/87 185/180/87
