# Blender v2.75 (sub 0) OBJ File: 'PirateSword.blend'
# www.blender.org
mtllib PirateSword.mtl
o Sword_Cube.002
v -0.023536 0.278295 -0.127700
v -0.008120 0.226888 -0.127700
v -0.192103 0.166538 -0.117367
v -0.203192 0.203374 -0.117367
v -0.051633 0.263118 -0.021089
v -0.073079 0.253941 -0.012772
v 0.121873 0.291029 -0.097124
v -0.184815 0.174943 -0.000000
v -0.223130 0.107447 -0.101881
v 0.128739 0.330215 0.000000
v -0.050171 0.263693 -0.021650
v -0.046740 0.265028 -0.022608
v 0.030037 0.293076 -0.001723
v 0.032659 0.294041 -0.001172
v 0.032669 0.293995 -0.000000
v -0.194671 0.201590 -0.000000
v -0.105835 0.239408 -0.000000
v 0.114400 0.325116 -0.097124
v -0.033652 0.219211 -0.033433
v -0.000631 0.235545 -0.024830
v -0.025792 0.223037 -0.032657
v -0.039606 0.217471 -0.033658
v -0.096949 0.200653 -0.009803
v -0.105304 0.198188 -0.000150
v -0.105304 0.198188 -0.000000
v -0.236028 0.103602 -0.000000
v -0.245421 0.134357 -0.101881
v 0.114400 0.325116 0.097124
v 0.032665 0.294015 0.007163
v -0.012164 0.277172 0.025486
v -0.023536 0.278295 0.127700
v -0.046823 0.265716 0.039340
v -0.048194 0.265146 0.039782
v -0.117856 0.234625 0.011094
v -0.120892 0.233305 0.010198
v -0.120850 0.233191 0.005796
v 0.160024 0.345429 -0.055309
v 0.136388 0.298014 0.000000
v 0.042251 0.255162 -0.000000
v 0.042062 0.255054 -0.005528
v 0.033550 0.251144 -0.014766
v -0.083498 0.202850 0.032046
v -0.192103 0.166538 0.117367
v -0.105238 0.198049 0.002963
v -0.104431 0.197476 0.018101
v -0.095182 0.199711 0.026865
v -0.223130 0.107447 0.101881
v -0.251607 -0.007924 -0.071655
v -0.262247 -0.011242 -0.000000
v -0.044621 0.266453 0.038642
v 0.160024 0.345429 0.055309
v 0.160024 0.345429 0.000000
v -0.256103 0.128328 -0.000000
v -0.203192 0.203374 0.117367
v 0.169014 0.325555 -0.055309
v -0.008120 0.226888 0.127700
v -0.029224 0.220543 0.049781
v -0.025465 0.222283 0.049073
v 0.034908 0.250881 0.022428
v 0.042575 0.254788 0.012441
v 0.042509 0.255038 0.005769
v -0.038936 0.217342 0.051173
v -0.251607 -0.007924 0.071655
v -0.275816 0.002285 -0.071655
v 0.169014 0.325555 0.055309
v 0.176362 0.371218 -0.031973
v 0.176362 0.371218 0.000000
v 0.169014 0.325555 0.000000
v 0.121873 0.291029 0.097124
v -0.245421 0.134357 0.101881
v -0.275816 0.002285 0.071655
v -0.268023 -0.118397 -0.051566
v -0.275963 -0.121576 -0.000000
v -0.268023 -0.118397 0.051566
v 0.176362 0.371218 0.031974
v 0.195160 0.351200 0.031974
v -0.282889 -0.001816 -0.000000
v 0.195160 0.351200 -0.031973
v 0.174263 0.403160 0.012454
v 0.174263 0.403160 -0.003217
v 0.195160 0.351200 0.000000
v -0.287289 -0.118732 0.051566
v -0.287289 -0.118732 -0.051566
v 0.174263 0.403160 0.028124
v 0.163641 0.416888 0.012454
v 0.163641 0.416888 -0.003217
v 0.187680 0.397962 -0.003217
v 0.187680 0.397962 0.012454
v -0.291854 -0.120790 -0.000000
v -0.237765 -0.214299 -0.039974
v -0.244629 -0.217405 -0.000000
v -0.237765 -0.214299 0.039974
v -0.254539 -0.222908 0.039974
v 0.187680 0.397962 0.028124
v 0.163641 0.416888 0.028124
v 0.175485 0.423982 -0.003217
v 0.132429 0.429640 0.015125
v 0.132429 0.429640 -0.000546
v 0.175485 0.423982 0.012454
v -0.260181 -0.225040 -0.000000
v -0.254539 -0.222908 -0.039974
v 0.175485 0.423982 0.028124
v 0.132429 0.429640 0.030795
v 0.129598 0.441033 0.015125
v 0.129598 0.441033 -0.000546
v -0.158532 -0.302548 -0.040290
v -0.165258 -0.306168 -0.007797
v -0.161131 -0.301596 0.025009
v -0.159850 -0.316085 0.025272
v -0.164556 -0.319746 -0.007571
v 0.129598 0.441033 0.030795
v -0.157251 -0.317037 -0.040028
v -0.113090 -0.344359 -0.037872
v -0.109785 -0.333404 -0.037900
v -0.119944 -0.334851 -0.005575
v -0.120138 -0.331852 -0.017568
v -0.119975 -0.330130 -0.025166
v -0.115741 -0.330327 0.027235
v -0.118933 -0.341400 0.027269
v -0.123001 -0.345455 -0.005542
v -0.123274 -0.340979 -0.025110
v -0.123335 -0.341759 -0.021401
v 0.012367 -0.378248 -0.022538
v 0.025290 -0.381562 -0.020500
v 0.011571 -0.379843 -0.022654
v 0.012233 -0.378579 -0.022558
v 0.012698 -0.381977 0.000392
v 0.020892 -0.383929 0.000747
v 0.012434 -0.378674 -0.019964
v 0.031709 -0.393701 -0.020068
v 0.007262 -0.387988 -0.023772
v 0.014948 -0.378715 0.022799
v 0.023590 -0.380939 0.022197
v 0.015207 -0.379985 0.015715
v 0.015980 -0.379274 0.021004
v 0.016017 -0.379223 0.021356
v 0.096059 -0.369491 0.000876
v 0.093071 -0.368217 -0.010561
v 0.096526 -0.374752 -0.010328
v 0.026932 -0.395472 0.001155
v 0.007887 -0.391293 0.000336
v 0.009609 -0.385819 0.023881
v 0.030009 -0.393079 0.022630
v 0.014244 -0.379950 0.022967
v 0.092156 -0.367882 0.012423
v 0.008100 -0.387934 0.024036
v 0.010921 -0.389127 0.020162
v 0.095611 -0.374417 0.012656
v 0.099310 -0.375705 0.001096
v -0.011637 -0.001596 -0.067966
v -0.030544 0.128024 -0.062148
v 0.029036 0.129993 -0.064728
v 0.050587 0.000461 -0.070661
v -0.032069 -0.190192 -0.073784
v -0.053702 -0.003870 -0.022046
v -0.070823 0.125846 -0.018178
v 0.073018 0.130600 -0.024409
v 0.096519 0.001095 -0.028553
v 0.031974 -0.200715 -0.076594
v -0.075543 -0.183983 -0.025914
v -0.050967 -0.005030 0.040199
v -0.068205 0.124735 0.041423
v 0.075636 0.129489 0.035193
v 0.099254 -0.000065 0.033692
v -0.032334 -0.368687 -0.074340
v -0.089295 -0.357566 -0.069505
v -0.072982 -0.185724 0.038975
v -0.005035 -0.004396 0.082307
v -0.024223 0.125342 0.081743
v 0.079070 -0.209386 -0.032697
v 0.035358 0.127312 0.079162
v 0.057189 -0.002339 0.079612
v 0.011131 -0.378058 -0.036730
v -0.126384 -0.351210 -0.025058
v -0.025886 -0.194395 0.082871
v 0.081631 -0.211127 0.032191
v -0.042978 -0.404434 -0.064078
v -0.091261 -0.395007 -0.059979
v -0.006133 -0.412378 -0.032197
v -0.122701 -0.389619 -0.022303
v -0.121875 -0.353341 0.032966
v 0.038157 -0.204917 0.080062
v -0.048941 -0.416835 -0.053557
v -0.088739 -0.409065 -0.050179
v -0.002311 -0.414184 0.016988
v -0.018573 -0.423382 -0.027280
v -0.118879 -0.391425 0.026882
v -0.114652 -0.404624 -0.019125
v -0.078410 -0.362712 0.070576
v -0.021449 -0.373833 0.065741
v -0.058185 -0.428811 -0.032721
v -0.081386 -0.424281 -0.030751
v -0.033751 -0.408796 0.054664
v -0.015423 -0.424872 0.013260
v -0.040481 -0.432627 -0.017402
v -0.082034 -0.399369 0.058763
v -0.111502 -0.406113 0.021415
v -0.096493 -0.421692 -0.012647
v -0.068720 -0.433433 -0.003333
v -0.041336 -0.420430 0.044314
v -0.038645 -0.433495 0.006232
v -0.081133 -0.412660 0.047692
v -0.094656 -0.422560 0.010986
v -0.053752 -0.430906 0.024336
v -0.076952 -0.426376 0.026305
v -0.149801 0.625136 -0.025709
v -0.250906 0.583881 0.002683
v -0.048695 0.666391 -0.004298
v -0.185483 0.852531 -0.027488
v -0.066413 0.838832 -0.006077
v -0.048695 0.666391 0.010290
v -0.250906 0.583881 0.013310
v -0.304553 0.866230 0.000904
v -0.066413 0.838832 0.000253
v -0.149801 0.625136 0.042877
v -0.304553 0.866230 0.003272
v -0.303784 1.152039 -0.002155
v -0.169116 1.121084 -0.030546
v -0.034448 1.090129 -0.009136
v -0.034448 1.090129 0.001398
v -0.185483 0.852531 0.032840
v -0.303784 1.152039 0.004417
v 0.125556 1.505318 -0.012711
v 0.125556 1.505318 -0.003893
v -0.169116 1.121084 0.033985
v -0.157777 1.652317 -0.000874
v -0.157777 1.652317 -0.005730
v -0.016110 1.578817 -0.034121
v 0.337149 1.863570 -0.017493
v 0.337149 1.863570 0.000890
v -0.016110 1.578817 0.028694
v 0.139555 2.340660 0.003909
v 0.139555 2.340660 -0.010512
v 0.288105 1.920144 -0.020041
v 0.287444 1.921306 0.009415
v 0.237479 2.016908 0.007907
v 0.167053 2.170141 -0.020041
v 0.165748 2.172437 0.009415
v 0.153874 2.323722 0.009415
v 0.237246 2.017578 -0.018818
v 0.249307 1.991179 -0.020041
v 0.249174 1.991412 0.009415
v 0.154934 2.317880 -0.020041
v 0.212326 2.071743 0.009415
v 0.213220 2.070170 -0.020041
vn -0.051000 -0.015300 -0.998600
vn -0.383200 0.923200 0.030400
vn 0.201000 0.053800 -0.978100
vn 0.300200 -0.953500 0.027500
vn -0.214200 -0.112100 -0.970300
vn -0.340900 0.939800 0.024400
vn -0.391300 0.919300 0.042400
vn 0.433700 -0.900000 0.044200
vn 0.847200 -0.530300 0.032700
vn -0.352800 0.935700 -0.003000
vn -0.807500 0.589700 0.013100
vn -0.386200 0.921700 -0.036100
vn 0.596800 0.182100 -0.781400
vn 0.414300 -0.910100 0.003500
vn 0.280200 -0.958600 -0.051200
vn 0.847200 -0.530300 -0.032700
vn -0.158500 -0.198600 -0.967200
vn 0.969100 -0.214100 0.122600
vn -0.330400 0.942700 -0.047100
vn -0.423600 0.905800 -0.009500
vn -0.423600 0.905800 0.009500
vn 0.621500 -0.783100 -0.023300
vn 0.426200 -0.904400 -0.021500
vn 0.312000 -0.950000 -0.007100
vn 0.969100 -0.214100 -0.122600
vn 0.201000 0.053800 0.978100
vn 0.596800 0.182100 0.781400
vn -0.807500 0.589700 -0.013100
vn -0.975300 0.202500 -0.088000
vn -0.051000 -0.015300 0.998600
vn 0.482200 0.335900 -0.809100
vn -0.844800 0.535100 0.000000
vn -0.214200 -0.112100 0.970300
vn -0.158500 -0.198600 0.967200
vn -0.037800 -0.166500 -0.985300
vn 0.982500 -0.121200 0.141800
vn 0.982500 -0.121200 -0.141800
vn 0.482200 0.335900 0.809100
vn -0.997800 -0.065600 0.000000
vn 0.621500 -0.783100 0.023300
vn 0.700200 -0.713900 -0.000000
vn -0.037800 -0.166500 0.985300
vn -0.975300 0.202500 0.088000
vn -0.993000 0.077000 -0.089900
vn 0.441400 0.563800 -0.698100
vn -0.790900 -0.611900 0.000000
vn 0.987400 0.157900 0.000000
vn -0.993000 0.077000 0.089900
vn 0.026500 -0.106800 -0.993900
vn 0.934700 0.310700 0.172500
vn 0.934700 0.310700 -0.172500
vn 0.026500 -0.106800 0.993900
vn 0.083800 0.107100 0.990700
vn 0.000000 0.000000 -1.000000
vn -0.378200 -0.925700 0.000000
vn 0.905500 0.424400 0.000000
vn -0.946700 -0.299300 0.119300
vn 0.000000 0.000000 1.000000
vn -0.946700 -0.299300 -0.119300
vn -0.058200 0.028400 -0.997900
vn -0.970500 -0.241200 0.000000
vn 0.348300 0.937400 0.000000
vn -0.008200 -0.005900 -0.999900
vn 0.734500 0.649100 0.198000
vn 0.724600 0.665300 -0.179600
vn 0.107600 -0.060900 0.992300
vn -0.685000 -0.712100 0.154000
vn 0.058200 -0.028400 0.997900
vn -0.692700 -0.700800 -0.170600
vn 0.039800 -0.014600 -0.999100
vn 0.517100 0.832300 0.199800
vn 0.532300 0.826700 -0.182200
vn -0.039800 0.014600 0.999100
vn -0.524600 -0.834600 0.168200
vn -0.510500 -0.839700 -0.185000
vn 0.154500 -0.005200 -0.988000
vn 0.222700 0.962800 0.153400
vn 0.161000 0.050000 -0.985700
vn 0.235200 0.958100 -0.163100
vn -0.196600 0.975300 0.100200
vn 0.137700 0.037600 -0.989800
vn -0.207300 -0.969900 -0.127600
vn 0.090500 0.083200 0.992400
vn -0.195200 0.970400 -0.142400
vn 0.275200 -0.959300 -0.063200
vn 0.873700 0.453400 -0.176400
vn -0.217900 -0.966000 0.138900
vn 0.069400 0.023300 0.997300
vn 0.121800 0.099600 0.987500
vn 0.859000 0.459900 0.224900
vn 0.274100 -0.955200 0.111600
vn -0.044500 0.038300 -0.998300
vn -0.041200 0.034200 -0.998600
vn -0.733300 -0.076600 -0.675600
vn -0.051100 0.298400 -0.953100
vn 0.667600 0.144500 -0.730400
vn -0.732900 0.101700 -0.672700
vn -0.990400 -0.131900 0.041100
vn -0.721400 -0.177000 -0.669600
vn 0.099500 0.376200 -0.921200
vn -0.431100 0.233900 -0.871400
vn 0.676300 -0.041200 -0.735400
vn 0.648800 0.269300 -0.711700
vn 0.982900 0.179600 -0.039800
vn -0.062500 0.003200 -0.998000
vn -0.719200 0.222300 -0.658300
vn -0.991800 0.119900 0.044000
vn -0.671900 -0.096200 0.734400
vn -0.898700 -0.437500 0.031300
vn -0.902700 -0.430300 0.000000
vn 0.968400 0.246600 -0.037900
vn 0.995700 -0.082300 -0.043300
vn 0.728500 0.125000 0.673500
vn 0.622400 -0.240600 -0.744800
vn -0.955700 0.290800 0.045500
vn -0.673300 0.076500 0.735400
vn 0.042900 0.010700 0.999000
vn -0.671700 -0.099100 0.734200
vn 0.966900 0.255100 0.000000
vn 0.735800 -0.066900 0.673900
vn 0.695500 0.301900 0.652000
vn -0.128200 -0.238200 -0.962700
vn 0.557800 -0.378200 -0.738800
vn -0.770700 -0.118800 -0.626100
vn -0.957400 0.276200 0.084500
vn -0.644000 0.153600 0.749500
vn 0.043400 -0.001800 0.999100
vn 0.030500 0.319600 0.947100
vn -0.443900 0.217800 0.869200
vn 0.924900 -0.370500 -0.085500
vn 0.931600 -0.360600 -0.046400
vn 0.199000 0.409500 0.890300
vn -0.181200 -0.584100 -0.791200
vn 0.885500 -0.456700 -0.085600
vn 0.376600 -0.697900 -0.609200
vn -0.993200 -0.090000 0.073900
vn -0.703600 -0.487000 -0.517500
vn 0.046100 -0.093800 0.994500
vn 0.885500 -0.456800 -0.085600
vn 0.695900 -0.307100 0.649100
vn -0.204600 -0.806700 -0.554400
vn 0.662900 -0.427900 0.614400
vn 0.643100 -0.761800 -0.078000
vn 0.180200 -0.885200 -0.428800
vn -0.665500 -0.168500 0.727100
vn -0.884600 -0.463500 0.051700
vn -0.564900 -0.739800 -0.365600
vn -0.205000 -0.952900 -0.223400
vn 0.020500 -0.308500 0.951000
vn 0.462100 -0.738300 0.491200
vn 0.364000 -0.929300 -0.062400
vn -0.059600 -0.982600 -0.175900
vn -0.618100 -0.527400 0.582900
vn -0.689700 -0.723600 0.027000
vn -0.341200 -0.927600 -0.152000
vn -0.060300 -0.641200 0.765000
vn 0.239200 -0.913100 0.330200
vn 0.009800 -0.999200 -0.037500
vn -0.505900 -0.767600 0.393400
vn -0.388300 -0.921500 -0.003700
vn -0.121200 -0.846200 0.519000
vn -0.037300 -0.993100 0.110900
vn -0.318900 -0.938200 0.134800
vn -0.173500 -0.967800 0.182200
vn 0.241300 0.060700 -0.968600
vn -0.240300 -0.077100 -0.967600
vn 0.193700 0.034100 -0.980500
vn -0.312200 -0.124100 -0.941900
vn -0.243600 -0.049500 -0.968600
vn 0.188900 0.016500 -0.981900
vn 0.977000 0.213500 0.000000
vn -0.937600 -0.347700 0.000000
vn 0.994800 0.102200 0.000000
vn 0.354900 0.069700 0.932300
vn -0.242100 -0.098400 0.965200
vn -0.982400 -0.186700 0.000000
vn -0.219100 -0.004000 -0.975700
vn 0.161800 -0.026600 -0.986500
vn 0.992000 -0.126200 0.000000
vn 0.273100 0.084600 0.958300
vn 0.279700 0.070700 0.957500
vn -0.339500 -0.103900 0.934900
vn -0.258500 -0.007300 0.966000
vn -1.000000 0.002700 0.000000
vn 0.244200 -0.027000 0.969300
vn 0.933100 -0.359600 0.000000
vn -0.226500 0.003000 0.974000
vn -0.960000 0.280200 0.000000
vn -0.182900 0.049800 -0.981900
vn 0.132400 -0.055600 -0.989600
vn 0.206700 -0.062300 0.976400
vn 0.861000 -0.508500 0.000000
vn -0.184000 0.068300 0.980500
vn -0.918000 0.396500 0.000000
vn 0.066800 -0.028800 -0.997300
vn 0.112000 -0.053000 0.992300
vn 0.756600 0.653900 -0.005400
vn -0.074500 0.044300 0.996200
vn 0.796400 0.601700 -0.060900
vn -0.090900 0.043800 -0.994900
vn 0.877700 0.479300 0.000500
vn 0.909300 0.416200 0.003200
vn 0.996400 0.079900 0.029000
vn 0.907700 0.419500 0.006300
usemtl Middle
s off
f 1//1 2//1 3//1 4//1
f 5//2 1//2 4//2 6//2
f 2//3 1//3 18//3 7//3
f 3//4 2//4 19//4 22//4 23//4 24//4 25//4 8//4
f 3//5 9//5 27//5 4//5
f 15//6 10//6 18//6 1//6 5//6 11//6 12//6 13//6 14//6
f 6//7 4//7 16//7 17//7
f 19//8 2//8 7//8 20//8 21//8
f 8//9 26//9 9//9 3//9
f 28//10 10//10 15//10 29//10 30//10
f 4//11 27//11 53//11 16//11
f 17//12 16//12 54//12 31//12 32//12 33//12 34//12 35//12 36//12
f 18//13 37//13 55//13 7//13
f 20//14 7//14 38//14 39//14 40//14 41//14
f 42//15 43//15 8//15 25//15 44//15 45//15 46//15
f 26//16 8//16 43//16 47//16
f 9//17 48//17 64//17 27//17
f 26//18 49//18 48//18 9//18
f 28//19 30//19 50//19 32//19 31//19
f 28//20 51//20 52//20 10//20
f 10//21 52//21 37//21 18//21
f 7//22 55//22 68//22 38//22
f 39//23 38//23 69//23 56//23 57//23 58//23 59//23 60//23 61//23
f 57//24 56//24 43//24 42//24 62//24
f 47//25 63//25 49//25 26//25
f 31//26 56//26 69//26 28//26
f 51//27 28//27 69//27 65//27
f 16//28 53//28 70//28 54//28
f 27//29 64//29 77//29 53//29
f 56//30 31//30 54//30 43//30
f 37//31 66//31 78//31 55//31
f 37//32 52//32 67//32 66//32
f 47//33 43//33 54//33 70//33
f 63//34 47//34 70//34 71//34
f 48//35 72//35 83//35 64//35
f 49//36 73//36 72//36 48//36
f 63//37 74//37 73//37 49//37
f 52//32 51//32 75//32 67//32
f 65//38 76//38 75//38 51//38
f 66//39 67//39 79//39 80//39
f 38//40 68//40 65//40 69//40
f 68//41 55//41 78//41 81//41
f 71//42 82//42 74//42 63//42
f 67//39 75//39 84//39 79//39
f 65//41 68//41 81//41 76//41
f 53//43 77//43 71//43 70//43
f 64//44 83//44 89//44 77//44
f 66//45 80//45 87//45 78//45
f 80//46 79//46 85//46 86//46
f 81//47 78//47 87//47 88//47
f 82//48 71//48 77//48 89//48
f 72//49 90//49 101//49 83//49
f 73//50 91//50 90//50 72//50
f 74//51 92//51 91//51 73//51
f 82//52 93//52 92//52 74//52
f 76//53 94//53 84//53 75//53
f 79//46 84//46 95//46 85//46
f 76//47 81//47 88//47 94//47
f 87//54 80//54 86//54 96//54
f 86//55 85//55 97//55 98//55
f 88//56 87//56 96//56 99//56
f 89//57 100//57 93//57 82//57
f 84//58 94//58 102//58 95//58
f 85//55 95//55 103//55 97//55
f 94//56 88//56 99//56 102//56
f 83//59 101//59 100//59 89//59
f 86//60 98//60 105//60 96//60
f 98//61 97//61 104//61 105//61
f 99//62 96//62 105//62 104//62
f 90//63 106//63 112//63 101//63
f 91//64 107//64 106//64 90//64
f 92//65 108//65 107//65 91//65
f 93//66 109//66 108//66 92//66
f 100//67 110//67 109//67 93//67
f 102//68 111//68 103//68 95//68
f 97//61 103//61 111//61 104//61
f 102//62 99//62 104//62 111//62
f 101//69 112//69 110//69 100//69
f 113//70 112//70 106//70 114//70
f 106//71 107//71 115//71 116//71 117//71 114//71
f 115//72 107//72 108//72 118//72
f 118//73 108//73 109//73 119//73
f 119//74 109//74 110//74 120//74
f 110//75 112//75 113//75 121//75 122//75 120//75
f 123//76 124//76 125//76 126//76
f 127//77 128//77 124//77 123//77 129//77
f 125//78 124//78 130//78 131//78
f 132//79 133//79 128//79 127//79 134//79 135//79 136//79
f 128//80 137//80 138//80 124//80
f 130//81 124//81 138//81 139//81
f 131//82 130//82 140//82 141//82
f 142//83 143//83 133//83 132//83 144//83
f 133//84 145//84 137//84 128//84
f 130//85 139//85 149//85 140//85
f 138//86 137//86 149//86 139//86
f 141//87 140//87 143//87 146//87 147//87
f 146//88 143//88 142//88
f 133//89 143//89 148//89 145//89
f 137//90 145//90 148//90 149//90
f 140//91 149//91 148//91 143//91
usemtl Handle
f 150//92 151//92 152//92 153//92
f 150//93 153//93 159//93 154//93
f 155//94 156//94 151//94 150//94
f 152//95 151//95 22//95 19//95 21//95
f 153//96 152//96 157//96 158//96
f 154//97 160//97 155//97 150//97
f 161//98 162//98 156//98 155//98
f 23//99 151//99 156//99 24//99
f 41//100 152//100 21//100 20//100
f 22//101 151//101 23//101
f 153//102 158//102 170//102 159//102
f 40//103 157//103 152//103 41//103
f 158//104 157//104 163//104 164//104
f 159//105 165//105 166//105 154//105
f 154//106 166//106 174//106 121//106 113//106 114//106 117//106 160//106
f 160//107 167//107 161//107 155//107
f 168//108 169//108 162//108 161//108
f 44//109 156//109 162//109 45//109
f 156//110 44//110 25//110 24//110
f 163//111 157//111 40//111 39//111 61//111
f 158//112 164//112 176//112 170//112
f 164//113 163//113 171//113 172//113
f 165//114 159//114 170//114 173//114
f 167//115 160//115 117//115 116//115
f 167//116 175//116 168//116 161//116
f 172//117 171//117 169//117 168//117
f 45//118 162//118 169//118 46//118
f 60//119 163//119 61//119
f 164//120 172//120 182//120 176//120
f 59//121 171//121 163//121 60//121
f 166//122 165//122 177//122 178//122
f 165//123 173//123 179//123 177//123
f 174//124 166//124 178//124 180//124
f 121//115 174//115 122//115
f 167//125 116//125 115//125 118//125 119//125 120//125 122//125 174//125 181//125
f 167//126 181//126 189//126 175//126
f 182//127 172//127 168//127 175//127
f 169//128 171//128 58//128 57//128 62//128
f 46//129 169//129 62//129 42//129
f 170//130 135//130 134//130 129//130 123//130 126//130 173//130
f 135//131 170//131 176//131 136//131
f 58//132 171//132 59//132
f 178//133 177//133 183//133 184//133
f 173//134 126//134 125//134 131//134 141//134 147//134 185//134 179//134
f 177//135 179//135 186//135 183//135
f 181//136 174//136 180//136 187//136
f 180//137 178//137 184//137 188//137
f 175//138 189//138 190//138 182//138
f 129//139 134//139 127//139
f 136//140 176//140 182//140 190//140 144//140 132//140
f 184//141 183//141 191//141 192//141
f 144//142 190//142 193//142 185//142 147//142 146//142 142//142
f 179//143 185//143 194//143 186//143
f 183//144 186//144 195//144 191//144
f 189//145 181//145 187//145 196//145
f 187//146 180//146 188//146 197//146
f 188//147 184//147 192//147 198//147
f 192//148 191//148 199//148
f 190//149 189//149 196//149 193//149
f 185//150 193//150 200//150 194//150
f 186//151 194//151 201//151 195//151
f 191//152 195//152 199//152
f 196//153 187//153 197//153 202//153
f 197//154 188//154 198//154 203//154
f 198//155 192//155 199//155
f 193//156 196//156 202//156 200//156
f 194//157 200//157 204//157 201//157
f 195//158 201//158 199//158
f 202//159 197//159 203//159 205//159
f 203//160 198//160 199//160
f 200//161 202//161 205//161 204//161
f 201//162 204//162 199//162
f 205//163 203//163 199//163
f 204//164 205//164 199//164
usemtl Blade
f 12//165 206//165 13//165
f 11//166 207//166 206//166 12//166
f 13//167 206//167 208//167 14//167
f 207//168 11//168 5//168 6//168 17//168 36//168
f 206//169 207//169 213//169 209//169
f 208//170 206//170 209//170 210//170
f 208//171 211//171 29//171 15//171 14//171
f 35//172 212//172 207//172 36//172
f 214//173 211//173 208//173 210//173
f 211//174 50//174 30//174 29//174
f 34//175 215//175 212//175 35//175
f 212//176 216//176 213//176 207//176
f 213//177 217//177 218//177 209//177
f 209//178 218//178 219//178 210//178
f 214//179 210//179 219//179 220//179
f 214//180 221//180 215//180 211//180
f 211//181 215//181 33//181 32//181 50//181
f 33//182 215//182 34//182
f 212//183 215//183 221//183 216//183
f 213//184 216//184 222//184 217//184
f 214//185 220//185 225//185 221//185
f 220//186 219//186 223//186 224//186
f 222//187 216//187 221//187 225//187
f 217//188 222//188 226//188 227//188
f 217//189 227//189 228//189 218//189
f 218//190 228//190 223//190 219//190
f 220//191 224//191 231//191 225//191
f 224//192 223//192 229//192 230//192
f 225//193 231//193 226//193 222//193
f 227//194 226//194 232//194 233//194
f 223//195 228//195 240//195 241//195 234//195 229//195
f 230//196 235//196 242//196 236//196 231//196 224//196
f 229//197 234//197 235//197 230//197
f 231//198 236//198 244//198 238//198 239//198 232//198 226//198
f 232//199 239//199 243//199 233//199
f 228//200 227//200 233//200 243//200 237//200 245//200 240//200
f 234//201 241//201 242//201 235//201
f 242//202 241//202 240//202 245//202 244//202 236//202
f 237//203 243//203 239//203 238//203
f 238//204 244//204 245//204 237//204
