# Blender v2.75 (sub 0) OBJ File: 'Skull.blend'
# www.blender.org
mtllib Skull.mtl
o Icosphere_Icosphere.001
v 0.034925 0.778932 0.511834
v 0.397715 1.019875 0.550357
v -0.095386 1.035307 0.579381
v -0.412698 1.003301 0.170610
v -0.111747 0.831555 -0.258194
v 0.385163 0.880905 -0.059575
v 0.171212 1.489427 0.328000
v -0.328463 1.472133 0.112892
v -0.333494 1.275289 -0.397052
v 0.159606 1.200070 -0.538518
v 0.469398 1.350335 -0.116175
v 0.024541 1.626101 -0.283953
v 0.155101 1.034459 0.687104
v 0.629053 0.996604 -0.324276
v 0.602907 1.348036 -0.311045
v 0.344348 1.227787 -0.591716
v 0.763627 1.003895 -0.350592
v 0.744172 1.265394 -0.340747
v 0.551780 1.175917 -0.549592
v 0.809116 0.901876 -0.282200
v 0.957362 1.058679 -0.345557
v 0.851167 0.970641 -0.560217
v 0.799650 0.659925 -0.264698
v 0.854732 0.671712 -0.263861
v 0.844845 0.636757 -0.316451
v -0.719500 1.193575 0.033622
v -0.619134 1.307932 -0.284518
v -0.587745 1.621904 -0.038501
v -0.841591 1.153847 -0.015075
v -0.766909 1.238939 -0.251801
v -0.743553 1.472564 -0.068741
v -0.861901 1.043459 0.052427
v -0.984781 1.075662 -0.133157
v -1.034239 1.273744 0.019893
v -0.894141 0.955888 0.276543
v -0.935953 0.932929 0.246572
v -0.963894 0.969530 0.290901
v 0.404069 0.999748 0.048511
v 0.409266 1.057280 0.301017
v 0.438942 1.194087 0.025079
v -0.206287 1.116877 0.403019
v -0.331787 1.104218 0.241346
v -0.298471 1.289646 0.218518
v 0.033473 1.099825 0.355798
v -0.092027 1.087166 0.194125
v -0.058711 1.272593 0.171297
v 0.063508 1.033997 0.044688
v 0.068704 1.091529 0.297194
v 0.098380 1.228336 0.021256
v 0.155652 0.839112 0.764227
vt 0.409444 0.370140
vt 0.407832 0.370271
vt 0.412255 0.370044
vt 0.407587 0.370632
vt 0.399788 0.367752
vt 0.408649 0.368957
vt 0.413432 0.369791
vt 0.412219 0.370105
vt 0.411906 0.370004
vt 0.408574 0.370345
vt 0.410728 0.369779
vt 0.410702 0.370190
vt 0.406512 0.369392
vt 0.405904 0.369373
vt 0.410702 0.367009
vt 0.412318 0.369051
vt 0.404595 0.374080
vt 0.404595 0.372217
vt 0.406655 0.372729
vt 0.119350 0.197176
vt 0.120463 0.197916
vt 0.124036 0.198293
vt 0.121982 0.198130
vt 0.411676 0.368937
vt 0.127046 0.198515
vt 0.125207 0.198924
vt 0.119287 0.198169
vt 0.124414 0.198213
vt 0.135368 0.199923
vt 0.131070 0.199403
vt 0.129317 0.198977
vt 0.131025 0.200338
vt 0.131056 0.200094
vt 0.131076 0.199184
vt 0.130997 0.200183
vt 0.111623 0.206141
vt 0.106820 0.203463
vt 0.109212 0.203461
vt 0.109798 0.203679
vt 0.109428 0.203240
vt 0.109632 0.203397
vt 0.111623 0.200342
vt 0.109729 0.202970
vt 0.109407 0.203036
vt 0.109446 0.203069
vt 0.109499 0.203134
vt 0.109304 0.202838
vt 0.109331 0.202902
vt 0.411844 0.370060
vt 0.411778 0.370050
vt 0.411220 0.370130
vt 0.405761 0.369426
vt 0.404214 0.368906
vt 0.405566 0.369402
vt 0.411607 0.370072
vt 0.408366 0.370390
vn 0.531300 -0.828300 0.177800
vn -0.670600 -0.488000 0.558700
vn -0.465000 -0.884900 0.028100
vn 0.135200 -0.986400 -0.093200
vn 0.984500 -0.174300 0.019500
vn 0.435400 0.548200 0.714100
vn -0.779900 0.212600 0.588700
vn -0.788800 -0.504200 -0.351600
vn 0.320600 -0.711600 -0.625200
vn 0.769000 0.535900 0.348400
vn -0.334000 0.599000 0.727800
vn -0.983900 0.169900 -0.055900
vn -0.308900 -0.421200 -0.852700
vn -0.222900 0.956600 -0.187900
vn 0.506200 0.859500 0.070600
vn -0.139800 0.958700 0.247600
vn -0.627100 0.728700 -0.275100
vn -0.178600 0.462300 -0.868500
vn 0.570200 0.547000 -0.612900
vn -0.315900 0.594700 0.739300
vn 0.306600 0.739500 -0.599300
vn -0.117800 -0.836000 -0.535900
vn 0.775200 -0.021500 0.631300
vn 0.486900 0.628400 -0.606700
vn -0.075400 -0.792700 -0.605000
vn 0.193000 -0.022600 0.980900
vn 0.923000 -0.265400 -0.278800
vn -0.643700 -0.750500 -0.149700
vn -0.067200 0.146900 0.986900
vn 0.170700 -0.835100 0.522900
vn -0.959100 -0.094800 -0.266800
vn 0.201600 0.117400 0.972400
vn 0.301000 0.783400 -0.543800
vn -0.425700 0.584100 -0.691100
vn -0.338300 0.214100 0.916400
vn -0.598700 0.469200 -0.649200
vn -0.432500 0.277500 0.857900
vn 0.376100 -0.903400 -0.206100
vn -0.955700 -0.293100 -0.026300
vn 0.286500 0.186300 0.939800
vn 0.625200 -0.730700 -0.274300
vn -0.022900 -0.778000 0.627900
vn 0.612400 0.642200 0.461000
vn 0.393200 -0.855500 -0.337100
vn -0.302000 -0.849900 -0.431900
vn 0.000900 0.119500 0.992800
vn -0.177000 -0.761000 -0.624100
vn 0.198300 0.084600 0.976500
vn 0.047900 0.992200 -0.114900
vn -0.084400 -0.889100 -0.449900
vn 0.100000 0.969700 -0.223000
vn 0.557000 -0.827600 -0.069100
vn 0.479300 0.323500 0.815900
vn -0.370500 0.340200 0.864300
vn -0.731800 -0.495300 0.468100
usemtl Material
s off
f 2/1/1 1/2/1 6/3/1
f 1/2/2 3/4/2 4/5/2
f 1/2/3 4/5/3 5/6/3
f 1/2/4 5/6/4 6/3/4
f 6/3/5 11/7/5 40/8/5 38/9/5
f 13/10/6 2/1/6 7/11/6
f 3/4/7 8/12/7 43/13/7 41/14/7
f 5/6/8 4/5/8 9/15/8
f 6/3/9 5/6/9 10/16/9
f 2/1/10 11/7/10 7/11/10
f 3/4/11 7/11/11 8/12/11
f 4/17/12 8/18/12 9/19/12
f 5/6/13 9/15/13 10/16/13
f 10/20/14 11/21/14 15/22/14 16/23/14
f 7/11/15 11/7/15 12/24/15
f 8/12/16 7/11/16 12/24/16
f 9/15/17 8/12/17 12/24/17
f 10/16/18 9/15/18 12/24/18
f 11/7/19 10/16/19 12/24/19
f 3/4/20 13/10/20 7/11/20
f 16/23/21 15/22/21 18/25/21 19/26/21
f 6/27/22 10/20/22 16/23/22 14/28/22
f 11/21/23 6/27/23 14/28/23 15/22/23
f 19/26/24 18/25/24 21/29/24 22/30/24
f 14/28/25 16/23/25 19/26/25 17/31/25
f 15/22/26 14/28/26 17/31/26 18/25/26
f 22/30/27 21/29/27 24/32/27 25/33/27
f 17/31/28 19/26/28 22/30/28 20/34/28
f 18/25/29 17/31/29 20/34/29 21/29/29
f 23/35/30 25/33/30 24/32/30
f 20/34/31 22/30/31 25/33/31 23/35/31
f 21/29/32 20/34/32 23/35/32 24/32/32
f 8/36/33 9/37/33 27/38/33 28/39/33
f 28/39/34 27/38/34 30/40/34 31/41/34
f 4/42/35 8/36/35 28/39/35 26/43/35
f 31/41/36 30/40/36 33/44/36 34/45/36
f 26/43/37 28/39/37 31/41/37 29/46/37
f 27/38/38 26/43/38 29/46/38 30/40/38
f 34/45/39 33/44/39 36/47/39 37/48/39
f 29/46/40 31/41/40 34/45/40 32/44/40
f 30/40/41 29/46/41 32/44/41 33/44/41
f 35/48/42 37/48/42 36/47/42
f 32/44/43 34/45/43 37/48/43 35/48/43
f 33/44/44 32/44/44 35/48/44 36/47/44
f 9/37/45 4/42/45 26/43/45 27/38/45
f 38/9/46 40/8/46 49/49/46 47/50/46
f 11/7/5 2/1/5 39/51/5 40/8/5
f 2/1/5 6/3/5 38/9/5 39/51/5
f 41/14/47 43/13/47 46/14/47 44/52/47
f 8/12/7 4/5/7 42/53/7 43/13/7
f 4/5/7 3/4/7 41/14/7 42/53/7
f 45/54/7 44/52/7 46/14/7
f 43/13/48 42/53/48 45/54/48 46/14/48
f 42/53/49 41/14/49 44/52/49 45/54/49
f 48/55/5 47/50/5 49/49/5
f 40/8/50 39/51/50 48/55/50 49/49/50
f 39/51/51 38/9/51 47/50/51 48/55/51
f 1/2/52 2/1/52 50/56/52
f 2/1/53 13/10/53 50/56/53
f 13/10/54 3/4/54 50/56/54
f 3/4/55 1/2/55 50/56/55
