# Blender v2.75 (sub 0) OBJ File: 'Nightstand.blend'
# www.blender.org
mtllib Nightstand.mtl
o Cube.005_Cube.010
v 0.333724 0.203738 -0.276886
v 0.333724 -0.047501 -0.276886
v 0.333724 0.203738 -0.232839
v 0.333724 -0.047501 -0.232839
v -0.459065 0.203738 -0.276886
v -0.459065 -0.047501 -0.276886
v -0.459065 0.203738 -0.232839
v -0.459065 -0.047501 -0.232839
v 0.296996 0.188147 -0.276886
v 0.296996 -0.031910 -0.276886
v -0.422337 -0.031910 -0.276886
v -0.422337 0.188147 -0.276886
v 0.296996 0.188147 -0.849802
v 0.296996 -0.031910 -0.849802
v -0.422337 -0.031910 -0.849802
v -0.422337 0.188147 -0.849802
v 0.256352 0.188147 -0.309256
v -0.381694 0.188147 -0.309256
v 0.256352 0.188147 -0.817431
v -0.381694 0.188147 -0.817431
v 0.256352 0.014496 -0.309256
v -0.381694 0.014496 -0.309256
v 0.256352 0.014496 -0.817431
v -0.381694 0.014496 -0.817431
vn -1.000000 0.000000 0.000000
vn 0.000000 0.000000 -1.000000
vn 1.000000 0.000000 0.000000
vn -0.000000 0.000000 1.000000
vn 0.000000 -1.000000 0.000000
vn 0.000000 1.000000 0.000000
usemtl Material.006
s off
f 2//1 4//1 3//1 1//1
f 4//2 8//2 7//2 3//2
f 8//3 6//3 5//3 7//3
f 2//4 1//4 9//4 10//4
f 1//5 3//5 7//5 5//5
f 6//6 8//6 4//6 2//6
f 12//3 11//3 15//3 16//3
f 1//4 5//4 12//4 9//4
f 6//4 2//4 10//4 11//4
f 5//4 6//4 11//4 12//4
f 15//4 14//4 13//4 16//4
f 11//6 10//6 14//6 15//6
f 10//1 9//1 13//1 14//1
f 13//5 9//5 17//5 19//5
f 19//3 17//3 21//3 23//3
f 12//5 16//5 20//5 18//5
f 16//5 13//5 19//5 20//5
f 9//5 12//5 18//5 17//5
f 21//5 22//5 24//5 23//5
f 20//2 19//2 23//2 24//2
f 18//1 20//1 24//1 22//1
f 17//4 18//4 22//4 21//4
o Cube.003_Cube.007
v 0.333724 0.540850 -0.276174
v 0.333724 0.204313 -0.276174
v 0.333724 0.540850 -0.232127
v 0.333724 0.204313 -0.232127
v -0.459065 0.540850 -0.276174
v -0.459065 0.204313 -0.276174
v -0.459065 0.540850 -0.232127
v -0.459065 0.204313 -0.232127
v 0.296996 0.525258 -0.276174
v 0.296996 0.219904 -0.276174
v -0.422337 0.219904 -0.276174
v -0.422337 0.525258 -0.276174
v 0.296996 0.525258 -0.849090
v 0.296996 0.219904 -0.849090
v -0.422337 0.219904 -0.849090
v -0.422337 0.525258 -0.849090
v 0.256352 0.525258 -0.308544
v -0.381694 0.525258 -0.308544
v 0.256352 0.525258 -0.816720
v -0.381694 0.525258 -0.816720
v 0.256352 0.266310 -0.308544
v -0.381694 0.266310 -0.308544
v 0.256352 0.266310 -0.816720
v -0.381694 0.266310 -0.816720
vn -1.000000 0.000000 0.000000
vn 0.000000 0.000000 -1.000000
vn 1.000000 0.000000 0.000000
vn 0.000000 0.000000 1.000000
vn 0.000000 -1.000000 0.000000
vn 0.000000 1.000000 0.000000
usemtl Material.005
s off
f 26//7 28//7 27//7 25//7
f 28//8 32//8 31//8 27//8
f 32//9 30//9 29//9 31//9
f 26//10 25//10 33//10 34//10
f 25//11 27//11 31//11 29//11
f 30//12 32//12 28//12 26//12
f 36//9 35//9 39//9 40//9
f 25//10 29//10 36//10 33//10
f 30//10 26//10 34//10 35//10
f 29//10 30//10 35//10 36//10
f 39//10 38//10 37//10 40//10
f 35//12 34//12 38//12 39//12
f 34//7 33//7 37//7 38//7
f 37//11 33//11 41//11 43//11
f 43//9 41//9 45//9 47//9
f 36//11 40//11 44//11 42//11
f 40//11 37//11 43//11 44//11
f 33//11 36//11 42//11 41//11
f 45//11 46//11 48//11 47//11
f 44//8 43//8 47//8 48//8
f 42//7 44//7 48//7 46//7
f 41//10 42//10 46//10 45//10
o Cube_Cube.004
v -0.555475 0.635433 -0.238622
v -0.555475 0.635433 -1.025808
v -0.555475 -0.151753 -1.025808
v -0.555475 -0.151753 -0.238622
v -0.459687 -0.055965 -0.238622
v -0.459687 0.539645 -0.238622
v 0.335442 0.539645 -0.238622
v 0.431231 0.635433 -0.238622
v 0.431231 0.635433 -1.025808
v 0.431231 -0.151753 -1.025808
v 0.431231 -0.151753 -0.238622
v 0.335442 -0.055965 -0.238622
v -0.459687 -0.055965 -0.930020
v -0.459687 0.176397 -0.930020
v -0.459687 0.176397 -0.302424
v -0.459687 0.279463 -0.302424
v -0.459687 0.279463 -0.930020
v -0.459687 0.539645 -0.930020
v 0.335442 0.539645 -0.930020
v 0.335442 0.279463 -0.930020
v 0.335442 0.279463 -0.302424
v 0.335442 0.176397 -0.302424
v 0.335442 0.176397 -0.930020
v 0.335442 -0.055965 -0.930020
vn -1.000000 0.000000 0.000000
vn 0.000000 0.000000 1.000000
vn 0.000000 1.000000 0.000000
vn 0.000000 0.000000 -1.000000
vn 0.000000 -1.000000 0.000000
vn 1.000000 0.000000 0.000000
usemtl Material.004
s off
f 49//13 50//13 51//13 52//13
f 52//14 53//14 54//14 55//14 56//14 49//14
f 56//15 57//15 50//15 49//15
f 50//16 57//16 58//16 51//16
f 52//17 51//17 58//17 59//17
f 52//14 59//14 56//14 55//14 60//14 53//14
f 54//18 53//18 61//18 62//18 63//18 64//18 65//18 66//18
f 55//17 54//17 66//17 67//17
f 57//18 56//18 59//18 58//18
f 60//13 55//13 67//13 68//13 69//13 70//13 71//13 72//13
f 53//15 60//15 72//15 61//15
f 62//14 61//14 72//14 71//14
f 66//14 65//14 68//14 67//14
f 69//14 64//14 63//14 70//14
f 64//15 69//15 68//15 65//15
f 70//17 63//17 62//17 71//17
