# Blender v2.75 (sub 0) OBJ File: 'Club.blend'
# www.blender.org
mtllib Club.mtl
o Cylinder
v 0.000000 -0.333571 -0.135468
v 0.000000 -0.062636 -0.135468
v 0.087077 -0.333571 -0.103774
v 0.087077 -0.062636 -0.103774
v 0.133410 -0.333571 -0.023524
v 0.133410 -0.062636 -0.023524
v 0.117318 -0.333571 0.067734
v 0.117318 -0.062636 0.067734
v 0.046333 -0.333571 0.127298
v 0.046333 -0.062636 0.127298
v -0.046333 -0.333571 0.127298
v -0.046333 -0.062636 0.127298
v -0.117318 -0.333571 0.067734
v -0.117318 -0.062636 0.067734
v -0.133410 -0.333571 -0.023524
v -0.133410 -0.062636 -0.023524
v -0.087077 -0.333571 -0.103774
v -0.087077 -0.062636 -0.103774
v 0.000000 -0.394184 -0.170833
v 0.109809 -0.394184 -0.130865
v 0.168237 -0.394184 -0.029665
v 0.147945 -0.394184 0.085416
v 0.058428 -0.394184 0.160530
v -0.058428 -0.394184 0.160530
v -0.147945 -0.394184 0.085416
v -0.168237 -0.394184 -0.029665
v -0.109809 -0.394184 -0.130865
v 0.000000 -0.430709 -0.150437
v 0.096699 -0.430709 -0.115241
v 0.148151 -0.430709 -0.026123
v 0.130282 -0.430709 0.075218
v 0.051452 -0.430709 0.141364
v -0.051452 -0.430709 0.141364
v -0.130282 -0.430709 0.075218
v -0.148151 -0.430709 -0.026123
v -0.096699 -0.430709 -0.115241
v -0.000000 -0.458229 -0.115639
v 0.074331 -0.458229 -0.088585
v 0.113882 -0.458229 -0.020080
v 0.100146 -0.458229 0.057820
v 0.039551 -0.458229 0.108665
v -0.039551 -0.458229 0.108665
v -0.100146 -0.458229 0.057819
v -0.113882 -0.458229 -0.020080
v -0.074331 -0.458229 -0.088585
v 0.093748 -0.001626 -0.111725
v 0.000000 -0.001626 -0.145847
v 0.143631 -0.001626 -0.025326
v 0.126307 -0.001626 0.072923
v 0.049882 -0.001626 0.137051
v -0.049882 -0.001626 0.137051
v -0.126307 -0.001626 0.072923
v -0.143631 -0.001626 -0.025326
v -0.093748 -0.001626 -0.111725
v 0.080713 0.058253 -0.096190
v -0.000000 0.058253 -0.125568
v 0.123660 0.058253 -0.021805
v 0.108745 0.058253 0.062784
v 0.042947 0.058253 0.117995
v -0.042947 0.058253 0.117995
v -0.108745 0.058253 0.062784
v -0.123660 0.058253 -0.021805
v -0.080713 0.058253 -0.096190
v 0.080713 0.276082 -0.096190
v 0.000000 0.276082 -0.125568
v 0.123660 0.276082 -0.021805
v 0.108745 0.276082 0.062784
v 0.042947 0.276082 0.117995
v -0.042947 0.276082 0.117995
v -0.108745 0.276082 0.062784
v -0.123660 0.276082 -0.021805
v -0.080713 0.276082 -0.096190
v 0.086897 0.324710 -0.103559
v 0.000000 0.324710 -0.135187
v 0.133133 0.324710 -0.023475
v 0.117076 0.324710 0.067594
v 0.046237 0.324710 0.127034
v -0.046237 0.324710 0.127034
v -0.117076 0.324710 0.067594
v -0.133133 0.324710 -0.023475
v -0.086897 0.324710 -0.103559
v 0.073940 0.362152 -0.088118
v 0.000000 0.362152 -0.115030
v 0.113282 0.362152 -0.019975
v 0.099619 0.362152 0.057515
v 0.039343 0.362152 0.108093
v -0.039343 0.362152 0.108093
v -0.099619 0.362152 0.057515
v -0.113282 0.362152 -0.019975
v -0.073940 0.362152 -0.088118
v 0.142920 2.884898 -0.171030
v -0.001128 2.884898 -0.223459
v 0.219567 2.884898 -0.038274
v 0.192948 2.884898 0.112690
v 0.075518 2.884898 0.211225
v -0.077775 2.884898 0.211225
v -0.195204 2.884898 0.112690
v -0.221823 2.884898 -0.038274
v -0.145176 2.884898 -0.171030
v 0.079245 2.986997 -0.095144
v -0.001128 2.986997 -0.124398
v 0.122010 2.986997 -0.021072
v 0.107158 2.986997 0.063159
v 0.041637 2.986997 0.118137
v -0.043894 2.986997 0.118137
v -0.109414 2.986997 0.063159
v -0.124266 2.986997 -0.021072
v -0.081501 2.986997 -0.095144
v 0.029291 3.001911 -0.035612
v -0.001128 3.001911 -0.046684
v 0.045477 3.001911 -0.007578
v 0.039856 3.001911 0.024302
v 0.015058 3.001911 0.045110
v -0.017314 3.001911 0.045110
v -0.042112 3.001911 0.024302
v -0.047733 3.001911 -0.007578
v -0.031547 3.001911 -0.035612
v 0.071698 2.438725 0.200729
v -0.073954 2.438725 0.200729
v 0.135741 2.438725 -0.162474
v 0.208567 2.438725 -0.036335
v -0.137997 2.438725 -0.162474
v -0.001128 2.438725 -0.212290
v -0.185531 2.438725 0.107105
v 0.183275 2.438725 0.107105
v -0.210823 2.438725 -0.036335
v 0.072608 2.544957 0.203228
v 0.137450 2.544957 -0.164511
v -0.139706 2.544957 -0.164511
v -0.074864 2.544957 0.203228
v 0.211186 2.544957 -0.036797
v -0.001128 2.544957 -0.214949
v -0.187834 2.544957 0.108435
v 0.185578 2.544957 0.108435
v -0.213442 2.544957 -0.036797
v -0.072407 2.274937 0.196477
v 0.204111 2.274937 -0.035549
v -0.001128 2.274937 -0.207766
v -0.181613 2.274937 0.104843
v 0.179357 2.274937 0.104843
v -0.206367 2.274937 -0.035549
v 0.070151 2.274937 0.196477
v 0.132832 2.274937 -0.159008
v -0.135089 2.274937 -0.159008
v -0.071773 2.154472 0.194735
v 0.202285 2.154472 -0.035227
v -0.001128 2.154472 -0.205911
v -0.180007 2.154472 0.103916
v 0.177751 2.154472 0.103916
v -0.204541 2.154472 -0.035227
v 0.069517 2.154472 0.194735
v 0.131641 2.154472 -0.157587
v -0.133897 2.154472 -0.157587
v 0.074063 2.673797 0.207226
v 0.140185 2.673797 -0.167770
v -0.142441 2.673797 -0.167770
v -0.076319 2.673797 0.207226
v 0.215376 2.673797 -0.037536
v -0.001128 2.673797 -0.219204
v -0.191519 2.673797 0.110562
v 0.189263 2.673797 0.110562
v -0.217632 2.673797 -0.037536
v 0.074791 2.758782 0.209225
v 0.141553 2.758782 -0.169400
v -0.143809 2.758782 -0.169400
v -0.077047 2.758782 0.209225
v 0.217472 2.758782 -0.037905
v -0.001128 2.758782 -0.221332
v -0.193361 2.758782 0.111626
v 0.191105 2.758782 0.111626
v -0.219728 2.758782 -0.037905
v -0.171017 2.210340 -0.466126
v 0.434519 2.484744 -0.250881
v 0.488048 2.210340 0.086895
v -0.320415 2.210340 0.381151
v 0.322221 2.484744 0.385993
v -0.324478 2.484744 0.385993
v -0.436776 2.484744 -0.250881
v -0.175316 2.709192 -0.477936
v -0.193361 2.758782 0.111626
v -0.191519 2.673797 0.110562
v -0.219728 2.758782 -0.037905
v -0.217632 2.673797 -0.037536
v -0.502681 2.709192 0.089077
v -0.001128 2.709192 0.509930
v 0.500425 2.709192 0.089077
v -0.070439 2.002172 0.191069
v 0.198444 2.002172 -0.034550
v -0.001128 2.002172 -0.202010
v -0.176628 2.002172 0.101965
v 0.174372 2.002172 0.101965
v -0.200700 2.002172 -0.034550
v 0.068182 2.002172 0.191069
v 0.129133 2.002172 -0.154599
v -0.131389 2.002172 -0.154599
v -0.069536 1.899126 0.188589
v 0.195845 1.899126 -0.034092
v -0.001128 1.899126 -0.199371
v -0.174343 1.899126 0.100646
v 0.172087 1.899126 0.100646
v -0.198100 1.899126 -0.034092
v 0.067280 1.899126 0.188589
v 0.127437 1.899126 -0.152577
v -0.129693 1.899126 -0.152577
v 0.217445 1.947018 0.261125
v -0.365713 1.946292 0.064926
v 0.135810 1.945566 -0.375593
v -0.037729 0.607108 0.103660
v 0.108637 0.607108 -0.019156
v 0.000000 0.607108 -0.110313
v -0.095533 0.607108 0.055156
v 0.095533 0.607108 0.055156
v -0.108637 0.607108 -0.019156
v 0.037729 0.607108 0.103660
v 0.070908 0.607108 -0.084504
v -0.070908 0.607108 -0.084504
v 0.043443 0.648116 0.119358
v 0.081646 0.648116 -0.097302
v -0.081646 0.648116 -0.097302
v -0.043443 0.648116 0.119358
v 0.125089 0.648116 -0.022056
v 0.000000 0.648116 -0.127018
v -0.110001 0.648116 0.063509
v 0.110001 0.648116 0.063509
v -0.125089 0.648116 -0.022056
v 0.039869 0.704985 0.109540
v 0.074930 0.704985 -0.089298
v -0.074930 0.704985 -0.089298
v -0.039869 0.704985 0.109540
v 0.114799 0.704985 -0.020242
v 0.000000 0.704985 -0.116570
v -0.100952 0.704985 0.058285
v 0.100952 0.704985 0.058285
v -0.114799 0.704985 -0.020242
vt 0.065591 0.967935
vt 0.051596 0.967935
vt 0.051596 0.953940
vt 0.065591 0.953940
vt 0.058594 0.953940
vt 0.054096 0.955577
vt 0.051703 0.959722
vt 0.052534 0.964436
vt 0.056201 0.967513
vt 0.060987 0.967513
vt 0.064654 0.964436
vt 0.065485 0.959722
vt 0.063092 0.955577
vt 0.061685 0.952310
vt 0.047690 0.952310
vt 0.047690 0.938315
vt 0.061685 0.938315
vt 0.956216 0.952310
vt 0.942221 0.952310
vt 0.942221 0.938315
vt 0.956216 0.938315
vn 0.342000 0.000000 -0.939700
vn 0.866000 0.000000 -0.500000
vn 0.984800 0.000000 0.173600
vn 0.642800 0.000000 0.766000
vn 0.000000 0.000000 1.000000
vn -0.642800 0.000000 0.766000
vn -0.984800 0.000000 0.173600
vn -0.337700 -0.157900 -0.927900
vn -0.342000 0.000000 -0.939700
vn -0.866000 0.000000 -0.500000
vn -0.759400 0.480800 -0.438400
vn 0.872000 -0.464700 0.153800
vn -0.863500 0.480800 0.152300
vn -0.563600 0.480800 0.671700
vn -0.000000 0.480800 0.876900
vn 0.563600 0.480800 0.671700
vn 0.299900 0.480800 -0.824000
vn 0.863500 0.480800 0.152300
vn 0.759400 0.480800 -0.438400
vn -0.299900 0.480800 -0.824000
vn 0.634100 -0.765100 0.111800
vn -0.872000 -0.464700 0.153800
vn 0.569200 -0.464700 0.678300
vn 0.302900 -0.464700 -0.832100
vn -0.766900 -0.464700 -0.442700
vn -0.000000 -0.464700 0.885500
vn 0.766900 -0.464700 -0.442700
vn -0.302900 -0.464700 -0.832100
vn -0.569200 -0.464700 0.678300
vn 0.000000 -1.000000 0.000000
vn -0.634100 -0.765100 0.111800
vn 0.413900 -0.765100 0.493300
vn 0.220200 -0.765100 -0.605100
vn -0.557700 -0.765100 -0.322000
vn -0.000000 -0.765100 0.643900
vn 0.557700 -0.765100 -0.322000
vn -0.220200 -0.765100 -0.605100
vn -0.413900 -0.765100 0.493300
vn -0.938400 0.303300 0.165500
vn -0.855200 -0.157900 -0.493700
vn -0.972500 -0.157900 0.171500
vn -0.634700 -0.157900 0.756400
vn 0.000000 -0.157900 0.987500
vn 0.634700 -0.157900 0.756400
vn 0.337700 -0.157900 -0.927900
vn 0.972500 -0.157900 0.171500
vn 0.855200 -0.157900 -0.493700
vn 0.612500 0.303300 0.730000
vn 0.325900 0.303300 -0.895400
vn -0.825200 0.303300 -0.476500
vn 0.000000 0.303300 0.952900
vn 0.825200 0.303300 -0.476500
vn -0.325900 0.303300 -0.895400
vn -0.612500 0.303300 0.730000
vn 0.938400 0.303300 0.165500
vn 0.000000 -0.182800 0.983200
vn 0.573600 0.451400 0.683600
vn 0.851400 -0.182800 -0.491600
vn -0.336300 -0.182800 -0.923900
vn -0.632000 -0.182800 0.753100
vn 0.968200 -0.182800 0.170700
vn -0.968200 -0.182800 0.170700
vn 0.632000 -0.182800 0.753100
vn 0.336300 -0.182800 -0.923900
vn -0.851400 -0.182800 -0.491600
vn 0.000000 -0.015900 0.999900
vn 0.305200 0.451400 -0.838500
vn -0.772800 0.451400 -0.446200
vn 0.000000 0.451400 0.892300
vn 0.772800 0.451400 -0.446200
vn -0.305200 0.451400 -0.838500
vn -0.573600 0.451400 0.683600
vn 0.878800 0.451400 0.154900
vn -0.878800 0.451400 0.154900
vn 0.475000 0.673700 0.566100
vn 0.865900 -0.015900 -0.499900
vn -0.342000 -0.015900 -0.939600
vn -0.642700 -0.015900 0.765900
vn 0.984700 -0.015900 0.173600
vn -0.984700 -0.015900 0.173600
vn 0.642700 -0.015900 0.765900
vn 0.342000 -0.015900 -0.939600
vn -0.865900 -0.015900 -0.499900
vn -0.197100 0.979800 0.034700
vn 0.252700 0.673700 -0.694400
vn -0.640000 0.673700 -0.369500
vn 0.000000 0.673700 0.739000
vn 0.640000 0.673700 -0.369500
vn -0.252700 0.673700 -0.694400
vn -0.475000 0.673700 0.566100
vn 0.727700 0.673700 0.128300
vn -0.727700 0.673700 0.128300
vn 0.000000 1.000000 0.000000
vn 0.128600 0.979800 0.153300
vn 0.068400 0.979800 -0.188000
vn -0.173300 0.979800 -0.100000
vn 0.000000 0.979800 0.200100
vn 0.173300 0.979800 -0.100000
vn -0.068400 0.979800 -0.188000
vn -0.128600 0.979800 0.153300
vn 0.197100 0.979800 0.034700
vn -0.865700 -0.025900 -0.499800
vn 0.341900 -0.025900 -0.939400
vn 0.642600 -0.025900 0.765800
vn -0.984500 -0.025900 0.173600
vn 0.984500 -0.025900 0.173600
vn -0.642600 -0.025900 0.765800
vn -0.341900 -0.025900 -0.939400
vn 0.865700 -0.025900 -0.499800
vn 0.000000 -0.025900 0.999700
vn 0.341900 -0.023500 -0.939400
vn 0.592900 -0.013900 0.805200
vn -0.984500 -0.023500 0.173600
vn 0.984500 -0.023500 0.173600
vn -0.690000 -0.013900 0.723700
vn -0.341900 -0.023500 -0.939400
vn 0.000000 -0.023500 0.999700
vn 0.000000 -0.014500 0.999900
vn 0.865900 -0.014500 -0.499900
vn 0.206700 0.977700 0.036400
vn -0.984700 -0.014500 0.173600
vn 0.642700 -0.014500 0.766000
vn 0.342000 -0.014500 -0.939600
vn -0.865900 -0.014500 -0.499900
vn -0.865800 -0.024100 -0.499900
vn 0.341900 -0.024100 -0.939400
vn 0.642600 -0.024100 0.765800
vn -0.984500 -0.024100 0.173600
vn 0.984500 -0.024100 0.173600
vn -0.642600 -0.024100 0.765800
vn -0.341900 -0.024100 -0.939400
vn 0.865800 -0.024100 -0.499900
vn 0.000000 -0.024100 0.999700
vn -0.865600 -0.031000 -0.499800
vn 0.341900 -0.031000 -0.939200
vn 0.642500 -0.031000 0.765700
vn -0.984300 -0.031000 0.173600
vn 0.984300 -0.031000 0.173600
vn -0.642500 -0.031000 0.765700
vn -0.341900 -0.031000 -0.939200
vn 0.865600 -0.031000 -0.499800
vn 0.000000 -0.031000 0.999500
vn -0.865800 -0.023500 -0.499900
vn 0.642600 -0.023500 0.765800
vn -0.642600 -0.023500 0.765800
vn 0.865800 -0.023500 -0.499900
vn 0.160200 0.986700 0.028300
vn 0.836500 -0.008400 -0.547900
vn -0.993000 -0.008400 0.117900
vn -0.071800 0.977700 -0.197200
vn -0.062100 -0.983400 -0.170600
vn 0.056300 -0.008400 0.998400
vn 0.130100 -0.988700 -0.075100
vn 0.690000 -0.013900 0.723700
vn 0.170200 0.980500 -0.098200
vn -0.281700 -0.013900 -0.959400
vn 0.178800 -0.983400 0.031500
vn 0.394400 -0.008400 -0.918900
vn -0.892800 -0.008400 -0.450400
vn -0.134900 0.977700 0.160800
vn -0.116700 -0.983400 0.139100
vn 0.598600 -0.008400 0.801000
vn 0.096500 -0.988700 0.115000
vn 0.895900 -0.013900 -0.444100
vn -0.592900 -0.013900 0.805200
vn 0.126300 0.980500 0.150500
vn -0.096500 -0.988700 0.115000
vn -0.895900 -0.013900 -0.444100
vn -0.126300 0.980500 0.150500
vn -0.170200 0.980500 -0.098200
vn 0.281700 -0.013900 -0.959400
vn -0.130100 -0.988700 -0.075100
vn -0.039700 -0.993200 -0.109100
vn -0.055700 0.986700 -0.152900
vn -0.994500 -0.014000 0.103800
vn 0.828600 -0.014000 -0.559700
vn -0.407300 -0.014000 -0.913200
vn -0.114400 -0.993200 0.020200
vn -0.070500 -0.014000 0.997400
vn -0.160200 0.986700 0.028300
vn 0.970000 -0.014000 0.242600
vn -0.970000 -0.014000 0.242600
vn 0.000000 -0.993200 0.116100
vn 0.000000 0.986700 0.162700
vn 0.114400 -0.993200 0.020200
vn 0.407400 -0.014000 -0.913200
vn 0.070500 -0.014000 0.997400
vn -0.864100 -0.066100 -0.498900
vn 0.341300 -0.064700 -0.937700
vn 0.641400 -0.065300 0.764400
vn -0.982600 -0.066500 0.173300
vn 0.982700 -0.064700 0.173300
vn -0.641400 -0.066500 0.764300
vn -0.341300 -0.065300 -0.937700
vn 0.864200 -0.064400 -0.499000
vn 0.000000 -0.066100 0.997800
vn -0.430200 -0.018000 0.902500
vn 0.222300 0.938300 0.265000
vn 0.963500 -0.018000 -0.267000
vn 0.193100 -0.953800 0.230100
vn -0.292300 0.954900 0.051500
vn -0.512000 -0.016700 -0.858800
vn -0.187400 -0.016700 0.982100
vn -0.246700 -0.968100 0.043500
vn 0.999300 -0.015800 0.034200
vn 0.089000 0.965500 -0.244600
vn 0.073000 -0.976900 -0.200700
vn -0.787500 -0.015800 -0.616100
vn 0.000000 0.018100 0.999800
vn 0.865900 0.018100 -0.499900
vn -0.342000 0.018100 -0.939500
vn -0.642700 0.018100 0.765900
vn 0.984600 0.018100 0.173600
vn -0.984600 0.018100 0.173600
vn 0.642700 0.018100 0.765900
vn 0.342000 0.018100 -0.939500
vn -0.865900 0.018100 -0.499900
vn 0.000000 -0.357500 0.933900
vn 0.808800 -0.357500 -0.467000
vn -0.319400 -0.357500 -0.877600
vn -0.600300 -0.357500 0.715400
vn 0.919700 -0.357500 0.162200
vn -0.919700 -0.357500 0.162200
vn 0.600300 -0.357500 0.715400
vn 0.319400 -0.357500 -0.877600
vn -0.808800 -0.357500 -0.467000
vn 0.000000 0.170100 0.985400
vn 0.853400 0.170100 -0.492700
vn -0.337000 0.170100 -0.926000
vn -0.633400 0.170100 0.754900
vn 0.970500 0.170100 0.171100
vn -0.970500 0.170100 0.171100
vn 0.633400 0.170100 0.754900
vn 0.337000 0.170100 -0.926000
vn -0.853400 0.170100 -0.492700
usemtl Material.001
s off
f 1/1/1 2/2/1 4/3/1 3/4/1
f 3/1/2 4/2/2 6/3/2 5/4/2
f 5/1/3 6/2/3 8/3/3 7/4/3
f 7/1/4 8/2/4 10/3/4 9/4/4
f 9/1/5 10/2/5 12/3/5 11/4/5
f 11/1/6 12/2/6 14/3/6 13/4/6
f 13/1/7 14/2/7 16/3/7 15/4/7
f 2/1/8 18/2/8 54/3/8 47/4/8
f 17/1/9 18/2/9 2/3/9 1/4/9
f 15/1/10 16/2/10 18/3/10 17/4/10
f 15/1/11 17/2/11 27/3/11 26/4/11
f 21/1/12 22/2/12 31/3/12 30/4/12
f 13/1/13 15/2/13 26/3/13 25/4/13
f 11/1/14 13/2/14 25/3/14 24/4/14
f 9/1/15 11/2/15 24/3/15 23/4/15
f 7/1/16 9/2/16 23/3/16 22/4/16
f 1/1/17 3/2/17 20/3/17 19/4/17
f 5/1/18 7/2/18 22/3/18 21/4/18
f 3/1/19 5/2/19 21/3/19 20/4/19
f 17/1/20 1/2/20 19/3/20 27/4/20
f 30/1/21 31/2/21 40/3/21 39/4/21
f 25/1/22 26/2/22 35/3/22 34/4/22
f 22/1/23 23/2/23 32/3/23 31/4/23
f 19/1/24 20/2/24 29/3/24 28/4/24
f 26/1/25 27/2/25 36/3/25 35/4/25
f 23/1/26 24/2/26 33/3/26 32/4/26
f 20/1/27 21/2/27 30/3/27 29/4/27
f 27/1/28 19/2/28 28/3/28 36/4/28
f 24/1/29 25/2/29 34/3/29 33/4/29
f 37/5/30 38/6/30 39/7/30 40/8/30 41/9/30 42/10/30 43/11/30 44/12/30 45/13/30
f 34/1/31 35/2/31 44/3/31 43/4/31
f 31/1/32 32/2/32 41/3/32 40/4/32
f 28/1/33 29/2/33 38/3/33 37/4/33
f 35/1/34 36/2/34 45/3/34 44/4/34
f 32/1/35 33/2/35 42/3/35 41/4/35
f 29/1/36 30/2/36 39/3/36 38/4/36
f 36/1/37 28/2/37 37/3/37 45/4/37
f 33/1/38 34/2/38 43/3/38 42/4/38
f 53/1/39 52/2/39 61/3/39 62/4/39
f 18/1/40 16/2/40 53/3/40 54/4/40
f 16/1/41 14/2/41 52/3/41 53/4/41
f 14/1/42 12/2/42 51/3/42 52/4/42
f 12/1/43 10/2/43 50/3/43 51/4/43
f 10/1/44 8/2/44 49/3/44 50/4/44
f 4/1/45 2/2/45 47/3/45 46/4/45
f 8/1/46 6/2/46 48/3/46 49/4/46
f 6/1/47 4/2/47 46/3/47 48/4/47
f 61/1/6 60/2/6 69/3/6 70/4/6
f 50/1/48 49/2/48 58/3/48 59/4/48
f 46/1/49 47/2/49 56/3/49 55/4/49
f 54/1/50 53/2/50 62/3/50 63/4/50
f 51/1/51 50/2/51 59/3/51 60/4/51
f 48/1/52 46/2/52 55/3/52 57/4/52
f 47/1/53 54/2/53 63/3/53 56/4/53
f 52/1/54 51/2/54 60/3/54 61/4/54
f 49/1/55 48/2/55 57/3/55 58/4/55
f 69/1/56 68/2/56 77/3/56 78/4/56
f 58/1/3 57/2/3 66/3/3 67/4/3
f 62/1/7 61/2/7 70/3/7 71/4/7
f 59/1/4 58/2/4 67/3/4 68/4/4
f 55/1/1 56/2/1 65/3/1 64/4/1
f 63/1/10 62/2/10 71/3/10 72/4/10
f 60/1/5 59/2/5 68/3/5 69/4/5
f 57/1/2 55/2/2 64/3/2 66/4/2
f 56/1/9 63/2/9 72/3/9 65/4/9
f 77/1/57 76/2/57 85/3/57 86/4/57
f 66/1/58 64/2/58 73/3/58 75/4/58
f 65/1/59 72/2/59 81/3/59 74/4/59
f 70/1/60 69/2/60 78/3/60 79/4/60
f 67/1/61 66/2/61 75/3/61 76/4/61
f 71/1/62 70/2/62 79/3/62 80/4/62
f 68/1/63 67/2/63 76/3/63 77/4/63
f 64/1/64 65/2/64 74/3/64 73/4/64
f 72/1/65 71/2/65 80/3/65 81/4/65
f 166/1/66 163/2/66 95/3/66 96/4/66
f 73/1/67 74/2/67 83/3/67 82/4/67
f 81/1/68 80/2/68 89/3/68 90/4/68
f 78/1/69 77/2/69 86/3/69 87/4/69
f 75/1/70 73/2/70 82/3/70 84/4/70
f 74/1/71 81/2/71 90/3/71 83/4/71
f 79/1/72 78/2/72 87/3/72 88/4/72
f 76/1/73 75/2/73 84/3/73 85/4/73
f 80/1/74 79/2/74 88/3/74 89/4/74
f 95/1/75 94/2/75 103/3/75 104/4/75
f 167/1/76 164/2/76 91/3/76 93/4/76
f 168/1/77 165/2/77 99/3/77 92/4/77
f 169/1/78 166/2/78 96/3/78 97/4/78
f 170/1/79 167/2/79 93/3/79 94/4/79
f 171/1/80 169/2/80 97/3/80 98/4/80
f 163/1/81 170/2/81 94/3/81 95/4/81
f 164/1/82 168/2/82 92/3/82 91/4/82
f 165/1/83 171/2/83 98/3/83 99/4/83
f 107/1/84 106/2/84 115/3/84 116/4/84
f 91/1/85 92/2/85 101/3/85 100/4/85
f 99/1/86 98/2/86 107/3/86 108/4/86
f 96/1/87 95/2/87 104/3/87 105/4/87
f 93/1/88 91/2/88 100/3/88 102/4/88
f 92/1/89 99/2/89 108/3/89 101/4/89
f 97/1/90 96/2/90 105/3/90 106/4/90
f 94/1/91 93/2/91 102/3/91 103/4/91
f 98/1/92 97/2/92 106/3/92 107/4/92
f 109/5/93 110/6/93 117/7/93 116/8/93 115/9/93 114/10/93 113/11/93 112/12/93 111/13/93
f 104/1/94 103/2/94 112/3/94 113/4/94
f 100/1/95 101/2/95 110/3/95 109/4/95
f 108/1/96 107/2/96 116/3/96 117/4/96
f 105/1/97 104/2/97 113/3/97 114/4/97
f 102/1/98 100/2/98 109/3/98 111/4/98
f 101/1/99 108/2/99 117/3/99 110/4/99
f 106/1/100 105/2/100 114/3/100 115/4/100
f 103/1/101 102/2/101 111/3/101 112/4/101
f 144/1/102 141/2/102 126/3/102 122/4/102
f 143/1/103 138/2/103 123/3/103 120/4/103
f 142/1/104 140/2/104 125/3/104 118/4/104
f 141/1/105 139/2/105 124/3/105 126/4/105
f 140/1/106 137/2/106 121/3/106 125/4/106
f 139/1/107 136/2/107 119/3/107 124/4/107
f 138/1/108 144/2/108 122/3/108 123/4/108
f 137/1/109 143/2/109 120/3/109 121/4/109
f 136/1/110 142/2/110 118/3/110 119/4/110
f 120/14/111 123/15/111 132/16/111 128/17/111
f 119/18/112 130/19/112 177/20/112
f 126/14/113 124/15/113 133/16/113 135/17/113
f 125/14/114 121/15/114 131/16/114 134/17/114
f 126/18/115 135/19/115 178/20/115
f 123/14/116 122/15/116 129/16/116 132/17/116
f 119/14/117 118/15/117 127/16/117 130/17/117
f 145/14/118 151/15/118 142/16/118 136/17/118
f 146/14/119 152/15/119 143/16/119 137/17/119
f 137/18/120 140/19/120 174/20/120
f 150/14/121 148/15/121 139/16/121 141/17/121
f 151/14/122 149/15/122 140/16/122 142/17/122
f 152/14/123 147/15/123 138/16/123 143/17/123
f 153/14/124 150/15/124 141/16/124 144/17/124
f 195/1/125 192/2/125 150/3/125 153/4/125
f 194/1/126 189/2/126 147/3/126 152/4/126
f 193/1/127 191/2/127 149/3/127 151/4/127
f 192/1/128 190/2/128 148/3/128 150/4/128
f 191/1/129 188/2/129 146/3/129 149/4/129
f 190/1/130 187/2/130 145/3/130 148/4/130
f 189/1/131 195/2/131 153/3/131 147/4/131
f 188/1/132 194/2/132 152/3/132 146/4/132
f 187/1/133 193/2/133 151/3/133 145/4/133
f 129/1/134 135/2/134 162/3/134 156/4/134
f 128/1/135 132/2/135 159/3/135 155/4/135
f 127/1/136 134/2/136 161/3/136 154/4/136
f 135/1/137 133/2/137 160/3/137 162/4/137
f 134/1/138 131/2/138 158/3/138 161/4/138
f 133/1/139 130/2/139 157/3/139 160/4/139
f 132/1/140 129/2/140 156/3/140 159/4/140
f 131/1/141 128/2/141 155/3/141 158/4/141
f 130/1/142 127/2/142 154/3/142 157/4/142
f 156/14/143 162/15/143 171/16/143 165/17/143
f 155/14/111 159/15/111 168/16/111 164/17/111
f 154/14/144 161/15/144 170/16/144 163/17/144
f 162/18/5 160/19/5 181/20/5 183/21/5
f 160/14/145 157/15/145 166/16/145 169/17/145
f 158/14/146 155/15/146 164/16/146 167/17/146
f 167/18/147 170/19/147 186/20/147
f 138/18/148 147/19/148 172/20/148
f 153/18/149 144/19/149 172/20/149
f 144/18/150 138/19/150 172/20/150
f 147/18/151 153/19/151 172/20/151
f 140/18/152 149/19/152 174/20/152
f 121/18/153 120/19/153 173/20/153
f 131/18/154 121/19/154 173/20/154
f 128/18/155 131/19/155 173/20/155
f 120/18/156 128/19/156 173/20/156
f 149/18/157 146/19/157 174/20/157
f 146/18/158 137/19/158 174/20/158
f 139/18/159 148/19/159 175/20/159
f 136/18/160 139/19/160 175/20/160
f 148/18/161 145/19/161 175/20/161
f 145/18/162 136/19/162 175/20/162
f 118/18/163 125/19/163 176/20/163
f 125/18/164 134/19/164 176/20/164
f 127/18/165 118/19/165 176/20/165
f 134/18/166 127/19/166 176/20/166
f 124/18/167 119/19/167 177/20/167
f 133/18/168 124/19/168 177/20/168
f 130/18/169 133/19/169 177/20/169
f 135/18/170 129/19/170 178/20/170
f 129/18/171 122/19/171 178/20/171
f 122/18/172 126/19/172 178/20/172
f 159/18/173 156/19/173 179/20/173
f 165/18/174 168/19/174 179/20/174
f 156/18/175 165/19/175 179/20/175
f 168/18/176 159/19/176 179/20/176
f 171/18/5 162/19/5 183/20/5 182/21/5
f 169/18/5 171/19/5 182/20/5 180/21/5
f 160/18/5 169/19/5 180/20/5 181/21/5
f 182/18/177 183/19/177 184/20/177
f 183/18/178 181/19/178 184/20/178
f 181/18/179 180/19/179 184/20/179
f 180/18/180 182/19/180 184/20/180
f 154/18/181 163/19/181 185/20/181
f 166/18/182 157/19/182 185/20/182
f 157/18/183 154/19/183 185/20/183
f 163/18/184 166/19/184 185/20/184
f 161/18/185 158/19/185 186/20/185
f 158/18/186 167/19/186 186/20/186
f 170/18/187 161/19/187 186/20/187
f 196/14/133 202/15/133 193/16/133 187/17/133
f 197/14/132 203/15/132 194/16/132 188/17/132
f 198/14/131 204/15/131 195/16/131 189/17/131
f 199/14/130 196/15/130 187/16/130 190/17/130
f 200/14/129 197/15/129 188/16/129 191/17/129
f 204/14/125 201/15/125 192/16/125 195/17/125
f 228/1/188 234/2/188 201/3/188 204/4/188
f 227/1/189 231/2/189 198/3/189 203/4/189
f 226/1/190 233/2/190 200/3/190 202/4/190
f 234/1/191 232/2/191 199/3/191 201/4/191
f 233/1/192 230/2/192 197/3/192 200/4/192
f 232/1/193 229/2/193 196/3/193 199/4/193
f 231/1/194 228/2/194 204/3/194 198/4/194
f 230/1/195 227/2/195 203/3/195 197/4/195
f 229/1/196 226/2/196 202/3/196 196/4/196
f 193/18/197 202/19/197 205/20/197
f 191/18/198 193/19/198 205/20/198
f 200/18/199 191/19/199 205/20/199
f 202/18/200 200/19/200 205/20/200
f 190/18/201 192/19/201 206/20/201
f 192/18/202 201/19/202 206/20/202
f 199/18/203 190/19/203 206/20/203
f 201/18/204 199/19/204 206/20/204
f 194/18/205 203/19/205 207/20/205
f 189/18/206 194/19/206 207/20/206
f 203/18/207 198/19/207 207/20/207
f 198/18/208 189/19/208 207/20/208
f 87/1/209 86/2/209 214/3/209 208/4/209
f 84/1/210 82/2/210 215/3/210 209/4/210
f 83/1/211 90/2/211 216/3/211 210/4/211
f 88/1/212 87/2/212 208/3/212 211/4/212
f 85/1/213 84/2/213 209/3/213 212/4/213
f 89/1/214 88/2/214 211/3/214 213/4/214
f 86/1/215 85/2/215 212/3/215 214/4/215
f 82/1/216 83/2/216 210/3/216 215/4/216
f 90/1/217 89/2/217 213/3/217 216/4/217
f 208/1/218 214/2/218 217/3/218 220/4/218
f 209/1/219 215/2/219 218/3/219 221/4/219
f 210/1/220 216/2/220 219/3/220 222/4/220
f 211/1/221 208/2/221 220/3/221 223/4/221
f 212/1/222 209/2/222 221/3/222 224/4/222
f 213/1/223 211/2/223 223/3/223 225/4/223
f 214/1/224 212/2/224 224/3/224 217/4/224
f 215/1/225 210/2/225 222/3/225 218/4/225
f 216/1/226 213/2/226 225/3/226 219/4/226
f 220/1/227 217/2/227 226/3/227 229/4/227
f 221/1/228 218/2/228 227/3/228 230/4/228
f 222/1/229 219/2/229 228/3/229 231/4/229
f 223/1/230 220/2/230 229/3/230 232/4/230
f 224/1/231 221/2/231 230/3/231 233/4/231
f 225/1/232 223/2/232 232/3/232 234/4/232
f 217/1/233 224/2/233 233/3/233 226/4/233
f 218/1/234 222/2/234 231/3/234 227/4/234
f 219/1/235 225/2/235 234/3/235 228/4/235
