# Blender v2.75 (sub 0) OBJ File: 'Katana.blend'
# www.blender.org
mtllib Katana.mtl
o Cube.001_Cube.002
v -0.100846 -0.085728 0.041680
v -0.100846 0.085728 0.041680
v -0.400270 -0.085728 -0.935575
v -0.400270 0.085728 -0.935575
v 0.063088 -0.085728 -0.008548
v 0.063088 0.085728 -0.008548
v -0.236336 -0.085728 -0.985804
v -0.236336 0.085728 -0.985804
v -0.382514 0.055902 -0.979438
v -0.382514 -0.055902 -0.979438
v -0.275616 0.055902 -1.012191
v -0.275616 -0.055902 -1.012191
v -0.125213 -0.000000 0.049146
v -0.424638 -0.000000 -0.928109
v -0.207955 -0.000000 -0.994499
v 0.091470 -0.000000 -0.017244
v -0.382514 -0.000000 -0.979438
v -0.275616 -0.000000 -1.012191
v -0.102499 -0.000000 0.042187
v -0.083304 0.025960 0.036305
v 0.068187 -0.000000 -0.010111
v 0.045831 -0.027778 -0.003261
v 0.045831 0.025960 -0.003261
v -0.083304 -0.027778 0.036305
v -0.178243 0.085728 -0.210926
v -0.178243 -0.085728 -0.210926
v -0.014308 0.085728 -0.261154
v -0.014308 -0.085728 -0.261154
v 0.014073 -0.000000 -0.269850
v -0.202610 -0.000000 -0.203460
v -0.174313 -0.101088 -0.145242
v 0.018993 0.101088 -0.204470
v -0.203046 -0.000000 -0.136438
v -0.174313 0.101088 -0.145242
v 0.018993 -0.101088 -0.204470
v 0.052459 -0.000000 -0.214723
v -0.145087 -0.088923 -0.091605
v 0.024956 0.088923 -0.143705
v -0.170362 -0.000000 -0.083861
v -0.145087 0.088923 -0.091605
v 0.024956 -0.088923 -0.143705
v 0.054394 -0.000000 -0.152725
v -0.148191 0.092149 -0.090654
v -0.174313 0.101088 -0.145242
v 0.028022 -0.092149 -0.144645
v 0.018993 -0.101088 -0.204470
v 0.058529 -0.000000 -0.153992
v 0.052459 -0.000000 -0.214723
v -0.203046 -0.000000 -0.136438
v -0.174313 -0.101088 -0.145242
v 0.018993 0.101088 -0.204470
v -0.148191 -0.092149 -0.090654
v 0.028022 0.092149 -0.144645
v -0.174383 -0.000000 -0.082629
v -0.318303 0.085728 -0.960689
v -0.318303 -0.085728 -0.960689
v -0.018879 0.085728 0.016566
v -0.018879 -0.085728 0.016566
v -0.329065 0.055902 -0.995814
v -0.329065 -0.055902 -0.995814
v -0.329065 -0.000000 -0.995814
v -0.018737 0.025960 0.016522
v -0.018737 -0.027778 0.016522
v -0.096276 0.085728 -0.236040
v -0.096276 -0.085728 -0.236040
v -0.077660 -0.101088 -0.174856
v -0.077660 0.101088 -0.174856
v -0.060066 0.088923 -0.117655
v -0.060066 -0.088923 -0.117655
v -0.077660 -0.101088 -0.174856
v -0.077660 0.101088 -0.174856
v -0.060084 0.092149 -0.117649
v -0.060084 -0.092149 -0.117649
v -0.201707 0.151794 -0.060464
v -0.221033 0.145640 -0.144720
v 0.088563 -0.151794 -0.149401
v 0.057468 -0.145640 -0.230051
v 0.138816 -0.000000 -0.164798
v 0.105684 -0.000000 -0.244824
v -0.262429 -0.000000 -0.132037
v -0.221033 -0.145640 -0.144720
v -0.081783 -0.171293 -0.187386
v -0.081783 0.180520 -0.187386
v 0.057468 0.145640 -0.230051
v -0.201707 -0.151794 -0.060464
v 0.088563 0.151794 -0.149401
v -0.244852 -0.000000 -0.047245
v -0.056572 0.186674 -0.104933
v -0.056572 -0.177447 -0.104933
v -0.039475 0.000000 0.367006
v -0.019575 0.025960 0.364362
v 0.137489 0.000000 0.343499
v 0.114310 -0.027778 0.346578
v 0.047368 0.025960 0.355470
v 0.047368 -0.027778 0.355470
v -0.019575 -0.027778 0.364362
v 0.114310 0.025960 0.346578
v 0.045355 0.000000 1.198178
v 0.008914 0.000000 0.731291
v 0.028814 0.025960 0.728648
v 0.185878 0.000000 0.707785
v 0.162699 -0.027778 0.710864
v 0.095757 0.025960 0.719756
v 0.095757 -0.027778 0.719756
v 0.028814 -0.027778 0.728648
v 0.162699 0.025960 0.710864
v 0.048954 0.000000 1.721501
v 0.065431 0.025960 1.198069
v 0.223871 0.000000 1.197205
v 0.200489 -0.027778 1.197332
v 0.132960 0.025960 1.197701
v 0.132960 -0.027778 1.197701
v 0.065431 -0.027778 1.198069
v 0.200489 0.025960 1.197332
v 0.000388 0.000000 2.458398
v 0.068874 0.025960 1.723995
v 0.226090 0.000000 1.743681
v 0.202888 -0.027778 1.740775
v 0.135881 0.025960 1.732385
v 0.135881 -0.027778 1.732385
v 0.068874 -0.027778 1.723995
v 0.202888 0.025960 1.740775
v -0.108048 0.000000 3.324400
v 0.020307 0.025960 2.460892
v 0.177523 0.000000 2.480578
v 0.154322 -0.027778 2.477673
v 0.087315 0.025960 2.469282
v 0.087315 -0.027778 2.469282
v 0.020307 -0.027778 2.460892
v 0.154322 0.025960 2.477673
v -0.088128 0.025960 3.326894
v 0.069087 0.000000 3.163752
v 0.045886 -0.027778 3.160847
v -0.021121 0.025960 3.248318
v -0.021121 -0.027778 3.248318
v -0.088128 -0.027778 3.326894
v 0.045886 0.025960 3.160847
v -0.019481 0.000000 3.248524
vt 0.300113 0.069644
vt 0.324887 0.069644
vt 0.324887 0.094418
vt 0.300113 0.094418
vt 0.038394 0.940738
vt 0.063168 0.940738
vt 0.063168 0.965512
vt 0.038394 0.965512
vt 0.936832 0.948550
vt 0.961606 0.948550
vt 0.961606 0.973324
vt 0.936832 0.973324
vn -0.916500 -0.285000 0.280800
vn -0.824800 0.112700 -0.554100
vn 0.911500 -0.327100 -0.249400
vn 0.293000 -0.000000 0.956100
vn 0.000000 -1.000000 -0.000000
vn 0.000000 1.000000 0.000000
vn -0.292900 0.000000 -0.956100
vn 0.347600 -0.126700 -0.929000
vn -0.184700 -0.776300 -0.602700
vn -0.184700 0.776300 -0.602700
vn 0.347600 0.126700 -0.929000
vn 0.911500 0.327100 -0.249400
vn -0.824800 -0.112700 -0.554100
vn -0.916500 0.285000 0.280800
vn -0.962000 0.272900 -0.006300
vn 0.903500 0.327200 -0.276800
vn -0.068400 0.972400 -0.223300
vn -0.068400 -0.972400 -0.223300
vn 0.903500 -0.327200 -0.276800
vn -0.962000 -0.272900 -0.006300
vn 0.000000 0.000000 1.000000
vn 0.779400 0.313100 -0.542700
vn 0.779400 -0.313100 -0.542700
vn -0.907700 0.284800 0.308100
vn 0.006700 0.999700 0.021700
vn 0.006700 -0.999700 0.021700
vn -0.907700 -0.284800 0.308100
vn 0.133200 0.056300 0.989500
vn 0.133200 -0.056300 0.989500
vn -0.490900 0.074500 -0.868000
vn 0.448200 0.049700 0.892600
vn -0.490900 -0.074500 -0.868000
vn 0.271300 0.171900 0.947000
vn -0.073800 -0.065700 -0.995100
vn 0.305800 0.171700 0.936500
vn -0.796600 -0.584300 0.154700
vn 0.751900 -0.642600 -0.147300
vn -0.293000 0.000000 -0.956100
vn -0.938900 -0.283800 0.194600
vn 0.139800 -0.982600 -0.122400
vn -0.240400 0.970700 -0.007400
vn -0.938900 0.283800 0.194600
vn 0.873500 0.325900 -0.361600
vn 0.873500 -0.325900 -0.361600
vn 0.195000 0.970700 -0.140600
vn -0.184400 -0.982600 -0.023300
vn -0.073800 0.065700 -0.995100
vn -0.264600 0.215600 -0.940000
vn -0.313800 -0.198500 -0.928500
vn -0.307400 0.215800 -0.926800
vn 0.448200 -0.049700 0.892600
vn 0.267200 -0.160100 0.950200
vn -0.260200 -0.198200 -0.945000
vn 0.311000 -0.159900 0.936900
vn 0.736600 0.669300 -0.097800
vn -0.784200 0.611700 0.104200
vn -0.777600 0.610300 0.151000
vn 0.730400 0.667900 -0.143100
vn -0.789300 0.611000 0.061600
vn -0.808600 -0.585000 0.063100
vn 0.758400 -0.644000 -0.100700
vn -0.803400 -0.585700 0.106700
vn -0.811700 -0.584100 0.005400
vn 0.766400 -0.642400 -0.003200
vn 0.741500 0.668500 -0.057600
vn 0.763400 -0.643200 -0.059300
vn 0.763900 -0.643300 0.050300
vn 0.742000 0.668600 0.048900
vn -0.792300 0.610100 0.005300
vn 0.744400 0.667700 -0.003200
vn -0.784900 0.611700 -0.098300
vn -0.804200 -0.585700 -0.100700
vn -0.809200 -0.585100 -0.053300
vn -0.789900 0.611100 -0.052100
vn 0.681700 0.252600 0.686700
vn 0.678600 -0.269000 0.683500
vn 0.690200 0.367600 0.623400
vn 0.696100 -0.346500 0.628800
vn 0.734000 0.669100 0.116500
vn 0.755800 -0.643800 0.120000
usemtl Material.001
s off
f 30/1/1 14/2/1 3/3/1 26/4/1
f 14/5/2 4/6/2 9/7/2 17/8/2
f 42/5/3 16/6/3 5/7/3 41/8/3
f 58/5/4 5/6/4 22/7/4 63/8/4
f 65/1/5 56/2/5 7/3/5 28/4/5
f 64/1/6 55/2/6 4/3/6 25/4/6
f 61/5/7 18/6/7 12/7/7 60/8/7
f 15/5/8 7/6/8 12/7/8 18/8/8
f 56/5/9 3/6/9 10/7/9 60/8/9
f 55/5/10 8/6/10 11/7/10 59/8/10
f 8/5/11 15/6/11 18/7/11 11/8/11
f 59/5/7 11/6/7 18/7/7 61/8/7
f 2/5/4 13/6/4 19/7/4 20/8/4
f 38/5/12 6/6/12 16/7/12 42/8/12
f 3/5/13 14/6/13 17/7/13 10/8/13
f 25/1/14 4/2/14 14/3/14 30/4/14
f 62/9/6 20/10/6 91/11/6 94/12/6
f 23/9/6 62/10/6 94/11/6 97/12/6
f 13/5/4 1/6/4 24/7/4 19/8/4
f 16/5/4 6/6/4 23/7/4 21/8/4
f 57/5/4 2/6/4 20/7/4 62/8/4
f 5/5/4 16/6/4 21/7/4 22/8/4
f 34/5/15 25/6/15 30/7/15 33/8/15
f 8/1/16 27/2/16 29/3/16 15/4/16
f 67/5/17 64/6/17 25/7/17 34/8/17
f 66/5/18 65/6/18 28/7/18 35/8/18
f 15/1/19 29/2/19 28/3/19 7/4/19
f 33/5/20 30/6/20 26/7/20 31/8/20
f 38/5/4 42/6/4 47/7/4 53/8/4
f 67/5/21 34/6/21 44/7/21 71/8/21
f 39/5/4 40/6/4 43/7/4 54/8/4
f 35/5/21 36/6/21 48/7/21 46/8/21
f 27/5/22 32/6/22 36/7/22 29/8/22
f 29/5/23 36/6/23 35/7/23 28/8/23
f 2/5/24 40/6/24 39/7/24 13/8/24
f 57/5/25 68/6/25 40/7/25 2/8/25
f 58/5/26 69/6/26 41/7/26 5/8/26
f 13/5/27 39/6/27 37/7/27 1/8/27
f 37/5/4 39/6/4 54/7/4 52/8/4
f 66/5/21 35/6/21 46/7/21 70/8/21
f 47/5/28 45/6/28 76/7/28 78/8/28
f 53/5/29 47/6/29 78/7/29 86/8/29
f 46/5/30 48/6/30 79/7/30 77/8/30
f 52/5/31 54/6/31 87/7/31 85/8/31
f 48/5/32 51/6/32 84/7/32 79/8/32
f 45/5/33 73/6/33 89/7/33 76/8/33
f 68/5/4 38/6/4 53/7/4 72/8/4
f 34/5/21 33/6/21 49/7/21 44/8/21
f 42/5/4 41/6/4 45/7/4 47/8/4
f 33/5/21 31/6/21 50/7/21 49/8/21
f 69/5/4 37/6/4 52/7/4 73/8/4
f 36/5/21 32/6/21 51/7/21 48/8/21
f 41/5/4 69/6/4 73/7/4 45/8/4
f 40/5/4 68/6/4 72/7/4 43/8/4
f 44/5/34 49/6/34 80/7/34 75/8/34
f 73/5/35 52/6/35 85/7/35 89/8/35
f 31/5/21 66/6/21 70/7/21 50/8/21
f 1/5/26 37/6/26 69/7/26 58/8/26
f 6/5/25 38/6/25 68/7/25 57/8/25
f 32/5/21 67/6/21 71/7/21 51/8/21
f 31/5/18 26/6/18 65/7/18 66/8/18
f 32/5/17 27/6/17 64/7/17 67/8/17
f 6/5/4 57/6/4 62/7/4 23/8/4
f 19/9/36 24/10/36 96/11/36 90/12/36
f 22/9/37 21/10/37 92/11/37 93/12/37
f 9/5/38 59/6/38 61/7/38 17/8/38
f 4/5/10 55/6/10 59/7/10 9/8/10
f 7/5/9 56/6/9 60/7/9 12/8/9
f 17/5/38 61/6/38 60/7/38 10/8/38
f 27/1/6 8/2/6 55/3/6 64/4/6
f 26/1/5 3/2/5 56/3/5 65/4/5
f 1/5/4 58/6/4 63/7/4 24/8/4
f 87/5/39 80/6/39 81/7/39 85/8/39
f 89/5/40 82/6/40 77/7/40 76/8/40
f 88/5/41 83/6/41 75/7/41 74/8/41
f 74/5/42 75/6/42 80/7/42 87/8/42
f 84/5/43 86/6/43 78/7/43 79/8/43
f 79/5/44 78/6/44 76/7/44 77/8/44
f 86/5/45 84/6/45 83/7/45 88/8/45
f 85/5/46 81/6/46 82/7/46 89/8/46
f 49/5/47 50/6/47 81/7/47 80/8/47
f 50/5/48 70/6/48 82/7/48 81/8/48
f 51/5/49 71/6/49 83/7/49 84/8/49
f 70/5/50 46/6/50 77/7/50 82/8/50
f 54/5/51 43/6/51 74/7/51 87/8/51
f 72/5/52 53/6/52 86/7/52 88/8/52
f 71/5/53 44/6/53 75/7/53 83/8/53
f 43/5/54 72/6/54 88/7/54 74/8/54
f 92/9/55 97/10/55 106/11/55 101/12/55
f 97/9/6 94/10/6 103/11/6 106/12/6
f 91/9/56 90/10/56 99/11/56 100/12/56
f 94/9/6 91/10/6 100/11/6 103/12/6
f 20/9/57 19/10/57 90/11/57 91/12/57
f 21/9/58 23/10/58 97/11/58 92/12/58
f 24/9/5 63/10/5 95/11/5 96/12/5
f 63/9/5 22/10/5 93/11/5 95/12/5
f 100/9/59 99/10/59 98/11/59 108/12/59
f 103/9/6 100/10/6 108/11/6 111/12/6
f 99/9/60 105/10/60 113/11/60 98/12/60
f 105/9/5 104/10/5 112/11/5 113/12/5
f 95/9/5 93/10/5 102/11/5 104/12/5
f 93/9/61 92/10/61 101/11/61 102/12/61
f 96/9/5 95/10/5 104/11/5 105/12/5
f 90/9/62 96/10/62 105/11/62 99/12/62
f 98/9/63 113/10/63 121/11/63 107/12/63
f 113/9/5 112/10/5 120/11/5 121/12/5
f 110/9/64 109/10/64 117/11/64 118/12/64
f 112/9/5 110/10/5 118/11/5 120/12/5
f 106/9/6 103/10/6 111/11/6 114/12/6
f 101/9/65 106/10/65 114/11/65 109/12/65
f 104/9/5 102/10/5 110/11/5 112/12/5
f 102/9/66 101/10/66 109/11/66 110/12/66
f 118/9/67 117/10/67 125/11/67 126/12/67
f 120/9/5 118/10/5 126/11/5 128/12/5
f 117/9/68 122/10/68 130/11/68 125/12/68
f 122/9/6 119/10/6 127/11/6 130/12/6
f 111/9/6 108/10/6 116/11/6 119/12/6
f 108/9/69 98/10/69 107/11/69 116/12/69
f 114/9/6 111/10/6 119/11/6 122/12/6
f 109/9/70 114/10/70 122/11/70 117/12/70
f 130/9/6 127/10/6 134/11/6 137/12/6
f 124/9/71 115/10/71 123/11/71 131/12/71
f 127/9/6 124/10/6 131/11/6 134/12/6
f 115/9/72 129/10/72 136/11/72 123/12/72
f 121/9/5 120/10/5 128/11/5 129/12/5
f 107/9/73 121/10/73 129/11/73 115/12/73
f 119/9/6 116/10/6 124/11/6 127/12/6
f 116/9/74 107/10/74 115/11/74 124/12/74
f 138/9/75 123/10/75 136/11/75 135/12/75
f 134/9/76 131/10/76 123/11/76 138/12/76
f 137/9/77 134/10/77 138/11/77 132/12/77
f 132/9/78 138/10/78 135/11/78 133/12/78
f 125/9/79 130/10/79 137/11/79 132/12/79
f 128/9/5 126/10/5 133/11/5 135/12/5
f 126/9/80 125/10/80 132/11/80 133/12/80
f 129/9/5 128/10/5 135/11/5 136/12/5
