# Blender v2.76 (sub 0) OBJ File: 'Gems.blend'
# www.blender.org
mtllib Gems.mtl
o Gem6_Cylinder.003
v -0.786289 -0.466140 2.199166
v -0.690388 -0.533243 2.110565
v -0.690388 -0.533243 2.287768
v -0.506802 -0.466140 2.199166
v -0.602704 -0.533243 2.287768
v -0.602704 -0.533243 2.110565
v -0.786289 -0.398403 2.362699
v -0.690388 -0.508503 2.347497
v -0.690388 -0.383201 2.472798
v -0.506802 -0.398403 2.362699
v -0.602704 -0.383201 2.472798
v -0.602704 -0.508503 2.347497
v -0.786289 -0.225493 2.434320
v -0.690388 -0.323472 2.497539
v -0.690388 -0.140987 2.514666
v -0.506802 -0.225493 2.434320
v -0.602704 -0.140987 2.514666
v -0.602704 -0.323472 2.497539
v -0.786289 0.166658 2.352562
v -0.690388 0.141977 2.455672
v -0.690388 0.272560 2.347497
v -0.506802 0.166658 2.352562
v -0.602704 0.272560 2.347497
v -0.602704 0.141977 2.455672
v -0.786289 0.230197 2.199166
v -0.690388 0.297300 2.287768
v -0.690388 0.297300 2.110565
v -0.506802 0.230197 2.199166
v -0.602704 0.297300 2.110565
v -0.602704 0.297300 2.287768
v -0.786289 0.166658 2.045770
v -0.690388 0.272560 2.050836
v -0.690388 0.141977 1.942661
v -0.506802 0.166658 2.045770
v -0.602704 0.141977 1.942661
v -0.602704 0.272560 2.050836
v -0.786289 -0.225493 1.964013
v -0.690388 -0.140988 1.883667
v -0.690388 -0.323472 1.900794
v -0.506802 -0.225493 1.964013
v -0.602704 -0.323472 1.900794
v -0.602704 -0.140988 1.883667
v -0.786289 -0.398403 2.035634
v -0.690388 -0.383201 1.925534
v -0.690388 -0.508503 2.050836
v -0.506802 -0.398403 2.035634
v -0.602704 -0.508503 2.050836
v -0.602704 -0.383201 1.925534
v -0.690388 0.000495 2.499123
v -0.786289 -0.029417 2.402920
v -0.602704 0.000495 2.499123
v -0.506802 -0.029417 2.402920
v -0.690388 0.000495 1.899210
v -0.786289 -0.029417 1.995413
v -0.602704 0.000495 1.899210
v -0.506802 -0.029417 1.995413
vt 0.653481 0.656867
vt 0.653481 0.343134
vt 0.591678 0.343134
vt 0.591678 0.656867
vt 0.189629 0.656867
vt 0.189629 0.343134
vt 0.234589 0.343134
vt 0.234589 0.656867
vt 0.346519 0.656867
vt 0.346519 0.343134
vt 0.408322 0.343134
vt 0.408322 0.656867
vt 0.810371 0.656867
vt 0.810371 0.343134
vt 0.826453 0.343134
vt 0.826453 0.656865
vt 0.808732 0.656865
vt 0.808732 0.343134
vt 0.783133 0.343134
vt 0.783133 0.656865
vt 0.216868 0.656867
vt 0.216868 0.343134
vt 0.191268 0.343134
vt 0.191268 0.656867
vt 0.330790 0.000002
vt 0.500000 0.000000
vt 0.669210 0.000000
vt 0.743319 0.000000
vt 0.710828 0.000000
vt 0.658722 0.000000
vt 0.341278 0.000002
vt 0.289173 0.000002
vt 0.256682 0.000002
vt 0.500001 1.000000
vt 0.330790 1.000000
vt 0.256682 1.000000
vt 0.173547 0.656867
vt 0.173547 0.343134
vt 0.341279 1.000000
vt 0.658722 1.000000
vt 0.765411 0.656867
vt 0.765411 0.343134
vt 0.743319 1.000000
vt 0.669210 1.000000
vt 0.289173 1.000000
vt 0.710829 1.000000
vn 0.000000 -0.923900 -0.382700
vn 0.000000 0.293600 0.955900
vn 0.000000 0.923900 0.382700
vn 0.000000 0.923900 -0.382700
vn -0.000000 0.109200 -0.994000
vn 0.000000 -0.382700 -0.923900
vn 0.000000 -0.382700 0.923900
vn 1.000000 0.000000 -0.000000
vn 0.000000 -0.923900 0.382700
vn -0.573300 -0.819300 0.000000
vn 0.573300 -0.819300 0.000000
vn -0.573300 -0.579400 0.579400
vn 0.573300 -0.579400 0.579400
vn -0.600900 -0.074700 0.795800
vn 0.600900 -0.074700 0.795800
vn -0.553000 0.531500 0.641600
vn 0.553000 0.531500 0.641600
vn -0.573300 0.819300 0.000000
vn 0.573300 0.819300 0.000000
vn -0.553000 0.531500 -0.641600
vn 0.553000 0.531500 -0.641600
vn -0.600900 -0.074700 -0.795800
vn 0.600900 -0.074700 -0.795800
vn -0.573300 -0.579400 -0.579400
vn 0.573300 -0.579400 -0.579400
vn -0.707100 -0.653300 0.270600
vn 0.707100 -0.653300 0.270600
vn 0.000000 -1.000000 0.000000
vn 0.000000 -0.707100 0.707100
vn -0.707100 -0.270600 0.653300
vn 0.707100 -0.270600 0.653300
vn 0.000000 -0.093400 0.995600
vn -0.710100 0.188500 0.678400
vn 0.704900 0.097700 0.702500
vn 0.000000 0.637900 0.770100
vn -0.707100 0.653300 0.270600
vn 0.707100 0.653300 0.270600
vn 0.000000 1.000000 0.000000
vn -0.707100 0.653300 -0.270600
vn 0.707100 0.653300 -0.270600
vn 0.000000 0.637900 -0.770100
vn -0.704900 0.097700 -0.702500
vn 0.710100 0.188500 -0.678400
vn 0.000000 -0.093400 -0.995600
vn -0.707100 -0.270600 -0.653300
vn 0.707100 -0.270600 -0.653300
vn 0.000000 -0.707100 -0.707100
vn -0.707100 -0.653300 -0.270600
vn 0.707100 -0.653300 -0.270600
vn -1.000000 -0.000000 0.000000
vn 0.710100 0.188500 0.678400
vn -0.704900 0.097700 0.702500
vn 0.000000 0.109200 0.994000
vn 0.704900 0.097700 -0.702500
vn -0.710100 0.188500 -0.678400
vn -0.000000 0.293600 -0.955900
usemtl Material.006
s off
f 45/1/1 47/2/1 6/3/1 2/4/1
f 49/5/2 51/6/2 24/7/2 20/8/2
f 21/9/3 23/10/3 30/11/3 26/12/3
f 27/4/4 29/3/4 36/2/4 32/1/4
f 53/13/5 55/14/5 42/15/5 38/16/5
f 39/17/6 41/18/6 48/19/6 44/20/6
f 9/21/7 11/22/7 18/23/7 14/24/7
f 10/25/8 4/26/8 46/27/8 40/28/8 56/29/8 34/30/8 28/26/8 22/31/8 52/32/8 16/33/8
f 3/12/9 5/11/9 12/10/9 8/9/9
f 1/34/10 2/4/10 3/12/10
f 4/26/11 5/11/11 6/3/11
f 7/35/12 8/9/12 9/21/12
f 10/25/13 11/22/13 12/10/13
f 13/36/14 14/24/14 15/37/14
f 16/33/15 17/38/15 18/23/15
f 19/39/16 20/8/16 21/9/16
f 22/31/17 23/10/17 24/7/17
f 25/34/18 26/12/18 27/4/18
f 28/26/19 29/3/19 30/11/19
f 31/40/20 32/1/20 33/41/20
f 34/30/21 35/42/21 36/2/21
f 37/43/22 38/16/22 39/17/22
f 40/28/23 41/18/23 42/15/23
f 43/44/24 44/20/24 45/1/24
f 46/27/25 47/2/25 48/19/25
f 3/12/26 8/9/26 7/35/26 1/34/26
f 12/10/27 5/11/27 4/26/27 10/25/27
f 2/4/28 6/3/28 5/11/28 3/12/28
f 11/22/29 9/21/29 8/9/29 12/10/29
f 9/21/30 14/24/30 13/36/30 7/35/30
f 18/23/31 11/22/31 10/25/31 16/33/31
f 17/38/32 15/37/32 14/24/32 18/23/32
f 49/5/33 20/8/33 19/39/33 50/45/33
f 51/6/34 17/38/34 16/33/34 52/32/34
f 23/10/35 21/9/35 20/8/35 24/7/35
f 21/9/36 26/12/36 25/34/36 19/39/36
f 30/11/37 23/10/37 22/31/37 28/26/37
f 29/3/38 27/4/38 26/12/38 30/11/38
f 27/4/39 32/1/39 31/40/39 25/34/39
f 36/2/40 29/3/40 28/26/40 34/30/40
f 35/42/41 33/41/41 32/1/41 36/2/41
f 53/13/42 38/16/42 37/43/42 54/46/42
f 55/14/43 35/42/43 34/30/43 56/29/43
f 41/18/44 39/17/44 38/16/44 42/15/44
f 39/17/45 44/20/45 43/44/45 37/43/45
f 48/19/46 41/18/46 40/28/46 46/27/46
f 47/2/47 45/1/47 44/20/47 48/19/47
f 45/1/48 2/4/48 1/34/48 43/44/48
f 6/3/49 47/2/49 46/27/49 4/26/49
f 1/34/50 7/35/50 13/36/50 50/45/50 19/39/50 25/34/50 31/40/50 54/46/50 37/43/50 43/44/50
f 24/7/51 51/6/51 52/32/51 22/31/51
f 15/37/52 49/5/52 50/45/52 13/36/52
f 15/37/53 17/38/53 51/6/53 49/5/53
f 42/15/54 55/14/54 56/29/54 40/28/54
f 33/41/55 53/13/55 54/46/55 31/40/55
f 33/41/56 35/42/56 55/14/56 53/13/56
o Gem5_Cylinder.001
v -0.729016 -0.127264 1.073689
v -0.673272 -0.075764 1.034684
v -0.673272 -0.178765 1.034684
v -0.564075 -0.127264 1.073689
v -0.619819 -0.178765 1.034684
v -0.619819 -0.075764 1.034684
v -0.729016 -0.321532 1.154157
v -0.673272 -0.312696 1.090160
v -0.673272 -0.385529 1.162993
v -0.564075 -0.321532 1.154157
v -0.619819 -0.385529 1.162993
v -0.619819 -0.312696 1.090160
v -0.729016 -0.402000 1.348425
v -0.673272 -0.441005 1.296924
v -0.673272 -0.441005 1.399925
v -0.564075 -0.402000 1.348425
v -0.619819 -0.441005 1.399925
v -0.619819 -0.441005 1.296924
v -0.729016 -0.321532 1.542692
v -0.673272 -0.385529 1.533856
v -0.673272 -0.312696 1.606689
v -0.564075 -0.321532 1.542692
v -0.619819 -0.312696 1.606689
v -0.619819 -0.385529 1.533856
v -0.729016 -0.127264 1.623160
v -0.673272 -0.178765 1.662165
v -0.673272 -0.075763 1.662165
v -0.564075 -0.127264 1.623160
v -0.619819 -0.075763 1.662165
v -0.619819 -0.178765 1.662165
v -0.729016 0.067003 1.542692
v -0.673272 0.058167 1.606689
v -0.673272 0.131000 1.533856
v -0.564075 0.067003 1.542692
v -0.619819 0.131000 1.533856
v -0.619819 0.058167 1.606689
v -0.729016 0.147471 1.348425
v -0.673272 0.186476 1.399925
v -0.673272 0.186476 1.296924
v -0.564075 0.147471 1.348425
v -0.619819 0.186476 1.296924
v -0.619819 0.186476 1.399925
v -0.729016 0.067003 1.154157
v -0.673272 0.131000 1.162993
v -0.673272 0.058167 1.090160
v -0.564075 0.067003 1.154157
v -0.619819 0.058167 1.090160
v -0.619819 0.131000 1.162993
vn 0.000000 0.382700 -0.923900
vn 0.000000 -0.923900 0.382700
vn 0.000000 -0.382700 0.923900
vn -0.000000 0.382700 0.923900
vn 0.000000 0.923900 0.382700
vn 0.000000 0.923900 -0.382700
vn 0.000000 -0.923900 -0.382700
vn 1.000000 0.000000 -0.000000
vn 0.000000 -0.382700 -0.923900
vn -0.573300 0.000000 -0.819300
vn 0.573300 0.000000 -0.819300
vn -0.573300 -0.579400 -0.579400
vn 0.573300 -0.579400 -0.579400
vn -0.573300 -0.819300 0.000000
vn 0.573300 -0.819300 0.000000
vn -0.573300 -0.579400 0.579400
vn 0.573300 -0.579400 0.579400
vn -0.573300 0.000000 0.819300
vn 0.573300 0.000000 0.819300
vn -0.573300 0.579400 0.579400
vn 0.573300 0.579400 0.579400
vn -0.573300 0.819300 0.000000
vn 0.573300 0.819300 0.000000
vn -0.573300 0.579400 -0.579400
vn 0.573300 0.579400 -0.579400
vn -0.707100 -0.270600 -0.653300
vn 0.707100 -0.270600 -0.653300
vn 0.000000 0.000000 -1.000000
vn 0.000000 -0.707100 -0.707100
vn -0.707100 -0.653300 -0.270600
vn 0.707100 -0.653300 -0.270600
vn 0.000000 -1.000000 0.000000
vn -0.707100 -0.653300 0.270600
vn 0.707100 -0.653300 0.270600
vn 0.000000 -0.707100 0.707100
vn -0.707100 -0.270600 0.653300
vn 0.707100 -0.270600 0.653300
vn 0.000000 0.000000 1.000000
vn -0.707100 0.270600 0.653300
vn 0.707100 0.270600 0.653300
vn 0.000000 0.707100 0.707100
vn -0.707100 0.653300 0.270600
vn 0.707100 0.653300 0.270600
vn 0.000000 1.000000 0.000000
vn -0.707100 0.653300 -0.270600
vn 0.707100 0.653300 -0.270600
vn 0.000000 0.707100 -0.707100
vn -0.707100 0.270600 -0.653300
vn 0.707100 0.270600 -0.653300
vn -1.000000 -0.000000 0.000000
usemtl Material.007
s off
f 101//57 103//57 62//57 58//57
f 71//58 73//58 80//58 76//58
f 77//59 79//59 86//59 82//59
f 83//60 85//60 92//60 88//60
f 89//61 91//61 98//61 94//61
f 95//62 97//62 104//62 100//62
f 65//63 67//63 74//63 70//63
f 66//64 60//64 102//64 96//64 90//64 84//64 78//64 72//64
f 59//65 61//65 68//65 64//65
f 57//66 58//66 59//66
f 60//67 61//67 62//67
f 63//68 64//68 65//68
f 66//69 67//69 68//69
f 69//70 70//70 71//70
f 72//71 73//71 74//71
f 75//72 76//72 77//72
f 78//73 79//73 80//73
f 81//74 82//74 83//74
f 84//75 85//75 86//75
f 87//76 88//76 89//76
f 90//77 91//77 92//77
f 93//78 94//78 95//78
f 96//79 97//79 98//79
f 99//80 100//80 101//80
f 102//81 103//81 104//81
f 59//82 64//82 63//82 57//82
f 68//83 61//83 60//83 66//83
f 58//84 62//84 61//84 59//84
f 67//85 65//85 64//85 68//85
f 65//86 70//86 69//86 63//86
f 74//87 67//87 66//87 72//87
f 73//88 71//88 70//88 74//88
f 71//89 76//89 75//89 69//89
f 80//90 73//90 72//90 78//90
f 79//91 77//91 76//91 80//91
f 77//92 82//92 81//92 75//92
f 86//93 79//93 78//93 84//93
f 85//94 83//94 82//94 86//94
f 83//95 88//95 87//95 81//95
f 92//96 85//96 84//96 90//96
f 91//97 89//97 88//97 92//97
f 89//98 94//98 93//98 87//98
f 98//99 91//99 90//99 96//99
f 97//100 95//100 94//100 98//100
f 95//101 100//101 99//101 93//101
f 104//102 97//102 96//102 102//102
f 103//103 101//103 100//103 104//103
f 101//104 58//104 57//104 99//104
f 62//105 103//105 102//105 60//105
f 57//106 63//106 69//106 75//106 81//106 87//106 93//106 99//106
o Gem4_Cube.004
v -0.709400 0.250168 0.639169
v -0.817860 0.066778 0.747629
v -0.817860 0.066778 0.530709
v -0.600940 0.066778 0.530709
v -0.600940 0.066778 0.747629
v -0.709400 -0.494131 0.639169
v -0.817860 -0.310741 0.747629
v -0.817860 -0.310741 0.530709
v -0.600940 -0.310741 0.530709
v -0.600940 -0.310741 0.747629
vn 0.000000 0.509100 0.860700
vn 0.860700 0.509100 0.000000
vn 0.000000 0.509100 -0.860700
vn -0.860700 0.509100 0.000000
vn 0.000000 0.000000 -1.000000
vn -1.000000 0.000000 0.000000
vn 1.000000 0.000000 0.000000
vn 0.000000 -0.509100 0.860700
vn 0.860700 -0.509100 0.000000
vn 0.000000 -0.509100 -0.860700
vn -0.860700 -0.509100 0.000000
vn 0.000000 0.000000 1.000000
usemtl Material.008
s off
f 105//107 106//107 109//107
f 105//108 109//108 108//108
f 105//109 108//109 107//109
f 105//110 107//110 106//110
f 112//111 107//111 108//111 113//111
f 111//112 106//112 107//112 112//112
f 113//113 108//113 109//113 114//113
f 110//114 114//114 111//114
f 110//115 113//115 114//115
f 110//116 112//116 113//116
f 110//117 111//117 112//117
f 114//118 109//118 106//118 111//118
o Gem3_Cube.003
v -0.642574 -0.395425 0.091124
v -0.642574 0.426667 0.091124
v -0.799603 0.135264 0.248153
v -0.799603 0.135264 -0.065905
v -0.485545 0.135264 -0.065905
v -0.485545 0.135264 0.248153
vt -1.302810 0.005784
vt 0.998123 0.005784
vt 0.998123 2.306716
vn 0.000000 -0.283700 0.958900
vn 0.958900 -0.283700 0.000000
vn 0.000000 -0.283700 -0.958900
vn -0.958900 -0.283700 0.000000
vn 0.000000 0.474400 0.880300
vn 0.880300 0.474400 0.000000
vn 0.000000 0.474400 -0.880300
vn -0.880300 0.474400 0.000000
usemtl Material.009
s off
f 120/47/119 117/48/119 115/49/119
f 119/47/120 120/48/120 115/49/120
f 118/47/121 119/48/121 115/49/121
f 117/47/122 118/48/122 115/49/122
f 116/47/123 117/48/123 120/49/123
f 116/47/124 120/48/124 119/49/124
f 116/47/125 119/48/125 118/49/125
f 116/47/126 118/48/126 117/49/126
o Gem7_Icosphere.001
v -0.759100 -0.381599 -2.357208
v -0.759100 -0.381599 -2.456192
v -0.664961 -0.381599 -2.486779
v -0.606779 -0.381599 -2.406700
v -0.664961 -0.381599 -2.326620
v -0.490622 -0.292863 -2.322308
v -0.438583 -0.208661 -2.322308
v -0.464603 -0.156621 -2.242228
v -0.532723 -0.208661 -2.192736
v -0.548804 -0.292863 -2.242228
v -0.803468 -0.292863 -2.220657
v -0.709327 -0.292863 -2.190070
v -0.693248 -0.208661 -2.140578
v -0.777448 -0.156621 -2.140578
v -0.845568 -0.208661 -2.190070
v -0.902679 -0.292863 -2.456192
v -0.902679 -0.292863 -2.357208
v -0.944780 -0.208661 -2.326621
v -0.970800 -0.156620 -2.406700
v -0.944780 -0.208661 -2.486778
v -0.709327 -0.292863 -2.623329
v -0.803468 -0.292863 -2.592742
v -0.845568 -0.208661 -2.623330
v -0.777448 -0.156621 -2.672821
v -0.693248 -0.208661 -2.672821
v -0.438583 -0.208661 -2.491091
v -0.490622 -0.292863 -2.491091
v -0.548804 -0.292863 -2.571171
v -0.532723 -0.208661 -2.620663
v -0.464603 -0.156621 -2.571171
v -0.688713 -0.013041 -2.140578
v -0.604513 -0.065081 -2.140578
v -0.536393 -0.013041 -2.190070
v -0.578493 0.071161 -2.220657
v -0.672634 0.071161 -2.190070
v -0.943378 -0.013041 -2.322308
v -0.917358 -0.065081 -2.242228
v -0.849238 -0.013041 -2.192736
v -0.833157 0.071161 -2.242228
v -0.891338 0.071161 -2.322308
v -0.849238 -0.013041 -2.620663
v -0.917358 -0.065081 -2.571171
v -0.943378 -0.013041 -2.491091
v -0.891338 0.071161 -2.491091
v -0.833157 0.071161 -2.571171
v -0.536393 -0.013041 -2.623330
v -0.604513 -0.065081 -2.672821
v -0.688713 -0.013041 -2.672821
v -0.672634 0.071161 -2.623329
v -0.578493 0.071161 -2.592742
v -0.437181 -0.013041 -2.326621
v -0.411161 -0.065082 -2.406700
v -0.437181 -0.013041 -2.486778
v -0.479282 0.071161 -2.456192
v -0.479282 0.071161 -2.357208
v -0.717000 0.159897 -2.326620
v -0.622861 0.159897 -2.357208
v -0.622861 0.159897 -2.456192
v -0.717000 0.159897 -2.486779
v -0.775182 0.159897 -2.406700
vn 0.607100 -0.794700 0.000000
vn -0.491100 -0.794700 -0.356800
vn 0.187600 -0.794700 0.577400
vn 0.187600 -0.794700 -0.577400
vn 0.982200 -0.187600 0.000000
vn 0.794600 0.187600 0.577400
vn -0.303500 0.187600 0.934200
vn -0.982200 0.187600 0.000000
vn -0.303500 0.187600 -0.934200
vn 0.794600 0.187600 -0.577400
vn 0.303500 -0.187600 0.934200
vn -0.794600 -0.187600 0.577400
vn -0.794600 -0.187600 -0.577400
vn 0.303500 -0.187600 -0.934200
vn 0.491100 0.794700 0.356800
vn -0.187600 0.794700 0.577400
vn -0.607100 0.794700 0.000000
vn -0.187600 0.794700 -0.577400
vn 0.491100 0.794700 -0.356800
vn 0.000000 -1.000000 0.000000
vn 0.723600 -0.447200 0.525700
vn -0.276400 -0.447200 0.850700
vn -0.894400 -0.447200 -0.000000
vn -0.276400 -0.447200 -0.850700
vn 0.723600 -0.447200 -0.525700
vn 0.276400 0.447200 0.850700
vn -0.723600 0.447200 0.525700
vn -0.723600 0.447200 -0.525700
vn 0.276400 0.447200 -0.850700
vn 0.894400 0.447200 -0.000000
vn -0.000000 1.000000 0.000000
vn -0.162500 -0.850600 0.500000
vn 0.425300 -0.850600 0.309000
vn 0.262900 -0.525700 0.809000
vn 0.850700 -0.525700 0.000000
vn 0.425300 -0.850600 -0.309000
vn -0.525700 -0.850700 0.000000
vn -0.688200 -0.525700 0.500000
vn -0.162500 -0.850600 -0.500000
vn -0.688200 -0.525700 -0.500000
vn 0.262900 -0.525700 -0.809000
vn 0.951100 -0.000000 0.309000
vn 0.951100 -0.000000 -0.309000
vn 0.000000 0.000000 1.000000
vn 0.587800 -0.000000 0.809000
vn -0.951100 0.000000 0.309000
vn -0.587800 0.000000 0.809000
vn -0.587800 0.000000 -0.809000
vn -0.951100 0.000000 -0.309000
vn 0.587800 -0.000000 -0.809000
vn 0.000000 0.000000 -1.000000
vn 0.688200 0.525700 0.500000
vn -0.262900 0.525700 0.809000
vn -0.850600 0.525700 0.000000
vn -0.262900 0.525700 -0.809000
vn 0.688200 0.525700 -0.500000
vn 0.162500 0.850600 0.500000
vn 0.525700 0.850700 0.000000
vn -0.425300 0.850600 0.309000
vn -0.425300 0.850600 -0.309000
vn 0.162500 0.850600 -0.500000
vn -0.491100 -0.794700 0.356800
usemtl Material.012
s off
f 126//127 124//127 147//127
f 122//128 136//128 142//128
f 125//129 130//129 132//129
f 123//130 141//130 148//130
f 127//131 146//131 172//131
f 128//132 171//132 153//132
f 134//133 151//133 158//133
f 139//134 156//134 163//134
f 144//135 161//135 168//135
f 150//136 166//136 173//136
f 133//137 129//137 152//137
f 138//138 135//138 157//138
f 143//139 140//139 162//139
f 149//140 145//140 167//140
f 154//141 175//141 177//141
f 159//142 155//142 176//142
f 164//143 160//143 180//143
f 169//144 165//144 179//144
f 174//145 170//145 178//145
f 121//146 122//146 123//146 124//146 125//146
f 126//147 127//147 128//147 129//147 130//147
f 131//148 132//148 133//148 134//148 135//148
f 136//149 137//149 138//149 139//149 140//149
f 141//150 142//150 143//150 144//150 145//150
f 146//151 147//151 148//151 149//151 150//151
f 151//152 152//152 153//152 154//152 155//152
f 156//153 157//153 158//153 159//153 160//153
f 161//154 162//154 163//154 164//154 165//154
f 166//155 167//155 168//155 169//155 170//155
f 171//156 172//156 173//156 174//156 175//156
f 176//157 177//157 178//157 179//157 180//157
f 131//158 121//158 125//158 132//158
f 124//159 126//159 130//159 125//159
f 129//160 133//160 132//160 130//160
f 146//161 127//161 126//161 147//161
f 123//162 148//162 147//162 124//162
f 136//163 122//163 121//163 137//163
f 135//164 138//164 137//164 131//164
f 141//165 123//165 122//165 142//165
f 140//166 143//166 142//166 136//166
f 145//167 149//167 148//167 141//167
f 171//168 128//168 127//168 172//168
f 150//169 173//169 172//169 146//169
f 151//170 134//170 133//170 152//170
f 128//171 153//171 152//171 129//171
f 156//172 139//172 138//172 157//172
f 134//173 158//173 157//173 135//173
f 161//174 144//174 143//174 162//174
f 139//175 163//175 162//175 140//175
f 166//176 150//176 149//176 167//176
f 144//177 168//177 167//177 145//177
f 175//178 154//178 153//178 171//178
f 155//179 159//179 158//179 151//179
f 160//180 164//180 163//180 156//180
f 165//181 169//181 168//181 161//181
f 170//182 174//182 173//182 166//182
f 176//183 155//183 154//183 177//183
f 174//184 178//184 177//184 175//184
f 180//185 160//185 159//185 176//185
f 179//186 165//186 164//186 180//186
f 178//187 170//187 169//187 179//187
f 121//188 131//188 137//188
o Gem2_Cube.002
v -0.326193 -0.061545 -1.373297
v -0.451092 -0.061545 -1.248397
v -0.451092 -0.061545 -1.769515
v -0.326193 -0.061545 -1.644616
v -0.847311 -0.061545 -1.644616
v -0.722411 -0.061545 -1.769515
v -0.847311 -0.061545 -1.373297
v -0.722411 -0.061545 -1.248397
v -0.707355 0.059058 -1.277315
v -0.707355 0.170096 -1.388353
v -0.818393 0.059058 -1.388353
v -0.707355 0.170096 -1.629560
v -0.707355 0.059058 -1.740597
v -0.818393 0.059058 -1.629560
v -0.466148 0.170096 -1.388353
v -0.466148 0.059058 -1.277315
v -0.355111 0.059058 -1.388353
v -0.466148 0.170096 -1.629560
v -0.355111 0.059058 -1.629560
v -0.466148 0.059058 -1.740597
v -0.619316 -0.372634 -1.476392
v -0.619316 -0.372634 -1.541520
v -0.554188 -0.372634 -1.476392
v -0.554188 -0.372634 -1.541520
vt 0.020925 0.020925
vt 0.979075 0.020925
vt 0.979075 0.979075
vt 0.020925 0.979075
vn 0.000000 -0.591100 0.806600
vn -0.972400 0.233200 0.000000
vn 0.000000 1.000000 0.000000
vn 0.806600 -0.591100 0.000000
vn -0.577300 0.577400 0.577400
vn -0.806600 -0.591100 0.000000
vn -0.577300 0.577400 -0.577400
vn 0.565000 -0.601300 0.565000
vn 0.577300 0.577400 0.577400
vn 0.577300 0.577400 -0.577400
vn -0.684700 0.249700 0.684700
vn -0.707100 0.707100 0.000000
vn 0.000000 -0.591100 -0.806600
vn 0.000000 0.707100 -0.707100
vn 0.707100 0.707100 0.000000
vn 0.565000 -0.601300 -0.565000
vn 0.000000 0.707100 0.707100
vn 0.684700 0.249700 0.684700
vn 0.684700 0.249700 -0.684700
vn -0.684700 0.249700 -0.684700
vn -0.565000 -0.601300 -0.565000
vn 0.000000 0.233200 -0.972400
vn 0.000000 0.233200 0.972400
vn 0.972400 0.233200 0.000000
vn 0.000000 -1.000000 0.000000
vn -0.565000 -0.601300 0.565000
usemtl Material.011
s off
f 201/50/189 203/51/189 182/52/189 188/53/189
f 191/50/190 194/51/190 185/52/190 187/53/190
f 195/50/191 198/51/191 192/52/191 190/53/191
f 203/50/192 204/51/192 184/52/192 181/53/192
f 189/50/193 190/51/193 191/52/193
f 187/50/194 185/51/194 202/52/194 201/53/194
f 192/50/195 193/51/195 194/52/195
f 182/50/196 203/51/196 181/52/196
f 195/50/197 196/51/197 197/52/197
f 198/50/198 199/51/198 200/52/198
f 188/50/199 189/51/199 191/52/199 187/53/199
f 190/50/200 192/51/200 194/52/200 191/53/200
f 204/50/201 202/51/201 186/52/201 183/53/201
f 192/50/202 198/51/202 200/52/202 193/53/202
f 198/50/203 195/51/203 197/52/203 199/53/203
f 184/50/204 204/51/204 183/52/204
f 195/50/205 190/51/205 189/52/205 196/53/205
f 196/50/206 182/51/206 181/52/206 197/53/206
f 199/50/207 184/51/207 183/52/207 200/53/207
f 193/50/208 186/51/208 185/52/208 194/53/208
f 186/50/209 202/51/209 185/52/209
f 193/50/210 200/51/210 183/52/210 186/53/210
f 196/50/211 189/51/211 188/52/211 182/53/211
f 199/50/212 197/51/212 181/52/212 184/53/212
f 201/50/213 202/51/213 204/52/213 203/53/213
f 187/50/214 201/51/214 188/52/214
o Gem1_Cube
v -0.316061 -0.322949 -0.906885
v -0.411736 -0.418623 -0.906885
v -0.411736 -0.322949 -1.002559
v -0.316061 -0.322949 -0.584995
v -0.411736 -0.322949 -0.489320
v -0.411736 -0.418623 -0.584995
v -0.411736 -0.322949 -0.489320
v -0.507411 -0.322949 -0.584995
v -0.411736 -0.418623 -0.584995
v -0.411736 -0.322949 -1.002559
v -0.411736 -0.418623 -0.906885
v -0.507410 -0.322949 -0.906885
v -0.411736 0.155847 -1.002559
v -0.411736 0.251522 -0.906884
v -0.316061 0.155847 -0.906884
v -0.411736 0.155847 -0.489320
v -0.316061 0.155847 -0.584994
v -0.411736 0.251522 -0.584995
v -0.507411 0.155847 -0.584995
v -0.411736 0.155847 -0.489320
v -0.411736 0.251522 -0.584995
v -0.507411 0.155847 -0.906885
v -0.411736 0.251522 -0.906884
v -0.411736 0.155847 -1.002559
vt 0.000000 0.000000
vt 1.000000 0.000000
vt 1.000000 1.000000
vt 0.000000 1.000000
vn 0.680300 0.000000 -0.732900
vn -0.328700 -0.000000 0.944400
vn -1.000000 -0.000000 -0.000000
vn 0.000000 1.000000 0.000000
vn 1.000000 -0.000000 0.000000
vn 0.577400 -0.577300 -0.577300
vn 0.577400 -0.577400 0.577400
vn -0.577400 -0.577400 0.577400
vn -0.577400 -0.577400 -0.577400
vn 0.577400 0.577400 -0.577400
vn 0.577300 0.577400 0.577400
vn -0.577400 0.577300 0.577300
vn -0.577400 0.577400 -0.577400
vn 0.707100 -0.707100 0.000000
vn 0.000000 -0.794100 -0.607800
vn 0.707100 0.000000 -0.707100
vn 0.000000 -0.722600 0.691300
vn 0.707100 0.000000 0.707100
vn -0.707100 -0.707100 -0.000000
vn -0.707100 -0.000000 0.707100
vn -0.707100 -0.000000 -0.707100
vn 0.707100 0.707100 0.000000
vn 0.422800 0.634200 -0.647300
vn 0.428000 0.672700 0.603600
vn -0.707100 0.707100 -0.000000
vn 0.000000 -1.000000 0.000000
usemtl Material.010
s off
f 217/54/215 207/55/215 214/56/215 228/57/215
f 209/54/216 220/55/216 224/56/216 211/57/216
f 212/54/217 223/55/217 226/56/217 216/57/217
f 218/54/218 227/55/218 225/56/218 222/57/218
f 205/54/219 219/55/219 221/56/219 208/57/219
f 205/54/220 206/55/220 207/56/220
f 208/54/221 209/55/221 210/56/221
f 211/54/222 212/55/222 213/56/222
f 214/54/223 215/55/223 216/56/223
f 217/54/224 218/55/224 219/56/224
f 220/54/225 221/55/225 222/56/225
f 223/54/226 224/55/226 225/56/226
f 226/54/227 227/55/227 228/56/227
f 205/54/228 208/55/228 210/56/228 206/57/228
f 206/54/229 215/55/229 214/56/229 207/57/229
f 207/54/230 217/55/230 219/56/230 205/57/230
f 209/54/231 211/55/231 213/56/231 210/57/231
f 208/54/232 221/55/232 220/56/232 209/57/232
f 212/54/233 216/55/233 215/56/233 213/57/233
f 211/54/234 224/55/234 223/56/234 212/57/234
f 216/54/235 226/55/235 228/56/235 214/57/235
f 218/54/236 222/55/236 221/56/236 219/57/236
f 217/54/237 228/55/237 227/56/237 218/57/237
f 222/54/238 225/55/238 224/56/238 220/57/238
f 225/54/239 227/55/239 226/56/239 223/57/239
f 206/54/240 210/55/240 213/56/240 215/57/240
