# Blender v2.76 (sub 0) OBJ File: 'Shield.blend'
# www.blender.org
mtllib Shield.mtl
o Shield_Cube.009
v 0.011088 -1.011683 0.211215
v 0.011088 -1.011683 -0.048178
v 0.598874 -0.820700 -0.048178
v 0.598874 -0.820700 0.211215
v 0.459331 -0.628637 0.211215
v 0.011088 -0.774280 0.211215
v -0.576697 -0.820700 0.211215
v -0.576697 -0.820700 -0.048178
v 0.011088 -0.726124 -0.048178
v 0.431026 -0.589678 -0.048178
v 0.962145 -0.320700 -0.048178
v 0.962145 -0.320700 0.211215
v -0.437155 -0.628637 0.211215
v 0.736361 -0.247338 0.211215
v 0.395497 -0.649378 0.139016
v -0.939968 -0.320700 0.211215
v -0.939968 -0.320700 -0.048178
v -0.408849 -0.589678 -0.048178
v 0.690562 -0.232457 -0.048178
v 0.069373 -0.707186 0.016749
v 0.962145 0.297334 -0.048178
v 0.962145 0.297334 0.211215
v -0.683657 -0.247338 0.211215
v -0.289617 -0.676575 0.139016
v 0.736361 0.223972 0.211215
v 0.459331 -0.628637 0.139016
v 0.736361 -0.247338 0.139016
v 0.069373 -0.755342 0.139016
v -0.939968 0.297334 0.211215
v -0.939968 0.297334 -0.048178
v -0.668385 -0.232457 -0.048178
v -0.289617 -0.628419 0.016749
v 0.789551 -0.071518 -0.048178
v 0.863156 -0.095434 -0.048178
v 0.690562 -0.232457 0.016749
v 0.431026 -0.589678 0.016749
v 0.011088 -0.726124 0.016749
v 0.395497 -0.601222 0.016749
v 0.863156 0.072068 -0.048178
v 0.598874 0.797334 -0.048178
v 0.598874 0.797334 0.211215
v -0.683657 0.223972 0.211215
v -0.645641 -0.341681 0.139016
v -0.319517 -0.666860 0.139016
v 0.011088 -0.774280 0.139016
v 0.459331 0.605271 0.211215
v 0.736361 0.223972 0.139016
v 0.416497 0.618325 0.139016
v 0.416496 -0.642555 0.139016
v 0.459331 0.605271 0.139016
v 0.430884 0.614514 0.139016
v 0.069373 0.731976 0.139016
v 0.395497 0.618325 0.139016
v 0.325810 0.648655 0.139016
v -0.576697 0.797334 0.211215
v -0.576697 0.797334 -0.048178
v -0.840979 0.072068 -0.048178
v -0.840979 -0.095434 -0.048178
v -0.767374 -0.071518 -0.048178
v -0.645641 -0.263762 0.016749
v -0.319517 -0.618704 0.016749
v 0.690562 0.209091 -0.048178
v 0.789551 0.048152 -0.048178
v 0.789551 -0.071518 -0.106178
v 0.863156 -0.095434 -0.106178
v 0.416496 -0.594399 0.016749
v 0.416496 -0.277706 0.016749
v 0.536713 -0.277706 0.016749
v 0.555955 -0.232998 0.016749
v 0.566148 -0.209343 0.016749
v 0.416496 -0.209343 0.016749
v 0.416497 0.160028 0.016749
v 0.566148 0.160028 0.016749
v 0.545758 0.209241 0.016749
v 0.536713 0.231106 0.016749
v 0.416497 0.231106 0.016749
v 0.416497 0.571032 0.016749
v 0.431026 0.566311 0.016749
v 0.690562 0.209091 0.016749
v 0.036507 -0.717865 0.016749
v 0.395497 0.577856 0.016749
v 0.395497 0.231106 0.016749
v 0.233937 0.231106 0.016749
v 0.213379 0.181483 0.016749
v 0.204502 0.160028 0.016749
v 0.395497 0.160028 0.016749
v 0.395497 -0.209343 0.016749
v 0.204502 -0.209343 0.016749
v 0.223739 -0.254044 0.016749
v 0.233937 -0.277706 0.016749
v 0.395497 -0.277706 0.016749
v 0.069373 0.683819 0.016749
v 0.863156 0.072068 -0.106178
v 0.431026 0.566311 -0.048178
v 0.011088 0.988317 -0.048178
v 0.011088 0.988317 0.211215
v -0.437155 0.605271 0.211215
v -0.683657 -0.247338 0.131238
v -0.683657 0.223972 0.131238
v -0.437155 -0.628637 0.139016
v -0.319517 -0.666860 0.131238
v -0.289617 0.653209 0.139016
v 0.036506 -0.766021 0.139016
v 0.036507 0.742655 0.139016
v 0.011088 0.750914 0.139016
v 0.011088 0.750914 0.211215
v 0.416497 0.618325 0.131238
v 0.430884 0.614514 0.131238
v 0.416496 -0.642555 0.131238
v 0.069373 0.731976 0.131238
v 0.069373 -0.755342 0.131238
v 0.395497 0.618325 0.131238
v 0.395497 -0.649378 0.131238
v 0.325810 0.648655 0.131238
v -0.408849 0.566311 -0.048178
v -0.668385 0.209091 -0.048178
v -0.767374 0.048152 -0.048178
v -0.840979 0.072068 -0.106178
v -0.840979 -0.095434 -0.106178
v -0.767374 -0.071518 -0.106178
v -0.408849 -0.589678 0.016749
v -0.668385 -0.232457 0.080756
v 0.036507 0.694499 0.016749
v -0.289617 -0.277706 0.016749
v -0.250795 -0.277706 0.016749
v -0.231553 -0.232998 0.016749
v -0.221360 -0.209343 0.016749
v -0.289617 -0.209343 0.016749
v -0.289617 0.160028 0.016749
v -0.221360 0.160028 0.016749
v -0.241749 0.209241 0.016749
v -0.250795 0.231106 0.016749
v -0.289617 0.231106 0.016749
v -0.289617 0.605052 0.016749
v 0.011088 0.702757 0.016749
v -0.289617 -0.628419 0.080756
v 0.789551 0.048152 -0.106178
v 0.416497 0.231346 0.061840
v 0.416497 0.160250 0.053904
v 0.416496 -0.209089 0.059143
v 0.416496 -0.277435 0.067848
v 0.416496 -0.594399 0.080756
v 0.416497 0.571032 0.080756
v 0.069373 -0.707186 0.080756
v 0.395497 -0.277435 0.067848
v 0.395497 -0.209089 0.059143
v 0.395497 0.160250 0.053904
v 0.395497 0.231346 0.061840
v 0.395497 0.577856 0.080756
v 0.395497 -0.601222 0.080756
v 0.069373 0.683819 0.080756
v 0.011088 0.702757 -0.048178
v -0.645641 0.318315 0.139016
v -0.645641 0.318315 0.131238
v -0.645641 -0.341681 0.131238
v -0.319517 0.618325 0.139016
v -0.396976 0.618325 0.139016
v -0.437155 0.605271 0.139016
v -0.289617 -0.676575 0.131238
v -0.319517 0.618325 0.131238
v -0.289617 0.653209 0.131238
v 0.036506 -0.766021 0.131238
v 0.036507 0.742655 0.131238
v -0.645641 0.240396 0.016749
v -0.767374 0.048152 -0.106178
v -0.668385 0.209091 0.080756
v -0.319517 0.595337 0.016749
v -0.319517 0.231106 0.016749
v -0.553571 0.231106 0.016749
v -0.574128 0.181483 0.016749
v -0.583006 0.160028 0.016749
v -0.319517 0.160028 0.016749
v -0.319517 -0.209343 0.016749
v -0.583006 -0.209343 0.016749
v -0.563769 -0.254044 0.016749
v -0.553571 -0.277706 0.016749
v -0.319517 -0.277706 0.016749
v -0.408849 0.566311 0.016749
v -0.645641 -0.263762 0.080756
v 0.036507 0.694499 0.080756
v 0.036507 -0.717865 0.080756
v -0.289617 0.231345 0.061840
v -0.289617 0.160250 0.053904
v -0.289617 -0.209089 0.059143
v -0.289617 -0.277435 0.067848
v -0.289617 0.605052 0.080756
v -0.319517 -0.618704 0.080756
v -0.396976 0.618325 0.131238
v -0.645641 0.240396 0.080756
v -0.319517 -0.277435 0.067848
v -0.319517 -0.209089 0.059143
v -0.319517 0.160250 0.053904
v -0.319517 0.231345 0.061840
v -0.319517 0.595337 0.080756
v 0.233937 -0.246834 -0.272358
v 0.536713 -0.246834 -0.272358
v 0.536713 -0.278131 -0.063278
v 0.233937 -0.278131 -0.063278
v 0.204502 -0.175861 -0.276170
v 0.233937 -0.137373 -0.399206
v 0.536713 -0.137373 -0.399206
v 0.566148 -0.209920 -0.079643
v 0.204502 -0.209920 -0.079643
v 0.204502 -0.102697 -0.337374
v 0.566148 -0.175861 -0.276170
v 0.233937 0.086424 -0.415588
v 0.536713 0.086424 -0.415588
v 0.566148 -0.102697 -0.337374
v 0.204502 0.063644 -0.353925
v 0.233937 0.233744 -0.234799
v 0.536713 0.233744 -0.234799
v 0.566148 0.063644 -0.353925
v 0.204502 0.173505 -0.218043
v 0.233937 0.230650 -0.069287
v 0.536713 0.230650 -0.069287
v 0.566148 0.173505 -0.218043
v 0.204502 0.159419 -0.084882
v 0.566148 0.159419 -0.084882
v -0.553571 -0.246834 -0.272358
v -0.250795 -0.246834 -0.272358
v -0.250795 -0.278131 -0.063278
v -0.553571 -0.278131 -0.063278
v -0.583006 -0.175861 -0.276170
v -0.553571 -0.137373 -0.399206
v -0.250795 -0.137373 -0.399206
v -0.221360 -0.209920 -0.079643
v -0.583006 -0.209920 -0.079643
v -0.583006 -0.102697 -0.337374
v -0.221360 -0.175861 -0.276170
v -0.553571 0.086424 -0.415588
v -0.250795 0.086424 -0.415588
v -0.221360 -0.102697 -0.337374
v -0.583006 0.063644 -0.353925
v -0.553571 0.233744 -0.234799
v -0.250795 0.233744 -0.234799
v -0.221360 0.063644 -0.353925
v -0.583006 0.173505 -0.218043
v -0.553571 0.230650 -0.069287
v -0.250795 0.230650 -0.069287
v -0.221360 0.173505 -0.218043
v -0.583006 0.159419 -0.084882
v -0.221360 0.159419 -0.084882
vn -0.000000 0.000000 1.000000
vn 0.000000 0.000000 -1.000000
vn 0.256100 0.966700 0.000000
vn -1.000000 0.000000 0.000000
vn 1.000000 0.000000 0.000000
vn 0.399100 0.916900 0.000000
vn 0.000000 1.000000 0.000000
vn -0.000000 -0.989000 -0.148000
vn -0.915800 -0.396600 -0.063900
vn -0.000000 -0.757100 -0.653300
vn 0.915800 -0.396600 -0.063900
vn 0.000000 -1.000000 0.005300
vn -0.892100 -0.324200 -0.314800
vn 0.000000 -0.073000 -0.997300
vn 0.918400 -0.395700 0.002400
vn -0.918300 -0.395800 0.002100
vn 0.918500 -0.395300 0.002100
vn -0.000000 0.126400 0.992000
vn 0.000000 0.985300 0.170800
vn 0.000000 0.641600 0.767000
vn 0.892100 -0.324200 -0.314800
vn -0.903400 -0.036100 -0.427200
vn 0.903400 -0.036100 -0.427200
vn -0.000000 0.775200 -0.631700
vn 0.000000 1.000000 -0.006000
vn -0.918500 -0.395300 0.002400
vn 0.000000 0.099000 0.995100
vn -0.888300 0.356500 -0.289500
vn 0.888300 0.356500 -0.289500
vn 0.000000 0.999800 0.018700
vn -0.000000 -0.777600 0.628700
vn -0.912300 0.408700 0.023500
vn 0.912300 0.408700 0.023500
vn 0.000000 1.000000 -0.005300
vn -0.000000 -0.994500 -0.105200
vn -0.924000 0.382300 -0.002300
vn 0.924000 0.382300 -0.002000
vn -0.923900 0.382700 -0.002000
vn 0.000000 -0.110900 0.993800
vn -0.000000 -1.000000 0.006000
vn 0.923800 0.382800 -0.002300
vn 0.309000 -0.951100 0.000000
vn -0.309000 -0.951100 -0.000000
vn 0.809000 -0.587800 0.000000
vn -0.309000 0.951100 -0.000000
vn -0.809000 -0.587800 0.000000
vn -0.809000 0.587800 0.000000
vn 0.309000 0.951100 0.000000
vn 0.809000 0.587800 0.000000
vn 0.835100 0.534600 -0.129400
vn 0.835100 -0.534600 -0.129400
usemtl Wood
s off
f 48//1 49//1 26//1 27//1 47//1 50//1 51//1
f 52//1 28//1 15//1 53//1 54//1
f 66//2 67//2 68//2 69//2 70//2 71//2 72//2 73//2 74//2 75//2 76//2 77//2 78//2 79//2 35//2 36//2
f 81//2 82//2 83//2 84//2 85//2 86//2 87//2 88//2 89//2 90//2 91//2 38//2 20//2 92//2
f 102//1 24//1 45//1 103//1 104//1 105//1
f 107//3 48//3 51//3 108//3
f 49//4 48//4 107//4 109//4
f 28//4 52//4 110//4 111//4
f 112//5 53//5 15//5 113//5
f 54//6 53//6 112//6 114//6
f 123//2 80//2 37//2 32//2 124//2 125//2 126//2 127//2 128//2 129//2 130//2 131//2 132//2 133//2 134//2 135//2
f 77//4 76//4 138//4 139//4 72//4 71//4 140//4 141//4 67//4 66//4 142//4 143//4
f 38//5 91//5 145//5 146//5 87//5 86//5 147//5 148//5 82//5 81//5 149//5 150//5
f 92//4 20//4 144//4 151//4
f 153//1 43//1 100//1 44//1 156//1 157//1 158//1
f 160//5 156//5 44//5 101//5
f 24//4 102//4 161//4 159//4
f 104//5 103//5 162//5 163//5
f 167//2 168//2 169//2 170//2 171//2 172//2 173//2 174//2 175//2 176//2 177//2 61//2 121//2 60//2 164//2 178//2
f 80//5 123//5 180//5 181//5
f 134//4 133//4 182//4 183//4 129//4 128//4 184//4 185//4 124//4 32//4 136//4 186//4
f 43//4 153//4 154//4 155//4
f 157//7 156//7 160//7 188//7
f 61//5 177//5 190//5 191//5 173//5 172//5 192//5 193//5 168//5 167//5 194//5 187//5
f 164//4 60//4 179//4 189//4
f 195//8 196//8 197//8 198//8
f 195//9 198//9 203//9 199//9
f 196//10 195//10 200//10 201//10
f 197//11 196//11 205//11 202//11
f 198//12 197//12 68//12 67//12 141//12 145//12 91//12 90//12
f 199//13 204//13 200//13 195//13
f 201//14 200//14 206//14 207//14
f 69//15 197//15 202//15 70//15
f 89//16 203//16 198//16 90//16
f 68//17 197//17 69//17
f 145//18 141//18 140//18 146//18
f 205//19 199//19 203//19 202//19
f 199//20 205//20 208//20 204//20
f 208//21 205//21 196//21 201//21
f 204//22 209//22 206//22 200//22
f 201//23 207//23 212//23 208//23
f 207//24 206//24 210//24 211//24
f 202//25 203//25 88//25 87//25 146//25 140//25 71//25 70//25
f 88//26 203//26 89//26
f 204//27 208//27 212//27 209//27
f 209//28 213//28 210//28 206//28
f 207//29 211//29 216//29 212//29
f 211//30 210//30 214//30 215//30
f 209//31 212//31 216//31 213//31
f 213//32 217//32 214//32 210//32
f 211//33 215//33 218//33 216//33
f 215//34 214//34 83//34 82//34 148//34 138//34 76//34 75//34
f 213//35 216//35 218//35 217//35
f 84//36 214//36 217//36 85//36
f 74//37 218//37 215//37 75//37
f 83//38 214//38 84//38
f 147//39 139//39 138//39 148//39
f 217//40 218//40 73//40 72//40 139//40 147//40 86//40 85//40
f 73//41 218//41 74//41
f 219//8 220//8 221//8 222//8
f 219//9 222//9 227//9 223//9
f 220//10 219//10 224//10 225//10
f 221//11 220//11 229//11 226//11
f 222//12 221//12 125//12 124//12 185//12 190//12 177//12 176//12
f 223//13 228//13 224//13 219//13
f 220//21 225//21 232//21 229//21
f 225//14 224//14 230//14 231//14
f 126//15 221//15 226//15 127//15
f 175//16 227//16 222//16 176//16
f 125//17 221//17 126//17
f 190//18 185//18 184//18 191//18
f 229//19 223//19 227//19 226//19
f 223//20 229//20 232//20 228//20
f 228//22 233//22 230//22 224//22
f 225//23 231//23 236//23 232//23
f 231//24 230//24 234//24 235//24
f 226//25 227//25 174//25 173//25 191//25 184//25 128//25 127//25
f 174//26 227//26 175//26
f 228//27 232//27 236//27 233//27
f 233//28 237//28 234//28 230//28
f 231//29 235//29 240//29 236//29
f 235//30 234//30 238//30 239//30
f 233//31 236//31 240//31 237//31
f 237//32 241//32 238//32 234//32
f 235//33 239//33 242//33 240//33
f 239//34 238//34 169//34 168//34 193//34 182//34 133//34 132//34
f 237//35 240//35 242//35 241//35
f 170//36 238//36 241//36 171//36
f 131//37 242//37 239//37 132//37
f 169//38 238//38 170//38
f 192//39 183//39 182//39 193//39
f 241//40 242//40 130//40 129//40 183//40 192//40 172//40 171//40
f 130//41 242//41 131//41
usemtl Metal
f 1//42 2//42 3//42 4//42
f 1//1 4//1 5//1 6//1
f 7//43 8//43 2//43 1//43
f 3//2 2//2 9//2 10//2
f 4//44 3//44 11//44 12//44
f 7//1 1//1 6//1 13//1
f 4//1 12//1 14//1 5//1
f 113//45 15//45 28//45 111//45 162//45 103//45 45//45 6//45 5//45 26//45 49//45 109//45
f 16//46 17//46 8//46 7//46
f 2//2 8//2 18//2 9//2
f 11//2 3//2 10//2 19//2
f 144//45 20//45 38//45 150//45 142//45 66//45 36//45 10//45 9//45 37//45 80//45 181//45
f 12//5 11//5 21//5 22//5
f 16//1 7//1 13//1 23//1
f 12//1 22//1 25//1 14//1
f 26//47 5//47 14//47 27//47
f 29//4 30//4 17//4 16//4
f 8//2 17//2 31//2 18//2
f 9//48 18//48 121//48 61//48 187//48 136//48 32//48 37//48
f 11//2 19//2 33//2 34//2
f 35//47 19//47 10//47 36//47
f 21//2 11//2 34//2 39//2
f 22//49 21//49 40//49 41//49
f 29//1 16//1 23//1 42//1
f 22//1 41//1 46//1 25//1
f 27//4 14//4 25//4 47//4
f 55//47 56//47 30//47 29//47
f 17//2 30//2 57//2 58//2
f 31//2 17//2 58//2 59//2
f 19//2 62//2 63//2 33//2
f 79//4 62//4 19//4 35//4
f 62//2 21//2 39//2 63//2
f 40//2 21//2 62//2 94//2
f 41//48 40//48 95//48 96//48
f 55//1 29//1 42//1 97//1
f 42//5 23//5 98//5 99//5
f 100//50 43//50 155//50 98//50 23//50 13//50
f 13//48 6//48 45//48 24//48 159//48 101//48 44//48 100//48
f 41//1 96//1 106//1 46//1
f 47//46 25//46 46//46 50//46
f 52//43 54//43 114//43 108//43 51//43 50//43 46//43 106//43 105//43 104//43 163//43 110//43
f 96//45 95//45 56//45 55//45
f 30//2 56//2 115//2 116//2
f 30//2 116//2 117//2 57//2
f 116//2 31//2 59//2 117//2
f 121//49 18//49 31//49 122//49 179//49 60//49
f 78//46 94//46 62//46 79//46
f 95//2 40//2 94//2 152//2
f 96//1 55//1 97//1 106//1
f 97//51 42//51 99//51 154//51 153//51 158//51
f 106//42 97//42 158//42 157//42 188//42 161//42 102//42 105//42
f 56//2 95//2 152//2 115//2
f 116//44 115//44 178//44 164//44 189//44 166//44
f 31//5 116//5 166//5 122//5
f 135//42 134//42 186//42 194//42 167//42 178//42 115//42 152//42
f 143//43 149//43 81//43 92//43 151//43 180//43 123//43 135//43 152//43 94//43 78//43 77//43
usemtl LighterWood
f 34//43 33//43 64//43 65//43
f 39//5 34//5 65//5 93//5
f 58//4 57//4 118//4 119//4
f 59//42 58//42 119//42 120//42
f 33//4 63//4 137//4 64//4
f 93//2 65//2 64//2 137//2
f 63//45 39//45 93//45 137//45
f 154//1 99//1 98//1 155//1
f 108//1 114//1 112//1 113//1 109//1 107//1
f 162//1 111//1 110//1 163//1
f 57//48 117//48 165//48 118//48
f 119//2 118//2 165//2 120//2
f 117//5 59//5 120//5 165//5
f 142//2 150//2 149//2 143//2
f 144//2 181//2 180//2 151//2
f 161//1 188//1 160//1 101//1 159//1
f 179//2 122//2 166//2 189//2
f 136//2 187//2 194//2 186//2
