# Blender v2.76 (sub 0) OBJ File: 'WoodenStaff.blend'
# www.blender.org
mtllib WoodenStaff.mtl
o Cylinder
v 0.000000 -1.000000 -0.093317
v 0.000000 1.000000 -0.071853
v 0.042426 -1.000000 -0.075743
v 0.050808 1.000000 -0.050808
v 0.060000 -1.000000 -0.033317
v 0.071853 1.000000 0.000000
v 0.042426 -1.000000 0.009110
v 0.050808 1.000000 0.050808
v -0.000000 -1.000000 0.026683
v -0.000000 1.000000 0.071853
v -0.042426 -1.000000 0.009110
v -0.050808 1.000000 0.050808
v -0.060000 -1.000000 -0.033317
v -0.071853 1.000000 -0.000000
v -0.042426 -1.000000 -0.075743
v -0.050808 1.000000 -0.050808
v 0.000000 -0.810409 -0.060000
v 0.042426 -0.810409 -0.042426
v 0.060000 -0.810409 0.000000
v 0.042426 -0.810409 0.042426
v -0.000000 -0.810409 0.060000
v -0.042426 -0.810409 0.042426
v -0.060000 -0.810409 -0.000000
v -0.042426 -0.810409 -0.042426
v 0.000000 -0.454924 -0.045185
v 0.042426 -0.454924 -0.027611
v 0.060000 -0.454924 0.014815
v 0.042426 -0.454924 0.057242
v -0.000000 -0.454924 0.074815
v -0.042426 -0.454924 0.057242
v -0.060000 -0.454924 0.014815
v -0.042426 -0.454924 -0.027611
v -0.000000 -0.024245 -0.070245
v 0.038709 -0.024245 -0.054211
v 0.054743 -0.024245 -0.015502
v 0.038709 -0.024245 0.023207
v -0.000000 -0.024245 0.039241
v -0.038709 -0.024245 0.023207
v -0.054743 -0.024245 -0.015502
v -0.038709 -0.024245 -0.054211
v 0.000000 0.522639 -0.052407
v 0.042426 0.522639 -0.034833
v 0.060000 0.522639 0.007593
v 0.042426 0.522639 0.050020
v -0.000000 0.522639 0.067593
v -0.042426 0.522639 0.050020
v -0.060000 0.522639 0.007593
v -0.042426 0.522639 -0.034833
v 0.050807 1.049221 -0.174956
v -0.000000 1.040962 -0.194313
v 0.071853 1.069159 -0.128224
v 0.050807 1.089098 -0.081492
v -0.000000 1.097356 -0.062135
v -0.050808 1.089098 -0.081492
v -0.071853 1.069159 -0.128224
v -0.050808 1.049221 -0.174956
v 0.050808 1.330146 -0.320263
v 0.000000 1.335824 -0.340528
v 0.071853 1.316437 -0.271340
v 0.050808 1.302729 -0.222417
v 0.000000 1.297050 -0.202152
v -0.050807 1.302729 -0.222417
v -0.071853 1.316437 -0.271340
v -0.050807 1.330146 -0.320263
v 0.049286 1.635850 -0.102458
v -0.000000 1.655105 -0.109241
v 0.069701 1.589364 -0.086083
v 0.049286 1.542878 -0.069708
v -0.000000 1.523623 -0.062925
v -0.049286 1.542878 -0.069708
v -0.069701 1.589364 -0.086083
v -0.049286 1.635850 -0.102458
v 0.049286 1.532833 0.288976
v -0.000000 1.547986 0.302657
v 0.069701 1.496251 0.255949
v 0.049286 1.459669 0.222921
v -0.000000 1.444517 0.209240
v -0.049286 1.459669 0.222921
v -0.069701 1.496251 0.255949
v -0.049286 1.532833 0.288976
v 0.040637 1.164755 0.294939
v -0.000000 1.154101 0.307970
v 0.057470 1.190476 0.263478
v 0.040637 1.216197 0.232017
v -0.000000 1.226851 0.218985
v -0.040637 1.216197 0.232017
v -0.057470 1.190476 0.263478
v -0.040637 1.164755 0.294939
v 0.019419 1.195952 0.037856
v -0.000000 1.188194 0.035730
v 0.027463 1.214681 0.042989
v 0.019419 1.233410 0.048121
v -0.000000 1.241168 0.050247
v -0.019419 1.233410 0.048121
v -0.027463 1.214681 0.042989
v -0.019419 1.195952 0.037856
v 0.071853 1.042492 -0.031241
v 0.050808 1.052461 0.017529
v -0.050808 1.052461 0.017529
v -0.071853 1.042492 -0.031241
v -0.000000 1.056591 0.037730
v -0.050808 1.032523 -0.080011
v 0.050808 1.032523 -0.080011
v -0.000000 1.028394 -0.100212
v 0.002704 -1.028019 -0.063458
v 0.029760 -1.028019 -0.052251
v 0.040967 -1.028019 -0.025195
v 0.029760 -1.028019 0.001861
v 0.002704 -1.028019 0.013068
v -0.024352 -1.028019 0.001861
v -0.035559 -1.028019 -0.025195
v -0.024352 -1.028019 -0.052251
vn 0.382400 -0.037600 -0.923200
vn 0.923500 -0.029000 -0.382500
vn 0.923700 -0.016800 0.382600
vn 0.382700 -0.008200 0.923800
vn -0.382700 -0.008200 0.923800
vn -0.923700 -0.016800 0.382600
vn 0.808400 0.560100 0.180900
vn -0.382400 -0.037600 -0.923200
vn -0.923500 -0.029000 -0.382500
vn -0.267700 -0.714600 -0.646300
vn -0.921800 0.067100 -0.381800
vn -0.377700 0.160300 -0.911900
vn -0.921800 -0.067100 0.381800
vn -0.377700 -0.160300 0.911900
vn 0.377700 -0.160300 0.911900
vn 0.921800 -0.067100 0.381800
vn 0.921800 0.067100 -0.381800
vn 0.377700 0.160300 -0.911900
vn -0.923800 0.015900 -0.382600
vn -0.382400 0.038500 -0.923200
vn -0.923800 -0.015900 0.382600
vn -0.382400 -0.038500 0.923200
vn 0.382400 -0.038500 0.923200
vn 0.923800 -0.015900 0.382600
vn 0.923800 0.015900 -0.382600
vn 0.382400 0.038500 -0.923200
vn -0.923800 -0.015700 -0.382600
vn -0.382100 -0.053700 -0.922500
vn -0.923200 0.038200 0.382400
vn -0.381600 0.076100 0.921200
vn 0.381600 0.076100 0.921200
vn 0.923200 0.038200 0.382400
vn 0.923800 -0.015700 -0.382600
vn 0.382100 -0.053700 -0.922500
vn -0.923900 0.007300 -0.382700
vn -0.382500 0.030100 -0.923500
vn -0.923600 -0.025000 0.382600
vn -0.382200 -0.047800 0.922800
vn 0.382200 -0.047800 0.922800
vn 0.923600 -0.025000 0.382600
vn 0.923900 0.007300 -0.382700
vn 0.382500 0.030100 -0.923500
vn -0.900100 -0.208800 -0.382400
vn -0.808400 0.560100 0.180900
vn 0.246900 0.903100 0.351400
vn -0.766400 -0.626600 -0.141600
vn 0.766400 -0.626600 -0.141600
vn -0.246900 0.903100 0.351400
vn -0.177200 -0.972600 -0.150600
vn 0.177200 -0.972600 -0.150600
vn -0.903600 -0.231100 0.360700
vn -0.319100 0.532800 0.783800
vn 0.895500 0.233500 0.378800
vn 0.338200 -0.425100 -0.839600
vn -0.338200 -0.425100 -0.839600
vn -0.895500 0.233500 0.378800
vn 0.319100 0.532700 0.783800
vn 0.900100 -0.208800 -0.382400
vn 0.334900 0.911600 0.238500
vn 0.339700 -0.498000 0.797900
vn 0.904800 0.247200 -0.346600
vn -0.904800 0.247200 -0.346600
vn -0.339700 -0.498000 0.797900
vn 0.903600 -0.231100 0.360700
vn 0.342700 0.548700 -0.762500
vn -0.342700 0.548700 -0.762500
vn -0.864600 -0.016700 0.502200
vn -0.334900 0.911600 0.238500
vn -0.900400 -0.419200 -0.116500
vn 0.334400 -0.905800 -0.260300
vn 0.900500 0.420100 0.112300
vn -0.900500 0.420100 0.112300
vn -0.334400 -0.905800 -0.260300
vn 0.900400 -0.419200 -0.116500
vn 0.821500 -0.549700 -0.151900
vn -0.286500 -0.044500 -0.957000
vn 0.868400 -0.048000 -0.493500
vn 0.285200 0.010900 0.958400
vn -0.285200 0.010900 0.958400
vn -0.868400 -0.048000 -0.493500
vn 0.286500 -0.044500 -0.957000
vn 0.864600 -0.016700 0.502200
vn -0.000000 0.264300 -0.964400
vn -0.821500 -0.549700 -0.151900
vn -0.281000 0.957200 0.068700
vn 0.886800 0.457500 -0.065500
vn 0.269300 -0.954400 -0.128500
vn -0.269300 -0.954400 -0.128500
vn -0.886800 0.457500 -0.065500
vn 0.281000 0.957200 0.068700
vn 0.307300 -0.653600 -0.691700
vn -0.307300 -0.653600 -0.691700
vn -0.344200 0.493600 0.798700
vn 0.893600 -0.281600 -0.349500
vn -0.893600 -0.281600 -0.349500
vn 0.344200 0.493600 0.798600
vn -0.902100 0.242600 0.357000
vn 0.902100 0.242600 0.357000
vn 0.000000 -1.000000 0.000000
vn 0.277800 -0.687800 -0.670600
vn 0.820800 -0.459000 0.340000
vn -0.758700 -0.570700 0.314200
vn 0.353800 -0.381000 0.854200
vn -0.681000 -0.675800 -0.282100
vn 0.743200 -0.594100 -0.307800
vn -0.344200 -0.437000 0.831000
usemtl Wood
s off
f 41//1 2//1 4//1 42//1
f 42//2 4//2 6//2 43//2
f 43//3 6//3 8//3 44//3
f 44//4 8//4 10//4 45//4
f 45//5 10//5 12//5 46//5
f 46//6 12//6 14//6 47//6
f 98//7 97//7 51//7 52//7
f 48//8 16//8 2//8 41//8
f 47//9 14//9 16//9 48//9
f 15//10 1//10 105//10 112//10
f 13//11 23//11 24//11 15//11
f 15//12 24//12 17//12 1//12
f 11//13 22//13 23//13 13//13
f 9//14 21//14 22//14 11//14
f 7//15 20//15 21//15 9//15
f 5//16 19//16 20//16 7//16
f 3//17 18//17 19//17 5//17
f 1//18 17//18 18//18 3//18
f 23//19 31//19 32//19 24//19
f 24//20 32//20 25//20 17//20
f 22//21 30//21 31//21 23//21
f 21//22 29//22 30//22 22//22
f 20//23 28//23 29//23 21//23
f 19//24 27//24 28//24 20//24
f 18//25 26//25 27//25 19//25
f 17//26 25//26 26//26 18//26
f 31//27 39//27 40//27 32//27
f 32//28 40//28 33//28 25//28
f 30//29 38//29 39//29 31//29
f 29//30 37//30 38//30 30//30
f 28//31 36//31 37//31 29//31
f 27//32 35//32 36//32 28//32
f 26//33 34//33 35//33 27//33
f 25//34 33//34 34//34 26//34
f 39//35 47//35 48//35 40//35
f 40//36 48//36 41//36 33//36
f 38//37 46//37 47//37 39//37
f 37//38 45//38 46//38 38//38
f 36//39 44//39 45//39 37//39
f 35//40 43//40 44//40 36//40
f 34//41 42//41 43//41 35//41
f 33//42 41//42 42//42 34//42
f 56//43 55//43 63//43 64//43
f 100//44 99//44 54//44 55//44
f 101//45 98//45 52//45 53//45
f 102//46 100//46 55//46 56//46
f 97//47 103//47 49//47 51//47
f 99//48 101//48 53//48 54//48
f 104//49 102//49 56//49 50//49
f 103//50 104//50 50//50 49//50
f 63//51 62//51 70//51 71//51
f 54//52 53//52 61//52 62//52
f 52//53 51//53 59//53 60//53
f 49//54 50//54 58//54 57//54
f 50//55 56//55 64//55 58//55
f 55//56 54//56 62//56 63//56
f 53//57 52//57 60//57 61//57
f 51//58 49//58 57//58 59//58
f 65//59 66//59 74//59 73//59
f 61//60 60//60 68//60 69//60
f 59//61 57//61 65//61 67//61
f 64//62 63//62 71//62 72//62
f 62//63 61//63 69//63 70//63
f 60//64 59//64 67//64 68//64
f 57//65 58//65 66//65 65//65
f 58//66 64//66 72//66 66//66
f 80//67 79//67 87//67 88//67
f 66//68 72//68 80//68 74//68
f 71//69 70//69 78//69 79//69
f 69//70 68//70 76//70 77//70
f 67//71 65//71 73//71 75//71
f 72//72 71//72 79//72 80//72
f 70//73 69//73 77//73 78//73
f 68//74 67//74 75//74 76//74
f 83//75 81//75 89//75 91//75
f 78//76 77//76 85//76 86//76
f 76//77 75//77 83//77 84//77
f 73//78 74//78 82//78 81//78
f 74//79 80//79 88//79 82//79
f 79//80 78//80 86//80 87//80
f 77//81 76//81 84//81 85//81
f 75//82 73//82 81//82 83//82
f 89//83 90//83 96//83 95//83 94//83 93//83 92//83 91//83
f 88//84 87//84 95//84 96//84
f 86//85 85//85 93//85 94//85
f 84//86 83//86 91//86 92//86
f 81//87 82//87 90//87 89//87
f 82//88 88//88 96//88 90//88
f 87//89 86//89 94//89 95//89
f 85//90 84//90 92//90 93//90
f 4//91 2//91 104//91 103//91
f 2//92 16//92 102//92 104//92
f 12//93 10//93 101//93 99//93
f 6//94 4//94 103//94 97//94
f 16//95 14//95 100//95 102//95
f 10//96 8//96 98//96 101//96
f 14//97 12//97 99//97 100//97
f 8//98 6//98 97//98 98//98
f 105//99 106//99 107//99 108//99 109//99 110//99 111//99 112//99
f 1//100 3//100 106//100 105//100
f 5//101 7//101 108//101 107//101
f 11//102 13//102 111//102 110//102
f 7//103 9//103 109//103 108//103
f 13//104 15//104 112//104 111//104
f 3//105 5//105 107//105 106//105
f 9//106 11//106 110//106 109//106
