# Blender v2.75 (sub 0) OBJ File: 'BigTable.blend'
# www.blender.org
mtllib BigTable.mtl
o Cube_Cube.001
v -1.550446 0.848307 3.167907
v -1.550446 1.034064 3.167907
v -1.550446 0.848307 0.000000
v -1.550446 1.034064 0.000000
v 0.000000 0.848307 3.167907
v 0.000000 1.034064 3.167907
v 0.000000 0.848307 0.000000
v 0.000000 1.034064 0.000000
v -1.252869 0.848307 2.430708
v -1.252869 0.848307 2.655157
v -1.062465 0.848307 2.430708
v -1.062465 0.848307 2.655157
v -1.252869 -0.141583 2.430708
v -1.252869 -0.141583 2.655157
v -1.062465 -0.141583 2.430708
v -1.062465 -0.141583 2.655157
v -1.236512 -0.141583 2.449991
v -1.236512 -0.141583 2.635875
v -1.078822 -0.141583 2.449991
v -1.078822 -0.141583 2.635875
v -1.236512 -1.228888 2.449991
v -1.236512 -1.228888 2.635875
v -1.078822 -1.228888 2.449991
v -1.078822 -1.228888 2.635875
v 1.550446 0.848307 3.167907
v 1.550446 1.034064 3.167907
v 1.550446 0.848307 0.000000
v 1.550446 1.034064 0.000000
v 1.252869 0.848307 2.430708
v 1.252869 0.848307 2.655157
v 1.062465 0.848307 2.430708
v 1.062465 0.848307 2.655157
v 1.252869 -0.141583 2.430708
v 1.252869 -0.141583 2.655157
v 1.062465 -0.141583 2.430708
v 1.062465 -0.141583 2.655157
v 1.236512 -0.141583 2.449991
v 1.236512 -0.141583 2.635875
v 1.078822 -0.141583 2.449991
v 1.078822 -0.141583 2.635875
v 1.236512 -1.228888 2.449991
v 1.236512 -1.228888 2.635875
v 1.078822 -1.228888 2.449991
v 1.078822 -1.228888 2.635875
v -1.550446 0.848307 -3.167907
v -1.550446 1.034064 -3.167907
v 0.000000 0.848307 -3.167907
v 0.000000 1.034064 -3.167907
v -1.252869 0.848307 -2.430708
v -1.252869 0.848307 -2.655157
v -1.062465 0.848307 -2.430708
v -1.062465 0.848307 -2.655157
v -1.252869 -0.141583 -2.430708
v -1.252869 -0.141583 -2.655157
v -1.062465 -0.141583 -2.430708
v -1.062465 -0.141583 -2.655157
v -1.236512 -0.141583 -2.449991
v -1.236512 -0.141583 -2.635875
v -1.078822 -0.141583 -2.449991
v -1.078822 -0.141583 -2.635875
v -1.236512 -1.228888 -2.449991
v -1.236512 -1.228888 -2.635875
v -1.078822 -1.228888 -2.449991
v -1.078822 -1.228888 -2.635875
v 1.550446 0.848307 -3.167907
v 1.550446 1.034064 -3.167907
v 1.252869 0.848307 -2.430708
v 1.252869 0.848307 -2.655157
v 1.062465 0.848307 -2.430708
v 1.062465 0.848307 -2.655157
v 1.252869 -0.141583 -2.430708
v 1.252869 -0.141583 -2.655157
v 1.062465 -0.141583 -2.430708
v 1.062465 -0.141583 -2.655157
v 1.236512 -0.141583 -2.449991
v 1.236512 -0.141583 -2.635875
v 1.078822 -0.141583 -2.449991
v 1.078822 -0.141583 -2.635875
v 1.236512 -1.228888 -2.449991
v 1.236512 -1.228888 -2.635875
v 1.078822 -1.228888 -2.449991
v 1.078822 -1.228888 -2.635875
vt 0.060029 0.940146
vt 0.059401 0.934094
vt 0.060158 0.933687
vt 0.059705 0.940044
vt 0.056252 0.941421
vt 0.059015 0.941421
vt 0.059015 0.941752
vt 0.056252 0.941752
vt 0.069938 0.941241
vt 0.064294 0.941241
vt 0.064294 0.940910
vt 0.069938 0.940910
vt 0.058063 0.941413
vt 0.059746 0.941413
vt 0.059742 0.939403
vt 0.059786 0.939561
vt 0.056252 0.934980
vt 0.059700 0.939167
vt 0.059738 0.939318
vt 0.064287 0.934415
vt 0.059757 0.939074
vt 0.058742 0.931240
vt 0.058497 0.931086
vt 0.059917 0.926031
vt 0.060342 0.926160
vt 0.072243 0.936709
vt 0.072010 0.936528
vt 0.071013 0.936882
vt 0.071093 0.936869
vt 0.061784 0.941421
vt 0.061784 0.941752
vt 0.056252 0.933278
vt 0.057907 0.930646
vt 0.058210 0.930631
vt 0.057828 0.930224
vt 0.058193 0.930468
vt 0.058025 0.930306
vt 0.069513 0.927875
vt 0.069758 0.928029
vt 0.068338 0.933084
vt 0.067913 0.932955
vt 0.058180 0.930241
vt 0.057890 0.930424
vt 0.058051 0.930601
vt 0.058114 0.930401
vt 0.057982 0.930393
vt 0.058049 0.930572
vt 0.058090 0.930497
vt 0.057966 0.930492
vt 0.072243 0.938088
vt 0.071582 0.936144
vt 0.071577 0.925436
vt 0.072002 0.925837
vt 0.070348 0.928469
vt 0.070045 0.928485
vt 0.070427 0.928891
vt 0.070062 0.928647
vt 0.070230 0.928809
vt 0.064294 0.941579
vt 0.069938 0.941579
vt 0.070364 0.928691
vt 0.070204 0.928514
vt 0.070074 0.928875
vt 0.070338 0.928690
vt 0.070141 0.928714
vt 0.070165 0.928618
vt 0.070289 0.928623
vt 0.064945 0.937133
vt 0.070652 0.936914
vt 0.064294 0.937686
vt 0.065671 0.940903
vt 0.066192 0.933687
vt 0.070638 0.937058
vt 0.070871 0.936941
vt 0.056252 0.925436
vt 0.072002 0.933679
vt 0.064131 0.929760
vt 0.056678 0.933679
vt 0.064124 0.929356
vn -1.000000 0.000000 0.000000
vn 0.000000 0.000000 -1.000000
vn 1.000000 0.000000 0.000000
vn 0.000000 0.000000 1.000000
vn 0.000000 -1.000000 -0.000000
vn 0.000000 1.000000 0.000000
usemtl Material.001
s off
f 2/1/1 4/2/1 3/3/1 1/4/1
f 4/5/2 8/6/2 7/7/2 3/8/2
f 8/9/3 6/10/3 5/11/3 7/12/3
f 6/13/4 2/1/4 1/4/4 5/14/4
f 5/14/5 1/4/5 10/15/5 12/16/5
f 6/13/6 8/17/6 4/2/6 2/1/6
f 11/18/3 12/16/3 16/19/3 15/19/3
f 7/20/5 5/14/5 12/16/5 11/18/5
f 1/4/5 3/3/5 9/21/5 10/15/5
f 3/3/5 7/20/5 11/18/5 9/21/5
f 15/19/5 16/19/5 20/19/5 19/19/5
f 10/15/1 9/21/1 13/19/1 14/19/1
f 12/16/4 10/15/4 14/19/4 16/19/4
f 9/21/2 11/18/2 15/19/2 13/19/2
f 18/19/1 17/19/1 21/19/1 22/19/1
f 14/19/5 13/19/5 17/19/5 18/19/5
f 16/19/5 14/19/5 18/19/5 20/19/5
f 13/19/5 15/19/5 19/19/5 17/19/5
f 22/19/5 21/19/5 23/19/5 24/19/5
f 20/19/4 18/19/4 22/19/4 24/19/4
f 17/19/2 19/19/2 23/19/2 21/19/2
f 19/19/3 20/19/3 24/19/3 23/19/3
f 26/22/3 25/23/3 27/24/3 28/25/3
f 47/26/5 65/27/5 68/28/5 70/29/5
f 28/30/2 27/31/2 7/7/2 8/6/2
f 5/32/5 32/33/5 30/34/5 25/23/5
f 31/35/1 35/36/1 36/37/1 32/33/1
f 46/38/1 45/39/1 3/40/1 4/41/1
f 25/23/5 30/34/5 29/42/5 27/24/5
f 35/36/5 39/36/5 40/37/5 36/37/5
f 30/34/3 34/43/3 33/44/3 29/42/3
f 32/33/4 36/37/4 34/43/4 30/34/4
f 29/42/2 33/44/2 35/36/2 31/35/2
f 38/43/3 42/45/3 41/46/3 37/47/3
f 34/43/5 38/43/5 37/47/5 33/44/5
f 36/37/5 40/37/5 38/43/5 34/43/5
f 33/44/5 37/47/5 39/36/5 35/36/5
f 42/45/5 44/48/5 43/49/5 41/46/5
f 40/37/4 44/48/4 42/45/4 38/43/4
f 37/47/2 41/46/2 43/49/2 39/36/2
f 39/36/1 43/49/1 44/48/1 40/37/1
f 48/50/2 66/51/2 65/27/2 47/26/2
f 48/52/2 47/53/2 45/39/2 46/38/2
f 47/53/5 52/54/5 50/55/5 45/39/5
f 51/56/3 55/57/3 56/58/3 52/54/3
f 8/59/3 7/10/3 47/9/3 48/60/3
f 55/57/5 59/57/5 60/58/5 56/58/5
f 50/55/1 54/61/1 53/62/1 49/63/1
f 52/54/2 56/58/2 54/61/2 50/55/2
f 49/63/4 53/62/4 55/57/4 51/56/4
f 58/64/1 62/65/1 61/64/1 57/62/1
f 54/61/5 58/64/5 57/62/5 53/62/5
f 56/58/5 60/58/5 58/64/5 54/61/5
f 53/62/5 57/62/5 59/57/5 55/57/5
f 62/65/5 64/66/5 63/67/5 61/64/5
f 60/58/2 64/66/2 62/65/2 58/64/2
f 57/62/4 61/64/4 63/67/4 59/57/4
f 59/57/3 63/67/3 64/66/3 60/58/3
f 65/27/5 27/68/5 67/69/5 68/28/5
f 66/51/3 28/70/3 27/68/3 65/27/3
f 48/50/6 8/71/6 28/70/6 66/51/6
f 7/72/5 47/26/5 70/29/5 69/73/5
f 45/39/5 50/55/5 49/63/5 3/40/5
f 69/73/1 70/29/1 74/74/1 73/74/1
f 27/68/5 7/72/5 69/73/5 67/69/5
f 27/24/5 29/42/5 31/35/5 7/75/5
f 73/74/5 74/74/5 78/74/5 77/74/5
f 68/28/3 67/69/3 71/74/3 72/74/3
f 70/29/2 68/28/2 72/74/2 74/74/2
f 67/69/4 69/73/4 73/74/4 71/74/4
f 76/74/3 75/74/3 79/74/3 80/74/3
f 72/74/5 71/74/5 75/74/5 76/74/5
f 74/74/5 72/74/5 76/74/5 78/74/5
f 71/74/5 73/74/5 77/74/5 75/74/5
f 80/74/5 79/74/5 81/74/5 82/74/5
f 78/74/2 76/74/2 80/74/2 82/74/2
f 75/74/4 77/74/4 81/74/4 79/74/4
f 77/74/1 78/74/1 82/74/1 81/74/1
f 3/40/5 49/63/5 51/56/5 7/76/5
f 48/52/6 46/38/6 4/41/6 8/77/6
f 7/76/5 51/56/5 52/54/5 47/53/5
f 6/78/4 5/32/4 25/23/4 26/22/4
f 7/75/5 31/35/5 32/33/5 5/32/5
f 6/78/6 26/22/6 28/25/6 8/79/6
