# Blender v2.75 (sub 0) OBJ File: 'OldTelevision.blend'
# www.blender.org
mtllib OldTelevision.mtl
o Cylinder.001
v 1.065026 -0.265182 -1.568342
v 1.118738 -0.265182 -1.568342
v 1.118738 -0.294828 -1.496769
v 1.065026 -0.294828 -1.496769
v 1.065026 -0.200820 -1.595002
v 1.065026 -0.193609 -1.597989
v 1.118738 -0.193609 -1.597989
v 1.118738 -0.257519 -1.560679
v 1.118738 -0.283992 -1.496769
v 1.118738 -0.265182 -1.425197
v 1.065026 -0.265182 -1.425197
v 1.065026 -0.269038 -1.434506
v 1.065026 -0.284475 -1.471775
v 1.118738 -0.193609 -1.587152
v 1.065026 -0.179496 -1.592143
v 1.065026 -0.122036 -1.568342
v 1.118738 -0.122036 -1.568342
v 1.118738 -0.257519 -1.432859
v 1.105151 -0.254565 -1.557725
v 1.105151 -0.279813 -1.496769
v 1.118738 -0.193609 -1.395550
v 1.065026 -0.193609 -1.395550
v 1.118738 -0.129699 -1.560679
v 1.105151 -0.193609 -1.582973
v 1.065026 -0.107147 -1.532397
v 1.065026 -0.092390 -1.496769
v 1.118738 -0.092390 -1.496769
v 1.118738 -0.193609 -1.406387
v 1.105151 -0.254565 -1.435814
v 1.105151 -0.209632 -1.512793
v 1.105151 -0.216270 -1.496769
v 1.118738 -0.122036 -1.425197
v 1.065026 -0.122036 -1.425197
v 1.118738 -0.103227 -1.496769
v 1.105151 -0.132654 -1.557725
v 1.105151 -0.193609 -1.519430
v 1.065026 -0.099793 -1.478896
v 1.118738 -0.129699 -1.432859
v 1.105151 -0.193609 -1.410565
v 1.105151 -0.209632 -1.480746
v 1.119953 -0.209632 -1.512793
v 1.119953 -0.216270 -1.496769
v 1.105151 -0.107405 -1.496769
v 1.105151 -0.177586 -1.512793
v 1.131855 -0.193609 -1.519430
v 1.105151 -0.132654 -1.435814
v 1.105151 -0.193609 -1.474109
v 1.119953 -0.209632 -1.480746
v 1.119953 -0.261695 -1.512793
v 1.119953 -0.268332 -1.496769
v 1.105151 -0.170949 -1.496769
v 1.119953 -0.177586 -1.512793
v 1.158558 -0.193609 -1.519430
v 1.158558 -0.209632 -1.512793
v 1.105151 -0.177586 -1.480746
v 1.131855 -0.193609 -1.474109
v 1.119953 -0.261695 -1.480746
v 1.158558 -0.261695 -1.512793
v 1.158558 -0.268332 -1.496769
v 1.119953 -0.170949 -1.496769
v 1.158558 -0.177586 -1.512793
v 1.158558 -0.216270 -1.496769
v 1.158558 -0.170949 -1.496769
v 1.158558 -0.177586 -1.480746
v 1.158558 -0.193609 -1.474109
v 1.158558 -0.209632 -1.480746
v 1.119953 -0.177586 -1.480746
v 1.158558 -0.261695 -1.480746
v 1.119953 -0.106229 -1.496769
v 1.119953 -0.112866 -1.512793
v 1.158558 -0.112866 -1.512793
v 1.158558 -0.106229 -1.496769
v 1.158558 -0.112866 -1.480746
v 1.119953 -0.112866 -1.480746
v 1.065026 -0.002002 -1.568342
v 1.118738 -0.002002 -1.568342
v 1.118738 -0.031649 -1.496769
v 1.065026 -0.031649 -1.496769
v 1.065026 0.069570 -1.597989
v 1.118738 0.069570 -1.597989
v 1.118738 0.005660 -1.560679
v 1.118738 -0.020812 -1.496769
v 1.118738 -0.002002 -1.425197
v 1.065026 -0.002002 -1.425197
v 1.065026 0.069570 -1.395550
v 1.065026 0.141143 -1.425197
v 1.065026 0.170790 -1.496769
v 1.065026 0.387027 -1.690625
v 1.065026 0.421174 -1.680203
v 1.065026 0.320638 -1.294281
v 1.065026 -0.803669 -1.294281
v 1.065026 -0.913931 -1.690625
v 1.065026 0.141143 -1.568342
v 1.118738 0.141143 -1.568342
v 1.118738 0.069570 -1.587152
v 1.118738 0.005660 -1.432859
v 1.105151 0.008615 -1.557725
v 1.105151 -0.016634 -1.496769
v 1.118738 0.069570 -1.395550
v 1.118738 0.141143 -1.425197
v 1.118738 0.170790 -1.496769
v -0.170693 0.233808 -1.536937
v 1.065026 0.430900 -1.635518
v 1.065026 0.430900 0.385286
v 1.065026 0.414002 0.422484
v 1.065026 0.320638 0.305742
v 0.985734 0.271345 -1.235716
v 0.985734 -0.754376 -1.235716
v 1.118738 0.133480 -1.560679
v 1.105151 0.069570 -1.582973
v 1.118738 0.069570 -1.406387
v 1.105151 0.008615 -1.435814
v 1.105151 0.053547 -1.512793
v 1.105151 0.046910 -1.496769
v 1.118738 0.133480 -1.432859
v 1.118738 0.159953 -1.496769
v -0.170693 -0.917112 -1.536937
v -0.170693 0.267486 -1.526515
v 1.030827 0.426646 -1.631749
v 0.557998 0.367840 -0.817743
v 0.557998 0.367840 -0.436136
v 1.032809 0.426893 0.381283
v 1.065026 0.382781 0.436746
v 0.985734 0.271345 0.247177
v 1.065026 -0.803669 0.305742
v 0.985734 -0.754377 0.247177
v 0.988654 0.133900 -1.037010
v 0.988654 -0.616931 -1.037010
v 1.065026 -0.913931 0.436746
v 1.105151 0.130526 -1.557725
v 1.105151 0.069570 -1.519430
v 1.105151 0.069570 -1.410565
v 1.105151 0.053547 -1.480746
v 1.119953 0.053547 -1.512793
v 1.119953 0.046910 -1.496769
v 1.105151 0.130526 -1.435814
v 1.105151 0.155774 -1.496769
v -0.170693 0.260315 0.268796
v -0.170693 0.277212 0.231618
v -0.170693 0.277212 -1.500510
v -0.170693 -0.917112 0.283058
v -0.170693 0.230078 0.283058
v -0.147672 0.280075 -1.503030
v 0.336335 0.340272 -0.790175
v 0.516326 0.435293 -0.761318
v 0.516326 0.435293 -0.492561
v -0.138490 0.281217 0.235628
v 0.336335 0.340272 -0.463704
v 0.988654 0.133900 0.048471
v 0.988654 -0.616931 0.048470
v 1.014674 -0.019537 -0.815185
v 1.014674 -0.463494 -0.815185
v 1.105151 0.085594 -1.512793
v 1.131855 0.069570 -1.519430
v 1.105151 0.069570 -1.474109
v 1.119953 0.053547 -1.480746
v 1.119953 0.001485 -1.512793
v 1.119953 -0.005152 -1.496769
v 1.105151 0.085594 -1.480746
v 1.105151 0.092231 -1.496769
v 0.360214 0.415877 -0.741902
v 0.360214 0.415877 -0.511977
v 0.457784 0.472259 -0.627873
v 1.014674 -0.019537 -0.173355
v 1.014674 -0.463494 -0.173355
v 1.119953 0.085594 -1.512793
v 1.158558 0.069570 -1.519430
v 1.158558 0.053547 -1.512793
v 1.131855 0.069570 -1.474109
v 1.119953 0.001485 -1.480746
v 1.158558 0.001485 -1.512793
v 1.158558 -0.005152 -1.496769
v 1.119953 0.085594 -1.480746
v 1.119953 0.092231 -1.496769
v 0.445252 0.466944 -0.647430
v 0.437113 0.464626 -0.566639
v 0.448360 0.478729 -0.604066
v 1.158558 0.085594 -1.512793
v 1.158558 0.053547 -1.480746
v 1.158558 0.069570 -1.474109
v 1.158558 0.001485 -1.480746
v 1.158558 0.046910 -1.496769
v 1.158558 0.085594 -1.480746
v 1.119953 0.150313 -1.480746
v 1.119953 0.156950 -1.496769
v 0.409586 0.468511 -0.626769
v 0.416955 0.463135 -0.646552
v 0.452144 0.467305 -0.580112
v 0.414138 0.464347 -0.579365
v 0.334125 1.022559 -1.088940
v 0.328465 1.031082 -1.076819
v 1.119953 0.150313 -1.512793
v 1.158558 0.150313 -1.512793
v 1.158558 0.150313 -1.480746
v 1.158558 0.156950 -1.496769
v 0.417684 0.474991 -0.602926
v 0.326598 1.015556 -1.098897
v 0.423731 1.160960 -0.206888
v 0.413509 1.159138 -0.197726
v 0.397883 1.158948 -0.206380
v 0.430524 0.478624 -0.595430
v 0.310039 1.029205 -1.075410
v 0.439271 0.479690 -0.595755
v 1.158558 0.092231 -1.496769
v 0.309601 1.013585 -1.097622
v 0.305175 1.020668 -1.087550
v 0.414976 1.169383 -0.217527
v 0.429312 1.169720 -0.201770
v 0.414280 1.167042 -0.188297
v 0.409028 1.168658 -0.217306
v 0.391304 1.166762 -0.201023
v 0.327841 1.042698 -1.128478
v 0.340429 1.054409 -1.111825
v 0.330963 1.068664 -1.091554
v 0.300148 1.065524 -1.089199
v 0.435018 0.479172 -0.595597
v 0.299416 1.039402 -1.126346
v 0.412084 1.169030 -0.217419
v 0.416438 1.182106 -0.217413
v 0.423610 1.177040 -0.200356
v 0.413329 1.175207 -0.191140
v 0.407691 1.181040 -0.217088
v 0.319531 1.061865 -1.132444
v 0.325515 1.067432 -1.124528
v 0.321015 1.074208 -1.114892
v 0.292014 1.051247 -1.109501
v 0.306367 1.072715 -1.113773
v 0.306019 1.060298 -1.131430
v 0.414805 1.185511 -0.211056
v 0.411896 1.185157 -0.210948
v 0.412185 1.181588 -0.217255
v 0.397613 1.175016 -0.199845
v 0.302500 1.065928 -1.123423
v 0.408822 1.184783 -0.210834
vt 0.973109 0.126739
vt 0.963105 0.126739
vt 0.963105 0.115449
vt 0.973109 0.115449
vt 0.973109 0.125602
vt 0.974395 0.115449
vt 0.974395 0.126739
vt 0.973109 0.116917
vt 0.973109 0.122796
vt 0.973109 0.117675
vt 0.973109 0.121119
vt 0.973109 0.118268
vt 0.968750 0.126739
vt 0.972742 0.125086
vt 0.974395 0.121094
vt 0.972742 0.117102
vt 0.968750 0.115449
vt 0.964758 0.117102
vt 0.963105 0.121094
vt 0.964758 0.125086
vt 0.968183 0.121701
vt 0.968031 0.121701
vt 0.968000 0.121394
vt 0.968214 0.121394
vt 0.050781 0.910156
vt 0.968066 0.122309
vt 0.968085 0.122551
vt 0.969156 0.121029
vt 0.969405 0.120955
vt 0.968214 0.120794
vt 0.968000 0.120794
vt 0.968030 0.120486
vt 0.968183 0.120486
vt 0.970079 0.120736
vt 0.969879 0.120705
vt 0.970006 0.120762
vt 0.968095 0.120955
vt 0.968344 0.121029
vt 0.968999 0.121059
vt 0.969193 0.121051
vt 0.968128 0.119637
vt 0.968147 0.119878
vt 0.969506 0.120865
vt 0.969573 0.120911
vt 0.969862 0.120977
vt 0.969687 0.120974
vt 0.969840 0.120968
vt 0.967621 0.120705
vt 0.967421 0.120736
vt 0.967494 0.120762
vt 0.968501 0.121059
vt 0.968307 0.121051
vt 0.970842 0.119994
vt 0.970572 0.120148
vt 0.970780 0.119804
vt 0.970869 0.119726
vt 0.967994 0.120865
vt 0.967926 0.120911
vt 0.968708 0.120638
vt 0.929688 0.937500
vt 0.968818 0.120580
vt 0.969628 0.121054
vt 0.970277 0.120314
vt 0.969989 0.120395
vt 0.970212 0.120286
vt 0.967813 0.120974
vt 0.967638 0.120977
vt 0.967660 0.120968
vt 0.966928 0.120148
vt 0.966658 0.119994
vt 0.966631 0.119726
vt 0.966720 0.119804
vt 0.968858 0.121086
vt 0.967872 0.121054
vt 0.968335 0.120920
vt 0.968524 0.120894
vt 0.453125 0.042969
vt 0.968976 0.120894
vt 0.969165 0.120920
vt 0.968418 0.119809
vt 0.968557 0.120204
vt 0.969115 0.120718
vt 0.970106 0.121787
vt 0.970144 0.121707
vt 0.967511 0.120395
vt 0.967223 0.120314
vt 0.967288 0.120286
vt 0.968625 0.121086
vt 0.969333 0.120018
vt 0.968335 0.120054
vt 0.968254 0.119822
vt 0.969461 0.119768
vt 0.968943 0.120204
vt 0.969082 0.119809
vt 0.968363 0.120663
vt 0.970598 0.118500
vt 0.969513 0.118375
vt 0.970085 0.118309
vt 0.970485 0.118372
vt 0.967987 0.118375
vt 0.966902 0.118500
vt 0.967015 0.118372
vt 0.967415 0.118309
vt 0.967975 0.121604
vt 0.967946 0.121638
vt 0.967985 0.121754
vt 0.968299 0.120604
vt 0.968283 0.120770
vt 0.967395 0.121815
vt 0.967368 0.121735
vt 0.969165 0.120054
vt 0.968167 0.120018
vt 0.968039 0.119768
vt 0.969245 0.119822
vt 0.969215 0.120045
vt 0.968284 0.120045
vt 0.968201 0.119812
vt 0.969299 0.119812
vt 0.968874 0.121046
vt 0.969554 0.121638
vt 0.969525 0.121604
vt 0.969515 0.121754
vt 0.969547 0.121723
vt 0.969862 0.120622
vt 0.969819 0.120555
vt 0.968809 0.120662
vt 0.968691 0.120662
vt 0.969220 0.120639
vt 0.969191 0.120798
vt 0.968608 0.121049
vt 0.967640 0.120640
vt 0.967673 0.120575
vt 0.969379 0.122688
vt 0.967889 0.122756
vt 0.968072 0.122382
vt 0.969259 0.122341
vt 0.969611 0.122756
vt 0.968121 0.122688
vt 0.968242 0.122341
vt 0.969428 0.122382
vt 0.968191 0.122351
vt 0.969309 0.122351
vn -0.000000 -0.923900 -0.382700
vn -0.000000 -0.382700 -0.923900
vn 1.000000 0.000000 0.000000
vn -0.000000 -0.923900 0.382700
vn -0.000000 0.382700 -0.923900
vn 0.273300 0.888700 0.368100
vn 0.000000 -0.382700 0.923900
vn 0.273300 0.368100 0.888700
vn 0.000000 0.923900 -0.382700
vn 0.273300 0.888700 -0.368100
vn 0.000000 0.382700 0.923900
vn 0.273300 -0.368100 0.888700
vn 0.000000 0.923900 0.382700
vn 0.273300 0.368100 -0.888700
vn 0.273300 -0.888700 0.368100
vn 0.273300 -0.368100 -0.888700
vn -1.000000 0.000000 0.000000
vn 0.273300 -0.888700 -0.368100
vn 0.000000 0.000000 -1.000000
vn 0.000000 0.000000 1.000000
vn -0.153500 0.290300 -0.944500
vn 0.594100 0.000000 0.804400
vn -0.123400 -0.000000 -0.992400
vn -0.143500 0.967000 -0.210500
vn -0.123400 0.992400 0.000000
vn -0.162400 0.898400 0.408100
vn 0.528000 -0.849300 0.000000
vn 0.528000 0.849300 0.000000
vn 0.999900 0.000000 -0.014700
vn 0.002600 -1.000000 0.000000
vn -0.149300 0.953300 -0.262500
vn 0.850700 0.525600 0.000000
vn -0.162500 0.898300 0.408200
vn -0.162800 0.415400 0.895000
vn 0.594100 0.000000 -0.804400
vn 0.999800 0.021200 0.000000
vn 0.999800 -0.021200 0.000000
vn 0.993200 -0.000000 -0.116500
vn -0.162600 0.898300 0.408300
vn -0.153000 0.925600 -0.346200
vn -0.123400 -0.000000 0.992400
vn -0.170800 0.568000 -0.805100
vn -0.170800 0.568000 0.805100
vn 0.999900 0.000000 0.014700
vn 0.985900 0.167200 0.000000
vn 0.985900 -0.167200 0.000000
vn -0.953600 0.301200 -0.000000
vn -0.155300 0.920800 -0.357900
vn -0.147100 0.868600 0.473300
vn 0.482700 0.875200 -0.033200
vn 0.993200 0.000000 0.116500
vn -0.688600 0.724700 -0.025900
vn 0.847100 -0.216300 -0.485400
vn 0.898000 0.382500 0.217400
vn -0.071000 0.895900 0.438500
vn 0.043300 -0.628700 -0.776400
vn 0.661400 -0.334200 0.671500
vn -0.432400 -0.434400 0.790100
vn -0.375000 0.864700 0.334200
vn -0.034200 0.645100 0.763400
vn -0.911500 -0.351500 -0.213400
vn -0.947900 0.078700 0.308600
vn 0.838500 0.284400 -0.464800
vn 0.566300 -0.653900 0.501800
vn -0.785100 0.278700 -0.553200
vn -0.335400 -0.708300 0.621100
vn 0.842100 -0.414600 -0.345000
vn 0.924300 0.084500 0.372200
vn 0.034200 0.362900 0.931200
vn -0.126300 0.960200 -0.249100
vn 0.034900 -0.737100 -0.674900
vn -0.090500 0.476400 -0.874500
vn 0.738200 -0.078900 -0.669900
vn 0.598500 0.324800 0.732300
vn -0.090600 0.476400 -0.874500
vn -0.671900 -0.059600 -0.738300
vn -0.472600 0.240200 0.847900
vn 0.722400 0.174800 -0.669000
vn 0.717600 0.681400 -0.144000
vn -0.902600 -0.085600 0.421900
vn -0.078000 0.962000 0.261800
vn -0.893000 -0.442600 -0.081200
vn -0.047300 -0.222000 -0.973900
vn -0.038800 0.013400 -0.999200
vn 0.768400 0.625100 -0.137400
vn 0.183100 0.867600 0.462400
vn -0.757300 0.611600 -0.229000
vn -0.101600 0.821100 -0.561700
vn -0.098600 0.812500 -0.574600
vn -0.834900 0.548100 -0.050900
vn -0.860300 0.153600 -0.486100
vn -0.123300 0.861300 -0.493000
vn -0.239700 0.850400 0.468300
vn -0.123300 0.861200 -0.493000
usemtl Material.001
s off
f 1/1/1 2/2/1 3/3/1 4/4/1
f 2/3/2 1/4/2 5/5/2 6/1/2 7/2/2
f 3/3/3 2/6/3 8/7/3 9/2/3
f 10/3/4 11/4/4 12/8/4 13/9/4 4/1/4 3/2/4
f 2/3/3 7/6/3 14/7/3 8/2/3
f 7/3/5 6/4/5 15/10/5 16/1/5 17/2/5
f 10/3/3 3/6/3 9/7/3 18/2/3
f 9/3/6 8/6/6 19/7/6 20/2/6
f 11/1/7 10/2/7 21/3/7 22/4/7
f 7/3/3 17/6/3 23/7/3 14/2/3
f 8/3/8 14/6/8 24/7/8 19/2/8
f 17/3/9 16/4/9 25/11/9 26/1/9 27/2/9
f 21/3/3 10/6/3 18/7/3 28/2/3
f 18/3/10 9/6/10 20/7/10 29/2/10
f 20/3/3 19/6/3 30/7/3 31/2/3
f 22/1/11 21/2/11 32/3/11 33/4/11
f 17/3/3 27/6/3 34/7/3 23/2/3
f 14/3/12 23/6/12 35/7/12 24/2/12
f 19/3/3 24/6/3 36/7/3 30/2/3
f 27/3/13 26/4/13 37/12/13 33/1/13 32/2/13
f 32/3/3 21/6/3 28/7/3 38/2/3
f 28/3/14 18/6/14 29/7/14 39/2/14
f 29/3/3 20/6/3 31/7/3 40/2/3
f 31/3/1 30/6/1 41/7/1 42/2/1
f 27/3/3 32/6/3 38/7/3 34/2/3
f 23/3/15 34/6/15 43/7/15 35/2/15
f 24/3/3 35/6/3 44/7/3 36/2/3
f 30/3/2 36/6/2 45/7/2 41/2/2
f 38/3/16 28/6/16 39/7/16 46/2/16
f 39/3/3 29/6/3 40/7/3 47/2/3
f 40/3/4 31/6/4 42/7/4 48/2/4
f 42/3/17 41/6/17 49/7/17 50/2/17
f 34/3/18 38/6/18 46/7/18 43/2/18
f 35/3/3 43/6/3 51/7/3 44/2/3
f 36/3/5 44/6/5 52/7/5 45/2/5
f 41/3/2 45/6/2 53/7/2 54/2/2
f 46/3/3 39/6/3 47/7/3 55/2/3
f 47/3/7 40/6/7 48/7/7 56/2/7
f 48/3/17 42/6/17 50/7/17 57/2/17
f 41/3/19 54/6/19 58/7/19 49/2/19
f 50/3/1 49/6/1 58/7/1 59/2/1
f 43/3/3 46/6/3 55/7/3 51/2/3
f 44/3/9 51/6/9 60/7/9 52/2/9
f 45/3/5 52/6/5 61/7/5 53/2/5
f 62/13/3 54/14/3 53/15/3 61/16/3 63/17/3 64/18/3 65/19/3 66/20/3
f 55/3/11 47/6/11 56/7/11 67/2/11
f 56/3/7 48/6/7 66/7/7 65/2/7
f 66/3/20 48/6/20 57/7/20 68/2/20
f 57/3/4 50/6/4 59/7/4 68/2/4
f 54/3/3 62/6/3 59/7/3 58/2/3
f 51/3/13 55/6/13 67/7/13 60/2/13
f 52/3/17 60/6/17 69/7/17 70/2/17
f 61/3/19 52/6/19 70/7/19 71/2/19
f 62/3/3 66/6/3 68/7/3 59/2/3
f 63/3/3 61/6/3 71/7/3 72/2/3
f 64/3/3 63/6/3 72/7/3 73/2/3
f 67/3/11 56/6/11 65/7/11 64/2/11
f 60/3/17 67/6/17 74/7/17 69/2/17
f 70/3/9 69/6/9 72/7/9 71/2/9
f 67/3/20 64/6/20 73/7/20 74/2/20
f 69/3/13 74/6/13 73/7/13 72/2/13
f 75/21/1 76/22/1 77/23/1 78/24/1
f 75/25/3 78/25/3 37/25/3 26/25/3 25/25/3
f 79/26/2 80/26/2 76/27/2 75/27/2
f 77/28/3 76/29/3 81/29/3 82/28/3
f 78/30/4 77/31/4 83/32/4 84/33/4
f 75/25/3 25/25/3 16/25/3 15/25/3
f 84/25/3 85/25/3 86/25/3 87/25/3 88/25/3 89/25/3 90/25/3 91/25/3 12/25/3 11/25/3 22/25/3 33/25/3 37/25/3 78/25/3
f 5/25/3 92/25/3 88/25/3 87/25/3 93/25/3 79/25/3 75/25/3 15/25/3 6/25/3
f 93/26/5 94/26/5 80/27/5 79/27/5
f 76/34/3 80/35/3 95/35/3 81/36/3
f 83/37/3 77/38/3 82/38/3 96/37/3
f 82/39/6 81/28/6 97/40/6 98/39/6
f 84/41/7 83/41/7 99/42/7 85/42/7
f 85/41/11 99/41/11 100/42/11 86/42/11
f 86/30/13 100/31/13 101/32/13 87/33/13
f 88/25/21 102/25/21 118/25/21 89/25/21
f 89/25/3 103/25/3 104/25/3 105/25/3 106/25/3 90/25/3
f 91/25/22 90/25/22 107/25/22 108/25/22
f 12/25/3 91/25/3 13/25/3
f 13/25/3 91/25/3 92/25/3 5/25/3 1/25/3 4/25/3
f 87/21/9 101/22/9 94/23/9 93/24/9
f 80/43/3 94/29/3 109/29/3 95/44/3
f 81/45/8 95/46/8 110/46/8 97/47/8
f 99/48/3 83/49/3 96/50/3 111/48/3
f 96/38/10 82/51/10 98/51/10 112/52/10
f 98/53/3 97/54/3 113/55/3 114/56/3
f 100/37/3 99/57/3 111/58/3 115/37/3
f 101/59/3 100/59/3 115/59/3 116/59/3
f 102/25/23 88/25/23 92/25/23 117/25/23
f 103/25/24 89/25/24 119/25/24
f 104/25/25 103/25/25 119/25/25 120/25/25 121/25/25 122/25/25
f 105/25/26 104/25/26 122/25/26
f 105/25/3 123/25/3 129/25/3 125/25/3 106/25/3
f 90/25/27 106/25/27 124/25/27 107/25/27
f 125/25/28 91/25/28 108/25/28 126/25/28
f 108/60/29 107/60/29 127/60/29 128/60/29
f 129/25/3 92/25/3 91/25/3 125/25/3
f 94/61/3 101/61/3 116/61/3 109/61/3
f 95/47/12 109/62/12 130/46/12 110/47/12
f 97/63/3 110/64/3 131/65/3 113/63/3
f 111/66/14 96/67/14 112/68/14 132/66/14
f 112/69/3 98/70/3 114/71/3 133/72/3
f 114/73/1 113/73/1 134/73/1 135/73/1
f 115/74/16 111/68/16 132/68/16 136/66/16
f 116/75/18 115/76/18 136/76/18 137/75/18
f 138/25/17 139/25/17 140/25/17 118/25/17 102/25/17 117/25/17 141/25/17 142/25/17
f 141/25/30 117/25/30 92/25/30 129/25/30
f 89/25/31 118/25/31 143/25/31 119/25/31
f 119/25/25 143/25/25 144/25/25 120/25/25
f 121/77/32 120/77/32 145/77/32 146/77/32
f 147/25/25 122/25/25 121/25/25 148/25/25
f 138/25/33 105/25/33 122/25/33 147/25/33
f 105/25/34 138/25/34 142/25/34 123/25/34
f 106/25/35 125/25/35 126/25/35 124/25/35
f 107/60/36 124/60/36 149/60/36 127/60/36
f 126/60/37 108/60/37 128/60/37 150/60/37
f 128/60/38 127/60/38 151/60/38 152/60/38
f 109/78/15 116/79/15 137/79/15 130/78/15
f 110/80/3 130/81/3 153/82/3 131/82/3
f 113/83/2 131/83/2 154/84/2 134/84/2
f 132/85/3 112/86/3 133/86/3 155/87/3
f 133/88/4 114/88/4 135/88/4 156/88/4
f 135/89/17 134/90/17 157/91/17 158/92/17
f 136/93/3 132/94/3 155/95/3 159/95/3
f 137/96/3 136/97/3 159/98/3 160/99/3
f 139/25/39 138/25/39 147/25/39
f 140/25/25 139/25/25 147/25/25 148/25/25 144/25/25 143/25/25
f 118/25/40 140/25/40 143/25/40
f 123/25/41 142/25/41 141/25/41 129/25/41
f 120/77/42 144/77/42 161/77/42 145/77/42
f 148/77/43 121/77/43 146/77/43 162/77/43
f 124/60/44 126/60/44 150/60/44 149/60/44
f 127/60/45 149/60/45 164/60/45 151/60/45
f 150/60/46 128/60/46 152/60/46 165/60/46
f 151/60/3 164/60/3 165/60/3 152/60/3
f 130/100/3 137/101/3 160/102/3 153/103/3
f 131/104/5 153/105/5 166/22/5 154/106/5
f 134/107/2 154/107/2 167/108/2 168/108/2
f 155/109/7 133/109/7 156/110/7 169/110/7
f 156/111/17 135/112/17 158/113/17 170/114/17
f 134/115/19 168/116/19 171/117/19 157/118/19
f 158/119/1 157/119/1 171/73/1 172/73/1
f 159/120/11 155/121/11 169/122/11 173/123/11
f 160/88/13 159/88/13 173/88/13 174/88/13
f 144/77/47 148/77/47 162/77/47 161/77/47
f 145/77/48 161/77/48 187/77/48 175/77/48
f 162/77/49 146/77/49 188/77/49 176/77/49 189/77/49
f 177/77/50 146/77/50 145/77/50 175/77/50 163/77/50
f 149/60/51 150/60/51 165/60/51 164/60/51
f 153/73/9 160/73/9 174/73/9 166/73/9
f 154/124/5 166/124/5 178/125/5 167/125/5
f 167/61/3 178/126/3 204/126/3 183/127/3 180/59/3 179/59/3 182/59/3 168/61/3
f 169/128/7 156/128/7 179/129/7 180/129/7
f 179/115/20 156/116/20 170/117/20 181/118/20
f 170/130/4 158/130/4 172/88/4 181/88/4
f 168/111/3 182/112/3 172/113/3 171/114/3
f 173/131/11 169/131/11 180/132/11 183/132/11
f 174/133/17 173/134/17 184/135/17 185/136/17
f 161/77/52 162/77/52 196/77/52 186/77/52 187/77/52
f 163/77/53 175/77/53 197/77/53 190/77/53
f 177/77/54 163/77/54 190/77/54 191/77/54
f 146/77/55 177/77/55 203/77/55 188/77/55
f 166/137/17 174/138/17 185/139/17 192/140/17
f 178/133/19 166/138/19 192/141/19 193/142/19
f 182/89/3 179/90/3 181/91/3 172/92/3
f 173/133/20 183/138/20 194/141/20 184/142/20
f 185/130/13 184/130/13 194/88/13 195/88/13
f 175/77/56 187/77/56 205/77/56 197/77/56
f 176/77/57 188/77/57 198/77/57 199/77/57
f 189/77/58 176/77/58 199/77/58 200/77/58
f 189/77/59 201/77/59 196/77/59 162/77/59
f 191/77/60 202/77/60 196/77/60 177/77/60
f 192/119/9 185/119/9 195/73/9 193/73/9
f 204/133/3 178/134/3 193/135/3 195/136/3
f 183/137/3 204/138/3 195/139/3 194/140/3
f 187/77/61 186/77/61 206/77/61 205/77/61
f 186/77/62 196/77/62 202/77/62 206/77/62
f 188/77/63 203/77/63 207/77/63 198/77/63
f 199/77/64 198/77/64 208/77/64 209/77/64
f 201/77/65 189/77/65 200/77/65 210/77/65
f 200/77/66 199/77/66 209/77/66 211/77/66
f 190/77/67 197/77/67 212/77/67 213/77/67
f 191/77/68 190/77/68 213/77/68 214/77/68
f 202/77/69 191/77/69 214/77/69 215/77/69
f 177/77/70 196/77/70 201/77/70 216/77/70 203/77/70
f 197/77/71 205/77/71 217/77/71 212/77/71
f 203/77/72 216/77/72 218/77/72 207/77/72
f 198/77/73 207/77/73 219/77/73 208/77/73
f 209/77/74 208/77/74 220/77/74 221/77/74
f 216/77/75 201/77/75 210/77/75 218/77/75
f 210/77/76 200/77/76 211/77/76 222/77/76
f 209/77/77 221/77/77 232/77/77 211/77/77
f 213/77/78 212/77/78 223/77/78 224/77/78
f 214/77/79 213/77/79 224/77/79 225/77/79
f 206/77/80 202/77/80 215/77/80 226/77/80
f 215/77/81 214/77/81 225/77/81 227/77/81
f 205/77/82 206/77/82 226/77/82 217/77/82
f 212/77/83 217/77/83 228/77/83 223/77/83
f 207/77/84 218/77/84 231/77/84 219/77/84
f 208/77/85 219/77/85 229/77/85 220/77/85
f 221/77/86 220/77/86 229/77/86 230/77/86
f 218/77/84 210/77/84 222/77/84 231/77/84
f 211/77/87 232/77/87 234/77/87 222/77/87
f 224/77/88 223/77/88 228/77/88 233/77/88
f 225/77/89 224/77/89 233/77/89 227/77/89
f 226/77/90 215/77/90 227/77/90 233/77/90
f 217/77/91 226/77/91 233/77/91 228/77/91
f 229/77/92 219/77/92 231/77/92 230/77/92
f 230/77/93 234/77/93 232/77/93 221/77/93
f 222/77/94 234/77/94 230/77/94 231/77/94
