# Blender v2.75 (sub 0) OBJ File: 'Small Table.blend'
# www.blender.org
mtllib Small Table.mtl
o Cube_Cube.001
v -1.000000 0.868138 0.000000
v -1.000000 1.000000 0.000000
v -1.000000 0.868138 -1.000000
v -1.000000 1.000000 -1.000000
v 0.000000 0.868138 0.000000
v 0.000000 1.000000 0.000000
v 0.000000 0.868138 -1.000000
v 0.000000 1.000000 -1.000000
v -0.864385 0.868138 -0.888979
v -0.864385 0.868138 -0.749327
v -0.724646 0.868138 -0.888979
v -0.724646 0.868138 -0.749327
v -0.864385 -0.128812 -0.888979
v -0.864385 -0.128812 -0.749327
v -0.724646 -0.128812 -0.888979
v -0.724646 -0.128812 -0.749327
v -0.846850 -0.150714 -0.871456
v -0.846850 -0.150714 -0.766850
v -0.742181 -0.150714 -0.871456
v -0.742181 -0.150714 -0.766850
v -0.846850 -0.757707 -0.871456
v -0.846850 -0.757707 -0.766850
v -0.742181 -0.757707 -0.871456
v -0.742181 -0.757707 -0.766850
v 1.000000 0.868138 0.000000
v 1.000000 1.000000 0.000000
v 1.000000 0.868138 -1.000000
v 1.000000 1.000000 -1.000000
v 0.864385 0.868138 -0.888979
v 0.864385 0.868138 -0.749327
v 0.724646 0.868138 -0.888979
v 0.724646 0.868138 -0.749327
v 0.864385 -0.128812 -0.888979
v 0.864385 -0.128812 -0.749327
v 0.724646 -0.128812 -0.888979
v 0.724646 -0.128812 -0.749327
v 0.846850 -0.150714 -0.871456
v 0.846850 -0.150714 -0.766850
v 0.742181 -0.150714 -0.871456
v 0.742181 -0.150714 -0.766850
v 0.846850 -0.757707 -0.871456
v 0.846850 -0.757707 -0.766850
v 0.742181 -0.757707 -0.871456
v 0.742181 -0.757707 -0.766850
v -1.000000 0.868138 1.000000
v -1.000000 1.000000 1.000000
v 0.000000 0.868138 1.000000
v 0.000000 1.000000 1.000000
v -0.864385 0.868138 0.888979
v -0.864385 0.868138 0.749327
v -0.724646 0.868138 0.888979
v -0.724646 0.868138 0.749327
v -0.864385 -0.128812 0.888979
v -0.864385 -0.128812 0.749327
v -0.724646 -0.128812 0.888979
v -0.724646 -0.128812 0.749327
v -0.846850 -0.150714 0.871456
v -0.846850 -0.150714 0.766850
v -0.742181 -0.150714 0.871456
v -0.742181 -0.150714 0.766850
v -0.846850 -0.757707 0.871456
v -0.846850 -0.757707 0.766850
v -0.742181 -0.757707 0.871456
v -0.742181 -0.757707 0.766850
v 1.000000 0.868138 1.000000
v 1.000000 1.000000 1.000000
v 0.864385 0.868138 0.888979
v 0.864385 0.868138 0.749327
v 0.724646 0.868138 0.888979
v 0.724646 0.868138 0.749327
v 0.864385 -0.128812 0.888979
v 0.864385 -0.128812 0.749327
v 0.724646 -0.128812 0.888979
v 0.724646 -0.128812 0.749327
v 0.846850 -0.150714 0.871456
v 0.846850 -0.150714 0.766850
v 0.742181 -0.150714 0.871456
v 0.742181 -0.150714 0.766850
v 0.846850 -0.757707 0.871456
v 0.846850 -0.757707 0.766850
v 0.742181 -0.757707 0.871456
v 0.742181 -0.757707 0.766850
v -0.967408 1.000000 0.000000
v -0.967408 1.000000 -0.967408
v 0.000000 1.000000 -0.967408
v 0.967408 1.000000 0.000000
v 0.967408 1.000000 -0.967408
v -0.967408 1.000000 0.967408
v 0.000000 1.000000 0.967408
v 0.967408 1.000000 0.967408
v -0.967408 1.033507 0.000000
v -0.967408 1.033507 -0.967408
v 0.000000 1.033507 -0.967408
v 0.000000 1.033507 0.000000
v 0.967408 1.033507 0.000000
v 0.967408 1.033507 -0.967408
v -0.967408 1.033507 0.967408
v 0.000000 1.033507 0.967408
v 0.967408 1.033507 0.967408
vt 0.054577 0.945997
vt 0.054152 0.945324
vt 0.054142 0.945342
vt 0.054658 0.945777
vt 0.053682 0.944811
vt 0.053909 0.944779
vt 0.053239 0.943588
vt 0.054051 0.943588
vt 0.054051 0.943695
vt 0.053239 0.943695
vt 0.051613 0.943588
vt 0.052425 0.943588
vt 0.052425 0.943695
vt 0.051613 0.943695
vt 0.054180 0.945380
vt 0.052092 0.945427
vt 0.052791 0.945092
vt 0.052800 0.945024
vt 0.052339 0.945522
vt 0.054146 0.945350
vt 0.054831 0.944866
vt 0.051615 0.944859
vt 0.052617 0.945010
vt 0.052705 0.945014
vt 0.053507 0.944568
vt 0.054020 0.946891
vt 0.054557 0.946697
vt 0.054498 0.946631
vt 0.054794 0.947037
vt 0.054863 0.943588
vt 0.054863 0.943695
vt 0.054742 0.946301
vt 0.054863 0.946851
vt 0.054726 0.946771
vt 0.053674 0.946766
vt 0.052891 0.946180
vt 0.052050 0.945746
vt 0.052828 0.946128
vt 0.053378 0.946875
vt 0.052097 0.947037
vt 0.054495 0.945935
vt 0.053656 0.944901
vt 0.053622 0.946703
vt 0.052818 0.946280
vt 0.052746 0.946382
vt 0.053570 0.946639
vt 0.054412 0.945873
vt 0.054292 0.945198
vt 0.054526 0.946703
vt 0.052585 0.945616
vt 0.053549 0.945780
vt 0.053631 0.944992
vn -1.000000 0.000000 0.000000
vn 0.000000 0.000000 -1.000000
vn 1.000000 0.000000 0.000000
vn 0.000000 0.000000 1.000000
vn 0.000000 -1.000000 0.000000
vn 0.000000 1.000000 0.000000
vn 0.000000 -0.624700 0.780800
vn 0.000000 -0.624700 -0.780800
vn 0.780600 -0.625000 0.000000
vn -0.780600 -0.625000 0.000000
usemtl Material.001
s off
f 2/1/1 4/2/1 3/3/1 1/4/1
f 4/2/2 8/5/2 7/6/2 3/3/2
f 8/7/3 6/8/3 5/9/3 7/10/3
f 6/11/4 2/12/4 1/13/4 5/14/4
f 1/4/5 3/3/5 9/2/5 10/15/5
f 26/16/6 28/17/6 87/18/6 86/19/6
f 11/3/3 12/20/3 16/3/3 15/3/3
f 3/3/5 7/6/5 11/3/5 9/2/5
f 5/21/5 1/4/5 10/15/5 12/20/5
f 7/6/5 5/21/5 12/20/5 11/3/5
f 16/3/7 14/3/7 18/3/7 20/3/7
f 10/15/1 9/2/1 13/3/1 14/3/1
f 12/20/4 10/15/4 14/3/4 16/3/4
f 9/2/2 11/3/2 15/3/2 13/3/2
f 17/3/2 19/3/2 23/3/2 21/3/2
f 13/3/8 15/3/8 19/3/8 17/3/8
f 15/3/9 16/3/9 20/3/9 19/3/9
f 14/3/10 13/3/10 17/3/10 18/3/10
f 22/3/5 21/3/5 23/3/5 24/3/5
f 19/3/3 20/3/3 24/3/3 23/3/3
f 18/3/1 17/3/1 21/3/1 22/3/1
f 20/3/4 18/3/4 22/3/4 24/3/4
f 26/16/3 25/22/3 27/17/3 28/17/3
f 48/7/3 47/10/3 5/13/3 6/12/3
f 25/22/5 30/23/5 29/24/5 27/17/5
f 28/17/2 27/17/2 7/25/2 8/5/2
f 31/18/1 35/24/1 36/24/1 32/24/1
f 47/26/5 51/27/5 52/28/5 5/29/5
f 6/30/4 5/31/4 25/9/4 26/8/4
f 36/24/7 40/24/7 38/24/7 34/24/7
f 30/23/3 34/24/3 33/24/3 29/24/3
f 32/24/4 36/24/4 34/24/4 30/23/4
f 29/24/2 33/24/2 35/24/2 31/18/2
f 37/24/2 41/24/2 43/24/2 39/24/2
f 33/24/8 37/24/8 39/24/8 35/24/8
f 35/24/10 39/24/10 40/24/10 36/24/10
f 34/24/9 38/24/9 37/24/9 33/24/9
f 42/24/5 44/24/5 43/24/5 41/24/5
f 39/24/1 43/24/1 44/24/1 40/24/1
f 38/24/3 42/24/3 41/24/3 37/24/3
f 40/24/4 44/24/4 42/24/4 38/24/4
f 2/1/1 1/32/1 45/33/1 46/34/1
f 46/34/4 45/33/4 47/26/4 48/35/4
f 26/16/3 66/36/3 65/36/3 25/37/3
f 1/32/5 50/27/5 49/27/5 45/33/5
f 51/27/3 55/27/3 56/27/3 52/28/3
f 45/33/5 49/27/5 51/27/5 47/26/5
f 7/25/5 31/18/5 32/24/5 5/13/5
f 56/27/8 60/27/8 58/27/8 54/27/8
f 50/27/1 54/27/1 53/27/1 49/27/1
f 52/28/2 56/27/2 54/27/2 50/27/2
f 49/27/4 53/27/4 55/27/4 51/27/4
f 57/27/4 61/27/4 63/27/4 59/27/4
f 53/27/7 57/27/7 59/27/7 55/27/7
f 55/27/9 59/27/9 60/27/9 56/27/9
f 54/27/10 58/27/10 57/27/10 53/27/10
f 62/27/5 64/27/5 63/27/5 61/27/5
f 59/27/3 63/27/3 64/27/3 60/27/3
f 58/27/1 62/27/1 61/27/1 57/27/1
f 60/27/2 64/27/2 62/27/2 58/27/2
f 25/37/5 65/36/5 67/36/5 68/38/5
f 47/39/5 5/40/5 70/36/5 69/36/5
f 4/2/6 2/1/6 83/41/6 84/2/6
f 28/17/6 8/5/6 85/42/6 87/18/6
f 69/36/1 70/36/1 74/36/1 73/36/1
f 5/29/5 52/28/5 50/27/5 1/32/5
f 74/36/8 72/36/8 76/36/8 78/36/8
f 68/38/3 67/36/3 71/36/3 72/36/3
f 70/36/2 68/38/2 72/36/2 74/36/2
f 67/36/4 69/36/4 73/36/4 71/36/4
f 75/36/4 77/36/4 81/36/4 79/36/4
f 71/36/7 73/36/7 77/36/7 75/36/7
f 73/36/10 74/36/10 78/36/10 77/36/10
f 72/36/9 71/36/9 75/36/9 76/36/9
f 80/36/5 79/36/5 81/36/5 82/36/5
f 77/36/1 78/36/1 82/36/1 81/36/1
f 76/36/3 75/36/3 79/36/3 80/36/3
f 78/36/2 76/36/2 80/36/2 82/36/2
f 46/34/6 48/35/6 89/43/6 88/27/6
f 5/13/5 32/24/5 30/23/5 25/22/5
f 65/36/5 47/39/5 69/36/5 67/36/5
f 27/17/5 29/24/5 31/18/5 7/25/5
f 5/40/5 25/37/5 68/38/5 70/36/5
f 66/36/4 48/35/4 47/39/4 65/36/4
f 89/43/4 90/44/4 99/45/4 98/46/4
f 84/2/1 83/41/1 91/47/1 92/48/1
f 83/41/1 88/27/1 97/49/1 91/47/1
f 86/19/3 87/18/3 96/18/3 95/50/3
f 48/35/6 66/36/6 90/44/6 89/43/6
f 66/36/6 26/16/6 86/19/6 90/44/6
f 2/1/6 46/34/6 88/27/6 83/41/6
f 8/5/6 4/2/6 84/2/6 85/42/6
f 94/51/6 93/52/6 92/48/6 91/47/6
f 94/51/6 91/47/6 97/49/6 98/46/6
f 94/51/6 98/46/6 99/45/6 95/50/6
f 94/51/6 95/50/6 96/18/6 93/52/6
f 90/44/3 86/19/3 95/50/3 99/45/3
f 88/27/4 89/43/4 98/46/4 97/49/4
f 85/42/2 84/2/2 92/48/2 93/52/2
f 87/18/2 85/42/2 93/52/2 96/18/2
