# Blender v2.75 (sub 0) OBJ File: 'Stool.blend'
# www.blender.org
mtllib Stool.mtl
o Cube_Cube.001
v -0.864107 -0.549212 0.697549
v -0.864107 -0.549212 0.554544
v -1.000000 -0.938286 0.554544
v -1.000000 -0.938286 0.697549
v -0.796034 -0.572389 0.697549
v -0.928090 -0.938286 0.697549
v -0.698941 -0.064821 0.697549
v -0.698941 -0.064821 0.554544
v -0.796034 -0.572389 0.554544
v -0.928090 -0.938286 0.554544
v -0.727960 -0.595566 0.697549
v -0.856179 -0.938286 0.697549
v -0.629229 -0.082467 0.697549
v -0.629229 -0.082467 0.554544
v -0.641155 0.083209 0.697549
v -0.641155 0.083209 0.554544
v -0.727960 -0.595566 0.554544
v -0.856179 -0.938286 0.554544
v -0.559518 -0.100113 0.697549
v -0.571443 0.065563 0.697549
v -0.559518 -0.100113 0.554544
v -0.698941 -0.064821 0.000000
v -0.629229 -0.082467 0.000000
v -0.641155 0.083209 0.000000
v -0.524266 0.544991 0.697549
v -0.524266 0.544991 0.554544
v -0.501731 0.047917 0.697549
v -0.454554 0.527345 0.697549
v -0.571443 0.065563 0.554544
v -0.501731 0.047917 0.554544
v -0.571443 0.065563 0.000000
v -0.629229 -0.082467 -0.554544
v -0.698941 -0.064821 -0.554544
v -0.641155 0.083209 -0.554544
v -0.454554 0.527345 0.554544
v -0.424599 0.938734 0.554544
v -0.424599 0.938734 0.697549
v -0.498724 -0.114162 0.555669
v -0.499609 -0.112143 0.698657
v -0.384842 0.509699 0.697549
v -0.350421 0.938734 0.697549
v -0.497171 0.044725 0.553436
v -0.384842 0.509699 0.554544
v -0.571443 0.065563 -0.554544
v -0.796034 -0.572389 -0.554544
v -0.864107 -0.549212 -0.554544
v -0.641155 0.083209 -0.697549
v -0.698941 -0.064821 -0.697549
v -0.350421 0.938734 0.554544
v -0.498056 0.046743 0.696424
v -0.276242 0.938734 0.697549
v -0.276242 0.938734 0.554544
v -0.559518 -0.100113 -0.554544
v -0.501731 0.047917 -0.554544
v -1.000000 -0.938286 -0.554544
v -0.928090 -0.938286 -0.554544
v -0.727960 -0.595566 -0.554544
v -0.864107 -0.549212 -0.697549
v -0.454554 0.527345 -0.554544
v -0.524266 0.544991 -0.554544
v -0.524266 0.544991 -0.697549
v -0.571443 0.065563 -0.697549
v -0.629229 -0.082467 -0.697549
v 0.000000 -0.116987 0.557513
v 0.000000 -0.114968 0.700501
v 0.000000 0.041900 0.555280
v 0.000000 0.043918 0.698268
v -0.497171 0.044725 -0.553436
v -0.384842 0.509699 -0.554544
v -1.000000 -0.938286 -0.697549
v -0.928090 -0.938286 -0.697549
v -0.856179 -0.938286 -0.554544
v -0.727960 -0.595566 -0.697549
v -0.559518 -0.100113 -0.697549
v -0.796034 -0.572389 -0.697549
v -0.424599 0.938734 -0.554544
v -0.350421 0.938734 -0.554544
v -0.424599 0.938734 -0.697549
v -0.454554 0.527345 -0.697549
v -0.501731 0.047917 -0.697549
v 0.499609 -0.112143 0.698657
v 0.498724 -0.114162 0.555669
v 0.497172 0.044725 0.553436
v 0.498056 0.046743 0.696424
v -0.498724 -0.114162 -0.555669
v -0.498056 0.046743 -0.696424
v -0.384842 0.509699 -0.697549
v -0.276242 0.938734 -0.554544
v -0.856179 -0.938286 -0.697549
v -0.350421 0.938734 -0.697549
v -0.499609 -0.112143 -0.698657
v 0.559518 -0.100113 0.697549
v 0.559518 -0.100113 0.554544
v 0.501731 0.047917 0.697549
v 0.501731 0.047917 0.554544
v 0.000000 -0.116987 -0.557513
v 0.000000 0.041900 -0.555280
v 0.000000 0.043918 -0.698268
v -0.276242 0.938734 -0.697549
v 0.000000 -0.114968 -0.700501
v 0.498724 -0.114162 -0.555669
v 0.497172 0.044725 -0.553436
v 0.498056 0.046743 -0.696424
v 0.727960 -0.595566 0.697549
v 0.727960 -0.595566 0.554544
v 0.629229 -0.082467 0.697549
v 0.571443 0.065563 0.697549
v 0.571443 0.065563 0.554544
v 0.629229 -0.082467 0.554544
v 0.384842 0.509699 0.697549
v 0.384842 0.509699 0.554544
v 0.499609 -0.112143 -0.698657
v 0.559518 -0.100113 -0.554544
v 0.501731 0.047917 -0.554544
v 0.856179 -0.938286 0.554544
v 0.856179 -0.938286 0.697549
v 0.796034 -0.572389 0.697549
v 0.796034 -0.572389 0.554544
v 0.698941 -0.064821 0.697549
v 0.641155 0.083209 0.697549
v 0.454554 0.527345 0.697549
v 0.454554 0.527345 0.554544
v 0.571443 0.065563 0.000000
v 0.629229 -0.082467 0.000000
v 0.276242 0.938734 0.554544
v 0.276242 0.938734 0.697549
v 0.559518 -0.100113 -0.697549
v 0.501731 0.047917 -0.697549
v 0.928090 -0.938286 0.554544
v 0.928090 -0.938286 0.697549
v 0.864107 -0.549212 0.697549
v 0.698941 -0.064821 0.554544
v 0.864107 -0.549212 0.554544
v 0.641155 0.083209 0.554544
v 0.524266 0.544991 0.697549
v 0.350421 0.938734 0.697549
v 0.350421 0.938734 0.554544
v 0.524266 0.544991 0.554544
v 0.641155 0.083209 0.000000
v 0.571443 0.065563 -0.554544
v 0.629229 -0.082467 -0.554544
v 0.698941 -0.064821 0.000000
v 0.727960 -0.595566 -0.697549
v 0.727960 -0.595566 -0.554544
v 0.384842 0.509699 -0.554544
v 0.384842 0.509699 -0.697549
v 1.000000 -0.938286 0.554544
v 1.000000 -0.938286 0.697549
v 0.424599 0.938734 0.697549
v 0.424599 0.938734 0.554544
v 0.641155 0.083209 -0.554544
v 0.698941 -0.064821 -0.554544
v 0.629229 -0.082467 -0.697549
v 0.571443 0.065563 -0.697549
v 0.796034 -0.572389 -0.697549
v 0.856179 -0.938286 -0.697549
v 0.856179 -0.938286 -0.554544
v 0.796034 -0.572389 -0.554544
v 0.454554 0.527345 -0.554544
v 0.454554 0.527345 -0.697549
v 0.276242 0.938734 -0.697549
v 0.276242 0.938734 -0.554544
v 0.524266 0.544991 -0.554544
v 0.864107 -0.549212 -0.554544
v 0.698941 -0.064821 -0.697549
v 0.641155 0.083209 -0.697549
v 0.864107 -0.549212 -0.697549
v 0.928090 -0.938286 -0.697549
v 0.928090 -0.938286 -0.554544
v 0.350421 0.938734 -0.554544
v 0.524266 0.544991 -0.697549
v 0.350421 0.938734 -0.697549
v 0.424599 0.938734 -0.554544
v 1.000000 -0.938286 -0.554544
v 1.000000 -0.938286 -0.697549
v 0.424599 0.938734 -0.697549
v -0.725953 1.078008 0.725953
v -0.725953 1.078008 -0.725953
v -0.725953 0.938734 -0.725953
v -0.725953 0.938734 0.725953
v 0.725953 1.078008 0.725953
v 0.725953 0.938734 0.725953
v 0.725953 1.078008 -0.725953
v 0.725953 0.938734 -0.725953
vn -0.944100 0.329700 0.000000
vn 0.000000 0.000000 1.000000
vn -0.946500 0.322700 0.000000
vn 0.000000 0.000000 -1.000000
vn 0.000000 -1.000000 0.000000
vn -0.931500 0.363600 0.000000
vn 0.936600 -0.350400 0.000000
vn -0.245400 -0.969400 0.000000
vn -0.969400 0.245400 0.000000
vn 0.946800 -0.321900 0.000000
vn 0.931500 -0.363600 0.000000
vn 0.245400 0.969400 0.000000
vn -0.211300 -0.977400 0.006200
vn -0.001600 -0.007000 -1.000000
vn 0.001700 0.006900 1.000000
vn 0.969400 -0.245400 0.000000
vn 0.467400 0.884000 -0.004800
vn -0.005700 -0.999900 0.014100
vn 0.003600 -0.014100 -0.999900
vn -0.003600 0.014100 0.999900
vn 0.005700 0.999900 -0.014100
vn -0.001600 -0.007000 1.000000
vn 0.005700 -0.999900 0.014100
vn -0.003600 -0.014100 -0.999900
vn 0.003600 0.014100 0.999900
vn -0.005700 0.999900 -0.014100
vn 0.467400 0.884000 0.004800
vn -0.211300 -0.977400 -0.006200
vn 0.001700 0.006900 -1.000000
vn 0.211300 -0.977400 0.006200
vn 0.001600 -0.007000 -1.000000
vn -0.001700 0.006900 1.000000
vn -0.467500 0.884000 -0.004800
vn 0.003600 -0.014100 0.999900
vn 0.005700 0.999900 0.014100
vn -0.005700 -0.999900 -0.014100
vn -0.003600 -0.014100 0.999900
vn -0.005700 0.999900 0.014100
vn -0.003600 0.014100 -0.999900
vn -0.946800 -0.321900 0.000000
vn -0.969400 -0.245400 0.000000
vn 0.005700 -0.999900 -0.014100
vn 0.001600 -0.007000 1.000000
vn -0.467500 0.884000 0.004800
vn 0.003600 0.014100 -0.999900
vn -0.936600 -0.350400 0.000000
vn -0.931500 -0.363600 0.000000
vn 0.211300 -0.977400 -0.006200
vn -0.001700 0.006900 -1.000000
vn 0.931500 0.363600 0.000000
vn -0.245400 0.969400 0.000000
vn 0.245400 -0.969400 0.000000
vn 0.946500 0.322700 0.000000
vn 0.969400 0.245400 0.000000
vn 0.944100 0.329700 0.000000
vn -1.000000 0.000000 0.000000
vn 0.000000 1.000000 0.000000
vn 1.000000 0.000000 0.000000
usemtl Material.001
s off
f 1//1 2//1 3//1 4//1
f 5//2 1//2 4//2 6//2
f 2//3 1//3 7//3 8//3
f 2//4 9//4 10//4 3//4
f 4//5 3//5 10//5 6//5
f 11//2 5//2 6//2 12//2
f 1//2 5//2 13//2 7//2
f 9//4 2//4 8//4 14//4
f 8//6 7//6 15//6 16//6
f 9//4 17//4 18//4 10//4
f 6//5 10//5 18//5 12//5
f 17//7 11//7 12//7 18//7
f 5//2 11//2 19//2 13//2
f 7//2 13//2 20//2 15//2
f 17//4 9//4 14//4 21//4
f 14//8 8//8 22//8 23//8
f 8//6 16//6 24//6 22//6
f 16//9 15//9 25//9 26//9
f 11//10 17//10 21//10 19//10
f 13//2 19//2 27//2 20//2
f 15//2 20//2 28//2 25//2
f 21//4 14//4 29//4 30//4
f 29//11 14//11 23//11 31//11
f 32//8 23//8 22//8 33//8
f 16//12 29//12 31//12 24//12
f 33//6 22//6 24//6 34//6
f 29//4 16//4 26//4 35//4
f 36//9 26//9 25//9 37//9
f 20//2 27//2 40//2 28//2
f 37//2 25//2 28//2 41//2
f 30//4 29//4 35//4 43//4
f 44//11 31//11 23//11 32//11
f 45//2 32//2 33//2 46//2
f 34//12 24//12 31//12 44//12
f 33//6 34//6 47//6 48//6
f 49//4 35//4 26//4 36//4
f 39//13 19//13 21//13 38//13
f 38//14 21//14 30//14 42//14
f 50//15 27//15 19//15 39//15
f 27//16 30//16 43//16 40//16
f 41//2 28//2 40//2 51//2
f 42//17 30//17 27//17 50//17
f 52//4 43//4 35//4 49//4
f 53//2 54//2 44//2 32//2
f 46//2 55//2 56//2 45//2
f 57//2 53//2 32//2 45//2
f 46//3 33//3 48//3 58//3
f 44//2 59//2 60//2 34//2
f 34//9 60//9 61//9 47//9
f 48//4 47//4 62//4 63//4
f 39//18 38//18 64//18 65//18
f 38//19 42//19 66//19 64//19
f 50//20 39//20 65//20 67//20
f 51//16 40//16 43//16 52//16
f 42//21 50//21 67//21 66//21
f 54//22 53//22 85//22 68//22
f 54//2 69//2 59//2 44//2
f 58//1 70//1 55//1 46//1
f 70//5 71//5 56//5 55//5
f 45//2 56//2 72//2 57//2
f 73//10 74//10 53//10 57//10
f 58//4 48//4 63//4 75//4
f 76//2 60//2 59//2 77//2
f 78//9 61//9 60//9 76//9
f 47//4 61//4 79//4 62//4
f 63//4 62//4 80//4 74//4
f 81//23 65//23 64//23 82//23
f 82//24 64//24 66//24 83//24
f 84//25 67//25 65//25 81//25
f 83//26 66//26 67//26 84//26
f 68//27 86//27 80//27 54//27
f 80//16 87//16 69//16 54//16
f 77//2 59//2 69//2 88//2
f 75//4 71//4 70//4 58//4
f 71//5 89//5 72//5 56//5
f 57//7 72//7 89//7 73//7
f 75//4 63//4 74//4 73//4
f 53//28 74//28 91//28 85//28
f 90//4 79//4 61//4 78//4
f 62//4 79//4 87//4 80//4
f 74//29 80//29 86//29 91//29
f 81//30 82//30 93//30 92//30
f 82//31 83//31 95//31 93//31
f 84//32 81//32 92//32 94//32
f 83//33 84//33 94//33 95//33
f 85//34 96//34 97//34 68//34
f 68//35 97//35 98//35 86//35
f 88//16 69//16 87//16 99//16
f 73//4 89//4 71//4 75//4
f 99//4 87//4 79//4 90//4
f 91//36 100//36 96//36 85//36
f 101//37 102//37 97//37 96//37
f 102//38 103//38 98//38 97//38
f 86//39 98//39 100//39 91//39
f 104//40 92//40 93//40 105//40
f 106//2 107//2 94//2 92//2
f 93//4 95//4 108//4 109//4
f 94//41 110//41 111//41 95//41
f 112//42 101//42 96//42 100//42
f 101//43 113//43 114//43 102//43
f 102//44 114//44 128//44 103//44
f 103//45 112//45 100//45 98//45
f 105//46 115//46 116//46 104//46
f 117//2 106//2 92//2 104//2
f 105//4 93//4 109//4 118//4
f 119//2 120//2 107//2 106//2
f 107//2 121//2 110//2 94//2
f 95//4 111//4 122//4 108//4
f 108//47 123//47 124//47 109//47
f 125//41 111//41 110//41 126//41
f 112//48 127//48 113//48 101//48
f 103//49 128//49 127//49 112//49
f 118//4 129//4 115//4 105//4
f 130//5 116//5 115//5 129//5
f 104//2 116//2 130//2 117//2
f 131//2 119//2 106//2 117//2
f 118//4 109//4 132//4 133//4
f 132//50 134//50 120//50 119//50
f 120//2 135//2 121//2 107//2
f 126//2 110//2 121//2 136//2
f 137//4 122//4 111//4 125//4
f 108//4 122//4 138//4 134//4
f 134//51 139//51 123//51 108//51
f 140//47 141//47 124//47 123//47
f 109//52 124//52 142//52 132//52
f 143//40 144//40 113//40 127//40
f 113//2 141//2 140//2 114//2
f 128//41 114//41 145//41 146//41
f 133//4 147//4 129//4 118//4
f 148//5 130//5 129//5 147//5
f 117//2 130//2 148//2 131//2
f 133//53 132//53 119//53 131//53
f 132//50 142//50 139//50 134//50
f 134//54 138//54 135//54 120//54
f 136//2 121//2 135//2 149//2
f 150//4 138//4 122//4 137//4
f 151//51 140//51 123//51 139//51
f 141//52 152//52 142//52 124//52
f 153//4 127//4 128//4 154//4
f 155//4 143//4 127//4 153//4
f 144//46 143//46 156//46 157//46
f 144//2 158//2 141//2 113//2
f 114//2 140//2 159//2 145//2
f 154//4 128//4 146//4 160//4
f 161//41 146//41 145//41 162//41
f 131//55 148//55 147//55 133//55
f 152//50 151//50 139//50 142//50
f 149//54 135//54 138//54 150//54
f 140//2 151//2 163//2 159//2
f 158//2 164//2 152//2 141//2
f 165//4 153//4 154//4 166//4
f 167//4 155//4 153//4 165//4
f 143//4 155//4 168//4 156//4
f 158//2 144//2 157//2 169//2
f 168//5 169//5 157//5 156//5
f 162//2 145//2 159//2 170//2
f 166//4 154//4 160//4 171//4
f 172//4 160//4 146//4 161//4
f 152//50 165//50 166//50 151//50
f 151//54 166//54 171//54 163//54
f 170//2 159//2 163//2 173//2
f 164//2 158//2 169//2 174//2
f 164//53 167//53 165//53 152//53
f 155//4 167//4 175//4 168//4
f 175//5 174//5 169//5 168//5
f 176//4 171//4 160//4 172//4
f 173//54 163//54 171//54 176//54
f 167//55 164//55 174//55 175//55
f 177//56 178//56 179//56 180//56
f 181//2 177//2 180//2 182//2
f 181//57 183//57 178//57 177//57
f 178//4 183//4 184//4 179//4
f 180//5 179//5 184//5 161//5 162//5 88//5 99//5 90//5 78//5 76//5 36//5 37//5
f 182//5 126//5 136//5 149//5 150//5 137//5 184//5
f 180//5 37//5 41//5 51//5 52//5 49//5 36//5 76//5 77//5 88//5 162//5 170//5 173//5 176//5 172//5 161//5 184//5 137//5 125//5 126//5 182//5
f 183//58 181//58 182//58 184//58
