mtllib Pedestal.mtl
o object1
g object1
v 0.10000000 0.50000000 0.05000000
v 0.12500000 0.50000000 0.05000000
v 0.12500000 0.10000000 0.05000000
v 0.10000000 0.10000000 0.05000000
v 0.00000000 0.50000000 -0.10000000
v -0.05000000 0.50000000 -0.10000000
v -0.05000000 0.50000000 -0.12500000
v -0.12500000 0.50000000 -0.12500000
v -0.12500000 0.50000000 -0.05000000
v -0.10000000 0.50000000 -0.05000000
v -0.10000000 0.50000000 0.05000000
v -0.12500000 0.50000000 0.05000000
v -0.12500000 0.50000000 0.12500000
v -0.05000000 0.50000000 0.12500000
v -0.05000000 0.50000000 0.10000000
v 0.00000000 0.50000000 0.10000000
v 0.00000000 0.50000000 0.15000000
v -0.15000000 0.50000000 0.15000000
v -0.15000000 0.50000000 -0.15000000
v 0.00000000 0.50000000 -0.15000000
v 0.05000000 0.50000000 0.10000000
v 0.05000000 0.50000000 0.12500000
v 0.12500000 0.50000000 0.12500000
v 0.10000000 0.50000000 -0.05000000
v 0.12500000 0.50000000 -0.05000000
v 0.12500000 0.50000000 -0.12500000
v 0.05000000 0.50000000 -0.12500000
v 0.05000000 0.50000000 -0.10000000
v 0.15000000 0.50000000 -0.15000000
v 0.15000000 0.50000000 0.15000000
v -0.05000000 0.10000000 0.10000000
v -0.05000000 0.10000000 0.12500000
v -0.12500000 0.10000000 0.12500000
v -0.12500000 0.10000000 0.05000000
v -0.10000000 0.10000000 0.05000000
v -0.10000000 0.10000000 -0.05000000
v -0.12500000 0.10000000 -0.05000000
v -0.12500000 0.10000000 -0.12500000
v -0.05000000 0.10000000 -0.12500000
v -0.05000000 0.10000000 -0.10000000
v 0.05000000 0.10000000 -0.10000000
v 0.00000000 0.10000000 -0.10000000
v 0.05000000 0.10000000 -0.12500000
v 0.12500000 0.10000000 -0.12500000
v 0.12500000 0.10000000 -0.05000000
v 0.10000000 0.10000000 -0.05000000
v 0.12500000 0.10000000 0.12500000
v 0.05000000 0.10000000 0.12500000
v 0.05000000 0.10000000 0.10000000
v 0.00000000 0.10000000 0.10000000
v -0.15000000 0.56250000 -0.15000000
v -0.15000000 0.56250000 0.15000000
v -0.10000000 0.60000000 -0.10000000
v -0.10000000 0.60000000 0.10000000
v 0.10000000 0.60000000 -0.10000000
v 0.15000000 0.56250000 -0.15000000
v 0.10000000 0.60000000 0.10000000
v 0.15000000 0.56250000 0.15000000
v 0.00000000 0.10000000 0.15000000
v -0.15000000 0.10000000 0.15000000
v -0.15000000 0.10000000 -0.15000000
v 0.00000000 0.10000000 -0.15000000
v 0.15000000 0.10000000 -0.15000000
v 0.15000000 0.10000000 0.15000000
v 0.15000000 0.00000000 0.15000000
v 0.15000000 0.00000000 -0.15000000
v -0.15000000 0.00000000 0.15000000
v -0.15000000 0.00000000 -0.15000000
vt 1.00000000 1.00000000
vt 0.00000000 1.00000000
vt 0.00000000 0.00000000
vt 1.00000000 0.00000000
vt 0.83333333 0.50000000
vt 0.83333333 0.33333333
vt 0.91666667 0.33333333
vt 0.91666667 0.08333333
vt 0.66666667 0.08333333
vt 0.66666667 0.16666667
vt 0.33333333 0.16666667
vt 0.33333333 0.08333333
vt 0.08333333 0.08333333
vt 0.08333333 0.33333333
vt 0.16666667 0.33333333
vt 0.16666667 0.50000000
vt 0.00000000 0.50000000
vt 0.00000000 0.00000000
vt 1.00000000 0.00000000
vt 1.00000000 0.50000000
vt 0.16666667 0.66666667
vt 0.08333333 0.66666667
vt 0.08333333 0.91666667
vt 0.33333333 0.91666667
vt 0.33333333 0.83333333
vt 0.66666667 0.83333333
vt 0.66666667 0.91666667
vt 0.91666667 0.91666667
vt 0.91666667 0.66666667
vt 0.83333333 0.66666667
vt 1.00000000 1.00000000
vt 0.00000000 1.00000000
vt 0.00000000 0.00000000
vt 1.00000000 0.00000000
vt 1.00000000 1.00000000
vt 0.00000000 1.00000000
vt 0.00000000 1.00000000
vt 0.00000000 0.00000000
vt 1.00000000 0.00000000
vt 1.00000000 1.00000000
vt 0.00000000 1.00000000
vt 0.00000000 0.00000000
vt 1.00000000 0.00000000
vt 1.00000000 1.00000000
vt 0.00000000 0.00000000
vt 1.00000000 0.00000000
vt 1.00000000 1.00000000
vt 0.00000000 1.00000000
vt 1.00000000 0.00000000
vt 1.00000000 1.00000000
vt 0.00000000 1.00000000
vt 0.00000000 0.00000000
vt 0.00000000 0.00000000
vt 1.00000000 0.00000000
vt 1.00000000 1.00000000
vt 0.00000000 1.00000000
vt 1.00000000 0.00000000
vt 1.00000000 1.00000000
vt 0.00000000 1.00000000
vt 0.00000000 0.00000000
vt 0.00000000 1.00000000
vt 0.00000000 0.00000000
vt 1.00000000 0.00000000
vt 1.00000000 1.00000000
vt 1.00000000 1.00000000
vt 0.00000000 1.00000000
vt 0.00000000 0.00000000
vt 1.00000000 0.00000000
vt 1.00000000 0.00000000
vt 1.00000000 1.00000000
vt 0.00000000 1.00000000
vt 0.00000000 0.00000000
vt 1.00000000 0.50000000
vt 0.00000000 0.50000000
vt 1.00000000 1.00000000
vt 0.00000000 1.00000000
vt 0.00000000 0.00000000
vt 1.00000000 0.00000000
vt 1.00000000 0.00000000
vt 1.00000000 1.00000000
vt 0.00000000 1.00000000
vt 0.00000000 0.00000000
vt 1.00000000 0.00000000
vt 1.00000000 1.00000000
vt 0.00000000 1.00000000
vt 0.00000000 0.00000000
vt 1.00000000 1.00000000
vt 0.00000000 1.00000000
vt 0.00000000 0.00000000
vt 1.00000000 0.00000000
vt 1.00000000 0.00000000
vt 1.00000000 1.00000000
vt 0.00000000 1.00000000
vt 0.00000000 0.00000000
vt 0.00000000 0.00000000
vt 1.00000000 0.00000000
vt 1.00000000 1.00000000
vt 0.00000000 1.00000000
vt 0.00000000 1.00000000
vt 0.00000000 0.00000000
vt 1.00000000 0.00000000
vt 1.00000000 1.00000000
vt 1.00000000 0.50000000
vt 0.00000000 0.50000000
vt 1.00000000 1.00000000
vt 0.00000000 1.00000000
vt 0.00000000 0.00000000
vt 1.00000000 0.00000000
vt 0.83333333 0.00000000
vt 1.00000000 1.00000000
vt 0.00000000 1.00000000
vt 0.16666667 0.00000000
vt 0.83333333 0.00000000
vt 1.00000000 1.00000000
vt 0.00000000 1.00000000
vt 0.16666667 0.00000000
vt 1.00000000 0.00000000
vt 0.83333333 1.00000000
vt 0.16666667 1.00000000
vt 0.00000000 0.00000000
vt 1.00000000 1.00000000
vt 0.00000000 1.00000000
vt 0.00000000 0.00000000
vt 1.00000000 0.00000000
vt 1.00000000 0.00000000
vt 0.83333333 1.00000000
vt 0.16666667 1.00000000
vt 0.00000000 0.00000000
vt 1.00000000 1.00000000
vt 0.00000000 1.00000000
vt 0.00000000 0.00000000
vt 1.00000000 0.00000000
vt 0.00000000 0.50000000
vt 1.00000000 1.00000000
vt 0.00000000 1.00000000
vt 0.00000000 0.00000000
vt 1.00000000 0.00000000
vt 1.00000000 1.00000000
vt 0.00000000 1.00000000
vt 0.00000000 0.00000000
vt 1.00000000 0.00000000
vt 0.00000000 0.50000000
vt 0.00000000 1.00000000
vt 0.00000000 0.00000000
vt 1.00000000 0.00000000
vt 1.00000000 1.00000000
vt 0.83333333 0.50000000
vt 0.83333333 0.33333333
vt 0.91666667 0.33333333
vt 0.91666667 0.08333333
vt 0.66666667 0.08333333
vt 0.66666667 0.16666667
vt 0.33333333 0.16666667
vt 0.33333333 0.08333333
vt 0.08333333 0.08333333
vt 0.08333333 0.33333333
vt 0.16666667 0.33333333
vt 0.16666667 0.50000000
vt 0.00000000 0.50000000
vt 0.00000000 0.00000000
vt 1.00000000 0.00000000
vt 1.00000000 0.50000000
vt 0.16666667 0.66666667
vt 0.08333333 0.66666667
vt 0.08333333 0.91666667
vt 0.33333333 0.91666667
vt 0.33333333 0.83333333
vt 0.66666667 0.83333333
vt 0.66666667 0.91666667
vt 0.91666667 0.91666667
vt 0.91666667 0.66666667
vt 0.83333333 0.66666667
vt 1.00000000 1.00000000
vt 0.00000000 1.00000000
vt 0.00000000 0.00000000
vt 1.00000000 0.00000000
vt 1.00000000 1.00000000
vt 0.00000000 1.00000000
vt 0.00000000 0.00000000
vt 1.00000000 0.00000000
vt 1.00000000 1.00000000
vt 0.00000000 1.00000000
vt 0.00000000 0.00000000
vt 1.00000000 0.00000000
vt 1.00000000 1.00000000
vt 0.00000000 1.00000000
vt 1.00000000 0.50000000
vt 0.00000000 0.00000000
vt 1.00000000 0.00000000
vt 1.00000000 1.00000000
vt 0.00000000 1.00000000
vt 0.00000000 0.00000000
vt 1.00000000 0.00000000
vt 1.00000000 1.00000000
vt 0.00000000 1.00000000
vt 1.00000000 0.50000000
vt 0.00000000 1.00000000
vt 0.00000000 0.00000000
vt 1.00000000 0.00000000
vt 1.00000000 1.00000000
vn 0.00000000 0.00000000 -1.00000000
vn 0.00000000 0.00000000 -1.00000000
vn 0.00000000 0.00000000 -1.00000000
vn 0.00000000 0.00000000 -1.00000000
vn 0.00000000 -1.00000000 0.00000000
vn 0.00000000 -1.00000000 0.00000000
vn 0.00000000 -1.00000000 0.00000000
vn 0.00000000 -1.00000000 0.00000000
vn 0.00000000 -1.00000000 0.00000000
vn 0.00000000 -1.00000000 0.00000000
vn 0.00000000 -1.00000000 0.00000000
vn 0.00000000 -1.00000000 0.00000000
vn 0.00000000 -1.00000000 0.00000000
vn 0.00000000 -1.00000000 0.00000000
vn 0.00000000 -1.00000000 0.00000000
vn 0.00000000 -1.00000000 0.00000000
vn 0.00000000 -1.00000000 0.00000000
vn 0.00000000 -1.00000000 0.00000000
vn 0.00000000 -1.00000000 0.00000000
vn 0.00000000 -1.00000000 0.00000000
vn 0.00000000 -1.00000000 0.00000000
vn 0.00000000 -1.00000000 0.00000000
vn 0.00000000 -1.00000000 0.00000000
vn 0.00000000 -1.00000000 0.00000000
vn 0.00000000 -1.00000000 0.00000000
vn 0.00000000 -1.00000000 0.00000000
vn 0.00000000 -1.00000000 0.00000000
vn 0.00000000 -1.00000000 0.00000000
vn 0.00000000 -1.00000000 0.00000000
vn 0.00000000 -1.00000000 0.00000000
vn 0.00000000 -1.00000000 0.00000000
vn 0.00000000 -1.00000000 0.00000000
vn 1.00000000 0.00000000 0.00000000
vn 1.00000000 0.00000000 0.00000000
vn 1.00000000 0.00000000 0.00000000
vn 1.00000000 0.00000000 0.00000000
vn 0.00000000 0.00000000 1.00000000
vn 0.00000000 0.00000000 1.00000000
vn 0.00000000 0.00000000 1.00000000
vn 0.00000000 0.00000000 1.00000000
vn -1.00000000 0.00000000 0.00000000
vn -1.00000000 0.00000000 0.00000000
vn -1.00000000 0.00000000 0.00000000
vn -1.00000000 0.00000000 0.00000000
vn 0.00000000 0.00000000 -1.00000000
vn 0.00000000 0.00000000 -1.00000000
vn 0.00000000 0.00000000 -1.00000000
vn 0.00000000 0.00000000 -1.00000000
vn -1.00000000 0.00000000 -0.00000000
vn -1.00000000 0.00000000 -0.00000000
vn -1.00000000 0.00000000 -0.00000000
vn -1.00000000 0.00000000 -0.00000000
vn -0.00000000 0.00000000 1.00000000
vn -0.00000000 0.00000000 1.00000000
vn -0.00000000 0.00000000 1.00000000
vn -0.00000000 0.00000000 1.00000000
vn -1.00000000 0.00000000 0.00000000
vn -1.00000000 0.00000000 0.00000000
vn -1.00000000 0.00000000 0.00000000
vn -1.00000000 0.00000000 0.00000000
vn 0.00000000 0.00000000 -1.00000000
vn 0.00000000 0.00000000 -1.00000000
vn 0.00000000 0.00000000 -1.00000000
vn 0.00000000 0.00000000 -1.00000000
vn 1.00000000 0.00000000 0.00000000
vn 1.00000000 0.00000000 0.00000000
vn 1.00000000 0.00000000 0.00000000
vn 1.00000000 0.00000000 0.00000000
vn 0.00000000 0.00000000 -1.00000000
vn 0.00000000 0.00000000 -1.00000000
vn 0.00000000 0.00000000 -1.00000000
vn 0.00000000 0.00000000 -1.00000000
vn 0.00000000 0.00000000 -1.00000000
vn 0.00000000 0.00000000 -1.00000000
vn -1.00000000 0.00000000 0.00000000
vn -1.00000000 0.00000000 0.00000000
vn -1.00000000 0.00000000 0.00000000
vn -1.00000000 0.00000000 0.00000000
vn 0.00000000 0.00000000 -1.00000000
vn 0.00000000 0.00000000 -1.00000000
vn 0.00000000 0.00000000 -1.00000000
vn 0.00000000 0.00000000 -1.00000000
vn 1.00000000 0.00000000 0.00000000
vn 1.00000000 0.00000000 0.00000000
vn 1.00000000 0.00000000 0.00000000
vn 1.00000000 0.00000000 0.00000000
vn -0.00000000 0.00000000 1.00000000
vn -0.00000000 0.00000000 1.00000000
vn -0.00000000 0.00000000 1.00000000
vn -0.00000000 0.00000000 1.00000000
vn 0.00000000 0.00000000 1.00000000
vn 0.00000000 0.00000000 1.00000000
vn 0.00000000 0.00000000 1.00000000
vn 0.00000000 0.00000000 1.00000000
vn -1.00000000 0.00000000 0.00000000
vn -1.00000000 0.00000000 0.00000000
vn -1.00000000 0.00000000 0.00000000
vn -1.00000000 0.00000000 0.00000000
vn 0.00000000 0.00000000 1.00000000
vn 0.00000000 0.00000000 1.00000000
vn 0.00000000 0.00000000 1.00000000
vn 0.00000000 0.00000000 1.00000000
vn 0.00000000 0.00000000 1.00000000
vn 0.00000000 0.00000000 1.00000000
vn -1.00000000 0.00000000 0.00000000
vn -1.00000000 0.00000000 0.00000000
vn -1.00000000 0.00000000 0.00000000
vn -1.00000000 0.00000000 0.00000000
vn -0.60000000 0.80000000 0.00000000
vn -0.60000000 0.80000000 0.00000000
vn -0.60000000 0.80000000 0.00000000
vn -0.60000000 0.80000000 0.00000000
vn 0.00000000 0.80000000 -0.60000000
vn 0.00000000 0.80000000 -0.60000000
vn 0.00000000 0.80000000 -0.60000000
vn 0.00000000 0.80000000 -0.60000000
vn 0.60000000 0.80000000 -0.00000000
vn 0.60000000 0.80000000 0.00000000
vn 0.60000000 0.80000000 0.00000000
vn 0.60000000 0.80000000 -0.00000000
vn 0.00000000 1.00000000 0.00000000
vn 0.00000000 1.00000000 0.00000000
vn 0.00000000 1.00000000 0.00000000
vn 0.00000000 1.00000000 0.00000000
vn 0.00000000 0.80000000 0.60000000
vn 0.00000000 0.80000000 0.60000000
vn 0.00000000 0.80000000 0.60000000
vn 0.00000000 0.80000000 0.60000000
vn 0.00000000 0.00000000 1.00000000
vn 0.00000000 0.00000000 1.00000000
vn 0.00000000 0.00000000 1.00000000
vn 0.00000000 0.00000000 1.00000000
vn 0.00000000 0.00000000 1.00000000
vn 1.00000000 0.00000000 0.00000000
vn 1.00000000 0.00000000 0.00000000
vn 1.00000000 0.00000000 0.00000000
vn 1.00000000 0.00000000 0.00000000
vn 0.00000000 0.00000000 -1.00000000
vn 0.00000000 0.00000000 -1.00000000
vn 0.00000000 0.00000000 -1.00000000
vn 0.00000000 0.00000000 -1.00000000
vn 0.00000000 0.00000000 -1.00000000
vn 1.00000000 0.00000000 0.00000000
vn 1.00000000 0.00000000 0.00000000
vn 1.00000000 0.00000000 0.00000000
vn 1.00000000 0.00000000 0.00000000
vn 0.00000000 1.00000000 0.00000000
vn 0.00000000 1.00000000 0.00000000
vn 0.00000000 1.00000000 0.00000000
vn 0.00000000 1.00000000 0.00000000
vn 0.00000000 1.00000000 0.00000000
vn 0.00000000 1.00000000 0.00000000
vn 0.00000000 1.00000000 0.00000000
vn 0.00000000 1.00000000 0.00000000
vn 0.00000000 1.00000000 0.00000000
vn 0.00000000 1.00000000 0.00000000
vn 0.00000000 1.00000000 0.00000000
vn 0.00000000 1.00000000 0.00000000
vn 0.00000000 1.00000000 0.00000000
vn 0.00000000 1.00000000 0.00000000
vn 0.00000000 1.00000000 0.00000000
vn 0.00000000 1.00000000 0.00000000
vn 0.00000000 1.00000000 0.00000000
vn 0.00000000 1.00000000 0.00000000
vn 0.00000000 1.00000000 0.00000000
vn 0.00000000 1.00000000 0.00000000
vn 0.00000000 1.00000000 0.00000000
vn 0.00000000 1.00000000 0.00000000
vn 0.00000000 1.00000000 0.00000000
vn 0.00000000 1.00000000 0.00000000
vn 0.00000000 1.00000000 0.00000000
vn 0.00000000 1.00000000 0.00000000
vn 0.00000000 1.00000000 0.00000000
vn 0.00000000 1.00000000 0.00000000
vn 1.00000000 0.00000000 0.00000000
vn 1.00000000 0.00000000 0.00000000
vn 1.00000000 0.00000000 0.00000000
vn 1.00000000 0.00000000 0.00000000
vn 0.00000000 -1.00000000 0.00000000
vn 0.00000000 -1.00000000 0.00000000
vn 0.00000000 -1.00000000 0.00000000
vn 0.00000000 -1.00000000 0.00000000
vn 0.00000000 0.00000000 1.00000000
vn 0.00000000 0.00000000 1.00000000
vn 0.00000000 0.00000000 1.00000000
vn 0.00000000 0.00000000 1.00000000
vn 0.00000000 0.00000000 1.00000000
vn -1.00000000 0.00000000 0.00000000
vn -1.00000000 0.00000000 0.00000000
vn -1.00000000 0.00000000 0.00000000
vn -1.00000000 0.00000000 0.00000000
vn 0.00000000 0.00000000 -1.00000000
vn 0.00000000 0.00000000 -1.00000000
vn 0.00000000 0.00000000 -1.00000000
vn 0.00000000 0.00000000 -1.00000000
vn 0.00000000 0.00000000 -1.00000000
vn 1.00000000 0.00000000 0.00000000
vn 1.00000000 0.00000000 0.00000000
vn 1.00000000 0.00000000 0.00000000
vn 1.00000000 0.00000000 0.00000000
s 1
usemtl Light_Grey
f 1/1/1 2/2/2 4/4/4
f 2/2/2 3/3/3 4/4/4
s 2
f 5/5/5 6/6/6 7/7/7
f 20/20/20 7/7/7 8/8/8
f 19/19/19 8/8/8 9/9/9
f 9/9/9 11/11/11 12/12/12
f 12/12/12 13/13/13 18/18/18
f 13/13/13 17/17/17 18/18/18
f 30/32/32 17/17/17 23/23/23
f 25/27/27 29/31/31 30/32/32
f 25/27/27 26/28/28 29/31/31
f 2/24/24 24/26/26 25/27/27
f 2/24/24 1/25/25 24/26/26
f 30/32/32 2/24/24 25/27/27
f 30/32/32 23/23/23 2/24/24
f 17/17/17 22/22/22 23/23/23
f 16/16/16 21/21/21 22/22/22
f 14/14/14 15/15/15 16/16/16
f 17/17/17 16/16/16 22/22/22
f 14/14/14 16/16/16 17/17/17
f 13/13/13 14/14/14 17/17/17
f 9/9/9 10/10/10 11/11/11
f 12/12/12 18/18/18 19/19/19
f 19/19/19 9/9/9 12/12/12
f 26/28/28 20/20/20 29/31/31
f 26/28/28 27/29/29 20/20/20
f 19/19/19 20/20/20 8/8/8
f 27/29/29 5/5/5 20/20/20
f 27/29/29 28/30/30 5/5/5
f 20/20/20 5/5/5 7/7/7
s 3
f 15/36/36 14/35/35 31/33/33
f 14/35/35 32/34/34 31/33/33
s 4
f 14/40/40 13/39/39 32/37/37
f 13/39/39 33/38/38 32/37/37
s 5
f 34/41/41 33/42/42 12/44/44
f 33/42/42 13/43/43 12/44/44
s 6
f 35/45/45 34/46/46 11/48/48
f 34/46/46 12/47/47 11/48/48
s 7
usemtl Green_Stone_-_Dark
f 36/52/52 35/51/51 10/49/49
f 35/51/51 11/50/50 10/49/49
s 8
usemtl Light_Grey
f 10/56/56 9/55/55 36/53/53
f 9/55/55 37/54/54 36/53/53
s 9
f 9/57/57 8/58/58 37/60/60
f 8/58/58 38/59/59 37/60/60
s 10
f 39/61/61 38/62/62 7/64/64
f 38/62/62 8/63/63 7/64/64
s 11
f 40/68/68 39/67/67 6/65/65
f 39/67/67 7/66/66 6/65/65
s 12
usemtl Green_Stone_-_Dark
f 40/72/72 6/69/69 5/73/73
f 5/73/73 41/71/71 42/74/74
f 5/73/73 28/70/70 41/71/71
f 5/73/73 42/74/74 40/72/72
s 13
usemtl Light_Grey
f 28/75/75 27/76/76 41/78/78
f 27/76/76 43/77/77 41/78/78
s 14
f 27/79/79 26/80/80 43/82/82
f 26/80/80 44/81/81 43/82/82
s 15
f 45/86/86 44/85/85 25/83/83
f 44/85/85 26/84/84 25/83/83
s 16
f 46/90/90 45/89/89 24/87/87
f 45/89/89 25/88/88 24/87/87
s 17
f 48/94/94 47/93/93 22/91/91
f 47/93/93 23/92/92 22/91/91
s 18
f 49/95/95 48/96/96 21/98/98
f 48/96/96 22/97/97 21/98/98
s 19
usemtl Green_Stone_-_Dark
f 50/104/104 49/99/99 21/102/102
f 21/102/102 16/103/103 50/104/104
f 16/103/103 15/101/101 50/104/104
f 15/101/101 31/100/100 50/104/104
s 20
usemtl Light_Grey
f 51/105/105 19/106/106 52/108/108
f 19/106/106 18/107/107 52/108/108
s 21
f 53/109/109 51/110/110 54/112/112
f 51/110/110 52/111/111 54/112/112
s 22
f 55/113/113 56/114/114 53/116/116
f 56/114/114 51/115/115 53/116/116
s 23
f 56/117/117 55/118/118 58/120/120
f 55/118/118 57/119/119 58/120/120
s 24
f 53/124/124 54/123/123 57/122/122
f 53/124/124 57/122/122 55/121/121
s 25
f 58/125/125 57/126/126 52/128/128
f 57/126/126 54/127/127 52/128/128
s 26
f 52/132/132 18/131/131 17/133/133
f 17/133/133 30/130/130 58/129/129
f 52/132/132 17/133/133 58/129/129
s 27
f 58/137/137 30/136/136 56/134/134
f 30/136/136 29/135/135 56/134/134
s 28
f 56/138/138 29/139/139 20/142/142
f 20/142/142 19/140/140 51/141/141
f 56/138/138 20/142/142 51/141/141
s 29
usemtl Green_Stone_-_Dark
f 4/143/143 46/144/144 1/146/146
f 46/144/144 24/145/145 1/146/146
s 30
usemtl Light_Grey
f 39/149/149 40/148/148 42/147/147
f 62/162/162 42/147/147 43/171/171
f 63/173/173 62/162/162 44/170/170
f 64/174/174 63/173/173 45/169/169
f 45/169/169 46/168/168 3/166/166
f 46/168/168 4/167/167 3/166/166
f 45/169/169 3/166/166 64/174/174
f 3/166/166 47/165/165 64/174/174
f 47/165/165 48/164/164 59/159/159
f 60/160/160 59/159/159 33/155/155
f 61/161/161 60/160/160 34/154/154
f 34/154/154 35/153/153 37/151/151
f 35/153/153 36/152/152 37/151/151
f 34/154/154 37/151/151 61/161/161
f 37/151/151 38/150/150 61/161/161
f 60/160/160 33/155/155 34/154/154
f 59/159/159 32/156/156 33/155/155
f 50/158/158 31/157/157 32/156/156
f 59/159/159 50/158/158 32/156/156
f 48/164/164 50/158/158 59/159/159
f 48/164/164 49/163/163 50/158/158
f 47/165/165 59/159/159 64/174/174
f 63/173/173 44/170/170 45/169/169
f 62/162/162 43/171/171 44/170/170
f 38/150/150 62/162/162 61/161/161
f 42/147/147 41/172/172 43/171/171
f 38/150/150 39/149/149 62/162/162
f 39/149/149 42/147/147 62/162/162
s 31
f 66/178/178 63/177/177 65/175/175
f 63/177/177 64/176/176 65/175/175
s 32
f 67/179/179 68/180/180 66/181/181
f 67/179/179 66/181/181 65/182/182
s 33
f 59/187/187 60/184/184 67/183/183
f 65/186/186 59/187/187 67/183/183
f 65/186/186 64/185/185 59/187/187
s 34
f 67/188/188 60/189/189 68/191/191
f 60/189/189 61/190/190 68/191/191
s 35
f 68/192/192 61/193/193 62/196/196
f 62/196/196 63/194/194 66/195/195
f 68/192/192 62/196/196 66/195/195
s 36
f 2/200/200 23/199/199 3/197/197
f 23/199/199 47/198/198 3/197/197
