mtllib Pillar_Base_Corner.mtl
o object1
g object1
v -0.75000000 0.40000000 0.45000000
v -0.75000000 0.40000000 0.37500000
v -0.37500000 0.40000000 -0.00000000
v -0.30000000 0.40000000 -0.00000000
v 0.00000000 0.40000000 0.30000000
v 0.00000000 0.40000000 0.37500000
v -0.37500000 0.40000000 0.75000000
v -0.45000000 0.40000000 0.75000000
v -0.75000000 0.00000000 0.37500000
v -0.37500000 0.00000000 -0.00000000
v -0.75000000 0.00000000 0.45000000
v -0.45000000 0.00000000 0.75000000
v 0.00000000 0.00000000 0.30000000
v -0.30000000 0.00000000 -0.00000000
v 0.00000000 0.00000000 0.37500000
v -0.37500000 0.00000000 0.75000000
vt 0.00000000 0.10000000
vt 0.08333333 0.00000000
vt 0.91666667 0.00000000
vt 1.00000000 0.10000000
vt 1.00000000 0.90000000
vt 0.91666667 1.00000000
vt 0.08333333 1.00000000
vt 0.00000000 0.90000000
vt 0.00000000 0.00000000
vt 1.00000000 0.00000000
vt 1.00000000 1.00000000
vt 0.00000000 1.00000000
vt 0.00000000 0.00000000
vt 1.00000000 0.00000000
vt 1.00000000 1.00000000
vt 0.00000000 1.00000000
vt 1.00000000 1.00000000
vt 0.00000000 1.00000000
vt 0.00000000 0.00000000
vt 1.00000000 0.00000000
vt 1.00000000 1.00000000
vt 0.00000000 1.00000000
vt 0.00000000 0.00000000
vt 1.00000000 0.00000000
vt 0.00000000 0.10000000
vt 0.08333333 0.00000000
vt 0.91666667 0.00000000
vt 1.00000000 0.10000000
vt 1.00000000 0.90000000
vt 0.91666667 1.00000000
vt 0.08333333 1.00000000
vt 0.00000000 0.90000000
vt 0.00000000 0.00000000
vt 1.00000000 0.00000000
vt 1.00000000 1.00000000
vt 0.00000000 1.00000000
vt 0.00000000 0.00000000
vt 1.00000000 0.00000000
vt 1.00000000 1.00000000
vt 0.00000000 1.00000000
vt 0.00000000 0.00000000
vt 1.00000000 0.00000000
vt 1.00000000 1.00000000
vt 0.00000000 1.00000000
vt 0.00000000 0.00000000
vt 1.00000000 0.00000000
vt 1.00000000 1.00000000
vt 0.00000000 1.00000000
vn -0.00000000 1.00000000 -0.00000000
vn -0.00000000 1.00000000 -0.00000000
vn -0.00000000 1.00000000 -0.00000000
vn -0.00000000 1.00000000 -0.00000000
vn -0.00000000 1.00000000 -0.00000000
vn -0.00000000 1.00000000 -0.00000000
vn -0.00000000 1.00000000 -0.00000000
vn -0.00000000 1.00000000 -0.00000000
vn -0.70710678 0.00000000 -0.70710678
vn -0.70710678 0.00000000 -0.70710678
vn -0.70710678 0.00000000 -0.70710678
vn -0.70710678 0.00000000 -0.70710678
vn -0.70710678 0.00000000 0.70710678
vn -0.70710678 0.00000000 0.70710678
vn -0.70710678 0.00000000 0.70710678
vn -0.70710678 0.00000000 0.70710678
vn 0.70710678 0.00000000 -0.70710678
vn 0.70710678 0.00000000 -0.70710678
vn 0.70710678 0.00000000 -0.70710678
vn 0.70710678 0.00000000 -0.70710678
vn 0.70710678 0.00000000 0.70710678
vn 0.70710678 0.00000000 0.70710678
vn 0.70710678 0.00000000 0.70710678
vn 0.70710678 0.00000000 0.70710678
vn -0.00000000 -1.00000000 0.00000000
vn -0.00000000 -1.00000000 0.00000000
vn -0.00000000 -1.00000000 0.00000000
vn -0.00000000 -1.00000000 0.00000000
vn -0.00000000 -1.00000000 0.00000000
vn -0.00000000 -1.00000000 0.00000000
vn -0.00000000 -1.00000000 0.00000000
vn -0.00000000 -1.00000000 0.00000000
vn 0.00000000 0.00000000 -1.00000000
vn 0.00000000 0.00000000 -1.00000000
vn 0.00000000 -0.00000000 -1.00000000
vn 0.00000000 -0.00000000 -1.00000000
vn 0.00000000 0.00000000 1.00000000
vn 0.00000000 0.00000000 1.00000000
vn 0.00000000 0.00000000 1.00000000
vn 0.00000000 0.00000000 1.00000000
vn 1.00000000 0.00000000 0.00000000
vn 1.00000000 0.00000000 0.00000000
vn 1.00000000 0.00000000 0.00000000
vn 1.00000000 0.00000000 0.00000000
vn -1.00000000 0.00000000 0.00000000
vn -1.00000000 0.00000000 0.00000000
vn -1.00000000 0.00000000 0.00000000
vn -1.00000000 0.00000000 0.00000000
s 1
usemtl Light_Grey
f 6/6/6 5/5/5 4/4/4
f 7/7/7 4/4/4 3/3/3
f 3/3/3 2/2/2 8/8/8
f 2/2/2 1/1/1 8/8/8
f 8/8/8 7/7/7 3/3/3
f 7/7/7 6/6/6 4/4/4
s 2
f 9/9/9 2/10/10 10/12/12
f 2/10/10 3/11/11 10/12/12
s 3
f 12/16/16 8/15/15 11/13/13
f 8/15/15 1/14/14 11/13/13
s 4
f 5/17/17 13/18/18 4/20/20
f 13/18/18 14/19/19 4/20/20
s 5
f 7/24/24 16/23/23 6/21/21
f 16/23/23 15/22/22 6/21/21
s 6
f 12/32/32 11/25/25 9/26/26
f 10/27/27 16/31/31 12/32/32
f 14/28/28 15/30/30 16/31/31
f 14/28/28 13/29/29 15/30/30
f 10/27/27 14/28/28 16/31/31
f 12/32/32 9/26/26 10/27/27
s 7
f 10/33/33 3/34/34 14/36/36
f 3/34/34 4/35/35 14/36/36
s 8
f 16/37/37 7/38/38 12/40/40
f 7/38/38 8/39/39 12/40/40
s 9
f 13/41/41 5/42/42 15/44/44
f 5/42/42 6/43/43 15/44/44
s 10
f 11/45/45 1/46/46 9/48/48
f 1/46/46 2/47/47 9/48/48
