mtllib Pillar_Base_Side.mtl
o object1
g object1
v -0.25000000 0.40000000 0.70000000
v -0.30000000 0.40000000 0.75000000
v -0.70000000 0.40000000 0.75000000
v -0.75000000 0.40000000 0.70000000
v -0.75000000 0.40000000 0.30000000
v -0.70000000 0.40000000 0.25000000
v -0.30000000 0.40000000 0.25000000
v -0.25000000 0.40000000 0.30000000
v -0.50000000 0.40000000 0.50000000
v -0.30000000 0.00000000 0.25000000
v -0.70000000 0.00000000 0.25000000
v -0.30000000 0.00000000 0.75000000
v -0.70000000 0.00000000 0.75000000
v -0.75000000 0.00000000 0.70000000
v -0.75000000 0.00000000 0.30000000
v -0.25000000 0.00000000 0.70000000
v -0.25000000 0.00000000 0.30000000
v -0.50000000 0.00000000 0.50000000
vt 0.90000000 0.00000000
vt 1.00000000 0.10000000
vt 1.00000000 0.90000000
vt 0.90000000 1.00000000
vt 0.10000000 1.00000000
vt 0.00000000 0.90000000
vt 0.00000000 0.10000000
vt 0.10000000 0.00000000
vt 0.50000000 0.50000000
vt 0.00000000 0.00000000
vt 1.00000000 0.00000000
vt 1.00000000 1.00000000
vt 0.00000000 1.00000000
vt 0.00000000 0.00000000
vt 1.00000000 0.00000000
vt 1.00000000 1.00000000
vt 0.00000000 1.00000000
vt 1.00000000 1.00000000
vt 0.00000000 1.00000000
vt 0.00000000 0.00000000
vt 1.00000000 0.00000000
vt 1.00000000 1.00000000
vt 0.00000000 1.00000000
vt 0.00000000 0.00000000
vt 1.00000000 0.00000000
vt 0.90000000 0.00000000
vt 1.00000000 0.10000000
vt 1.00000000 0.90000000
vt 0.90000000 1.00000000
vt 0.10000000 1.00000000
vt 0.00000000 0.90000000
vt 0.00000000 0.10000000
vt 0.10000000 0.00000000
vt 0.50000000 0.50000000
vt 0.00000000 0.00000000
vt 1.00000000 0.00000000
vt 1.00000000 1.00000000
vt 0.00000000 1.00000000
vt 0.00000000 0.00000000
vt 1.00000000 0.00000000
vt 1.00000000 1.00000000
vt 0.00000000 1.00000000
vt 0.00000000 0.00000000
vt 1.00000000 0.00000000
vt 1.00000000 1.00000000
vt 0.00000000 1.00000000
vt 0.00000000 0.00000000
vt 1.00000000 0.00000000
vt 1.00000000 1.00000000
vt 0.00000000 1.00000000
vn 0.00000000 1.00000000 -0.00000000
vn 0.00000000 1.00000000 -0.00000000
vn 0.00000000 1.00000000 -0.00000000
vn 0.00000000 1.00000000 -0.00000000
vn 0.00000000 1.00000000 -0.00000000
vn 0.00000000 1.00000000 -0.00000000
vn 0.00000000 1.00000000 -0.00000000
vn 0.00000000 1.00000000 -0.00000000
vn 0.00000000 1.00000000 -0.00000000
vn 0.00000000 -0.00000000 -1.00000000
vn 0.00000000 -0.00000000 -1.00000000
vn 0.00000000 -0.00000000 -1.00000000
vn 0.00000000 -0.00000000 -1.00000000
vn 0.00000000 0.00000000 1.00000000
vn 0.00000000 0.00000000 1.00000000
vn 0.00000000 0.00000000 1.00000000
vn 0.00000000 0.00000000 1.00000000
vn -1.00000000 -0.00000000 -0.00000000
vn -1.00000000 -0.00000000 -0.00000000
vn -1.00000000 -0.00000000 -0.00000000
vn -1.00000000 -0.00000000 -0.00000000
vn 1.00000000 0.00000000 0.00000000
vn 1.00000000 0.00000000 0.00000000
vn 1.00000000 0.00000000 0.00000000
vn 1.00000000 0.00000000 0.00000000
vn 0.00000000 -1.00000000 0.00000000
vn 0.00000000 -1.00000000 0.00000000
vn 0.00000000 -1.00000000 0.00000000
vn 0.00000000 -1.00000000 0.00000000
vn 0.00000000 -1.00000000 0.00000000
vn 0.00000000 -1.00000000 0.00000000
vn 0.00000000 -1.00000000 0.00000000
vn 0.00000000 -1.00000000 0.00000000
vn 0.00000000 -1.00000000 0.00000000
vn -0.70710678 -0.00000000 -0.70710678
vn -0.70710678 -0.00000000 -0.70710678
vn -0.70710678 -0.00000000 -0.70710678
vn -0.70710678 -0.00000000 -0.70710678
vn 0.70710678 -0.00000000 -0.70710678
vn 0.70710678 -0.00000000 -0.70710678
vn 0.70710678 -0.00000000 -0.70710678
vn 0.70710678 -0.00000000 -0.70710678
vn -0.70710678 0.00000000 0.70710678
vn -0.70710678 0.00000000 0.70710678
vn -0.70710678 0.00000000 0.70710678
vn -0.70710678 0.00000000 0.70710678
vn 0.70710678 0.00000000 0.70710678
vn 0.70710678 0.00000000 0.70710678
vn 0.70710678 0.00000000 0.70710678
vn 0.70710678 0.00000000 0.70710678
s 1
usemtl Light_Grey
f 8/8/8 7/7/7 9/9/9
f 2/2/2 1/1/1 9/9/9
f 3/3/3 2/2/2 9/9/9
f 4/4/4 3/3/3 9/9/9
f 5/5/5 4/4/4 9/9/9
f 6/6/6 5/5/5 9/9/9
f 7/7/7 6/6/6 9/9/9
f 1/1/1 8/8/8 9/9/9
s 2
f 11/13/13 6/12/12 7/11/11
f 11/13/13 7/11/11 10/10/10
s 3
f 12/14/14 2/15/15 13/17/17
f 2/15/15 3/16/16 13/17/17
s 4
f 5/21/21 15/20/20 4/18/18
f 15/20/20 14/19/19 4/18/18
s 5
f 1/22/22 16/23/23 8/25/25
f 16/23/23 17/24/24 8/25/25
s 6
f 16/26/26 12/27/27 18/34/34
f 10/32/32 17/33/33 18/34/34
f 11/31/31 10/32/32 18/34/34
f 15/30/30 11/31/31 18/34/34
f 14/29/29 15/30/30 18/34/34
f 13/28/28 14/29/29 18/34/34
f 12/27/27 13/28/28 18/34/34
f 17/33/33 16/26/26 18/34/34
s 7
f 15/35/35 5/36/36 11/38/38
f 5/36/36 6/37/37 11/38/38
s 8
f 10/39/39 7/40/40 8/41/41
f 10/39/39 8/41/41 17/42/42
s 9
f 13/43/43 3/44/44 14/46/46
f 3/44/44 4/45/45 14/46/46
s 10
f 16/47/47 1/48/48 12/50/50
f 1/48/48 2/49/49 12/50/50
