mtllib Pillar_Top_Corner.mtl
o object1
g object1
v -0.71250000 1.10000000 0.41250000
v -0.33750000 1.10000000 0.03750000
v -0.33750000 0.90000000 0.03750000
v -0.71250000 0.90000000 0.41250000
v -0.03750000 0.90000000 0.33750000
v -0.41250000 0.90000000 0.71250000
v -0.03750000 1.10000000 0.33750000
v -0.41250000 1.10000000 0.71250000
v -0.41250000 1.15000000 0.63750000
v -0.63750000 1.15000000 0.41250000
v -0.33750000 1.15000000 0.11250000
v -0.11250000 1.15000000 0.33750000
vt 1.00000000 0.00000000
vt 1.00000000 1.00000000
vt 0.00000000 1.00000000
vt 0.00000000 0.00000000
vt 1.00000000 1.00000000
vt 0.00000000 1.00000000
vt 0.00000000 0.00000000
vt 1.00000000 0.00000000
vt 1.00000000 0.00000000
vt 1.00000000 1.00000000
vt 0.00000000 1.00000000
vt 0.00000000 0.00000000
vt 1.00000000 0.00000000
vt 1.00000000 1.00000000
vt 0.00000000 1.00000000
vt 0.00000000 0.00000000
vt 1.00000000 0.00000000
vt 1.00000000 1.00000000
vt 0.00000000 1.00000000
vt 0.00000000 0.00000000
vt 0.00000000 1.00000000
vt 0.00000000 0.00000000
vt 1.00000000 0.00000000
vt 1.00000000 1.00000000
vt 0.00000000 0.00000000
vt 1.00000000 0.00000000
vt 0.90000000 1.00000000
vt 0.10000000 1.00000000
vt 0.12500000 0.00000000
vt 0.87500000 0.00000000
vt 1.00000000 1.00000000
vt 0.00000000 1.00000000
vt 0.10000000 0.00000000
vt 0.90000000 0.00000000
vt 1.00000000 1.00000000
vt 0.00000000 1.00000000
vt 0.00000000 0.00000000
vt 1.00000000 0.00000000
vt 0.87500000 1.00000000
vt 0.12500000 1.00000000
vn -0.70710678 -0.00000000 -0.70710678
vn -0.70710678 0.00000000 -0.70710678
vn -0.70710678 0.00000000 -0.70710678
vn -0.70710678 -0.00000000 -0.70710678
vn -0.00000000 -1.00000000 0.00000000
vn -0.00000000 -1.00000000 0.00000000
vn -0.00000000 -1.00000000 0.00000000
vn -0.00000000 -1.00000000 0.00000000
vn 0.70710678 0.00000000 -0.70710678
vn 0.70710678 0.00000000 -0.70710678
vn 0.70710678 0.00000000 -0.70710678
vn 0.70710678 0.00000000 -0.70710678
vn 0.70710678 0.00000000 0.70710678
vn 0.70710678 0.00000000 0.70710678
vn 0.70710678 0.00000000 0.70710678
vn 0.70710678 0.00000000 0.70710678
vn -0.70710678 0.00000000 0.70710678
vn -0.70710678 0.00000000 0.70710678
vn -0.70710678 0.00000000 0.70710678
vn -0.70710678 0.00000000 0.70710678
vn 0.00000000 1.00000000 -0.00000000
vn 0.00000000 1.00000000 -0.00000000
vn 0.00000000 1.00000000 -0.00000000
vn 0.00000000 1.00000000 -0.00000000
vn 0.48507125 0.72760688 0.48507125
vn 0.48507125 0.72760688 0.48507125
vn 0.48507125 0.72760688 0.48507125
vn 0.48507125 0.72760688 0.48507125
vn 0.48507125 0.72760688 -0.48507125
vn 0.48507125 0.72760688 -0.48507125
vn 0.48507125 0.72760688 -0.48507125
vn 0.48507125 0.72760688 -0.48507125
vn -0.48507125 0.72760688 -0.48507125
vn -0.48507125 0.72760688 -0.48507125
vn -0.48507125 0.72760688 -0.48507125
vn -0.48507125 0.72760688 -0.48507125
vn -0.48507125 0.72760688 0.48507125
vn -0.48507125 0.72760688 0.48507125
vn -0.48507125 0.72760688 0.48507125
vn -0.48507125 0.72760688 0.48507125
s 1
usemtl Light_Grey
f 1/1/1 2/2/2 3/3/3
f 1/1/1 3/3/3 4/4/4
s 2
f 5/5/5 6/6/6 3/8/8
f 6/6/6 4/7/7 3/8/8
s 3
f 2/9/9 7/10/10 3/12/12
f 7/10/10 5/11/11 3/12/12
s 4
f 6/16/16 5/15/15 7/14/14
f 6/16/16 7/14/14 8/13/13
s 5
f 4/20/20 6/19/19 8/18/18
f 4/20/20 8/18/18 1/17/17
s 6
f 12/24/24 11/23/23 9/21/21
f 11/23/23 10/22/22 9/21/21
s 7
f 8/25/25 7/26/26 9/28/28
f 7/26/26 12/27/27 9/28/28
s 8
f 11/29/29 12/30/30 7/31/31
f 11/29/29 7/31/31 2/32/32
s 9
f 10/33/33 11/34/34 1/36/36
f 11/34/34 2/35/35 1/36/36
s 10
f 1/37/37 8/38/38 9/39/39
f 1/37/37 9/39/39 10/40/40
