mtllib Rail.mtl
o object1
g object1
v 0.60000000 0.00000000 0.50000000
v 0.60000000 0.30000000 0.50000000
v 0.60000000 0.80000000 -0.50000000
v 0.60000000 0.50000000 -0.50000000
v 0.40000000 0.50000000 -0.50000000
v 0.40000000 0.80000000 -0.50000000
v 0.40000000 0.00000000 0.50000000
v 0.40000000 0.30000000 0.50000000
vt 0.00000000 1.00000000
vt 0.00000000 0.62500000
vt 1.00000000 0.00000000
vt 1.00000000 0.37500000
vt 0.00000000 1.00000000
vt 0.00000000 0.00000000
vt 1.00000000 0.00000000
vt 1.00000000 1.00000000
vt 1.00000000 0.37500000
vt 0.00000000 1.00000000
vt 0.00000000 0.62500000
vt 1.00000000 0.00000000
vt 1.00000000 0.00000000
vt 1.00000000 1.00000000
vt 0.00000000 1.00000000
vt 0.00000000 0.00000000
vt 1.00000000 0.00000000
vt 1.00000000 1.00000000
vt 0.00000000 1.00000000
vt 0.00000000 0.00000000
vt 1.00000000 0.00000000
vt 1.00000000 1.00000000
vt 0.00000000 1.00000000
vt 0.00000000 0.00000000
vn 1.00000000 0.00000000 0.00000000
vn 1.00000000 0.00000000 0.00000000
vn 1.00000000 0.00000000 0.00000000
vn 1.00000000 0.00000000 0.00000000
vn 0.00000000 -0.00000000 -1.00000000
vn 0.00000000 -0.00000000 -1.00000000
vn 0.00000000 -0.00000000 -1.00000000
vn 0.00000000 -0.00000000 -1.00000000
vn -1.00000000 0.00000000 0.00000000
vn -1.00000000 0.00000000 0.00000000
vn -1.00000000 0.00000000 0.00000000
vn -1.00000000 0.00000000 0.00000000
vn 0.00000000 -0.89442719 -0.44721360
vn 0.00000000 -0.89442719 -0.44721360
vn 0.00000000 -0.89442719 -0.44721360
vn 0.00000000 -0.89442719 -0.44721360
vn 0.00000000 0.00000000 1.00000000
vn 0.00000000 0.00000000 1.00000000
vn 0.00000000 0.00000000 1.00000000
vn 0.00000000 0.00000000 1.00000000
vn 0.00000000 0.89442719 0.44721360
vn 0.00000000 0.89442719 0.44721360
vn 0.00000000 0.89442719 0.44721360
vn 0.00000000 0.89442719 0.44721360
s 1
usemtl Grey
f 4/4/4 3/3/3 2/2/2
f 4/4/4 2/2/2 1/1/1
s 2
f 5/5/5 6/6/6 4/8/8
f 6/6/6 3/7/7 4/8/8
s 3
f 5/9/9 7/10/10 8/11/11
f 5/9/9 8/11/11 6/12/12
s 4
f 4/13/13 1/14/14 5/16/16
f 1/14/14 7/15/15 5/16/16
s 5
f 1/17/17 2/18/18 7/20/20
f 2/18/18 8/19/19 7/20/20
s 6
f 2/21/21 3/22/22 8/24/24
f 3/22/22 6/23/23 8/24/24
