mtllib Steps.mtl
o object1
g object1
v -0.50000000 0.10000000 0.30000000
v 0.50000000 0.10000000 0.30000000
v 0.50000000 0.10000000 0.50000000
v -0.50000000 0.10000000 0.50000000
v 0.50000000 0.00000000 0.50000000
v -0.50000000 0.00000000 0.50000000
v -0.50000000 0.00000000 -0.50000000
v 0.50000000 0.00000000 -0.50000000
v -0.50000000 0.50000000 -0.50000000
v 0.50000000 0.50000000 -0.50000000
v 0.50000000 0.50000000 -0.30000000
v -0.50000000 0.50000000 -0.30000000
v 0.50000000 0.40000000 -0.30000000
v -0.50000000 0.40000000 -0.30000000
v 0.50000000 0.40000000 -0.10000000
v -0.50000000 0.40000000 -0.10000000
v 0.50000000 0.30000000 -0.10000000
v -0.50000000 0.30000000 -0.10000000
v 0.50000000 0.30000000 0.10000000
v -0.50000000 0.30000000 0.10000000
v 0.50000000 0.20000000 0.10000000
v -0.50000000 0.20000000 0.10000000
v 0.50000000 0.20000000 0.30000000
v -0.50000000 0.20000000 0.30000000
vt 1.00000000 0.00000000
vt 1.00000000 1.00000000
vt 0.00000000 1.00000000
vt 0.00000000 0.00000000
vt 1.00000000 0.00000000
vt 1.00000000 1.00000000
vt 0.00000000 1.00000000
vt 0.00000000 0.00000000
vt 0.00000000 0.00000000
vt 1.00000000 0.00000000
vt 1.00000000 1.00000000
vt 0.00000000 1.00000000
vt 1.00000000 0.00000000
vt 1.00000000 1.00000000
vt 0.00000000 1.00000000
vt 0.00000000 0.00000000
vt 1.00000000 0.00000000
vt 1.00000000 1.00000000
vt 0.00000000 1.00000000
vt 0.00000000 0.00000000
vt 1.00000000 0.00000000
vt 1.00000000 1.00000000
vt 0.00000000 1.00000000
vt 0.00000000 0.00000000
vt 1.00000000 0.00000000
vt 1.00000000 1.00000000
vt 0.00000000 1.00000000
vt 0.00000000 0.00000000
vt 1.00000000 0.00000000
vt 1.00000000 1.00000000
vt 0.00000000 1.00000000
vt 0.00000000 0.00000000
vt 1.00000000 0.00000000
vt 1.00000000 1.00000000
vt 0.00000000 1.00000000
vt 0.00000000 0.00000000
vt 1.00000000 0.00000000
vt 1.00000000 1.00000000
vt 0.00000000 1.00000000
vt 0.00000000 0.00000000
vt 1.00000000 0.00000000
vt 1.00000000 1.00000000
vt 0.00000000 1.00000000
vt 0.00000000 0.00000000
vt 0.60000000 0.40000000
vt 0.60000000 0.60000000
vt 0.80000000 0.60000000
vt 0.80000000 0.80000000
vt 1.00000000 0.80000000
vt 1.00000000 1.00000000
vt 0.00000000 1.00000000
vt 0.00000000 0.00000000
vt 0.20000000 0.00000000
vt 0.20000000 0.20000000
vt 0.40000000 0.20000000
vt 0.40000000 0.40000000
vt 1.00000000 0.00000000
vt 1.00000000 1.00000000
vt 0.00000000 1.00000000
vt 0.00000000 0.00000000
vt 0.60000000 0.40000000
vt 0.60000000 0.60000000
vt 0.80000000 0.60000000
vt 0.80000000 0.80000000
vt 1.00000000 0.80000000
vt 1.00000000 1.00000000
vt 0.00000000 1.00000000
vt 0.00000000 0.00000000
vt 0.20000000 0.00000000
vt 0.20000000 0.20000000
vt 0.40000000 0.20000000
vt 0.40000000 0.40000000
vn 0.00000000 1.00000000 0.00000000
vn 0.00000000 1.00000000 0.00000000
vn 0.00000000 1.00000000 0.00000000
vn 0.00000000 1.00000000 0.00000000
vn 0.00000000 0.00000000 1.00000000
vn 0.00000000 0.00000000 1.00000000
vn 0.00000000 0.00000000 1.00000000
vn 0.00000000 0.00000000 1.00000000
vn 0.00000000 -1.00000000 0.00000000
vn 0.00000000 -1.00000000 0.00000000
vn 0.00000000 -1.00000000 0.00000000
vn 0.00000000 -1.00000000 0.00000000
vn 0.00000000 0.00000000 -1.00000000
vn 0.00000000 0.00000000 -1.00000000
vn 0.00000000 0.00000000 -1.00000000
vn 0.00000000 0.00000000 -1.00000000
vn 0.00000000 1.00000000 0.00000000
vn 0.00000000 1.00000000 0.00000000
vn 0.00000000 1.00000000 0.00000000
vn 0.00000000 1.00000000 0.00000000
vn 0.00000000 0.00000000 1.00000000
vn 0.00000000 0.00000000 1.00000000
vn 0.00000000 0.00000000 1.00000000
vn 0.00000000 0.00000000 1.00000000
vn 0.00000000 1.00000000 0.00000000
vn 0.00000000 1.00000000 0.00000000
vn 0.00000000 1.00000000 0.00000000
vn 0.00000000 1.00000000 0.00000000
vn 0.00000000 0.00000000 1.00000000
vn 0.00000000 0.00000000 1.00000000
vn 0.00000000 0.00000000 1.00000000
vn 0.00000000 0.00000000 1.00000000
vn 0.00000000 1.00000000 0.00000000
vn 0.00000000 1.00000000 0.00000000
vn 0.00000000 1.00000000 0.00000000
vn 0.00000000 1.00000000 0.00000000
vn 0.00000000 0.00000000 1.00000000
vn 0.00000000 0.00000000 1.00000000
vn 0.00000000 0.00000000 1.00000000
vn 0.00000000 0.00000000 1.00000000
vn 0.00000000 1.00000000 0.00000000
vn 0.00000000 1.00000000 0.00000000
vn 0.00000000 1.00000000 0.00000000
vn 0.00000000 1.00000000 0.00000000
vn -1.00000000 0.00000000 0.00000000
vn -1.00000000 0.00000000 0.00000000
vn -1.00000000 0.00000000 0.00000000
vn -1.00000000 0.00000000 0.00000000
vn -1.00000000 0.00000000 0.00000000
vn -1.00000000 0.00000000 0.00000000
vn -1.00000000 0.00000000 0.00000000
vn -1.00000000 0.00000000 0.00000000
vn -1.00000000 0.00000000 0.00000000
vn -1.00000000 0.00000000 0.00000000
vn -1.00000000 0.00000000 0.00000000
vn -1.00000000 0.00000000 0.00000000
vn 0.00000000 0.00000000 1.00000000
vn 0.00000000 0.00000000 1.00000000
vn 0.00000000 0.00000000 1.00000000
vn 0.00000000 0.00000000 1.00000000
vn 1.00000000 0.00000000 0.00000000
vn 1.00000000 0.00000000 0.00000000
vn 1.00000000 0.00000000 0.00000000
vn 1.00000000 0.00000000 0.00000000
vn 1.00000000 0.00000000 0.00000000
vn 1.00000000 0.00000000 0.00000000
vn 1.00000000 0.00000000 0.00000000
vn 1.00000000 0.00000000 0.00000000
vn 1.00000000 0.00000000 0.00000000
vn 1.00000000 0.00000000 0.00000000
vn 1.00000000 0.00000000 0.00000000
vn 1.00000000 0.00000000 0.00000000
s 1
usemtl Dark_Grey
f 4/4/4 3/3/3 2/2/2
f 4/4/4 2/2/2 1/1/1
s 2
f 6/8/8 5/7/7 4/5/5
f 5/7/7 3/6/6 4/5/5
s 3
f 6/9/9 7/10/10 8/11/11
f 6/9/9 8/11/11 5/12/12
s 4
f 9/13/13 10/14/14 7/16/16
f 10/14/14 8/15/15 7/16/16
s 5
f 12/20/20 11/19/19 10/18/18
f 12/20/20 10/18/18 9/17/17
s 6
f 14/24/24 13/23/23 12/21/21
f 13/23/23 11/22/22 12/21/21
s 7
f 16/28/28 15/27/27 13/26/26
f 16/28/28 13/26/26 14/25/25
s 8
f 18/32/32 17/31/31 16/29/29
f 17/31/31 15/30/30 16/29/29
s 9
f 20/36/36 19/35/35 17/34/34
f 20/36/36 17/34/34 18/33/33
s 10
f 22/40/40 21/39/39 20/37/37
f 21/39/39 19/38/38 20/37/37
s 11
f 24/44/44 23/43/43 21/42/42
f 24/44/44 21/42/42 22/41/41
s 12
f 22/56/56 20/45/45 18/46/46
f 18/46/46 14/48/48 7/51/51
f 7/51/51 6/52/52 1/54/54
f 6/52/52 4/53/53 1/54/54
f 14/48/48 9/50/50 7/51/51
f 14/48/48 12/49/49 9/50/50
f 18/46/46 16/47/47 14/48/48
f 1/54/54 22/56/56 7/51/51
f 22/56/56 18/46/46 7/51/51
f 1/54/54 24/55/55 22/56/56
s 13
f 1/60/60 2/59/59 24/57/57
f 2/59/59 23/58/58 24/57/57
s 14
f 17/62/62 19/61/61 21/72/72
f 8/67/67 21/72/72 2/70/70
f 2/70/70 3/69/69 5/68/68
f 2/70/70 5/68/68 8/67/67
f 8/67/67 10/66/66 13/64/64
f 10/66/66 11/65/65 13/64/64
f 21/72/72 23/71/71 2/70/70
f 8/67/67 17/62/62 21/72/72
f 8/67/67 13/64/64 17/62/62
f 13/64/64 15/63/63 17/62/62
