mtllib Steps_Curved_Outer.mtl
o object1
g object1
v 1.11803399 0.00000000 -0.67557050
v 1.40211303 0.00000000 -0.11803399
v 1.40211303 0.10000000 -0.11803399
v 1.40211303 0.20000000 -0.11803399
v 1.11803399 0.20000000 -0.67557050
v 0.45105652 0.10000000 0.19098301
v 0.45105652 0.20000000 0.19098301
v 0.45105652 0.00000000 0.19098301
v 0.30901699 0.00000000 -0.08778525
v 0.30901699 0.20000000 -0.08778525
v 0.50000000 0.10000000 0.50000000
v 0.50000000 0.00000000 0.50000000
v 1.50000000 0.10000000 0.50000000
v 1.50000000 0.00000000 0.50000000
v 0.08778525 0.00000000 -0.30901699
v 0.08778525 0.30000000 -0.30901699
v 0.30901699 0.30000000 -0.08778525
v 0.67557050 0.30000000 -1.11803399
v 1.11803399 0.30000000 -0.67557050
v 0.67557050 0.40000000 -1.11803399
v 0.08778525 0.40000000 -0.30901699
v 0.11803399 0.40000000 -1.40211303
v -0.19098301 0.40000000 -0.45105652
v 0.11803399 0.50000000 -1.40211303
v -0.19098301 0.50000000 -0.45105652
v -0.19098301 0.00000000 -0.45105652
v -0.50000000 0.00000000 -0.50000000
v -0.50000000 0.50000000 -0.50000000
v -0.50000000 0.00000000 -1.50000000
v -0.50000000 0.50000000 -1.50000000
v 0.11803399 0.00000000 -1.40211303
v 0.67557050 0.00000000 -1.11803399
vt 0.00000000 1.00000000
vt 0.00000000 0.00000000
vt 0.50000000 0.00000000
vt 1.00000000 0.00000000
vt 1.00000000 1.00000000
vt 1.00000000 1.00000000
vt 0.00000000 1.00000000
vt 0.00000000 0.00000000
vt 1.00000000 0.00000000
vt 0.00000000 1.00000000
vt 0.00000000 0.00000000
vt 1.00000000 0.00000000
vt 1.00000000 1.00000000
vt 0.50000000 1.00000000
vt 1.00000000 1.00000000
vt 0.00000000 1.00000000
vt 0.00000000 0.00000000
vt 1.00000000 0.00000000
vt 1.00000000 1.00000000
vt 0.00000000 1.00000000
vt 0.00000000 0.00000000
vt 1.00000000 0.00000000
vt 0.00000000 1.00000000
vt 0.00000000 0.00000000
vt 1.00000000 0.00000000
vt 1.00000000 1.00000000
vt 0.66666667 1.00000000
vt 1.00000000 0.42947248
vt 0.21473624 1.00000000
vt 0.00000000 0.78526376
vt 0.57052752 0.00000000
vt 1.00000000 1.00000000
vt 0.00000000 1.00000000
vt 0.00000000 0.00000000
vt 1.00000000 0.00000000
vt 1.00000000 0.64339537
vt 0.12994240 1.00000000
vt 0.00000000 0.67830232
vt 0.74011520 0.00000000
vt 1.00000000 1.00000000
vt 0.00000000 1.00000000
vt 0.00000000 0.00000000
vt 1.00000000 0.00000000
vt 0.00000000 1.00000000
vt 0.00000000 0.00000000
vt 1.00000000 0.00000000
vt 1.00000000 1.00000000
vt 0.80000000 1.00000000
vt 1.00000000 1.00000000
vt 0.00000000 1.00000000
vt 0.00000000 0.00000000
vt 1.00000000 0.00000000
vt 1.00000000 1.00000000
vt 0.04665979 1.00000000
vt 0.00000000 0.50000000
vt 0.90668042 0.00000000
vt 0.00000000 1.00000000
vt 0.00000000 0.00000000
vt 0.80000000 0.00000000
vt 1.00000000 0.00000000
vt 1.00000000 1.00000000
vt 0.00000000 1.00000000
vt 0.00000000 0.00000000
vt 0.75000000 0.00000000
vt 1.00000000 0.00000000
vt 1.00000000 1.00000000
vt 1.00000000 1.00000000
vt 0.00000000 1.00000000
vt 0.00000000 0.00000000
vt 1.00000000 0.00000000
vt 0.00000000 1.00000000
vt 0.00000000 0.00000000
vt 1.00000000 0.00000000
vt 1.00000000 1.00000000
vt 0.75000000 1.00000000
vt 1.00000000 0.09331958
vt 0.50000000 1.00000000
vt 0.00000000 0.95334021
vt 0.00000000 0.00000000
vt 1.00000000 0.25988480
vt 0.32169768 1.00000000
vt 0.00000000 0.87005760
vt 0.35660463 0.00000000
vt 0.00000000 1.00000000
vt 0.00000000 0.00000000
vt 0.66666667 0.00000000
vt 1.00000000 0.00000000
vt 1.00000000 1.00000000
vt 0.95105652 0.69098301
vt 1.00000000 1.00000000
vt 0.50000000 1.00000000
vt 0.47552826 0.84549150
vt 0.40450850 0.70610737
vt 0.29389263 0.59549150
vt 0.15450850 0.52447174
vt 0.00000000 0.50000000
vt 0.00000000 0.00000000
vt 0.30901699 0.04894348
vt 0.58778525 0.19098301
vt 0.80901699 0.41221475
vt 1.00000000 1.00000000
vt 0.00000000 1.00000000
vt 0.00000000 0.00000000
vt 1.00000000 0.00000000
vn 0.89100652 0.00000000 -0.45399050
vn 0.89100652 0.00000000 -0.45399050
vn 0.89100652 0.00000000 -0.45399050
vn 0.89100652 0.00000000 -0.45399050
vn 0.89100652 0.00000000 -0.45399050
vn 0.30901699 0.00000000 0.95105652
vn 0.30901699 0.00000000 0.95105652
vn 0.30901699 0.00000000 0.95105652
vn 0.30901699 0.00000000 0.95105652
vn -0.89100652 0.00000000 0.45399050
vn -0.89100652 0.00000000 0.45399050
vn -0.89100652 0.00000000 0.45399050
vn -0.89100652 0.00000000 0.45399050
vn -0.89100652 0.00000000 0.45399050
vn -0.98768834 0.00000000 0.15643447
vn -0.98768834 0.00000000 0.15643447
vn -0.98768834 0.00000000 0.15643447
vn -0.98768834 0.00000000 0.15643447
vn 0.00000000 0.00000000 1.00000000
vn 0.00000000 0.00000000 1.00000000
vn 0.00000000 0.00000000 1.00000000
vn 0.00000000 0.00000000 1.00000000
vn -0.70710678 0.00000000 0.70710678
vn -0.70710678 0.00000000 0.70710678
vn -0.70710678 0.00000000 0.70710678
vn -0.70710678 0.00000000 0.70710678
vn -0.70710678 0.00000000 0.70710678
vn 0.00000000 1.00000000 0.00000000
vn 0.00000000 1.00000000 0.00000000
vn 0.00000000 1.00000000 0.00000000
vn 0.00000000 1.00000000 0.00000000
vn 0.80901699 0.00000000 0.58778525
vn 0.80901699 0.00000000 0.58778525
vn 0.80901699 0.00000000 0.58778525
vn 0.80901699 0.00000000 0.58778525
vn 0.00000000 1.00000000 0.00000000
vn 0.00000000 1.00000000 0.00000000
vn 0.00000000 1.00000000 0.00000000
vn 0.00000000 1.00000000 0.00000000
vn 0.95105652 0.00000000 0.30901699
vn 0.95105652 0.00000000 0.30901699
vn 0.95105652 0.00000000 0.30901699
vn 0.95105652 0.00000000 0.30901699
vn -0.15643447 0.00000000 0.98768834
vn -0.15643447 0.00000000 0.98768834
vn -0.15643447 0.00000000 0.98768834
vn -0.15643447 0.00000000 0.98768834
vn -0.15643447 0.00000000 0.98768834
vn -1.00000000 0.00000000 0.00000000
vn -1.00000000 0.00000000 0.00000000
vn -1.00000000 0.00000000 0.00000000
vn -1.00000000 0.00000000 0.00000000
vn 0.00000000 1.00000000 0.00000000
vn 0.00000000 1.00000000 0.00000000
vn 0.00000000 1.00000000 0.00000000
vn 0.00000000 1.00000000 0.00000000
vn 0.15643447 0.00000000 -0.98768834
vn 0.15643447 0.00000000 -0.98768834
vn 0.15643447 0.00000000 -0.98768834
vn 0.15643447 0.00000000 -0.98768834
vn 0.15643447 0.00000000 -0.98768834
vn 0.45399050 0.00000000 -0.89100652
vn 0.45399050 0.00000000 -0.89100652
vn 0.45399050 0.00000000 -0.89100652
vn 0.45399050 0.00000000 -0.89100652
vn 0.45399050 0.00000000 -0.89100652
vn 0.58778525 0.00000000 0.80901699
vn 0.58778525 0.00000000 0.80901699
vn 0.58778525 0.00000000 0.80901699
vn 0.58778525 0.00000000 0.80901699
vn -0.45399050 0.00000000 0.89100652
vn -0.45399050 0.00000000 0.89100652
vn -0.45399050 0.00000000 0.89100652
vn -0.45399050 0.00000000 0.89100652
vn -0.45399050 0.00000000 0.89100652
vn 0.00000000 1.00000000 0.00000000
vn 0.00000000 1.00000000 0.00000000
vn 0.00000000 1.00000000 0.00000000
vn 0.00000000 1.00000000 0.00000000
vn 0.00000000 1.00000000 0.00000000
vn 0.00000000 1.00000000 0.00000000
vn 0.00000000 1.00000000 0.00000000
vn 0.00000000 1.00000000 0.00000000
vn 0.70710678 0.00000000 -0.70710678
vn 0.70710678 0.00000000 -0.70710678
vn 0.70710678 0.00000000 -0.70710678
vn 0.70710678 0.00000000 -0.70710678
vn 0.70710678 0.00000000 -0.70710678
vn 0.00000000 -1.00000000 0.00000000
vn 0.00000000 -1.00000000 0.00000000
vn 0.00000000 -1.00000000 0.00000000
vn 0.00000000 -1.00000000 0.00000000
vn 0.00000000 -1.00000000 0.00000000
vn 0.00000000 -1.00000000 0.00000000
vn 0.00000000 -1.00000000 0.00000000
vn 0.00000000 -1.00000000 0.00000000
vn 0.00000000 -1.00000000 0.00000000
vn 0.00000000 -1.00000000 0.00000000
vn 0.00000000 -1.00000000 0.00000000
vn 0.00000000 -1.00000000 0.00000000
vn 0.98768834 0.00000000 -0.15643447
vn 0.98768834 0.00000000 -0.15643447
vn 0.98768834 0.00000000 -0.15643447
vn 0.98768834 0.00000000 -0.15643447
s 1
usemtl Dark_Grey
f 1/1/1 5/5/5 4/4/4
f 4/4/4 3/3/3 1/1/1
f 3/3/3 2/2/2 1/1/1
s 2
f 7/9/9 6/8/8 4/6/6
f 6/8/8 3/7/7 4/6/6
s 3
f 9/11/11 8/10/10 6/14/14
f 6/14/14 7/13/13 10/12/12
f 6/14/14 10/12/12 9/11/11
s 4
f 6/18/18 8/17/17 11/15/15
f 8/17/17 12/16/16 11/15/15
s 5
f 11/22/22 12/21/21 13/19/19
f 12/21/21 14/20/20 13/19/19
s 6
f 10/27/27 17/26/26 16/25/25
f 10/27/27 16/25/25 15/24/24
f 15/24/24 9/23/23 10/27/27
s 7
f 16/29/29 17/30/30 19/31/31
f 18/28/28 16/29/29 19/31/31
s 8
f 21/35/35 16/34/34 20/32/32
f 16/34/34 18/33/33 20/32/32
s 9
f 23/37/37 21/38/38 20/39/39
f 22/36/36 23/37/37 20/39/39
s 10
f 25/43/43 23/42/42 22/41/41
f 25/43/43 22/41/41 24/40/40
s 11
f 23/48/48 25/47/47 28/46/46
f 23/48/48 28/46/46 27/45/45
f 27/45/45 26/44/44 23/48/48
s 12
f 30/52/52 29/51/51 28/49/49
f 29/51/51 27/50/50 28/49/49
s 13
f 30/53/53 28/54/54 25/55/55
f 30/53/53 25/55/55 24/56/56
s 14
f 22/59/59 31/58/58 29/57/57
f 30/61/61 24/60/60 22/59/59
f 22/59/59 29/57/57 30/61/61
s 15
f 18/64/64 32/63/63 31/62/62
f 22/66/66 20/65/65 18/64/64
f 18/64/64 31/62/62 22/66/66
s 16
f 17/70/70 10/69/69 19/67/67
f 10/69/69 5/68/68 19/67/67
s 17
f 16/75/75 21/74/74 23/73/73
f 16/75/75 23/73/73 26/72/72
f 26/72/72 15/71/71 16/75/75
s 18
f 3/76/76 6/77/77 11/78/78
f 3/76/76 11/78/78 13/79/79
s 19
f 5/80/80 10/81/81 7/82/82
f 5/80/80 7/82/82 4/83/83
s 20
f 5/86/86 1/85/85 32/84/84
f 18/88/88 19/87/87 5/86/86
f 5/86/86 32/84/84 18/88/88
s 21
f 26/92/92 27/91/91 29/90/90
f 26/92/92 29/90/90 31/89/89
f 31/89/89 32/100/100 26/92/92
f 32/100/100 1/99/99 15/93/93
f 1/99/99 9/94/94 15/93/93
f 2/98/98 8/95/95 9/94/94
f 14/97/97 12/96/96 8/95/95
f 2/98/98 14/97/97 8/95/95
f 1/99/99 2/98/98 9/94/94
f 32/100/100 15/93/93 26/92/92
s 22
f 13/104/104 14/103/103 3/101/101
f 14/103/103 2/102/102 3/101/101
