mtllib Steps_Curved.mtl
o object1
g object1
v 0.45105652 0.20000000 0.19098301
v -0.50000000 0.20000000 0.50000000
v 0.30901699 0.20000000 -0.08778525
v 0.45105652 0.10000000 0.19098301
v 0.45105652 0.00000000 0.19098301
v 0.30901699 0.00000000 -0.08778525
v 0.50000000 0.10000000 0.50000000
v 0.50000000 0.00000000 0.50000000
v -0.50000000 0.10000000 0.50000000
v -0.50000000 0.00000000 0.50000000
v -0.50000000 0.30000000 0.50000000
v -0.50000000 0.40000000 0.50000000
v -0.50000000 0.50000000 0.50000000
v -0.50000000 0.50000000 -0.50000000
v -0.50000000 0.00000000 -0.50000000
v -0.19098301 0.40000000 -0.45105652
v -0.19098301 0.00000000 -0.45105652
v -0.19098301 0.50000000 -0.45105652
v 0.08778525 0.30000000 -0.30901699
v 0.08778525 0.00000000 -0.30901699
v 0.08778525 0.40000000 -0.30901699
v 0.30901699 0.30000000 -0.08778525
vt 0.52573111 1.00000000
vt 0.00000000 0.00000000
vt 1.00000000 0.85065081
vt 0.50000000 1.00000000
vt 0.00000000 1.00000000
vt 0.00000000 0.00000000
vt 1.00000000 0.00000000
vt 1.00000000 1.00000000
vt 1.00000000 0.00000000
vt 1.00000000 1.00000000
vt 0.00000000 1.00000000
vt 0.00000000 0.00000000
vt 0.00000000 1.00000000
vt 0.00000000 0.00000000
vt 1.00000000 0.95105652
vt 1.00000000 0.00000000
vt 1.00000000 1.00000000
vt 0.00000000 1.00000000
vt 0.00000000 0.00000000
vt 0.20000000 0.00000000
vt 0.40000000 0.00000000
vt 0.60000000 0.00000000
vt 0.80000000 0.00000000
vt 1.00000000 0.00000000
vt 1.00000000 1.00000000
vt 0.00000000 1.00000000
vt 0.00000000 0.00000000
vt 0.80000000 1.00000000
vt 0.00000000 1.00000000
vt 0.00000000 0.00000000
vt 1.00000000 0.00000000
vt 1.00000000 1.00000000
vt 0.75000000 1.00000000
vt 0.00000000 1.00000000
vt 0.00000000 0.00000000
vt 1.00000000 0.00000000
vt 1.00000000 1.00000000
vt 0.85065081 1.00000000
vt 0.00000000 0.00000000
vt 1.00000000 0.52573111
vt 0.95105652 1.00000000
vt 0.00000000 0.00000000
vt 1.00000000 0.00000000
vt 1.00000000 0.00000000
vt 1.00000000 1.00000000
vt 0.00000000 1.00000000
vt 0.00000000 0.00000000
vt 1.00000000 0.00000000
vt 1.00000000 1.00000000
vt 0.00000000 1.00000000
vt 0.00000000 0.00000000
vt 0.72654253 1.00000000
vt 0.00000000 0.00000000
vt 1.00000000 0.72654253
vt 0.66666667 1.00000000
vt 0.00000000 1.00000000
vt 0.00000000 0.00000000
vt 1.00000000 0.00000000
vt 1.00000000 1.00000000
vt 0.00000000 0.00000000
vt 1.00000000 0.00000000
vt 0.95105652 0.30901699
vt 0.80901699 0.58778525
vt 0.58778525 0.80901699
vt 0.30901699 0.95105652
vt 0.00000000 1.00000000
vt 1.00000000 0.00000000
vt 1.00000000 1.00000000
vt 0.00000000 1.00000000
vt 0.00000000 0.00000000
vt 1.00000000 0.00000000
vt 1.00000000 1.00000000
vt 0.00000000 1.00000000
vt 0.00000000 0.00000000
vn 0.00000000 1.00000000 0.00000000
vn 0.00000000 1.00000000 0.00000000
vn 0.00000000 1.00000000 0.00000000
vn 0.89100652 0.00000000 -0.45399050
vn 0.89100652 0.00000000 -0.45399050
vn 0.89100652 0.00000000 -0.45399050
vn 0.89100652 0.00000000 -0.45399050
vn 0.89100652 0.00000000 -0.45399050
vn 0.98768834 0.00000000 -0.15643447
vn 0.98768834 0.00000000 -0.15643447
vn 0.98768834 0.00000000 -0.15643447
vn 0.98768834 0.00000000 -0.15643447
vn 0.00000000 1.00000000 0.00000000
vn 0.00000000 1.00000000 0.00000000
vn 0.00000000 1.00000000 0.00000000
vn 0.00000000 0.00000000 1.00000000
vn 0.00000000 0.00000000 1.00000000
vn 0.00000000 0.00000000 1.00000000
vn 0.00000000 0.00000000 1.00000000
vn -1.00000000 0.00000000 0.00000000
vn -1.00000000 0.00000000 0.00000000
vn -1.00000000 0.00000000 0.00000000
vn -1.00000000 0.00000000 0.00000000
vn -1.00000000 0.00000000 0.00000000
vn -1.00000000 0.00000000 0.00000000
vn -1.00000000 0.00000000 0.00000000
vn -1.00000000 0.00000000 0.00000000
vn 0.15643447 0.00000000 -0.98768834
vn 0.15643447 0.00000000 -0.98768834
vn 0.15643447 0.00000000 -0.98768834
vn 0.15643447 0.00000000 -0.98768834
vn 0.15643447 0.00000000 -0.98768834
vn 0.45399050 0.00000000 -0.89100652
vn 0.45399050 0.00000000 -0.89100652
vn 0.45399050 0.00000000 -0.89100652
vn 0.45399050 0.00000000 -0.89100652
vn 0.45399050 0.00000000 -0.89100652
vn 0.00000000 1.00000000 0.00000000
vn 0.00000000 1.00000000 0.00000000
vn 0.00000000 1.00000000 0.00000000
vn 0.00000000 1.00000000 0.00000000
vn 0.00000000 1.00000000 0.00000000
vn 0.00000000 1.00000000 0.00000000
vn 0.95105652 0.00000000 0.30901699
vn 0.95105652 0.00000000 0.30901699
vn 0.95105652 0.00000000 0.30901699
vn 0.95105652 0.00000000 0.30901699
vn 0.80901699 0.00000000 0.58778525
vn 0.80901699 0.00000000 0.58778525
vn 0.80901699 0.00000000 0.58778525
vn 0.80901699 0.00000000 0.58778525
vn 0.00000000 1.00000000 0.00000000
vn 0.00000000 1.00000000 0.00000000
vn 0.00000000 1.00000000 0.00000000
vn 0.70710678 0.00000000 -0.70710678
vn 0.70710678 0.00000000 -0.70710678
vn 0.70710678 0.00000000 -0.70710678
vn 0.70710678 0.00000000 -0.70710678
vn 0.70710678 0.00000000 -0.70710678
vn 0.00000000 -1.00000000 0.00000000
vn 0.00000000 -1.00000000 0.00000000
vn 0.00000000 -1.00000000 0.00000000
vn 0.00000000 -1.00000000 0.00000000
vn 0.00000000 -1.00000000 0.00000000
vn 0.00000000 -1.00000000 0.00000000
vn 0.00000000 -1.00000000 0.00000000
vn 0.30901699 0.00000000 0.95105652
vn 0.30901699 0.00000000 0.95105652
vn 0.30901699 0.00000000 0.95105652
vn 0.30901699 0.00000000 0.95105652
vn 0.58778525 0.00000000 0.80901699
vn 0.58778525 0.00000000 0.80901699
vn 0.58778525 0.00000000 0.80901699
vn 0.58778525 0.00000000 0.80901699
s 1
usemtl Dark_Grey
f 3/3/3 2/2/2 1/1/1
s 2
f 4/4/4 5/5/5 6/6/6
f 4/4/4 6/6/6 3/7/7
f 3/7/7 1/8/8 4/4/4
s 3
f 4/9/9 7/10/10 5/12/12
f 7/10/10 8/11/11 5/12/12
s 4
f 4/15/15 9/14/14 7/13/13
s 5
f 7/16/16 9/17/17 8/19/19
f 9/17/17 10/18/18 8/19/19
s 6
f 13/24/24 14/25/25 15/26/26
f 15/26/26 11/22/22 12/23/23
f 15/26/26 2/21/21 11/22/22
f 15/26/26 9/20/20 2/21/21
f 15/26/26 10/27/27 9/20/20
f 12/23/23 13/24/24 15/26/26
s 7
f 14/31/31 18/32/32 16/28/28
f 16/28/28 17/29/29 15/30/30
f 16/28/28 15/30/30 14/31/31
s 8
f 16/36/36 21/37/37 19/33/33
f 19/33/33 20/34/34 17/35/35
f 19/33/33 17/35/35 16/36/36
s 9
f 16/40/40 12/39/39 21/38/38
s 10
f 14/43/43 13/42/42 18/41/41
s 11
f 18/44/44 13/45/45 16/47/47
f 13/45/45 12/46/46 16/47/47
s 12
f 21/48/48 12/49/49 11/50/50
f 21/48/48 11/50/50 19/51/51
s 13
f 19/54/54 11/53/53 22/52/52
s 14
f 19/58/58 22/59/59 3/55/55
f 3/55/55 6/56/56 20/57/57
f 3/55/55 20/57/57 19/58/58
s 15
f 10/60/60 15/61/61 17/62/62
f 10/60/60 5/65/65 8/66/66
f 10/60/60 6/64/64 5/65/65
f 10/60/60 20/63/63 6/64/64
f 10/60/60 17/62/62 20/63/63
s 16
f 1/67/67 2/68/68 9/69/69
f 1/67/67 9/69/69 4/70/70
s 17
f 22/71/71 11/72/72 3/74/74
f 11/72/72 2/73/73 3/74/74
