mtllib Wall_Top_Curved.mtl
o object1
g object1
v 0.02900673 1.05000000 -0.22811529
v -0.22188471 1.05000000 -0.35595086
v -0.22188471 0.95000000 -0.35595086
v 0.02900673 0.95000000 -0.22811529
v -0.50000000 1.05000000 -0.40000000
v -0.60000000 1.05000000 -0.50000000
v -0.50000000 1.05000000 -0.60000000
v -0.16008131 1.05000000 -0.54616217
v 0.14656378 1.05000000 -0.38991869
v 0.38991869 1.05000000 -0.14656378
v 0.54616217 1.05000000 0.16008131
v 0.60000000 1.05000000 0.50000000
v 0.50000000 1.05000000 0.60000000
v 0.40000000 1.05000000 0.50000000
v 0.35595086 1.05000000 0.22188471
v 0.22811529 1.05000000 -0.02900673
v -0.16008131 0.95000000 -0.54616217
v -0.50000000 0.95000000 -0.60000000
v 0.14656378 0.95000000 -0.38991869
v 0.38991869 0.95000000 -0.14656378
v 0.54616217 0.95000000 0.16008131
v 0.60000000 0.95000000 0.50000000
v 0.50000000 0.95000000 0.60000000
v 0.40000000 0.95000000 0.50000000
v 0.35595086 0.95000000 0.22188471
v 0.22811529 0.95000000 -0.02900673
v -0.60000000 0.95000000 -0.50000000
v -0.50000000 0.95000000 -0.40000000
vt 1.00000000 0.00000000
vt 1.00000000 1.00000000
vt 0.00000000 1.00000000
vt 0.00000000 0.00000000
vt 0.83333333 0.08333333
vt 0.91666667 0.00000000
vt 1.00000000 0.08333333
vt 0.95513514 0.36659891
vt 0.82493224 0.62213648
vt 0.62213648 0.82493224
vt 0.36659891 0.95513514
vt 0.08333333 1.00000000
vt 0.00000000 0.91666667
vt 0.08333333 0.83333333
vt 0.31509608 0.79662572
vt 0.52417227 0.69009608
vt 0.69009608 0.52417227
vt 0.79662572 0.31509608
vt 1.00000000 0.00000000
vt 1.00000000 1.00000000
vt 0.00000000 1.00000000
vt 0.00000000 0.00000000
vt 1.00000000 0.00000000
vt 1.00000000 1.00000000
vt 0.00000000 1.00000000
vt 0.00000000 0.00000000
vt 1.00000000 0.00000000
vt 1.00000000 1.00000000
vt 0.00000000 1.00000000
vt 0.00000000 0.00000000
vt 1.00000000 0.00000000
vt 1.00000000 1.00000000
vt 0.00000000 1.00000000
vt 0.00000000 0.00000000
vt 1.00000000 0.00000000
vt 1.00000000 1.00000000
vt 0.00000000 1.00000000
vt 0.00000000 0.00000000
vt 1.00000000 0.00000000
vt 1.00000000 1.00000000
vt 0.00000000 1.00000000
vt 0.00000000 0.00000000
vt 1.00000000 0.00000000
vt 1.00000000 1.00000000
vt 0.00000000 1.00000000
vt 0.00000000 0.00000000
vt 1.00000000 0.00000000
vt 1.00000000 1.00000000
vt 0.00000000 1.00000000
vt 0.00000000 0.00000000
vt 1.00000000 0.00000000
vt 1.00000000 1.00000000
vt 0.00000000 1.00000000
vt 0.00000000 0.00000000
vt 1.00000000 0.00000000
vt 1.00000000 1.00000000
vt 0.00000000 1.00000000
vt 0.00000000 0.00000000
vt 1.00000000 0.00000000
vt 1.00000000 1.00000000
vt 0.00000000 1.00000000
vt 0.00000000 0.00000000
vt 1.00000000 0.00000000
vt 1.00000000 1.00000000
vt 0.00000000 1.00000000
vt 0.00000000 0.00000000
vt 0.83333333 0.08333333
vt 0.91666667 0.00000000
vt 1.00000000 0.08333333
vt 0.95513514 0.36659891
vt 0.82493224 0.62213648
vt 0.62213648 0.82493224
vt 0.36659891 0.95513514
vt 0.08333333 1.00000000
vt 0.00000000 0.91666667
vt 0.08333333 0.83333333
vt 0.31509608 0.79662572
vt 0.52417227 0.69009608
vt 0.69009608 0.52417227
vt 0.79662572 0.31509608
vt 1.00000000 0.00000000
vt 1.00000000 1.00000000
vt 0.00000000 1.00000000
vt 0.00000000 0.00000000
vn -0.45399050 0.00000000 0.89100652
vn -0.45399050 0.00000000 0.89100652
vn -0.45399050 0.00000000 0.89100652
vn -0.45399050 0.00000000 0.89100652
vn -0.00000000 1.00000000 0.00000000
vn -0.00000000 1.00000000 0.00000000
vn -0.00000000 1.00000000 0.00000000
vn -0.00000000 1.00000000 0.00000000
vn -0.00000000 1.00000000 0.00000000
vn -0.00000000 1.00000000 0.00000000
vn -0.00000000 1.00000000 0.00000000
vn -0.00000000 1.00000000 0.00000000
vn -0.00000000 1.00000000 0.00000000
vn -0.00000000 1.00000000 0.00000000
vn -0.00000000 1.00000000 0.00000000
vn -0.00000000 1.00000000 0.00000000
vn -0.00000000 1.00000000 0.00000000
vn -0.00000000 1.00000000 0.00000000
vn 0.15643447 -0.00000000 -0.98768834
vn 0.15643447 0.00000000 -0.98768834
vn 0.15643447 0.00000000 -0.98768834
vn 0.15643447 -0.00000000 -0.98768834
vn 0.45399050 -0.00000000 -0.89100652
vn 0.45399050 -0.00000000 -0.89100652
vn 0.45399050 -0.00000000 -0.89100652
vn 0.45399050 -0.00000000 -0.89100652
vn 0.70710678 -0.00000000 -0.70710678
vn 0.70710678 -0.00000000 -0.70710678
vn 0.70710678 -0.00000000 -0.70710678
vn 0.70710678 -0.00000000 -0.70710678
vn 0.89100652 -0.00000000 -0.45399050
vn 0.89100652 -0.00000000 -0.45399050
vn 0.89100652 -0.00000000 -0.45399050
vn 0.89100652 -0.00000000 -0.45399050
vn 0.98768834 -0.00000000 -0.15643447
vn 0.98768834 -0.00000000 -0.15643447
vn 0.98768834 -0.00000000 -0.15643447
vn 0.98768834 -0.00000000 -0.15643447
vn 0.70710678 -0.00000000 0.70710678
vn 0.70710678 -0.00000000 0.70710678
vn 0.70710678 -0.00000000 0.70710678
vn 0.70710678 -0.00000000 0.70710678
vn -0.70710678 0.00000000 0.70710678
vn -0.70710678 0.00000000 0.70710678
vn -0.70710678 0.00000000 0.70710678
vn -0.70710678 0.00000000 0.70710678
vn -0.98768834 0.00000000 0.15643447
vn -0.98768834 0.00000000 0.15643447
vn -0.98768834 0.00000000 0.15643447
vn -0.98768834 0.00000000 0.15643447
vn -0.89100652 0.00000000 0.45399050
vn -0.89100652 0.00000000 0.45399050
vn -0.89100652 0.00000000 0.45399050
vn -0.89100652 0.00000000 0.45399050
vn -0.70710678 0.00000000 0.70710678
vn -0.70710678 0.00000000 0.70710678
vn -0.70710678 0.00000000 0.70710678
vn -0.70710678 0.00000000 0.70710678
vn -0.70710678 0.00000000 -0.70710678
vn -0.70710678 0.00000000 -0.70710678
vn -0.70710678 0.00000000 -0.70710678
vn -0.70710678 0.00000000 -0.70710678
vn -0.70710678 0.00000000 0.70710678
vn -0.70710678 0.00000000 0.70710678
vn -0.70710678 0.00000000 0.70710678
vn -0.70710678 0.00000000 0.70710678
vn 0.00000000 -1.00000000 -0.00000000
vn 0.00000000 -1.00000000 -0.00000000
vn 0.00000000 -1.00000000 -0.00000000
vn 0.00000000 -1.00000000 -0.00000000
vn 0.00000000 -1.00000000 -0.00000000
vn 0.00000000 -1.00000000 -0.00000000
vn 0.00000000 -1.00000000 -0.00000000
vn 0.00000000 -1.00000000 -0.00000000
vn 0.00000000 -1.00000000 -0.00000000
vn 0.00000000 -1.00000000 -0.00000000
vn 0.00000000 -1.00000000 -0.00000000
vn 0.00000000 -1.00000000 -0.00000000
vn 0.00000000 -1.00000000 -0.00000000
vn 0.00000000 -1.00000000 -0.00000000
vn -0.15643447 0.00000000 0.98768834
vn -0.15643447 0.00000000 0.98768834
vn -0.15643447 0.00000000 0.98768834
vn -0.15643447 0.00000000 0.98768834
s 1
usemtl Grey
f 1/1/1 2/2/2 4/4/4
f 2/2/2 3/3/3 4/4/4
s 2
f 14/14/14 13/13/13 12/12/12
f 15/15/15 12/12/12 11/11/11
f 16/16/16 11/11/11 10/10/10
f 1/17/17 10/10/10 9/9/9
f 9/9/9 8/8/8 1/17/17
f 8/8/8 7/7/7 2/18/18
f 7/7/7 5/5/5 2/18/18
f 7/7/7 6/6/6 5/5/5
f 8/8/8 2/18/18 1/17/17
f 1/17/17 16/16/16 10/10/10
f 16/16/16 15/15/15 11/11/11
f 15/15/15 14/14/14 12/12/12
s 3
f 7/19/19 8/20/20 18/22/22
f 8/20/20 17/21/21 18/22/22
s 4
f 8/23/23 9/24/24 17/26/26
f 9/24/24 19/25/25 17/26/26
s 5
f 9/27/27 10/28/28 19/30/30
f 10/28/28 20/29/29 19/30/30
s 6
f 10/31/31 11/32/32 20/34/34
f 11/32/32 21/33/33 20/34/34
s 7
f 11/35/35 12/36/36 21/38/38
f 12/36/36 22/37/37 21/38/38
s 8
f 12/39/39 13/40/40 22/42/42
f 13/40/40 23/41/41 22/42/42
s 9
f 13/43/43 14/44/44 23/46/46
f 14/44/44 24/45/45 23/46/46
s 10
f 14/47/47 15/48/48 24/50/50
f 15/48/48 25/49/49 24/50/50
s 11
f 15/51/51 16/52/52 25/54/54
f 16/52/52 26/53/53 25/54/54
s 12
f 5/55/55 6/56/56 28/58/58
f 6/56/56 27/57/57 28/58/58
s 13
f 6/59/59 7/60/60 27/62/62
f 7/60/60 18/61/61 27/62/62
s 14
f 16/63/63 1/64/64 26/66/66
f 1/64/64 4/65/65 26/66/66
s 15
f 22/74/74 23/75/75 24/76/76
f 21/73/73 22/74/74 25/77/77
f 20/72/72 21/73/73 26/78/78
f 19/71/71 20/72/72 4/79/79
f 4/79/79 3/80/80 17/70/70
f 3/80/80 18/69/69 17/70/70
f 28/67/67 27/68/68 18/69/69
f 3/80/80 28/67/67 18/69/69
f 4/79/79 17/70/70 19/71/71
f 20/72/72 26/78/78 4/79/79
f 21/73/73 25/77/77 26/78/78
f 22/74/74 24/76/76 25/77/77
s 16
f 2/81/81 5/82/82 3/84/84
f 5/82/82 28/83/83 3/84/84
