mtllib Wall_Top_Curved_Outer.mtl
o object1
g object1
v 1.03713229 1.05000000 -0.61679198
v 1.03713229 0.95000000 -0.61679198
v 0.61679198 0.95000000 -1.03713229
v 0.61679198 1.05000000 -1.03713229
v 0.08713229 0.95000000 -1.30700738
v 0.08713229 1.05000000 -1.30700738
v -0.50000000 0.95000000 -1.40000000
v -0.50000000 1.05000000 -1.40000000
v -0.60000000 0.95000000 -1.50000000
v -0.60000000 1.05000000 -1.50000000
v -0.50000000 0.95000000 -1.60000000
v -0.50000000 1.05000000 -1.60000000
v 0.14893569 0.95000000 -1.49721868
v 0.14893569 1.05000000 -1.49721868
v 0.73434903 0.95000000 -1.19893569
v 0.73434903 1.05000000 -1.19893569
v 1.19893569 0.95000000 -0.73434903
v 1.19893569 1.05000000 -0.73434903
v 1.49721868 0.95000000 -0.14893569
v 1.49721868 1.05000000 -0.14893569
v 1.60000000 0.95000000 0.50000000
v 1.60000000 1.05000000 0.50000000
v 1.50000000 0.95000000 0.60000000
v 1.50000000 1.05000000 0.60000000
v 1.40000000 0.95000000 0.50000000
v 1.40000000 1.05000000 0.50000000
v 1.30700738 0.95000000 -0.08713229
v 1.30700738 1.05000000 -0.08713229
vt 1.00000000 1.00000000
vt 0.00000000 1.00000000
vt 0.00000000 0.00000000
vt 1.00000000 0.00000000
vt 1.00000000 1.00000000
vt 0.00000000 1.00000000
vt 0.00000000 0.00000000
vt 1.00000000 0.00000000
vt 1.00000000 1.00000000
vt 0.00000000 1.00000000
vt 0.00000000 0.00000000
vt 1.00000000 0.00000000
vt 1.00000000 1.00000000
vt 0.00000000 1.00000000
vt 0.00000000 0.00000000
vt 1.00000000 0.00000000
vt 1.00000000 1.00000000
vt 0.00000000 1.00000000
vt 0.00000000 0.00000000
vt 1.00000000 0.00000000
vt 1.00000000 1.00000000
vt 0.00000000 1.00000000
vt 0.00000000 0.00000000
vt 1.00000000 0.00000000
vt 1.00000000 1.00000000
vt 0.00000000 1.00000000
vt 0.00000000 0.00000000
vt 1.00000000 0.00000000
vt 1.00000000 1.00000000
vt 0.00000000 1.00000000
vt 0.00000000 0.00000000
vt 1.00000000 0.00000000
vt 1.00000000 1.00000000
vt 0.00000000 1.00000000
vt 0.00000000 0.00000000
vt 1.00000000 0.00000000
vt 1.00000000 1.00000000
vt 0.00000000 1.00000000
vt 0.00000000 0.00000000
vt 1.00000000 0.00000000
vt 1.00000000 1.00000000
vt 0.00000000 1.00000000
vt 0.00000000 0.00000000
vt 1.00000000 0.00000000
vt 1.00000000 1.00000000
vt 0.00000000 1.00000000
vt 0.00000000 0.00000000
vt 1.00000000 0.00000000
vt 1.00000000 1.00000000
vt 0.00000000 1.00000000
vt 0.00000000 0.00000000
vt 1.00000000 0.00000000
vt 0.00000000 0.04545455
vt 0.04545455 0.00000000
vt 0.34042531 0.04671878
vt 0.60652229 0.18230196
vt 0.81769804 0.39347771
vt 0.95328122 0.65957469
vt 1.00000000 0.95454545
vt 0.95454545 1.00000000
vt 0.90909091 0.95454545
vt 0.86682154 0.68766714
vt 0.74415104 0.44691274
vt 0.55308726 0.25584896
vt 0.31233286 0.13317846
vt 0.04545455 0.09090909
vt 1.00000000 1.00000000
vt 0.00000000 1.00000000
vt 0.00000000 0.00000000
vt 1.00000000 0.00000000
vt 0.00000000 0.04545455
vt 0.04545455 0.00000000
vt 0.34042531 0.04671878
vt 0.60652229 0.18230196
vt 0.81769804 0.39347771
vt 0.95328122 0.65957469
vt 1.00000000 0.95454545
vt 0.95454545 1.00000000
vt 0.90909091 0.95454545
vt 0.86682154 0.68766714
vt 0.74415104 0.44691274
vt 0.55308726 0.25584896
vt 0.31233286 0.13317846
vt 0.04545455 0.09090909
vn -0.70710678 0.00000000 0.70710678
vn -0.70710678 0.00000000 0.70710678
vn -0.70710678 0.00000000 0.70710678
vn -0.70710678 0.00000000 0.70710678
vn -0.45399050 0.00000000 0.89100652
vn -0.45399050 0.00000000 0.89100652
vn -0.45399050 0.00000000 0.89100652
vn -0.45399050 0.00000000 0.89100652
vn -0.15643447 0.00000000 0.98768834
vn -0.15643447 0.00000000 0.98768834
vn -0.15643447 0.00000000 0.98768834
vn -0.15643447 0.00000000 0.98768834
vn -0.70710678 0.00000000 0.70710678
vn -0.70710678 0.00000000 0.70710678
vn -0.70710678 0.00000000 0.70710678
vn -0.70710678 0.00000000 0.70710678
vn -0.70710678 0.00000000 -0.70710678
vn -0.70710678 0.00000000 -0.70710678
vn -0.70710678 0.00000000 -0.70710678
vn -0.70710678 0.00000000 -0.70710678
vn 0.15643447 0.00000000 -0.98768834
vn 0.15643447 0.00000000 -0.98768834
vn 0.15643447 0.00000000 -0.98768834
vn 0.15643447 0.00000000 -0.98768834
vn 0.45399050 0.00000000 -0.89100652
vn 0.45399050 0.00000000 -0.89100652
vn 0.45399050 0.00000000 -0.89100652
vn 0.45399050 0.00000000 -0.89100652
vn 0.70710678 0.00000000 -0.70710678
vn 0.70710678 0.00000000 -0.70710678
vn 0.70710678 0.00000000 -0.70710678
vn 0.70710678 0.00000000 -0.70710678
vn 0.89100652 0.00000000 -0.45399050
vn 0.89100652 0.00000000 -0.45399050
vn 0.89100652 0.00000000 -0.45399050
vn 0.89100652 0.00000000 -0.45399050
vn 0.98768834 0.00000000 -0.15643447
vn 0.98768834 0.00000000 -0.15643447
vn 0.98768834 0.00000000 -0.15643447
vn 0.98768834 0.00000000 -0.15643447
vn 0.70710678 0.00000000 0.70710678
vn 0.70710678 0.00000000 0.70710678
vn 0.70710678 0.00000000 0.70710678
vn 0.70710678 0.00000000 0.70710678
vn -0.70710678 0.00000000 0.70710678
vn -0.70710678 0.00000000 0.70710678
vn -0.70710678 0.00000000 0.70710678
vn -0.70710678 0.00000000 0.70710678
vn -0.98768834 0.00000000 0.15643447
vn -0.98768834 0.00000000 0.15643447
vn -0.98768834 0.00000000 0.15643447
vn -0.98768834 0.00000000 0.15643447
vn 0.00000000 1.00000000 0.00000000
vn 0.00000000 1.00000000 0.00000000
vn 0.00000000 1.00000000 0.00000000
vn 0.00000000 1.00000000 0.00000000
vn 0.00000000 1.00000000 0.00000000
vn 0.00000000 1.00000000 0.00000000
vn 0.00000000 1.00000000 0.00000000
vn 0.00000000 1.00000000 0.00000000
vn 0.00000000 1.00000000 0.00000000
vn 0.00000000 1.00000000 0.00000000
vn 0.00000000 1.00000000 0.00000000
vn 0.00000000 1.00000000 0.00000000
vn 0.00000000 1.00000000 0.00000000
vn 0.00000000 1.00000000 0.00000000
vn -0.89100652 0.00000000 0.45399050
vn -0.89100652 0.00000000 0.45399050
vn -0.89100652 0.00000000 0.45399050
vn -0.89100652 0.00000000 0.45399050
vn 0.00000000 -1.00000000 0.00000000
vn 0.00000000 -1.00000000 0.00000000
vn 0.00000000 -1.00000000 0.00000000
vn 0.00000000 -1.00000000 0.00000000
vn 0.00000000 -1.00000000 0.00000000
vn 0.00000000 -1.00000000 0.00000000
vn 0.00000000 -1.00000000 0.00000000
vn 0.00000000 -1.00000000 0.00000000
vn 0.00000000 -1.00000000 0.00000000
vn 0.00000000 -1.00000000 0.00000000
vn 0.00000000 -1.00000000 0.00000000
vn 0.00000000 -1.00000000 0.00000000
vn 0.00000000 -1.00000000 0.00000000
vn 0.00000000 -1.00000000 0.00000000
s 1
usemtl Grey
f 4/4/4 3/3/3 1/1/1
f 3/3/3 2/2/2 1/1/1
s 2
f 6/8/8 5/7/7 4/5/5
f 5/7/7 3/6/6 4/5/5
s 3
f 8/12/12 7/11/11 6/9/9
f 7/11/11 5/10/10 6/9/9
s 4
f 10/16/16 9/15/15 8/13/13
f 9/15/15 7/14/14 8/13/13
s 5
f 12/20/20 11/19/19 10/17/17
f 11/19/19 9/18/18 10/17/17
s 6
f 14/24/24 13/23/23 12/21/21
f 13/23/23 11/22/22 12/21/21
s 7
f 16/28/28 15/27/27 14/25/25
f 15/27/27 13/26/26 14/25/25
s 8
f 18/32/32 17/31/31 16/29/29
f 17/31/31 15/30/30 16/29/29
s 9
f 20/36/36 19/35/35 18/33/33
f 19/35/35 17/34/34 18/33/33
s 10
f 22/40/40 21/39/39 20/37/37
f 21/39/39 19/38/38 20/37/37
s 11
f 24/44/44 23/43/43 22/41/41
f 23/43/43 21/42/42 22/41/41
s 12
f 26/48/48 25/47/47 24/45/45
f 25/47/47 23/46/46 24/45/45
s 13
f 28/52/52 27/51/51 26/49/49
f 27/51/51 25/50/50 26/49/49
s 14
f 26/66/66 24/53/53 22/54/54
f 28/65/65 22/54/54 20/55/55
f 20/55/55 18/56/56 1/64/64
f 16/57/57 4/63/63 1/64/64
f 14/58/58 6/62/62 4/63/63
f 12/59/59 8/61/61 6/62/62
f 12/59/59 10/60/60 8/61/61
f 14/58/58 12/59/59 6/62/62
f 16/57/57 14/58/58 4/63/63
f 18/56/56 16/57/57 1/64/64
f 1/64/64 28/65/65 20/55/55
f 28/65/65 26/66/66 22/54/54
s 15
f 1/70/70 2/69/69 28/67/67
f 2/69/69 27/68/68 28/67/67
s 16
f 21/72/72 23/71/71 25/84/84
f 19/73/73 21/72/72 27/83/83
f 2/82/82 17/74/74 19/73/73
f 2/82/82 15/75/75 17/74/74
f 3/81/81 13/76/76 15/75/75
f 5/80/80 11/77/77 13/76/76
f 7/79/79 9/78/78 11/77/77
f 5/80/80 7/79/79 11/77/77
f 3/81/81 5/80/80 13/76/76
f 2/82/82 3/81/81 15/75/75
f 19/73/73 27/83/83 2/82/82
f 21/72/72 25/84/84 27/83/83
