mtllib Wall_Ramped_Half.mtl
o object1
g object1
v -0.50000000 0.00000000 -0.55000000
v -0.55000000 0.00000000 -0.50000000
v -0.55000000 0.50000000 -0.50000000
v -0.50000000 0.50000000 -0.55000000
v -0.50000000 0.00000000 -0.45000000
v 0.50000000 0.00000000 -0.45000000
v -0.50000000 0.50000000 -0.45000000
v 0.50000000 0.00000000 -0.55000000
vt 0.00000000 1.00000000
vt 0.00000000 0.00000000
vt 1.00000000 0.00000000
vt 1.00000000 1.00000000
vt 0.00000000 1.00000000
vt 0.00000000 0.00000000
vt 1.00000000 1.00000000
vt 0.00000000 1.00000000
vt 0.00000000 0.00000000
vt 1.00000000 0.00000000
vt 1.00000000 1.00000000
vt 0.00000000 1.00000000
vt 0.00000000 0.00000000
vt 1.00000000 0.00000000
vt 1.00000000 1.00000000
vt 0.00000000 1.00000000
vt 0.50000000 0.00000000
vt 0.00000000 1.00000000
vt 0.00000000 0.00000000
vt 1.00000000 0.00000000
vt 1.00000000 1.00000000
vt 1.00000000 0.95238095
vt 0.50000000 1.00000000
vt 0.00000000 0.95238095
vt 0.00000000 0.00000000
vt 1.00000000 0.00000000
vn -0.70710678 0.00000000 -0.70710678
vn -0.70710678 0.00000000 -0.70710678
vn -0.70710678 0.00000000 -0.70710678
vn -0.70710678 0.00000000 -0.70710678
vn 0.00000000 0.00000000 1.00000000
vn 0.00000000 0.00000000 1.00000000
vn 0.00000000 0.00000000 1.00000000
vn -0.70710678 0.00000000 0.70710678
vn -0.70710678 0.00000000 0.70710678
vn -0.70710678 0.00000000 0.70710678
vn -0.70710678 0.00000000 0.70710678
vn 0.00000000 0.00000000 -1.00000000
vn 0.00000000 0.00000000 -1.00000000
vn 0.00000000 0.00000000 -1.00000000
vn 0.00000000 1.00000000 0.00000000
vn 0.00000000 1.00000000 0.00000000
vn 0.00000000 1.00000000 0.00000000
vn 0.44721360 0.89442719 -0.00000000
vn 0.44721360 0.89442719 -0.00000000
vn 0.44721360 0.89442719 -0.00000000
vn 0.44721360 0.89442719 -0.00000000
vn 0.00000000 -1.00000000 0.00000000
vn 0.00000000 -1.00000000 0.00000000
vn 0.00000000 -1.00000000 0.00000000
vn 0.00000000 -1.00000000 0.00000000
vn 0.00000000 -1.00000000 0.00000000
s 1
usemtl Green_Stone_-_Dark
f 1/1/1 2/2/2 4/4/4
f 2/2/2 3/3/3 4/4/4
s 2
f 5/5/5 6/6/6 7/7/7
s 3
f 2/8/8 5/9/9 7/10/10
f 2/8/8 7/10/10 3/11/11
s 4
f 8/12/12 1/13/13 4/14/14
s 5
f 3/17/17 7/16/16 4/15/15
s 6
f 8/21/21 4/20/20 6/18/18
f 4/20/20 7/19/19 6/18/18
s 7
f 5/22/22 2/23/23 1/24/24
f 5/22/22 8/25/25 6/26/26
f 5/22/22 1/24/24 8/25/25
