mtllib Wall_Inner_Squared.mtl
o object1
g object1
v -0.50000000 1.00000000 0.45000000
v -0.55000000 1.00000000 0.50000000
v -0.55000000 0.00000000 0.50000000
v -0.50000000 0.00000000 0.45000000
v -0.50000000 0.00000000 0.55000000
v -0.45000000 0.00000000 0.50000000
v -0.50000000 1.00000000 0.55000000
v -0.45000000 1.00000000 0.50000000
vt 1.00000000 0.00000000
vt 1.00000000 1.00000000
vt 0.00000000 1.00000000
vt 0.00000000 0.00000000
vt 0.50000000 1.00000000
vt 0.00000000 0.50000000
vt 0.50000000 0.00000000
vt 1.00000000 0.50000000
vt 1.00000000 0.00000000
vt 1.00000000 1.00000000
vt 0.00000000 1.00000000
vt 0.00000000 0.00000000
vt 1.00000000 0.00000000
vt 1.00000000 1.00000000
vt 0.00000000 1.00000000
vt 0.00000000 0.00000000
vt 0.50000000 1.00000000
vt 0.00000000 0.50000000
vt 0.50000000 0.00000000
vt 1.00000000 0.50000000
vt 1.00000000 0.00000000
vt 1.00000000 1.00000000
vt 0.00000000 1.00000000
vt 0.00000000 0.00000000
vn -0.70710678 0.00000000 -0.70710678
vn -0.70710678 0.00000000 -0.70710678
vn -0.70710678 0.00000000 -0.70710678
vn -0.70710678 0.00000000 -0.70710678
vn 0.00000000 -1.00000000 0.00000000
vn 0.00000000 -1.00000000 0.00000000
vn 0.00000000 -1.00000000 0.00000000
vn 0.00000000 -1.00000000 0.00000000
vn 0.70710678 0.00000000 0.70710678
vn 0.70710678 0.00000000 0.70710678
vn 0.70710678 0.00000000 0.70710678
vn 0.70710678 0.00000000 0.70710678
vn 0.70710678 0.00000000 -0.70710678
vn 0.70710678 0.00000000 -0.70710678
vn 0.70710678 0.00000000 -0.70710678
vn 0.70710678 0.00000000 -0.70710678
vn 0.00000000 1.00000000 0.00000000
vn 0.00000000 1.00000000 0.00000000
vn 0.00000000 1.00000000 0.00000000
vn 0.00000000 1.00000000 0.00000000
vn -0.70710678 0.00000000 0.70710678
vn -0.70710678 0.00000000 0.70710678
vn -0.70710678 0.00000000 0.70710678
vn -0.70710678 0.00000000 0.70710678
s 1
usemtl Green_Stone_-_Dark
f 4/4/4 3/3/3 1/1/1
f 3/3/3 2/2/2 1/1/1
s 2
f 6/7/7 5/6/6 3/5/5
f 4/8/8 6/7/7 3/5/5
s 3
f 5/12/12 6/11/11 7/9/9
f 6/11/11 8/10/10 7/9/9
s 4
f 6/16/16 4/15/15 8/13/13
f 4/15/15 1/14/14 8/13/13
s 5
f 2/17/17 7/18/18 8/19/19
f 2/17/17 8/19/19 1/20/20
s 6
f 3/24/24 5/23/23 2/21/21
f 5/23/23 7/22/22 2/21/21
