mtllib Wall_Base_Inner_Curved.mtl
o object1
g object1
v -0.46909830 0.30000000 0.40489435
v -0.50000000 0.30000000 0.40000000
v -0.50000000 0.00000000 0.40000000
v -0.46909830 0.00000000 0.40489435
v -0.60000000 0.00000000 0.50000000
v -0.50000000 0.00000000 0.60000000
v -0.40000000 0.00000000 0.50000000
v -0.40489435 0.00000000 0.46909830
v -0.41909830 0.00000000 0.44122147
v -0.44122147 0.00000000 0.41909830
v -0.40000000 0.30000000 0.50000000
v -0.40489435 0.30000000 0.46909830
v -0.41909830 0.30000000 0.44122147
v -0.44122147 0.30000000 0.41909830
v -0.60000000 0.30000000 0.50000000
v -0.50000000 0.30000000 0.60000000
vt 1.00000000 0.00000000
vt 1.00000000 1.00000000
vt 0.00000000 1.00000000
vt 0.00000000 0.00000000
vt 0.50000000 1.00000000
vt 0.00000000 0.50000000
vt 0.50000000 0.00000000
vt 0.65450850 0.02447174
vt 0.79389263 0.09549150
vt 0.90450850 0.20610737
vt 0.97552826 0.34549150
vt 1.00000000 0.50000000
vt 1.00000000 0.00000000
vt 1.00000000 1.00000000
vt 0.00000000 1.00000000
vt 0.00000000 0.00000000
vt 1.00000000 0.00000000
vt 1.00000000 1.00000000
vt 0.00000000 1.00000000
vt 0.00000000 0.00000000
vt 1.00000000 0.00000000
vt 1.00000000 1.00000000
vt 0.00000000 1.00000000
vt 0.00000000 0.00000000
vt 1.00000000 0.00000000
vt 1.00000000 1.00000000
vt 0.00000000 1.00000000
vt 0.00000000 0.00000000
vt 1.00000000 0.00000000
vt 1.00000000 1.00000000
vt 0.00000000 1.00000000
vt 0.00000000 0.00000000
vt 1.00000000 0.00000000
vt 1.00000000 1.00000000
vt 0.00000000 1.00000000
vt 0.00000000 0.00000000
vt 0.50000000 1.00000000
vt 0.00000000 0.50000000
vt 0.50000000 0.00000000
vt 0.65450850 0.02447174
vt 0.79389263 0.09549150
vt 0.90450850 0.20610737
vt 0.97552826 0.34549150
vt 1.00000000 0.50000000
vt 1.00000000 0.00000000
vt 1.00000000 1.00000000
vt 0.00000000 1.00000000
vt 0.00000000 0.00000000
vn 0.15643447 0.00000000 -0.98768834
vn 0.15643447 0.00000000 -0.98768834
vn 0.15643447 0.00000000 -0.98768834
vn 0.15643447 0.00000000 -0.98768834
vn 0.00000000 -1.00000000 0.00000000
vn 0.00000000 -1.00000000 0.00000000
vn 0.00000000 -1.00000000 0.00000000
vn 0.00000000 -1.00000000 0.00000000
vn 0.00000000 -1.00000000 0.00000000
vn 0.00000000 -1.00000000 0.00000000
vn 0.00000000 -1.00000000 0.00000000
vn 0.00000000 -1.00000000 0.00000000
vn 0.98768834 0.00000000 -0.15643447
vn 0.98768834 0.00000000 -0.15643447
vn 0.98768834 0.00000000 -0.15643447
vn 0.98768834 0.00000000 -0.15643447
vn 0.89100652 0.00000000 -0.45399050
vn 0.89100652 0.00000000 -0.45399050
vn 0.89100652 0.00000000 -0.45399050
vn 0.89100652 0.00000000 -0.45399050
vn 0.70710678 0.00000000 -0.70710678
vn 0.70710678 0.00000000 -0.70710678
vn 0.70710678 0.00000000 -0.70710678
vn 0.70710678 0.00000000 -0.70710678
vn -0.70710678 0.00000000 0.70710678
vn -0.70710678 0.00000000 0.70710678
vn -0.70710678 0.00000000 0.70710678
vn -0.70710678 0.00000000 0.70710678
vn 0.70710678 0.00000000 0.70710678
vn 0.70710678 0.00000000 0.70710678
vn 0.70710678 0.00000000 0.70710678
vn 0.70710678 0.00000000 0.70710678
vn 0.45399050 0.00000000 -0.89100652
vn 0.45399050 0.00000000 -0.89100652
vn 0.45399050 0.00000000 -0.89100652
vn 0.45399050 0.00000000 -0.89100652
vn 0.00000000 1.00000000 0.00000000
vn 0.00000000 1.00000000 0.00000000
vn 0.00000000 1.00000000 0.00000000
vn 0.00000000 1.00000000 0.00000000
vn 0.00000000 1.00000000 0.00000000
vn 0.00000000 1.00000000 0.00000000
vn 0.00000000 1.00000000 0.00000000
vn 0.00000000 1.00000000 0.00000000
vn -0.70710678 0.00000000 -0.70710678
vn -0.70710678 0.00000000 -0.70710678
vn -0.70710678 0.00000000 -0.70710678
vn -0.70710678 0.00000000 -0.70710678
s 1
usemtl Grey
f 4/4/4 3/3/3 1/1/1
f 3/3/3 2/2/2 1/1/1
s 2
f 6/6/6 5/5/5 3/12/12
f 7/7/7 3/12/12 10/10/10
f 10/10/10 9/9/9 8/8/8
f 10/10/10 8/8/8 7/7/7
f 3/12/12 4/11/11 10/10/10
f 7/7/7 6/6/6 3/12/12
s 3
f 7/16/16 8/15/15 11/13/13
f 8/15/15 12/14/14 11/13/13
s 4
f 8/20/20 9/19/19 12/17/17
f 9/19/19 13/18/18 12/17/17
s 5
f 9/24/24 10/23/23 13/21/21
f 10/23/23 14/22/22 13/21/21
s 6
f 5/28/28 6/27/27 15/25/25
f 6/27/27 16/26/26 15/25/25
s 7
f 6/32/32 7/31/31 16/29/29
f 7/31/31 11/30/30 16/29/29
s 8
f 10/36/36 4/35/35 14/33/33
f 4/35/35 1/34/34 14/33/33
s 9
f 2/44/44 15/37/37 16/38/38
f 14/42/42 2/44/44 11/39/39
f 11/39/39 12/40/40 14/42/42
f 12/40/40 13/41/41 14/42/42
f 14/42/42 1/43/43 2/44/44
f 2/44/44 16/38/38 11/39/39
s 10
f 3/48/48 5/47/47 2/45/45
f 5/47/47 15/46/46 2/45/45
