mtllib Wall_Tapered.mtl
o object1
g object1
v -0.55000000 1.00000000 -0.50000000
v -0.50000000 1.00000000 -0.45000000
v -0.50000000 0.00000000 -0.45000000
v -0.55000000 0.00000000 -0.50000000
v 0.55000000 0.00000000 0.06507576
v -0.06507576 0.00000000 -0.55000000
v -0.50000000 0.00000000 -0.55000000
v -0.10649712 0.00000000 -0.45000000
v 0.45000000 0.00000000 0.10649712
v 0.45000000 0.00000000 0.50000000
v 0.50000000 0.00000000 0.55000000
v 0.55000000 0.00000000 0.50000000
v -0.10649712 1.00000000 -0.45000000
v 0.45000000 1.00000000 0.10649712
v 0.45000000 1.00000000 0.50000000
v 0.50000000 1.00000000 0.55000000
v 0.55000000 1.00000000 0.50000000
v 0.55000000 1.00000000 0.06507576
v -0.06507576 1.00000000 -0.55000000
v -0.50000000 1.00000000 -0.55000000
vt 1.00000000 0.00000000
vt 1.00000000 1.00000000
vt 0.00000000 1.00000000
vt 0.00000000 0.00000000
vt 0.44084022 0.00000000
vt 1.00000000 0.55915978
vt 1.00000000 0.95454545
vt 0.95454545 1.00000000
vt 0.90909091 0.95454545
vt 0.90909091 0.59681556
vt 0.40318444 0.09090909
vt 0.04545455 0.09090909
vt 0.00000000 0.04545455
vt 0.04545455 0.00000000
vt 1.00000000 0.00000000
vt 1.00000000 1.00000000
vt 0.00000000 1.00000000
vt 0.00000000 0.00000000
vt 1.00000000 0.00000000
vt 1.00000000 1.00000000
vt 0.00000000 1.00000000
vt 0.00000000 0.00000000
vt 1.00000000 0.00000000
vt 1.00000000 1.00000000
vt 0.00000000 1.00000000
vt 0.00000000 0.00000000
vt 1.00000000 0.00000000
vt 1.00000000 1.00000000
vt 0.00000000 1.00000000
vt 0.00000000 0.00000000
vt 1.00000000 0.00000000
vt 1.00000000 1.00000000
vt 0.00000000 1.00000000
vt 0.00000000 0.00000000
vt 1.00000000 0.00000000
vt 1.00000000 1.00000000
vt 0.00000000 1.00000000
vt 0.00000000 0.00000000
vt 1.00000000 0.00000000
vt 1.00000000 1.00000000
vt 0.00000000 1.00000000
vt 0.00000000 0.00000000
vt 1.00000000 0.00000000
vt 1.00000000 1.00000000
vt 0.00000000 1.00000000
vt 0.00000000 0.00000000
vt 0.44084022 0.00000000
vt 1.00000000 0.55915978
vt 1.00000000 0.95454545
vt 0.95454545 1.00000000
vt 0.90909091 0.95454545
vt 0.90909091 0.59681556
vt 0.40318444 0.09090909
vt 0.04545455 0.09090909
vt 0.00000000 0.04545455
vt 0.04545455 0.00000000
vt 1.00000000 0.00000000
vt 1.00000000 1.00000000
vt 0.00000000 1.00000000
vt 0.00000000 0.00000000
vn -0.70710678 0.00000000 0.70710678
vn -0.70710678 0.00000000 0.70710678
vn -0.70710678 0.00000000 0.70710678
vn -0.70710678 0.00000000 0.70710678
vn 0.00000000 -1.00000000 0.00000000
vn 0.00000000 -1.00000000 0.00000000
vn 0.00000000 -1.00000000 0.00000000
vn 0.00000000 -1.00000000 0.00000000
vn 0.00000000 -1.00000000 0.00000000
vn 0.00000000 -1.00000000 0.00000000
vn 0.00000000 -1.00000000 0.00000000
vn 0.00000000 -1.00000000 0.00000000
vn 0.00000000 -1.00000000 0.00000000
vn 0.00000000 -1.00000000 0.00000000
vn -0.70710678 0.00000000 0.70710678
vn -0.70710678 0.00000000 0.70710678
vn -0.70710678 0.00000000 0.70710678
vn -0.70710678 0.00000000 0.70710678
vn -1.00000000 0.00000000 0.00000000
vn -1.00000000 0.00000000 0.00000000
vn -1.00000000 0.00000000 0.00000000
vn -1.00000000 0.00000000 0.00000000
vn -0.70710678 0.00000000 0.70710678
vn -0.70710678 0.00000000 0.70710678
vn -0.70710678 0.00000000 0.70710678
vn -0.70710678 0.00000000 0.70710678
vn 0.70710678 0.00000000 0.70710678
vn 0.70710678 0.00000000 0.70710678
vn 0.70710678 0.00000000 0.70710678
vn 0.70710678 0.00000000 0.70710678
vn 1.00000000 0.00000000 0.00000000
vn 1.00000000 0.00000000 0.00000000
vn 1.00000000 0.00000000 0.00000000
vn 1.00000000 0.00000000 0.00000000
vn 0.70710678 0.00000000 -0.70710678
vn 0.70710678 0.00000000 -0.70710678
vn 0.70710678 0.00000000 -0.70710678
vn 0.70710678 0.00000000 -0.70710678
vn 0.00000000 0.00000000 -1.00000000
vn 0.00000000 0.00000000 -1.00000000
vn 0.00000000 0.00000000 -1.00000000
vn 0.00000000 0.00000000 -1.00000000
vn -0.70710678 0.00000000 -0.70710678
vn -0.70710678 0.00000000 -0.70710678
vn -0.70710678 0.00000000 -0.70710678
vn -0.70710678 0.00000000 -0.70710678
vn 0.00000000 1.00000000 0.00000000
vn 0.00000000 1.00000000 0.00000000
vn 0.00000000 1.00000000 0.00000000
vn 0.00000000 1.00000000 0.00000000
vn 0.00000000 1.00000000 0.00000000
vn 0.00000000 1.00000000 0.00000000
vn 0.00000000 1.00000000 0.00000000
vn 0.00000000 1.00000000 0.00000000
vn 0.00000000 1.00000000 0.00000000
vn 0.00000000 1.00000000 0.00000000
vn 0.00000000 0.00000000 1.00000000
vn 0.00000000 0.00000000 1.00000000
vn 0.00000000 0.00000000 1.00000000
vn 0.00000000 0.00000000 1.00000000
s 1
usemtl Green_Stone_-_Dark
f 4/4/4 3/3/3 1/1/1
f 3/3/3 2/2/2 1/1/1
s 2
f 12/14/14 11/13/13 10/12/12
f 5/5/5 12/14/14 9/11/11
f 8/10/10 6/6/6 5/5/5
f 8/10/10 7/7/7 6/6/6
f 3/9/9 4/8/8 7/7/7
f 8/10/10 3/9/9 7/7/7
f 5/5/5 9/11/11 8/10/10
f 12/14/14 10/12/12 9/11/11
s 3
f 8/18/18 9/17/17 13/15/15
f 9/17/17 14/16/16 13/15/15
s 4
f 9/22/22 10/21/21 14/19/19
f 10/21/21 15/20/20 14/19/19
s 5
f 10/26/26 11/25/25 15/23/23
f 11/25/25 16/24/24 15/23/23
s 6
f 11/30/30 12/29/29 16/27/27
f 12/29/29 17/28/28 16/27/27
s 7
f 12/34/34 5/33/33 17/31/31
f 5/33/33 18/32/32 17/31/31
s 8
f 5/38/38 6/37/37 18/35/35
f 6/37/37 19/36/36 18/35/35
s 9
f 6/42/42 7/41/41 19/39/39
f 7/41/41 20/40/40 19/39/39
s 10
f 7/46/46 4/45/45 20/43/43
f 4/45/45 1/44/44 20/43/43
s 11
f 15/54/54 16/55/55 17/56/56
f 14/53/53 17/56/56 18/47/47
f 18/47/47 19/48/48 13/52/52
f 20/49/49 2/51/51 13/52/52
f 20/49/49 1/50/50 2/51/51
f 19/48/48 20/49/49 13/52/52
f 13/52/52 14/53/53 18/47/47
f 14/53/53 15/54/54 17/56/56
s 12
f 3/60/60 8/59/59 2/57/57
f 8/59/59 13/58/58 2/57/57
