mtllib Wall_Cell_Doorframe.mtl
o object1
g object1
v -0.50000000 0.90000000 -0.45000000
v -0.45000000 0.90000000 -0.50000000
v -0.45000000 0.25000000 -0.50000000
v -0.50000000 0.25000000 -0.45000000
v -0.50000000 0.90000000 -0.55000000
v -0.55000000 0.90000000 -0.50000000
v -0.55000000 0.25000000 -0.50000000
v -0.50000000 0.25000000 -0.55000000
v -0.30000000 -0.00000000 -0.50000000
v -0.30000000 1.00000000 -0.50000000
v -0.35000000 1.00000000 -0.55000000
v -0.35000000 0.90000000 -0.55000000
v -0.35000000 0.25000000 -0.55000000
v -0.35000000 -0.00000000 -0.55000000
v -0.35000000 0.25000000 -0.45000000
v -0.35000000 0.90000000 -0.45000000
v -0.35000000 1.00000000 -0.45000000
v -0.35000000 -0.00000000 -0.45000000
v -0.40000000 0.90000000 -0.50000000
v -0.40000000 0.25000000 -0.50000000
v -0.50000000 -0.00000000 -0.55000000
v -0.55000000 -0.00000000 -0.50000000
v -0.50000000 -0.00000000 -0.45000000
v -0.50000000 1.00000000 -0.55000000
v -0.50000000 1.00000000 -0.45000000
v -0.55000000 1.00000000 -0.50000000
vt 1.00000000 0.00000000
vt 1.00000000 1.00000000
vt 0.00000000 1.00000000
vt 0.00000000 0.00000000
vt 1.00000000 0.00000000
vt 1.00000000 1.00000000
vt 0.00000000 1.00000000
vt 0.00000000 0.00000000
vt 1.00000000 0.00000000
vt 1.00000000 1.00000000
vt 0.00000000 1.00000000
vt 0.00000000 0.00000000
vt 1.00000000 0.00000000
vt 1.00000000 1.00000000
vt 0.00000000 1.00000000
vt 0.00000000 0.00000000
vt 0.00000000 0.00000000
vt 1.00000000 0.00000000
vt 1.00000000 1.00000000
vt 0.90000000 1.00000000
vt 0.25000000 1.00000000
vt 0.00000000 1.00000000
vt 0.25000000 0.00000000
vt 0.90000000 0.00000000
vt 1.00000000 0.00000000
vt 1.00000000 1.00000000
vt 0.00000000 1.00000000
vt 0.00000000 0.00000000
vt 1.00000000 0.00000000
vt 1.00000000 1.00000000
vt 0.00000000 1.00000000
vt 0.00000000 0.00000000
vt 1.00000000 0.00000000
vt 1.00000000 1.00000000
vt 0.00000000 1.00000000
vt 0.00000000 0.00000000
vt 0.50000000 0.66666667
vt 0.00000000 1.00000000
vt 0.00000000 0.00000000
vt 0.50000000 0.33333333
vt 1.00000000 0.00000000
vt 1.00000000 1.00000000
vt 0.00000000 1.00000000
vt 0.00000000 0.00000000
vt 1.00000000 0.00000000
vt 1.00000000 1.00000000
vt 0.00000000 1.00000000
vt 0.00000000 0.00000000
vt 1.00000000 0.00000000
vt 1.00000000 1.00000000
vt 0.00000000 1.00000000
vt 0.00000000 0.00000000
vt 1.00000000 0.00000000
vt 1.00000000 1.00000000
vt 0.00000000 0.20000000
vt 0.50000000 0.00000000
vt 1.00000000 0.20000000
vt 1.00000000 0.80000000
vt 0.50000000 1.00000000
vt 0.00000000 0.80000000
vt 0.00000000 1.00000000
vt 0.00000000 0.00000000
vt 1.00000000 0.00000000
vt 1.00000000 1.00000000
vt 1.00000000 1.00000000
vt 0.50000000 0.66666667
vt 0.00000000 1.00000000
vt 0.00000000 0.00000000
vt 0.50000000 0.33333333
vt 1.00000000 0.00000000
vt 0.00000000 1.00000000
vt 0.00000000 0.00000000
vt 1.00000000 0.00000000
vt 1.00000000 1.00000000
vt 0.00000000 0.20000000
vt 0.50000000 0.00000000
vt 1.00000000 0.20000000
vt 1.00000000 0.80000000
vt 0.50000000 1.00000000
vt 0.00000000 0.80000000
vt 0.00000000 1.00000000
vt 0.00000000 0.00000000
vt 1.00000000 0.00000000
vt 1.00000000 1.00000000
vt 0.00000000 1.00000000
vt 0.00000000 0.00000000
vt 1.00000000 0.00000000
vt 1.00000000 1.00000000
vt 0.00000000 1.00000000
vt 0.00000000 0.00000000
vt 1.00000000 0.00000000
vt 1.00000000 1.00000000
vn 0.70710678 0.00000000 0.70710678
vn 0.70710678 0.00000000 0.70710678
vn 0.70710678 0.00000000 0.70710678
vn 0.70710678 0.00000000 0.70710678
vn -0.70710678 0.00000000 -0.70710678
vn -0.70710678 0.00000000 -0.70710678
vn -0.70710678 0.00000000 -0.70710678
vn -0.70710678 0.00000000 -0.70710678
vn -0.70710678 0.00000000 0.70710678
vn -0.70710678 0.00000000 0.70710678
vn -0.70710678 0.00000000 0.70710678
vn -0.70710678 0.00000000 0.70710678
vn 0.70710678 0.00000000 -0.70710678
vn 0.70710678 0.00000000 -0.70710678
vn 0.70710678 0.00000000 -0.70710678
vn 0.70710678 0.00000000 -0.70710678
vn 0.70710678 0.00000000 -0.70710678
vn 0.70710678 0.00000000 -0.70710678
vn 0.70710678 0.00000000 -0.70710678
vn 0.70710678 0.00000000 -0.70710678
vn 0.70710678 0.00000000 -0.70710678
vn 0.70710678 0.00000000 -0.70710678
vn 0.70710678 0.00000000 0.70710678
vn 0.70710678 0.00000000 0.70710678
vn 0.70710678 0.00000000 0.70710678
vn 0.70710678 0.00000000 0.70710678
vn 0.70710678 0.00000000 0.70710678
vn 0.70710678 0.00000000 0.70710678
vn -0.70710678 0.00000000 0.70710678
vn -0.70710678 0.00000000 0.70710678
vn -0.70710678 0.00000000 0.70710678
vn -0.70710678 0.00000000 0.70710678
vn -0.70710678 0.00000000 -0.70710678
vn -0.70710678 0.00000000 -0.70710678
vn -0.70710678 0.00000000 -0.70710678
vn -0.70710678 0.00000000 -0.70710678
vn -0.00000000 1.00000000 0.00000000
vn -0.00000000 1.00000000 0.00000000
vn -0.00000000 1.00000000 0.00000000
vn -0.00000000 1.00000000 0.00000000
vn -0.00000000 1.00000000 0.00000000
vn -0.00000000 1.00000000 0.00000000
vn 0.00000000 0.00000000 -1.00000000
vn 0.00000000 0.00000000 -1.00000000
vn 0.00000000 0.00000000 -1.00000000
vn 0.00000000 0.00000000 -1.00000000
vn -0.70710678 0.00000000 -0.70710678
vn -0.70710678 0.00000000 -0.70710678
vn -0.70710678 0.00000000 0.70710678
vn -0.70710678 0.00000000 0.70710678
vn 0.00000000 -1.00000000 0.00000000
vn 0.00000000 -1.00000000 0.00000000
vn 0.00000000 -1.00000000 0.00000000
vn 0.00000000 -1.00000000 0.00000000
vn 0.00000000 -1.00000000 0.00000000
vn 0.00000000 -1.00000000 0.00000000
vn 0.00000000 0.00000000 1.00000000
vn 0.00000000 0.00000000 1.00000000
vn 0.00000000 0.00000000 1.00000000
vn 0.00000000 0.00000000 1.00000000
vn -0.00000000 -1.00000000 0.00000000
vn -0.00000000 -1.00000000 0.00000000
vn -0.00000000 -1.00000000 0.00000000
vn -0.00000000 -1.00000000 0.00000000
vn -0.00000000 -1.00000000 0.00000000
vn -0.00000000 -1.00000000 0.00000000
vn 0.00000000 0.00000000 -1.00000000
vn 0.00000000 0.00000000 -1.00000000
vn 0.00000000 0.00000000 -1.00000000
vn 0.00000000 0.00000000 -1.00000000
vn 0.00000000 1.00000000 0.00000000
vn 0.00000000 1.00000000 0.00000000
vn 0.00000000 1.00000000 0.00000000
vn 0.00000000 1.00000000 0.00000000
vn 0.00000000 1.00000000 0.00000000
vn 0.00000000 1.00000000 0.00000000
vn -0.70710678 0.00000000 0.70710678
vn -0.70710678 0.00000000 0.70710678
vn -0.70710678 0.00000000 -0.70710678
vn -0.70710678 0.00000000 -0.70710678
vn 0.00000000 0.00000000 1.00000000
vn 0.00000000 0.00000000 1.00000000
vn 0.00000000 0.00000000 1.00000000
vn 0.00000000 0.00000000 1.00000000
s 1
usemtl Grey
f 4/4/4 3/3/3 1/1/1
f 3/3/3 2/2/2 1/1/1
s 2
f 8/8/8 7/7/7 5/5/5
f 5/85/5 6/86/6 24/88/80
f 6/86/6 26/87/79 24/88/80
f 21/47/47 22/48/48 7/49/7
f 7/7/7 6/6/6 5/5/5
f 21/47/47 7/49/7 8/50/8
s 3
f 7/12/12 4/11/11 6/9/9
f 6/81/9 1/82/10 26/84/78
f 1/82/10 25/83/77 26/84/78
f 22/51/49 23/52/50 4/53/11
f 4/11/11 1/10/10 6/9/9
f 22/51/49 4/53/11 7/54/12
s 4
f 3/16/16 8/15/15 2/13/13
f 8/15/15 5/14/14 2/13/13
s 5
f 12/20/20 11/19/19 10/18/18
f 13/21/21 10/18/18 9/17/17
f 9/17/17 14/22/22 13/21/21
f 13/21/21 12/20/20 10/18/18
s 6
f 10/26/26 17/25/25 16/24/24
f 9/27/27 10/26/26 15/23/23
f 15/23/23 18/28/28 9/27/27
f 10/26/26 16/24/24 15/23/23
s 7
f 20/32/32 15/31/31 19/29/29
f 15/31/31 16/30/30 19/29/29
s 8
f 13/36/36 20/35/35 12/33/33
f 20/35/35 19/34/34 12/33/33
s 9
f 4/39/39 15/38/38 20/37/37
f 13/42/42 8/41/41 20/37/37
f 8/41/41 3/40/40 20/37/37
f 3/40/40 4/39/39 20/37/37
s 10
f 14/43/43 21/44/44 13/46/46
f 21/44/44 8/45/45 13/46/46
s 11
f 23/55/51 22/56/52 21/57/53
f 21/57/53 14/58/54 18/60/56
f 14/58/54 9/59/55 18/60/56
f 18/60/56 23/55/51 21/57/53
s 12
f 23/61/57 18/62/58 4/64/60
f 18/62/58 15/63/59 4/64/60
s 13
f 5/70/66 12/65/61 19/66/62
f 19/66/62 16/67/63 1/68/64
f 1/68/64 2/69/65 19/66/62
f 2/69/65 5/70/66 19/66/62
s 14
f 12/71/67 5/72/68 11/74/70
f 5/72/68 24/73/69 11/74/70
s 15
f 24/77/73 26/76/72 25/75/71
f 17/80/76 11/78/74 24/77/73
f 17/80/76 10/79/75 11/78/74
f 24/77/73 25/75/71 17/80/76
s 16
f 1/89/81 16/90/82 25/92/84
f 16/90/82 17/91/83 25/92/84
o object2
g object2
v 0.55000000 0.90000000 -0.50000000
v 0.50000000 0.90000000 -0.55000000
v 0.50000000 0.25000000 -0.55000000
v 0.55000000 0.25000000 -0.50000000
v 0.45000000 0.90000000 -0.50000000
v 0.50000000 0.90000000 -0.45000000
v 0.50000000 0.25000000 -0.45000000
v 0.45000000 0.25000000 -0.50000000
v 0.40000000 0.90000000 -0.50000000
v 0.35000000 0.90000000 -0.55000000
v 0.35000000 0.25000000 -0.55000000
v 0.40000000 0.25000000 -0.50000000
v 0.35000000 0.90000000 -0.45000000
v 0.35000000 0.25000000 -0.45000000
v 0.30000000 -0.00000000 -0.50000000
v 0.30000000 1.00000000 -0.50000000
v 0.35000000 1.00000000 -0.45000000
v 0.35000000 -0.00000000 -0.45000000
v 0.55000000 0.00000000 -0.50000000
v 0.50000000 0.00000000 -0.55000000
v 0.50000000 0.00000000 -0.45000000
v 0.35000000 1.00000000 -0.55000000
v 0.35000000 -0.00000000 -0.55000000
v 0.50000000 1.00000000 -0.55000000
v 0.55000000 1.00000000 -0.50000000
v 0.50000000 1.00000000 -0.45000000
vt 1.00000000 0.00000000
vt 1.00000000 1.00000000
vt 0.00000000 1.00000000
vt 0.00000000 0.00000000
vt 1.00000000 0.00000000
vt 1.00000000 1.00000000
vt 0.00000000 1.00000000
vt 0.00000000 0.00000000
vt 1.00000000 0.00000000
vt 1.00000000 1.00000000
vt 0.00000000 1.00000000
vt 0.00000000 0.00000000
vt 1.00000000 0.00000000
vt 1.00000000 1.00000000
vt 0.00000000 1.00000000
vt 0.00000000 0.00000000
vt 1.00000000 0.00000000
vt 1.00000000 1.00000000
vt 0.00000000 1.00000000
vt 0.00000000 0.00000000
vt 1.00000000 0.00000000
vt 1.00000000 1.00000000
vt 0.00000000 1.00000000
vt 0.00000000 0.00000000
vt 0.00000000 0.00000000
vt 1.00000000 0.00000000
vt 1.00000000 1.00000000
vt 0.90000000 1.00000000
vt 0.25000000 1.00000000
vt 0.00000000 1.00000000
vt 0.00000000 1.00000000
vt 0.00000000 0.00000000
vt 1.00000000 0.00000000
vt 1.00000000 1.00000000
vt 0.00000000 1.00000000
vt 0.00000000 0.00000000
vt 1.00000000 0.00000000
vt 1.00000000 1.00000000
vt 0.00000000 1.00000000
vt 0.00000000 0.00000000
vt 1.00000000 0.00000000
vt 1.00000000 1.00000000
vt 0.00000000 0.00000000
vt 1.00000000 0.00000000
vt 1.00000000 1.00000000
vt 0.90000000 1.00000000
vt 0.25000000 1.00000000
vt 0.00000000 1.00000000
vt 0.00000000 0.00000000
vt 0.50000000 0.33333333
vt 1.00000000 0.00000000
vt 1.00000000 1.00000000
vt 0.50000000 0.66666667
vt 0.00000000 1.00000000
vt 0.00000000 1.00000000
vt 0.00000000 0.00000000
vt 1.00000000 0.00000000
vt 1.00000000 1.00000000
vt 1.00000000 0.20000000
vt 1.00000000 0.80000000
vt 0.50000000 1.00000000
vt 0.00000000 0.80000000
vt 0.00000000 0.20000000
vt 0.50000000 0.00000000
vt 0.00000000 1.00000000
vt 0.00000000 0.00000000
vt 1.00000000 0.00000000
vt 1.00000000 1.00000000
vt 0.00000000 1.00000000
vt 0.00000000 0.00000000
vt 1.00000000 0.00000000
vt 1.00000000 1.00000000
vt 0.00000000 1.00000000
vt 0.00000000 0.00000000
vt 1.00000000 0.00000000
vt 1.00000000 1.00000000
vt 0.00000000 0.00000000
vt 0.50000000 0.33333333
vt 1.00000000 0.00000000
vt 1.00000000 1.00000000
vt 0.50000000 0.66666667
vt 0.00000000 1.00000000
vt 1.00000000 0.20000000
vt 1.00000000 0.80000000
vt 0.50000000 1.00000000
vt 0.00000000 0.80000000
vt 0.00000000 0.20000000
vt 0.50000000 0.00000000
vt 0.00000000 1.00000000
vt 0.00000000 0.00000000
vt 1.00000000 0.00000000
vt 1.00000000 1.00000000
vn 0.70710678 0.00000000 -0.70710678
vn 0.70710678 0.00000000 -0.70710678
vn 0.70710678 0.00000000 -0.70710678
vn 0.70710678 0.00000000 -0.70710678
vn -0.70710678 0.00000000 0.70710678
vn -0.70710678 0.00000000 0.70710678
vn -0.70710678 0.00000000 0.70710678
vn -0.70710678 0.00000000 0.70710678
vn 0.70710678 0.00000000 0.70710678
vn 0.70710678 0.00000000 0.70710678
vn 0.70710678 0.00000000 0.70710678
vn 0.70710678 0.00000000 0.70710678
vn -0.70710678 0.00000000 -0.70710678
vn -0.70710678 0.00000000 -0.70710678
vn -0.70710678 0.00000000 -0.70710678
vn -0.70710678 0.00000000 -0.70710678
vn 0.70710678 0.00000000 -0.70710678
vn 0.70710678 0.00000000 -0.70710678
vn 0.70710678 0.00000000 -0.70710678
vn 0.70710678 0.00000000 -0.70710678
vn 0.70710678 0.00000000 0.70710678
vn 0.70710678 0.00000000 0.70710678
vn 0.70710678 0.00000000 0.70710678
vn 0.70710678 0.00000000 0.70710678
vn -0.70710678 0.00000000 0.70710678
vn -0.70710678 0.00000000 0.70710678
vn -0.70710678 0.00000000 0.70710678
vn -0.70710678 0.00000000 0.70710678
vn -0.70710678 0.00000000 0.70710678
vn -0.70710678 0.00000000 0.70710678
vn 0.70710678 -0.00000000 -0.70710678
vn 0.70710678 -0.00000000 -0.70710678
vn 0.70710678 -0.00000000 0.70710678
vn 0.70710678 -0.00000000 0.70710678
vn 0.00000000 0.00000000 1.00000000
vn 0.00000000 0.00000000 1.00000000
vn 0.00000000 0.00000000 1.00000000
vn 0.00000000 0.00000000 1.00000000
vn -0.70710678 0.00000000 -0.70710678
vn -0.70710678 0.00000000 -0.70710678
vn -0.70710678 0.00000000 -0.70710678
vn -0.70710678 0.00000000 -0.70710678
vn -0.70710678 0.00000000 -0.70710678
vn -0.70710678 0.00000000 -0.70710678
vn -0.00000000 1.00000000 0.00000000
vn -0.00000000 1.00000000 0.00000000
vn -0.00000000 1.00000000 0.00000000
vn -0.00000000 1.00000000 0.00000000
vn -0.00000000 1.00000000 0.00000000
vn -0.00000000 1.00000000 0.00000000
vn 0.00000000 0.00000000 -1.00000000
vn 0.00000000 0.00000000 -1.00000000
vn 0.00000000 0.00000000 -1.00000000
vn 0.00000000 0.00000000 -1.00000000
vn 0.00000000 -1.00000000 0.00000000
vn 0.00000000 -1.00000000 0.00000000
vn 0.00000000 -1.00000000 0.00000000
vn 0.00000000 -1.00000000 0.00000000
vn 0.00000000 -1.00000000 0.00000000
vn 0.00000000 -1.00000000 0.00000000
vn 0.70710678 0.00000000 -0.70710678
vn 0.70710678 0.00000000 -0.70710678
vn 0.70710678 0.00000000 0.70710678
vn 0.70710678 0.00000000 0.70710678
vn 0.00000000 0.00000000 1.00000000
vn 0.00000000 0.00000000 1.00000000
vn 0.00000000 0.00000000 1.00000000
vn 0.00000000 0.00000000 1.00000000
vn 0.00000000 -1.00000000 0.00000000
vn 0.00000000 -1.00000000 0.00000000
vn 0.00000000 -1.00000000 0.00000000
vn 0.00000000 -1.00000000 0.00000000
vn 0.00000000 -1.00000000 0.00000000
vn 0.00000000 -1.00000000 0.00000000
vn 0.00000000 1.00000000 0.00000000
vn 0.00000000 1.00000000 0.00000000
vn 0.00000000 1.00000000 0.00000000
vn 0.00000000 1.00000000 0.00000000
vn 0.00000000 1.00000000 0.00000000
vn 0.00000000 1.00000000 0.00000000
vn 0.00000000 0.00000000 -1.00000000
vn 0.00000000 0.00000000 -1.00000000
vn 0.00000000 0.00000000 -1.00000000
vn 0.00000000 0.00000000 -1.00000000
s 1
usemtl Grey
f 30/96/88 29/95/87 27/93/85
f 27/157/85 50/159/145 51/160/146
f 27/157/85 28/158/86 50/159/145
f 29/95/87 28/94/86 27/93/85
f 46/124/116 29/125/87 30/126/88
f 45/123/115 46/124/116 30/126/88
s 2
f 34/100/92 33/99/91 31/97/89
f 33/99/91 32/98/90 31/97/89
s 3
f 33/104/96 30/103/95 32/101/93
f 32/161/93 51/163/147 52/164/148
f 32/161/93 27/162/94 51/163/147
f 30/103/95 27/102/94 32/101/93
f 45/128/118 30/129/95 33/130/96
f 47/127/117 45/128/118 33/130/96
s 4
f 29/108/100 34/107/99 28/105/97
f 34/107/99 31/106/98 28/105/97
s 5
f 38/112/104 37/111/103 35/109/101
f 37/111/103 36/110/102 35/109/101
s 6
f 40/116/108 38/115/107 39/113/105
f 38/115/107 35/114/106 39/113/105
s 7
f 39/120/112 43/119/111 42/118/110
f 40/121/113 42/118/110 41/117/109
f 41/117/109 44/122/114 40/121/113
f 40/121/113 39/120/112 42/118/110
s 8
f 44/131/119 47/132/120 40/134/122
f 47/132/120 33/133/121 40/134/122
s 9
f 42/136/124 48/137/125 36/138/126
f 41/135/123 42/136/124 37/139/127
f 37/139/127 49/140/128 41/135/123
f 42/136/124 36/138/126 37/139/127
s 10
f 34/145/133 29/144/132 37/143/131
f 33/146/134 34/145/133 40/141/129
f 34/145/133 38/142/130 40/141/129
f 34/145/133 37/143/131 38/142/130
s 11
f 46/147/135 49/148/136 29/150/138
f 49/148/136 37/149/137 29/150/138
s 12
f 46/152/140 45/153/141 47/154/142
f 46/152/140 47/154/142 44/155/143
f 44/155/143 41/156/144 49/151/139
f 44/155/143 49/151/139 46/152/140
s 13
f 39/165/149 32/166/150 43/168/152
f 32/166/150 52/167/151 43/168/152
s 14
f 36/171/155 28/172/156 31/173/157
f 39/169/153 31/173/157 32/174/158
f 39/169/153 35/170/154 31/173/157
f 35/170/154 36/171/155 31/173/157
s 15
f 52/178/162 51/177/161 50/176/160
f 50/176/160 48/175/159 43/179/163
f 48/175/159 42/180/164 43/179/163
f 43/179/163 52/178/162 50/176/160
s 16
f 28/181/165 36/182/166 50/184/168
f 36/182/166 48/183/167 50/184/168
