mtllib Wall_Top_Tapered.mtl
o object1
g object1
v 0.60000000 1.05000000 0.04436508
v -0.04436508 1.05000000 -0.60000000
v -0.04436508 0.95000000 -0.60000000
v 0.60000000 0.95000000 0.04436508
v -0.50000000 0.95000000 -0.60000000
v -0.60000000 0.95000000 -0.50000000
v -0.50000000 0.95000000 -0.40000000
v -0.12720779 0.95000000 -0.40000000
v 0.40000000 0.95000000 0.12720779
v 0.40000000 0.95000000 0.50000000
v 0.50000000 0.95000000 0.60000000
v 0.60000000 0.95000000 0.50000000
v -0.50000000 1.05000000 -0.60000000
v -0.60000000 1.05000000 -0.50000000
v -0.50000000 1.05000000 -0.40000000
v -0.12720779 1.05000000 -0.40000000
v 0.40000000 1.05000000 0.12720779
v 0.40000000 1.05000000 0.50000000
v 0.50000000 1.05000000 0.60000000
v 0.60000000 1.05000000 0.50000000
vt 1.00000000 0.00000000
vt 1.00000000 1.00000000
vt 0.00000000 1.00000000
vt 0.00000000 0.00000000
vt 0.46302910 0.00000000
vt 1.00000000 0.53697090
vt 1.00000000 0.91666667
vt 0.91666667 1.00000000
vt 0.83333333 0.91666667
vt 0.83333333 0.60600649
vt 0.39399351 0.16666667
vt 0.08333333 0.16666667
vt 0.00000000 0.08333333
vt 0.08333333 0.00000000
vt 1.00000000 0.00000000
vt 1.00000000 1.00000000
vt 0.00000000 1.00000000
vt 0.00000000 0.00000000
vt 1.00000000 0.00000000
vt 1.00000000 1.00000000
vt 0.00000000 1.00000000
vt 0.00000000 0.00000000
vt 1.00000000 0.00000000
vt 1.00000000 1.00000000
vt 0.00000000 1.00000000
vt 0.00000000 0.00000000
vt 1.00000000 0.00000000
vt 1.00000000 1.00000000
vt 0.00000000 1.00000000
vt 0.00000000 0.00000000
vt 1.00000000 0.00000000
vt 1.00000000 1.00000000
vt 0.00000000 1.00000000
vt 0.00000000 0.00000000
vt 1.00000000 0.00000000
vt 1.00000000 1.00000000
vt 0.00000000 1.00000000
vt 0.00000000 0.00000000
vt 1.00000000 0.00000000
vt 1.00000000 1.00000000
vt 0.00000000 1.00000000
vt 0.00000000 0.00000000
vt 1.00000000 0.00000000
vt 1.00000000 1.00000000
vt 0.00000000 1.00000000
vt 0.00000000 0.00000000
vt 0.46302910 0.00000000
vt 1.00000000 0.53697090
vt 1.00000000 0.91666667
vt 0.91666667 1.00000000
vt 0.83333333 0.91666667
vt 0.83333333 0.60600649
vt 0.39399351 0.16666667
vt 0.08333333 0.16666667
vt 0.00000000 0.08333333
vt 0.08333333 0.00000000
vt 1.00000000 0.00000000
vt 1.00000000 1.00000000
vt 0.00000000 1.00000000
vt 0.00000000 0.00000000
vn 0.70710678 -0.00000000 -0.70710678
vn 0.70710678 -0.00000000 -0.70710678
vn 0.70710678 -0.00000000 -0.70710678
vn 0.70710678 -0.00000000 -0.70710678
vn 0.00000000 -1.00000000 -0.00000000
vn 0.00000000 -1.00000000 -0.00000000
vn 0.00000000 -1.00000000 -0.00000000
vn 0.00000000 -1.00000000 -0.00000000
vn 0.00000000 -1.00000000 -0.00000000
vn 0.00000000 -1.00000000 -0.00000000
vn 0.00000000 -1.00000000 -0.00000000
vn 0.00000000 -1.00000000 -0.00000000
vn 0.00000000 -1.00000000 -0.00000000
vn 0.00000000 -1.00000000 -0.00000000
vn -0.70710678 0.00000000 -0.70710678
vn -0.70710678 0.00000000 -0.70710678
vn -0.70710678 0.00000000 -0.70710678
vn -0.70710678 0.00000000 -0.70710678
vn -0.70710678 0.00000000 0.70710678
vn -0.70710678 0.00000000 0.70710678
vn -0.70710678 0.00000000 0.70710678
vn -0.70710678 0.00000000 0.70710678
vn 0.00000000 0.00000000 1.00000000
vn 0.00000000 0.00000000 1.00000000
vn 0.00000000 0.00000000 1.00000000
vn 0.00000000 0.00000000 1.00000000
vn -0.70710678 0.00000000 0.70710678
vn -0.70710678 0.00000000 0.70710678
vn -0.70710678 0.00000000 0.70710678
vn -0.70710678 0.00000000 0.70710678
vn -1.00000000 0.00000000 -0.00000000
vn -1.00000000 0.00000000 -0.00000000
vn -1.00000000 0.00000000 -0.00000000
vn -1.00000000 0.00000000 -0.00000000
vn -0.70710678 0.00000000 0.70710678
vn -0.70710678 0.00000000 0.70710678
vn -0.70710678 0.00000000 0.70710678
vn -0.70710678 0.00000000 0.70710678
vn 0.70710678 -0.00000000 0.70710678
vn 0.70710678 -0.00000000 0.70710678
vn 0.70710678 -0.00000000 0.70710678
vn 0.70710678 -0.00000000 0.70710678
vn 1.00000000 -0.00000000 -0.00000000
vn 1.00000000 -0.00000000 -0.00000000
vn 1.00000000 -0.00000000 -0.00000000
vn 1.00000000 -0.00000000 -0.00000000
vn -0.00000000 1.00000000 0.00000000
vn -0.00000000 1.00000000 0.00000000
vn -0.00000000 1.00000000 0.00000000
vn -0.00000000 1.00000000 0.00000000
vn -0.00000000 1.00000000 0.00000000
vn -0.00000000 1.00000000 0.00000000
vn -0.00000000 1.00000000 0.00000000
vn -0.00000000 1.00000000 0.00000000
vn -0.00000000 1.00000000 0.00000000
vn -0.00000000 1.00000000 0.00000000
vn 0.00000000 0.00000000 -1.00000000
vn 0.00000000 0.00000000 -1.00000000
vn 0.00000000 0.00000000 -1.00000000
vn 0.00000000 0.00000000 -1.00000000
s 1
usemtl Grey
f 4/4/4 3/3/3 2/2/2
f 4/4/4 2/2/2 1/1/1
s 2
f 12/14/14 11/13/13 10/12/12
f 4/5/5 12/14/14 9/11/11
f 8/10/10 3/6/6 4/5/5
f 8/10/10 5/7/7 3/6/6
f 7/9/9 6/8/8 5/7/7
f 8/10/10 7/9/9 5/7/7
f 4/5/5 9/11/11 8/10/10
f 12/14/14 10/12/12 9/11/11
s 3
f 5/18/18 6/17/17 14/16/16
f 5/18/18 14/16/16 13/15/15
s 4
f 6/22/22 7/21/21 15/20/20
f 6/22/22 15/20/20 14/19/19
s 5
f 7/26/26 8/25/25 15/23/23
f 8/25/25 16/24/24 15/23/23
s 6
f 8/30/30 9/29/29 17/28/28
f 8/30/30 17/28/28 16/27/27
s 7
f 9/34/34 10/33/33 18/32/32
f 9/34/34 18/32/32 17/31/31
s 8
f 10/38/38 11/37/37 19/36/36
f 10/38/38 19/36/36 18/35/35
s 9
f 11/42/42 12/41/41 20/40/40
f 11/42/42 20/40/40 19/39/39
s 10
f 12/46/46 4/45/45 1/44/44
f 12/46/46 1/44/44 20/43/43
s 11
f 18/54/54 19/55/55 20/56/56
f 17/53/53 20/56/56 1/47/47
f 1/47/47 2/48/48 16/52/52
f 13/49/49 15/51/51 16/52/52
f 13/49/49 14/50/50 15/51/51
f 2/48/48 13/49/49 16/52/52
f 16/52/52 17/53/53 1/47/47
f 17/53/53 18/54/54 20/56/56
s 12
f 3/60/60 5/59/59 13/58/58
f 3/60/60 13/58/58 2/57/57
