mtllib Wall_Inner_Curved.mtl
o object1
g object1
v -0.45244717 1.00000000 0.48454915
v -0.45954915 1.00000000 0.47061074
v -0.45954915 0.00000000 0.47061074
v -0.45244717 0.00000000 0.48454915
v -0.55000000 0.00000000 0.50000000
v -0.50000000 0.00000000 0.55000000
v -0.45000000 0.00000000 0.50000000
v -0.47061074 0.00000000 0.45954915
v -0.48454915 0.00000000 0.45244717
v -0.50000000 0.00000000 0.45000000
v -0.47061074 1.00000000 0.45954915
v -0.48454915 1.00000000 0.45244717
v -0.50000000 1.00000000 0.45000000
v -0.55000000 1.00000000 0.50000000
v -0.50000000 1.00000000 0.55000000
v -0.45000000 1.00000000 0.50000000
vt 1.00000000 0.00000000
vt 1.00000000 1.00000000
vt 0.00000000 1.00000000
vt 0.00000000 0.00000000
vt 0.50000000 1.00000000
vt 0.00000000 0.50000000
vt 0.50000000 0.00000000
vt 0.65450850 0.02447174
vt 0.79389263 0.09549150
vt 0.90450850 0.20610737
vt 0.97552826 0.34549150
vt 1.00000000 0.50000000
vt 1.00000000 0.00000000
vt 1.00000000 1.00000000
vt 0.00000000 1.00000000
vt 0.00000000 0.00000000
vt 1.00000000 0.00000000
vt 1.00000000 1.00000000
vt 0.00000000 1.00000000
vt 0.00000000 0.00000000
vt 1.00000000 0.00000000
vt 1.00000000 1.00000000
vt 0.00000000 1.00000000
vt 0.00000000 0.00000000
vt 1.00000000 0.00000000
vt 1.00000000 1.00000000
vt 0.00000000 1.00000000
vt 0.00000000 0.00000000
vt 1.00000000 0.00000000
vt 1.00000000 1.00000000
vt 0.00000000 1.00000000
vt 0.00000000 0.00000000
vt 1.00000000 0.00000000
vt 1.00000000 1.00000000
vt 0.00000000 1.00000000
vt 0.00000000 0.00000000
vt 0.50000000 1.00000000
vt 0.00000000 0.50000000
vt 0.50000000 0.00000000
vt 0.65450850 0.02447174
vt 0.79389263 0.09549150
vt 0.90450850 0.20610737
vt 0.97552826 0.34549150
vt 1.00000000 0.50000000
vt 1.00000000 0.00000000
vt 1.00000000 1.00000000
vt 0.00000000 1.00000000
vt 0.00000000 0.00000000
vn 0.89100652 0.00000000 -0.45399050
vn 0.89100652 0.00000000 -0.45399050
vn 0.89100652 0.00000000 -0.45399050
vn 0.89100652 0.00000000 -0.45399050
vn 0.00000000 -1.00000000 0.00000000
vn 0.00000000 -1.00000000 0.00000000
vn 0.00000000 -1.00000000 0.00000000
vn 0.00000000 -1.00000000 0.00000000
vn 0.00000000 -1.00000000 0.00000000
vn 0.00000000 -1.00000000 0.00000000
vn 0.00000000 -1.00000000 0.00000000
vn 0.00000000 -1.00000000 0.00000000
vn 0.45399050 0.00000000 -0.89100652
vn 0.45399050 0.00000000 -0.89100652
vn 0.45399050 0.00000000 -0.89100652
vn 0.45399050 0.00000000 -0.89100652
vn 0.15643447 0.00000000 -0.98768834
vn 0.15643447 0.00000000 -0.98768834
vn 0.15643447 0.00000000 -0.98768834
vn 0.15643447 0.00000000 -0.98768834
vn -0.70710678 0.00000000 -0.70710678
vn -0.70710678 0.00000000 -0.70710678
vn -0.70710678 0.00000000 -0.70710678
vn -0.70710678 0.00000000 -0.70710678
vn -0.70710678 0.00000000 0.70710678
vn -0.70710678 0.00000000 0.70710678
vn -0.70710678 0.00000000 0.70710678
vn -0.70710678 0.00000000 0.70710678
vn 0.70710678 0.00000000 0.70710678
vn 0.70710678 0.00000000 0.70710678
vn 0.70710678 0.00000000 0.70710678
vn 0.70710678 0.00000000 0.70710678
vn 0.98768834 0.00000000 -0.15643447
vn 0.98768834 0.00000000 -0.15643447
vn 0.98768834 0.00000000 -0.15643447
vn 0.98768834 0.00000000 -0.15643447
vn 0.00000000 1.00000000 0.00000000
vn 0.00000000 1.00000000 0.00000000
vn 0.00000000 1.00000000 0.00000000
vn 0.00000000 1.00000000 0.00000000
vn 0.00000000 1.00000000 0.00000000
vn 0.00000000 1.00000000 0.00000000
vn 0.00000000 1.00000000 0.00000000
vn 0.00000000 1.00000000 0.00000000
vn 0.70710678 0.00000000 -0.70710678
vn 0.70710678 0.00000000 -0.70710678
vn 0.70710678 0.00000000 -0.70710678
vn 0.70710678 0.00000000 -0.70710678
s 1
usemtl Green_Stone_-_Dark
f 4/4/4 3/3/3 1/1/1
f 3/3/3 2/2/2 1/1/1
s 2
f 6/6/6 5/5/5 10/12/12
f 10/12/12 4/8/8 7/7/7
f 8/10/10 3/9/9 4/8/8
f 10/12/12 8/10/10 4/8/8
f 10/12/12 9/11/11 8/10/10
f 7/7/7 6/6/6 10/12/12
s 3
f 8/16/16 9/15/15 11/13/13
f 9/15/15 12/14/14 11/13/13
s 4
f 9/20/20 10/19/19 12/17/17
f 10/19/19 13/18/18 12/17/17
s 5
f 10/24/24 5/23/23 13/21/21
f 5/23/23 14/22/22 13/21/21
s 6
f 5/28/28 6/27/27 14/25/25
f 6/27/27 15/26/26 14/25/25
s 7
f 6/32/32 7/31/31 15/29/29
f 7/31/31 16/30/30 15/29/29
s 8
f 7/36/36 4/35/35 16/33/33
f 4/35/35 1/34/34 16/33/33
s 9
f 13/44/44 14/37/37 15/38/38
f 16/39/39 1/40/40 13/44/44
f 1/40/40 2/41/41 11/42/42
f 1/40/40 11/42/42 13/44/44
f 11/42/42 12/43/43 13/44/44
f 13/44/44 15/38/38 16/39/39
s 10
f 3/48/48 8/47/47 2/45/45
f 8/47/47 11/46/46 2/45/45
